<?xml version="1.0" encoding="UTF-8"?>
<svg xmlns="http://www.w3.org/2000/svg" xmlns:xlink="http://www.w3.org/1999/xlink" width="241pt" height="143pt" viewBox="0 0 241 143" version="1.1">
<g id="surface429798">
<path style="fill:none;stroke-width:5.5;stroke-linecap:round;stroke-linejoin:round;stroke:rgb(69.4%,87%,53.7%);stroke-opacity:1;stroke-miterlimit:10;" d="M 312.550781 461.613281 L 312.550781 461.613281 " transform="matrix(1,0,0,-1,-166,539)"/>
<path style="fill:none;stroke-width:5.5;stroke-linecap:round;stroke-linejoin:round;stroke:rgb(69.4%,87%,53.7%);stroke-opacity:1;stroke-miterlimit:10;" d="M 320.359375 464.757813 L 320.359375 464.757813 " transform="matrix(1,0,0,-1,-166,539)"/>
<path style="fill:none;stroke-width:5.5;stroke-linecap:round;stroke-linejoin:round;stroke:rgb(65%,80.3%,88.6%);stroke-opacity:1;stroke-miterlimit:10;" d="M 279.457031 519.113281 L 279.457031 519.113281 " transform="matrix(1,0,0,-1,-166,539)"/>
<path style="fill:none;stroke-width:5.5;stroke-linecap:round;stroke-linejoin:round;stroke:rgb(65%,80.3%,88.6%);stroke-opacity:1;stroke-miterlimit:10;" d="M 275.730469 504.71875 L 275.730469 504.71875 " transform="matrix(1,0,0,-1,-166,539)"/>
<path style="fill:none;stroke-width:5.5;stroke-linecap:round;stroke-linejoin:round;stroke:rgb(65%,80.3%,88.6%);stroke-opacity:1;stroke-miterlimit:10;" d="M 246.980469 498.421875 L 246.980469 498.421875 " transform="matrix(1,0,0,-1,-166,539)"/>
<path style="fill:none;stroke-width:5.5;stroke-linecap:round;stroke-linejoin:round;stroke:rgb(65%,80.3%,88.6%);stroke-opacity:1;stroke-miterlimit:10;" d="M 198.277344 454.039063 L 198.277344 454.039063 " transform="matrix(1,0,0,-1,-166,539)"/>
<path style="fill-rule:nonzero;fill:rgb(65%,80.3%,88.6%);fill-opacity:0.7;stroke-width:5.5;stroke-linecap:round;stroke-linejoin:round;stroke:rgb(65%,80.3%,88.6%);stroke-opacity:1;stroke-miterlimit:10;" d="M 185.824219 470.003906 L 169.03125 422.605469 L 192.175781 424.382813 L 211.316406 431.636719 L 217.375 421.234375 L 242.847656 413.976563 L 239.09375 442.164063 L 254.339844 493.035156 L 264.714844 477.460938 L 259.195313 463.808594 L 268.816406 471.304688 L 301.863281 522.238281 L 373.035156 501.878906 L 366.75 482.363281 L 373.035156 501.878906 L 380.730469 511.21875 L 367.949219 532.078125 L 399 531.179688 L 367.949219 532.078125 L 301.863281 522.238281 L 267.066406 536.019531 L 233.183594 506.640625 L 239.09375 442.164063 Z M 185.824219 470.003906 " transform="matrix(1,0,0,-1,-166,539)"/>
<path style="fill-rule:nonzero;fill:rgb(69.4%,87%,53.7%);fill-opacity:0.7;stroke-width:5.5;stroke-linecap:round;stroke-linejoin:round;stroke:rgb(69.4%,87%,53.7%);stroke-opacity:1;stroke-miterlimit:10;" d="M 230.476563 402.484375 L 272.820313 405.6875 L 243.464844 441.507813 L 256.5625 478.339844 L 243.464844 441.507813 L 262.632813 429.085938 L 301.890625 465.019531 L 353.121094 489.234375 L 356.027344 483.195313 L 350.519531 469.273438 L 315.375 444.289063 L 301.464844 420.277344 L 272.820313 405.6875 Z M 230.476563 402.484375 " transform="matrix(1,0,0,-1,-166,539)"/>
<path style="fill-rule:nonzero;fill:rgb(78.8%,69.4%,83.5%);fill-opacity:0.7;stroke-width:5.5;stroke-linecap:round;stroke-linejoin:round;stroke:rgb(78.8%,69.4%,83.5%);stroke-opacity:1;stroke-miterlimit:10;" d="M 370.605469 471.523438 L 368.269531 441.324219 " transform="matrix(1,0,0,-1,-166,539)"/>
<path style="fill-rule:nonzero;fill:rgb(98.8%,74.5%,43.1%);fill-opacity:0.7;stroke-width:5.5;stroke-linecap:round;stroke-linejoin:round;stroke:rgb(98.8%,74.5%,43.1%);stroke-opacity:1;stroke-miterlimit:10;" d="M 378.007813 430.6875 L 385.566406 419.207031 L 386.574219 409.398438 L 390.433594 408.410156 L 391.441406 407.972656 L 395.171875 418.917969 L 403.886719 442.835938 L 404.167969 456.390625 L 390.429688 521.148438 L 386.515625 439.042969 Z M 378.007813 430.6875 " transform="matrix(1,0,0,-1,-166,539)"/>
<path style="fill:none;stroke-width:5.5;stroke-linecap:round;stroke-linejoin:round;stroke:rgb(98.8%,74.5%,43.1%);stroke-opacity:1;stroke-miterlimit:10;" d="M 270.65625 448.867188 L 306.160156 514.078125 L 326.835938 489.640625 " transform="matrix(1,0,0,-1,-166,539)"/>
<path style="fill:none;stroke-width:5.5;stroke-linecap:round;stroke-linejoin:round;stroke:rgb(98.8%,74.5%,43.1%);stroke-opacity:1;stroke-miterlimit:10;" d="M 218.664063 499.710938 L 228.558594 459.113281 L 232.492188 452.492188 " transform="matrix(1,0,0,-1,-166,539)"/>
<path style="fill:none;stroke-width:5.5;stroke-linecap:round;stroke-linejoin:round;stroke:rgb(65%,80.3%,88.6%);stroke-opacity:1;stroke-miterlimit:10;" d="M 378.511719 426.851563 L 378.511719 426.851563 " transform="matrix(1,0,0,-1,-166,539)"/>
<path style="fill:none;stroke-width:0.4;stroke-linecap:butt;stroke-linejoin:miter;stroke:rgb(0%,0%,0%);stroke-opacity:1;stroke-miterlimit:10;" d="M 386.574219 409.398438 L 390.433594 408.410156 " transform="matrix(1,0,0,-1,-166,539)"/>
<path style="fill:none;stroke-width:0.4;stroke-linecap:butt;stroke-linejoin:miter;stroke:rgb(0%,0%,0%);stroke-opacity:1;stroke-miterlimit:10;" d="M 386.574219 409.398438 L 385.566406 419.207031 " transform="matrix(1,0,0,-1,-166,539)"/>
<path style="fill:none;stroke-width:0.4;stroke-linecap:butt;stroke-linejoin:miter;stroke:rgb(0%,0%,0%);stroke-opacity:1;stroke-miterlimit:10;" d="M 391.441406 407.972656 L 390.433594 408.410156 " transform="matrix(1,0,0,-1,-166,539)"/>
<path style="fill:none;stroke-width:0.4;stroke-linecap:butt;stroke-linejoin:miter;stroke:rgb(0%,0%,0%);stroke-opacity:1;stroke-miterlimit:10;" d="M 386.574219 409.398438 L 395.171875 418.917969 " transform="matrix(1,0,0,-1,-166,539)"/>
<path style="fill:none;stroke-width:0.4;stroke-linecap:butt;stroke-linejoin:miter;stroke:rgb(0%,0%,0%);stroke-opacity:1;stroke-miterlimit:10;" d="M 395.171875 418.917969 L 403.886719 442.832031 " transform="matrix(1,0,0,-1,-166,539)"/>
<path style="fill:none;stroke-width:0.4;stroke-linecap:butt;stroke-linejoin:miter;stroke:rgb(0%,0%,0%);stroke-opacity:1;stroke-miterlimit:10;" d="M 385.566406 419.207031 L 378.007813 430.6875 " transform="matrix(1,0,0,-1,-166,539)"/>
<path style="fill:none;stroke-width:0.4;stroke-linecap:butt;stroke-linejoin:miter;stroke:rgb(0%,0%,0%);stroke-opacity:1;stroke-miterlimit:10;" d="M 385.566406 419.207031 L 404.171875 456.386719 " transform="matrix(1,0,0,-1,-166,539)"/>
<path style="fill:none;stroke-width:0.4;stroke-linecap:butt;stroke-linejoin:miter;stroke:rgb(0%,0%,0%);stroke-opacity:1;stroke-miterlimit:10;" d="M 385.566406 419.207031 L 390.429688 521.148438 " transform="matrix(1,0,0,-1,-166,539)"/>
<path style="fill:none;stroke-width:0.4;stroke-linecap:butt;stroke-linejoin:miter;stroke:rgb(0%,0%,0%);stroke-opacity:1;stroke-miterlimit:10;" d="M 228.558594 459.113281 L 232.492188 452.492188 " transform="matrix(1,0,0,-1,-166,539)"/>
<path style="fill:none;stroke-width:0.4;stroke-linecap:butt;stroke-linejoin:miter;stroke:rgb(0%,0%,0%);stroke-opacity:1;stroke-miterlimit:10;" d="M 270.65625 448.867188 L 306.160156 514.078125 " transform="matrix(1,0,0,-1,-166,539)"/>
<path style="fill:none;stroke-width:0.4;stroke-linecap:butt;stroke-linejoin:miter;stroke:rgb(0%,0%,0%);stroke-opacity:1;stroke-miterlimit:10;" d="M 326.835938 489.636719 L 327.320313 489.527344 " transform="matrix(1,0,0,-1,-166,539)"/>
<path style="fill:none;stroke-width:0.4;stroke-linecap:butt;stroke-linejoin:miter;stroke:rgb(0%,0%,0%);stroke-opacity:1;stroke-miterlimit:10;" d="M 326.835938 489.636719 L 306.160156 514.078125 " transform="matrix(1,0,0,-1,-166,539)"/>
<path style="fill:none;stroke-width:0.4;stroke-linecap:butt;stroke-linejoin:miter;stroke:rgb(0%,0%,0%);stroke-opacity:1;stroke-miterlimit:10;" d="M 262.632813 429.085938 L 301.890625 465.019531 " transform="matrix(1,0,0,-1,-166,539)"/>
<path style="fill:none;stroke-width:0.4;stroke-linecap:butt;stroke-linejoin:miter;stroke:rgb(0%,0%,0%);stroke-opacity:1;stroke-miterlimit:10;" d="M 262.632813 429.085938 L 272.820313 405.6875 " transform="matrix(1,0,0,-1,-166,539)"/>
<path style="fill:none;stroke-width:0.4;stroke-linecap:butt;stroke-linejoin:miter;stroke:rgb(0%,0%,0%);stroke-opacity:1;stroke-miterlimit:10;" d="M 315.375 444.289063 L 320.359375 464.757813 " transform="matrix(1,0,0,-1,-166,539)"/>
<path style="fill:none;stroke-width:0.4;stroke-linecap:butt;stroke-linejoin:miter;stroke:rgb(0%,0%,0%);stroke-opacity:1;stroke-miterlimit:10;" d="M 315.375 444.289063 L 350.519531 469.273438 " transform="matrix(1,0,0,-1,-166,539)"/>
<path style="fill:none;stroke-width:0.4;stroke-linecap:butt;stroke-linejoin:miter;stroke:rgb(0%,0%,0%);stroke-opacity:1;stroke-miterlimit:10;" d="M 315.375 444.289063 L 301.464844 420.277344 " transform="matrix(1,0,0,-1,-166,539)"/>
<path style="fill:none;stroke-width:0.4;stroke-linecap:butt;stroke-linejoin:miter;stroke:rgb(0%,0%,0%);stroke-opacity:1;stroke-miterlimit:10;" d="M 312.550781 461.613281 L 301.890625 465.019531 " transform="matrix(1,0,0,-1,-166,539)"/>
<path style="fill:none;stroke-width:0.4;stroke-linecap:butt;stroke-linejoin:miter;stroke:rgb(0%,0%,0%);stroke-opacity:1;stroke-miterlimit:10;" d="M 312.550781 461.613281 L 320.359375 464.757813 " transform="matrix(1,0,0,-1,-166,539)"/>
<path style="fill:none;stroke-width:0.4;stroke-linecap:butt;stroke-linejoin:miter;stroke:rgb(0%,0%,0%);stroke-opacity:1;stroke-miterlimit:10;" d="M 301.890625 465.019531 L 353.121094 489.234375 " transform="matrix(1,0,0,-1,-166,539)"/>
<path style="fill:none;stroke-width:0.4;stroke-linecap:butt;stroke-linejoin:miter;stroke:rgb(0%,0%,0%);stroke-opacity:1;stroke-miterlimit:10;" d="M 315.375 444.289063 L 356.027344 483.195313 " transform="matrix(1,0,0,-1,-166,539)"/>
<path style="fill:none;stroke-width:0.4;stroke-linecap:butt;stroke-linejoin:miter;stroke:rgb(0%,0%,0%);stroke-opacity:1;stroke-miterlimit:10;" d="M 368.269531 441.324219 L 370.605469 471.523438 " transform="matrix(1,0,0,-1,-166,539)"/>
<path style="fill:none;stroke-width:0.4;stroke-linecap:butt;stroke-linejoin:miter;stroke:rgb(0%,0%,0%);stroke-opacity:1;stroke-miterlimit:10;" d="M 198.277344 454.039063 L 185.824219 470 " transform="matrix(1,0,0,-1,-166,539)"/>
<path style="fill:none;stroke-width:0.4;stroke-linecap:butt;stroke-linejoin:miter;stroke:rgb(0%,0%,0%);stroke-opacity:1;stroke-miterlimit:10;" d="M 198.277344 454.039063 L 192.175781 424.382813 " transform="matrix(1,0,0,-1,-166,539)"/>
<path style="fill:none;stroke-width:0.4;stroke-linecap:butt;stroke-linejoin:miter;stroke:rgb(0%,0%,0%);stroke-opacity:1;stroke-miterlimit:10;" d="M 198.277344 454.039063 L 169.03125 422.605469 " transform="matrix(1,0,0,-1,-166,539)"/>
<path style="fill:none;stroke-width:0.4;stroke-linecap:butt;stroke-linejoin:miter;stroke:rgb(0%,0%,0%);stroke-opacity:1;stroke-miterlimit:10;" d="M 259.195313 463.808594 L 268.816406 471.304688 " transform="matrix(1,0,0,-1,-166,539)"/>
<path style="fill:none;stroke-width:0.4;stroke-linecap:butt;stroke-linejoin:miter;stroke:rgb(0%,0%,0%);stroke-opacity:1;stroke-miterlimit:10;" d="M 268.816406 471.304688 L 275.730469 504.71875 " transform="matrix(1,0,0,-1,-166,539)"/>
<path style="fill:none;stroke-width:0.4;stroke-linecap:butt;stroke-linejoin:miter;stroke:rgb(0%,0%,0%);stroke-opacity:1;stroke-miterlimit:10;" d="M 268.816406 471.304688 L 254.339844 493.035156 " transform="matrix(1,0,0,-1,-166,539)"/>
<path style="fill:none;stroke-width:0.4;stroke-linecap:butt;stroke-linejoin:miter;stroke:rgb(0%,0%,0%);stroke-opacity:1;stroke-miterlimit:10;" d="M 268.816406 471.304688 L 301.863281 522.238281 " transform="matrix(1,0,0,-1,-166,539)"/>
<path style="fill:none;stroke-width:0.4;stroke-linecap:butt;stroke-linejoin:miter;stroke:rgb(0%,0%,0%);stroke-opacity:1;stroke-miterlimit:10;" d="M 254.339844 493.035156 L 246.980469 498.421875 " transform="matrix(1,0,0,-1,-166,539)"/>
<path style="fill:none;stroke-width:0.4;stroke-linecap:butt;stroke-linejoin:miter;stroke:rgb(0%,0%,0%);stroke-opacity:1;stroke-miterlimit:10;" d="M 246.980469 498.421875 L 233.183594 506.640625 " transform="matrix(1,0,0,-1,-166,539)"/>
<path style="fill:none;stroke-width:0.4;stroke-linecap:butt;stroke-linejoin:miter;stroke:rgb(0%,0%,0%);stroke-opacity:1;stroke-miterlimit:10;" d="M 233.183594 506.640625 L 267.066406 536.019531 " transform="matrix(1,0,0,-1,-166,539)"/>
<path style="fill:none;stroke-width:0.4;stroke-linecap:butt;stroke-linejoin:miter;stroke:rgb(0%,0%,0%);stroke-opacity:1;stroke-miterlimit:10;" d="M 254.339844 493.035156 L 279.457031 519.113281 " transform="matrix(1,0,0,-1,-166,539)"/>
<path style="fill:none;stroke-width:0.4;stroke-linecap:butt;stroke-linejoin:miter;stroke:rgb(0%,0%,0%);stroke-opacity:1;stroke-miterlimit:10;" d="M 301.863281 522.238281 L 367.949219 532.078125 " transform="matrix(1,0,0,-1,-166,539)"/>
<path style="fill:none;stroke-width:0.4;stroke-linecap:butt;stroke-linejoin:miter;stroke:rgb(0%,0%,0%);stroke-opacity:1;stroke-miterlimit:10;" d="M 366.75 482.363281 L 373.035156 501.878906 " transform="matrix(1,0,0,-1,-166,539)"/>
<path style="fill:none;stroke-width:0.4;stroke-linecap:butt;stroke-linejoin:miter;stroke:rgb(0%,0%,0%);stroke-opacity:1;stroke-miterlimit:10;" d="M 373.035156 501.878906 L 380.730469 511.21875 " transform="matrix(1,0,0,-1,-166,539)"/>
<path style="fill:none;stroke-width:0.4;stroke-linecap:butt;stroke-linejoin:miter;stroke:rgb(0%,0%,0%);stroke-opacity:1;stroke-miterlimit:10;" d="M 367.949219 532.078125 L 399 531.179688 " transform="matrix(1,0,0,-1,-166,539)"/>
<path style="fill:none;stroke-width:0.4;stroke-linecap:butt;stroke-linejoin:miter;stroke:rgb(0%,0%,0%);stroke-opacity:1;stroke-miterlimit:10;" d="M 272.820313 405.6875 L 230.476563 402.484375 " transform="matrix(1,0,0,-1,-166,539)"/>
<path style="fill:none;stroke-width:0.4;stroke-linecap:butt;stroke-linejoin:miter;stroke:rgb(0%,0%,0%);stroke-opacity:1;stroke-miterlimit:10;" d="M 239.09375 442.164063 L 242.847656 413.976563 " transform="matrix(1,0,0,-1,-166,539)"/>
<path style="fill:none;stroke-width:0.4;stroke-linecap:butt;stroke-linejoin:miter;stroke:rgb(0%,0%,0%);stroke-opacity:1;stroke-miterlimit:10;" d="M 242.847656 413.976563 L 217.375 421.234375 " transform="matrix(1,0,0,-1,-166,539)"/>
<path style="fill:none;stroke-width:0.4;stroke-linecap:butt;stroke-linejoin:miter;stroke:rgb(0%,0%,0%);stroke-opacity:1;stroke-miterlimit:10;" d="M 301.863281 522.238281 L 373.035156 501.878906 " transform="matrix(1,0,0,-1,-166,539)"/>
<path style="fill:none;stroke-width:0.4;stroke-linecap:butt;stroke-linejoin:miter;stroke:rgb(0%,0%,0%);stroke-opacity:1;stroke-miterlimit:10;" d="M 262.632813 429.085938 L 243.464844 441.507813 " transform="matrix(1,0,0,-1,-166,539)"/>
<path style="fill:none;stroke-width:0.4;stroke-linecap:butt;stroke-linejoin:miter;stroke:rgb(0%,0%,0%);stroke-opacity:1;stroke-miterlimit:10;" d="M 198.277344 454.039063 L 239.09375 442.164063 " transform="matrix(1,0,0,-1,-166,539)"/>
<path style="fill:none;stroke-width:0.4;stroke-linecap:butt;stroke-linejoin:miter;stroke:rgb(0%,0%,0%);stroke-opacity:1;stroke-miterlimit:10;" d="M 239.09375 442.164063 L 254.339844 493.035156 " transform="matrix(1,0,0,-1,-166,539)"/>
<path style="fill:none;stroke-width:0.4;stroke-linecap:butt;stroke-linejoin:miter;stroke:rgb(0%,0%,0%);stroke-opacity:1;stroke-miterlimit:10;" d="M 228.558594 459.113281 L 218.664063 499.710938 " transform="matrix(1,0,0,-1,-166,539)"/>
<path style="fill:none;stroke-width:0.4;stroke-linecap:butt;stroke-linejoin:miter;stroke:rgb(0%,0%,0%);stroke-opacity:1;stroke-miterlimit:10;" d="M 243.464844 441.507813 L 256.5625 478.339844 " transform="matrix(1,0,0,-1,-166,539)"/>
<path style="fill:none;stroke-width:0.4;stroke-linecap:butt;stroke-linejoin:miter;stroke:rgb(0%,0%,0%);stroke-opacity:1;stroke-miterlimit:10;" d="M 391.441406 407.972656 L 395.171875 418.917969 " transform="matrix(1,0,0,-1,-166,539)"/>
<path style="fill:none;stroke-width:0.4;stroke-linecap:butt;stroke-linejoin:miter;stroke:rgb(0%,0%,0%);stroke-opacity:1;stroke-miterlimit:10;" d="M 391.441406 407.972656 L 385.566406 419.207031 " transform="matrix(1,0,0,-1,-166,539)"/>
<path style="fill:none;stroke-width:0.4;stroke-linecap:butt;stroke-linejoin:miter;stroke:rgb(0%,0%,0%);stroke-opacity:1;stroke-miterlimit:10;" d="M 390.433594 408.410156 L 395.171875 418.917969 " transform="matrix(1,0,0,-1,-166,539)"/>
<path style="fill:none;stroke-width:0.4;stroke-linecap:butt;stroke-linejoin:miter;stroke:rgb(0%,0%,0%);stroke-opacity:1;stroke-miterlimit:10;" d="M 390.433594 408.410156 L 385.566406 419.207031 " transform="matrix(1,0,0,-1,-166,539)"/>
<path style="fill:none;stroke-width:0.4;stroke-linecap:butt;stroke-linejoin:miter;stroke:rgb(0%,0%,0%);stroke-opacity:1;stroke-miterlimit:10;" d="M 395.171875 418.917969 L 385.566406 419.207031 " transform="matrix(1,0,0,-1,-166,539)"/>
<path style="fill:none;stroke-width:0.4;stroke-linecap:butt;stroke-linejoin:miter;stroke:rgb(0%,0%,0%);stroke-opacity:1;stroke-miterlimit:10;" d="M 395.171875 418.917969 L 378.007813 430.6875 " transform="matrix(1,0,0,-1,-166,539)"/>
<path style="fill:none;stroke-width:0.4;stroke-linecap:butt;stroke-linejoin:miter;stroke:rgb(0%,0%,0%);stroke-opacity:1;stroke-miterlimit:10;" d="M 385.566406 419.207031 L 403.886719 442.832031 " transform="matrix(1,0,0,-1,-166,539)"/>
<path style="fill:none;stroke-width:0.4;stroke-linecap:butt;stroke-linejoin:miter;stroke:rgb(0%,0%,0%);stroke-opacity:1;stroke-miterlimit:10;" d="M 378.007813 430.6875 L 403.886719 442.832031 " transform="matrix(1,0,0,-1,-166,539)"/>
<path style="fill:none;stroke-width:0.4;stroke-linecap:butt;stroke-linejoin:miter;stroke:rgb(0%,0%,0%);stroke-opacity:1;stroke-miterlimit:10;" d="M 378.007813 430.6875 L 404.171875 456.386719 " transform="matrix(1,0,0,-1,-166,539)"/>
<path style="fill:none;stroke-width:0.4;stroke-linecap:butt;stroke-linejoin:miter;stroke:rgb(0%,0%,0%);stroke-opacity:1;stroke-miterlimit:10;" d="M 403.886719 442.832031 L 404.171875 456.386719 " transform="matrix(1,0,0,-1,-166,539)"/>
<path style="fill:none;stroke-width:0.4;stroke-linecap:butt;stroke-linejoin:miter;stroke:rgb(0%,0%,0%);stroke-opacity:1;stroke-miterlimit:10;" d="M 404.171875 456.386719 L 390.429688 521.148438 " transform="matrix(1,0,0,-1,-166,539)"/>
<path style="fill:none;stroke-width:0.4;stroke-linecap:butt;stroke-linejoin:miter;stroke:rgb(0%,0%,0%);stroke-opacity:1;stroke-miterlimit:10;" d="M 327.320313 489.527344 L 306.160156 514.078125 " transform="matrix(1,0,0,-1,-166,539)"/>
<path style="fill:none;stroke-width:0.4;stroke-linecap:butt;stroke-linejoin:miter;stroke:rgb(0%,0%,0%);stroke-opacity:1;stroke-miterlimit:10;" d="M 262.632813 429.085938 L 315.375 444.289063 " transform="matrix(1,0,0,-1,-166,539)"/>
<path style="fill:none;stroke-width:0.4;stroke-linecap:butt;stroke-linejoin:miter;stroke:rgb(0%,0%,0%);stroke-opacity:1;stroke-miterlimit:10;" d="M 262.632813 429.085938 L 312.550781 461.613281 " transform="matrix(1,0,0,-1,-166,539)"/>
<path style="fill:none;stroke-width:0.4;stroke-linecap:butt;stroke-linejoin:miter;stroke:rgb(0%,0%,0%);stroke-opacity:1;stroke-miterlimit:10;" d="M 262.632813 429.085938 L 301.464844 420.277344 " transform="matrix(1,0,0,-1,-166,539)"/>
<path style="fill:none;stroke-width:0.4;stroke-linecap:butt;stroke-linejoin:miter;stroke:rgb(0%,0%,0%);stroke-opacity:1;stroke-miterlimit:10;" d="M 243.464844 441.507813 L 272.820313 405.6875 " transform="matrix(1,0,0,-1,-166,539)"/>
<path style="fill:none;stroke-width:0.4;stroke-linecap:butt;stroke-linejoin:miter;stroke:rgb(0%,0%,0%);stroke-opacity:1;stroke-miterlimit:10;" d="M 315.375 444.289063 L 312.550781 461.613281 " transform="matrix(1,0,0,-1,-166,539)"/>
<path style="fill:none;stroke-width:0.4;stroke-linecap:butt;stroke-linejoin:miter;stroke:rgb(0%,0%,0%);stroke-opacity:1;stroke-miterlimit:10;" d="M 315.375 444.289063 L 301.890625 465.019531 " transform="matrix(1,0,0,-1,-166,539)"/>
<path style="fill:none;stroke-width:0.4;stroke-linecap:butt;stroke-linejoin:miter;stroke:rgb(0%,0%,0%);stroke-opacity:1;stroke-miterlimit:10;" d="M 315.375 444.289063 L 353.121094 489.234375 " transform="matrix(1,0,0,-1,-166,539)"/>
<path style="fill:none;stroke-width:0.4;stroke-linecap:butt;stroke-linejoin:miter;stroke:rgb(0%,0%,0%);stroke-opacity:1;stroke-miterlimit:10;" d="M 315.375 444.289063 L 272.820313 405.6875 " transform="matrix(1,0,0,-1,-166,539)"/>
<path style="fill:none;stroke-width:0.4;stroke-linecap:butt;stroke-linejoin:miter;stroke:rgb(0%,0%,0%);stroke-opacity:1;stroke-miterlimit:10;" d="M 312.550781 461.613281 L 301.464844 420.277344 " transform="matrix(1,0,0,-1,-166,539)"/>
<path style="fill:none;stroke-width:0.4;stroke-linecap:butt;stroke-linejoin:miter;stroke:rgb(0%,0%,0%);stroke-opacity:1;stroke-miterlimit:10;" d="M 312.550781 461.613281 L 272.820313 405.6875 " transform="matrix(1,0,0,-1,-166,539)"/>
<path style="fill:none;stroke-width:0.4;stroke-linecap:butt;stroke-linejoin:miter;stroke:rgb(0%,0%,0%);stroke-opacity:1;stroke-miterlimit:10;" d="M 301.890625 465.019531 L 320.359375 464.757813 " transform="matrix(1,0,0,-1,-166,539)"/>
<path style="fill:none;stroke-width:0.4;stroke-linecap:butt;stroke-linejoin:miter;stroke:rgb(0%,0%,0%);stroke-opacity:1;stroke-miterlimit:10;" d="M 301.890625 465.019531 L 301.464844 420.277344 " transform="matrix(1,0,0,-1,-166,539)"/>
<path style="fill:none;stroke-width:0.4;stroke-linecap:butt;stroke-linejoin:miter;stroke:rgb(0%,0%,0%);stroke-opacity:1;stroke-miterlimit:10;" d="M 301.890625 465.019531 L 272.820313 405.6875 " transform="matrix(1,0,0,-1,-166,539)"/>
<path style="fill:none;stroke-width:0.4;stroke-linecap:butt;stroke-linejoin:miter;stroke:rgb(0%,0%,0%);stroke-opacity:1;stroke-miterlimit:10;" d="M 320.359375 464.757813 L 350.519531 469.273438 " transform="matrix(1,0,0,-1,-166,539)"/>
<path style="fill:none;stroke-width:0.4;stroke-linecap:butt;stroke-linejoin:miter;stroke:rgb(0%,0%,0%);stroke-opacity:1;stroke-miterlimit:10;" d="M 320.359375 464.757813 L 353.121094 489.234375 " transform="matrix(1,0,0,-1,-166,539)"/>
<path style="fill:none;stroke-width:0.4;stroke-linecap:butt;stroke-linejoin:miter;stroke:rgb(0%,0%,0%);stroke-opacity:1;stroke-miterlimit:10;" d="M 320.359375 464.757813 L 356.027344 483.195313 " transform="matrix(1,0,0,-1,-166,539)"/>
<path style="fill:none;stroke-width:0.4;stroke-linecap:butt;stroke-linejoin:miter;stroke:rgb(0%,0%,0%);stroke-opacity:1;stroke-miterlimit:10;" d="M 320.359375 464.757813 L 272.820313 405.6875 " transform="matrix(1,0,0,-1,-166,539)"/>
<path style="fill:none;stroke-width:0.4;stroke-linecap:butt;stroke-linejoin:miter;stroke:rgb(0%,0%,0%);stroke-opacity:1;stroke-miterlimit:10;" d="M 350.519531 469.273438 L 353.121094 489.234375 " transform="matrix(1,0,0,-1,-166,539)"/>
<path style="fill:none;stroke-width:0.4;stroke-linecap:butt;stroke-linejoin:miter;stroke:rgb(0%,0%,0%);stroke-opacity:1;stroke-miterlimit:10;" d="M 350.519531 469.273438 L 356.027344 483.195313 " transform="matrix(1,0,0,-1,-166,539)"/>
<path style="fill:none;stroke-width:0.4;stroke-linecap:butt;stroke-linejoin:miter;stroke:rgb(0%,0%,0%);stroke-opacity:1;stroke-miterlimit:10;" d="M 353.121094 489.234375 L 356.027344 483.195313 " transform="matrix(1,0,0,-1,-166,539)"/>
<path style="fill:none;stroke-width:0.4;stroke-linecap:butt;stroke-linejoin:miter;stroke:rgb(0%,0%,0%);stroke-opacity:1;stroke-miterlimit:10;" d="M 198.277344 454.039063 L 242.847656 413.976563 " transform="matrix(1,0,0,-1,-166,539)"/>
<path style="fill:none;stroke-width:0.4;stroke-linecap:butt;stroke-linejoin:miter;stroke:rgb(0%,0%,0%);stroke-opacity:1;stroke-miterlimit:10;" d="M 198.277344 454.039063 L 217.375 421.234375 " transform="matrix(1,0,0,-1,-166,539)"/>
<path style="fill:none;stroke-width:0.4;stroke-linecap:butt;stroke-linejoin:miter;stroke:rgb(0%,0%,0%);stroke-opacity:1;stroke-miterlimit:10;" d="M 239.09375 442.164063 L 185.824219 470 " transform="matrix(1,0,0,-1,-166,539)"/>
<path style="fill:none;stroke-width:0.4;stroke-linecap:butt;stroke-linejoin:miter;stroke:rgb(0%,0%,0%);stroke-opacity:1;stroke-miterlimit:10;" d="M 239.09375 442.164063 L 246.980469 498.421875 " transform="matrix(1,0,0,-1,-166,539)"/>
<path style="fill:none;stroke-width:0.4;stroke-linecap:butt;stroke-linejoin:miter;stroke:rgb(0%,0%,0%);stroke-opacity:1;stroke-miterlimit:10;" d="M 239.09375 442.164063 L 233.183594 506.640625 " transform="matrix(1,0,0,-1,-166,539)"/>
<path style="fill:none;stroke-width:0.4;stroke-linecap:butt;stroke-linejoin:miter;stroke:rgb(0%,0%,0%);stroke-opacity:1;stroke-miterlimit:10;" d="M 239.09375 442.164063 L 217.375 421.234375 " transform="matrix(1,0,0,-1,-166,539)"/>
<path style="fill:none;stroke-width:0.4;stroke-linecap:butt;stroke-linejoin:miter;stroke:rgb(0%,0%,0%);stroke-opacity:1;stroke-miterlimit:10;" d="M 239.09375 442.164063 L 192.175781 424.382813 " transform="matrix(1,0,0,-1,-166,539)"/>
<path style="fill:none;stroke-width:0.4;stroke-linecap:butt;stroke-linejoin:miter;stroke:rgb(0%,0%,0%);stroke-opacity:1;stroke-miterlimit:10;" d="M 185.824219 470 L 192.175781 424.382813 " transform="matrix(1,0,0,-1,-166,539)"/>
<path style="fill:none;stroke-width:0.4;stroke-linecap:butt;stroke-linejoin:miter;stroke:rgb(0%,0%,0%);stroke-opacity:1;stroke-miterlimit:10;" d="M 185.824219 470 L 169.03125 422.605469 " transform="matrix(1,0,0,-1,-166,539)"/>
<path style="fill:none;stroke-width:0.4;stroke-linecap:butt;stroke-linejoin:miter;stroke:rgb(0%,0%,0%);stroke-opacity:1;stroke-miterlimit:10;" d="M 259.195313 463.808594 L 275.730469 504.71875 " transform="matrix(1,0,0,-1,-166,539)"/>
<path style="fill:none;stroke-width:0.4;stroke-linecap:butt;stroke-linejoin:miter;stroke:rgb(0%,0%,0%);stroke-opacity:1;stroke-miterlimit:10;" d="M 254.339844 493.035156 L 275.730469 504.71875 " transform="matrix(1,0,0,-1,-166,539)"/>
<path style="fill:none;stroke-width:0.4;stroke-linecap:butt;stroke-linejoin:miter;stroke:rgb(0%,0%,0%);stroke-opacity:1;stroke-miterlimit:10;" d="M 254.339844 493.035156 L 267.066406 536.019531 " transform="matrix(1,0,0,-1,-166,539)"/>
<path style="fill:none;stroke-width:0.4;stroke-linecap:butt;stroke-linejoin:miter;stroke:rgb(0%,0%,0%);stroke-opacity:1;stroke-miterlimit:10;" d="M 246.980469 498.421875 L 275.730469 504.71875 " transform="matrix(1,0,0,-1,-166,539)"/>
<path style="fill:none;stroke-width:0.4;stroke-linecap:butt;stroke-linejoin:miter;stroke:rgb(0%,0%,0%);stroke-opacity:1;stroke-miterlimit:10;" d="M 246.980469 498.421875 L 279.457031 519.113281 " transform="matrix(1,0,0,-1,-166,539)"/>
<path style="fill:none;stroke-width:0.4;stroke-linecap:butt;stroke-linejoin:miter;stroke:rgb(0%,0%,0%);stroke-opacity:1;stroke-miterlimit:10;" d="M 246.980469 498.421875 L 267.066406 536.019531 " transform="matrix(1,0,0,-1,-166,539)"/>
<path style="fill:none;stroke-width:0.4;stroke-linecap:butt;stroke-linejoin:miter;stroke:rgb(0%,0%,0%);stroke-opacity:1;stroke-miterlimit:10;" d="M 233.183594 506.640625 L 275.730469 504.71875 " transform="matrix(1,0,0,-1,-166,539)"/>
<path style="fill:none;stroke-width:0.4;stroke-linecap:butt;stroke-linejoin:miter;stroke:rgb(0%,0%,0%);stroke-opacity:1;stroke-miterlimit:10;" d="M 233.183594 506.640625 L 279.457031 519.113281 " transform="matrix(1,0,0,-1,-166,539)"/>
<path style="fill:none;stroke-width:0.4;stroke-linecap:butt;stroke-linejoin:miter;stroke:rgb(0%,0%,0%);stroke-opacity:1;stroke-miterlimit:10;" d="M 275.730469 504.71875 L 279.457031 519.113281 " transform="matrix(1,0,0,-1,-166,539)"/>
<path style="fill:none;stroke-width:0.4;stroke-linecap:butt;stroke-linejoin:miter;stroke:rgb(0%,0%,0%);stroke-opacity:1;stroke-miterlimit:10;" d="M 275.730469 504.71875 L 301.863281 522.238281 " transform="matrix(1,0,0,-1,-166,539)"/>
<path style="fill:none;stroke-width:0.4;stroke-linecap:butt;stroke-linejoin:miter;stroke:rgb(0%,0%,0%);stroke-opacity:1;stroke-miterlimit:10;" d="M 275.730469 504.71875 L 267.066406 536.019531 " transform="matrix(1,0,0,-1,-166,539)"/>
<path style="fill:none;stroke-width:0.4;stroke-linecap:butt;stroke-linejoin:miter;stroke:rgb(0%,0%,0%);stroke-opacity:1;stroke-miterlimit:10;" d="M 279.457031 519.113281 L 301.863281 522.238281 " transform="matrix(1,0,0,-1,-166,539)"/>
<path style="fill:none;stroke-width:0.4;stroke-linecap:butt;stroke-linejoin:miter;stroke:rgb(0%,0%,0%);stroke-opacity:1;stroke-miterlimit:10;" d="M 279.457031 519.113281 L 267.066406 536.019531 " transform="matrix(1,0,0,-1,-166,539)"/>
<path style="fill:none;stroke-width:0.4;stroke-linecap:butt;stroke-linejoin:miter;stroke:rgb(0%,0%,0%);stroke-opacity:1;stroke-miterlimit:10;" d="M 301.863281 522.238281 L 267.066406 536.019531 " transform="matrix(1,0,0,-1,-166,539)"/>
<path style="fill:none;stroke-width:0.4;stroke-linecap:butt;stroke-linejoin:miter;stroke:rgb(0%,0%,0%);stroke-opacity:1;stroke-miterlimit:10;" d="M 301.863281 522.238281 L 380.730469 511.21875 " transform="matrix(1,0,0,-1,-166,539)"/>
<path style="fill:none;stroke-width:0.4;stroke-linecap:butt;stroke-linejoin:miter;stroke:rgb(0%,0%,0%);stroke-opacity:1;stroke-miterlimit:10;" d="M 373.035156 501.878906 L 367.949219 532.078125 " transform="matrix(1,0,0,-1,-166,539)"/>
<path style="fill:none;stroke-width:0.4;stroke-linecap:butt;stroke-linejoin:miter;stroke:rgb(0%,0%,0%);stroke-opacity:1;stroke-miterlimit:10;" d="M 380.730469 511.21875 L 367.949219 532.078125 " transform="matrix(1,0,0,-1,-166,539)"/>
<path style="fill:none;stroke-width:0.4;stroke-linecap:butt;stroke-linejoin:miter;stroke:rgb(0%,0%,0%);stroke-opacity:1;stroke-miterlimit:10;" d="M 192.175781 424.382813 L 169.03125 422.605469 " transform="matrix(1,0,0,-1,-166,539)"/>
<path style="fill:none;stroke-width:0.4;stroke-linecap:butt;stroke-linejoin:miter;stroke:rgb(0%,0%,0%);stroke-opacity:1;stroke-miterlimit:10;" d="M 301.464844 420.277344 L 272.820313 405.6875 " transform="matrix(1,0,0,-1,-166,539)"/>
<path style="fill-rule:nonzero;fill:rgb(98.8%,74.5%,43.1%);fill-opacity:1;stroke-width:0.6;stroke-linecap:butt;stroke-linejoin:miter;stroke:rgb(0%,0%,0%);stroke-opacity:1;stroke-miterlimit:10;" d="M 385.074219 409.398438 C 385.074219 408.570313 385.746094 407.898438 386.574219 407.898438 C 387.402344 407.898438 388.074219 408.570313 388.074219 409.398438 C 388.074219 410.226563 387.402344 410.898438 386.574219 410.898438 C 385.746094 410.898438 385.074219 410.226563 385.074219 409.398438 Z M 385.074219 409.398438 " transform="matrix(1,0,0,-1,-166,539)"/>
<path style="fill-rule:nonzero;fill:rgb(98.8%,74.5%,43.1%);fill-opacity:1;stroke-width:0.6;stroke-linecap:butt;stroke-linejoin:miter;stroke:rgb(0%,0%,0%);stroke-opacity:1;stroke-miterlimit:10;" d="M 389.941406 407.972656 C 389.941406 407.144531 390.613281 406.472656 391.441406 406.472656 C 392.273438 406.472656 392.941406 407.144531 392.941406 407.972656 C 392.941406 408.800781 392.273438 409.472656 391.441406 409.472656 C 390.613281 409.472656 389.941406 408.800781 389.941406 407.972656 Z M 389.941406 407.972656 " transform="matrix(1,0,0,-1,-166,539)"/>
<path style="fill-rule:nonzero;fill:rgb(98.8%,74.5%,43.1%);fill-opacity:1;stroke-width:0.6;stroke-linecap:butt;stroke-linejoin:miter;stroke:rgb(0%,0%,0%);stroke-opacity:1;stroke-miterlimit:10;" d="M 388.933594 408.410156 C 388.933594 407.582031 389.605469 406.910156 390.433594 406.910156 C 391.261719 406.910156 391.933594 407.582031 391.933594 408.410156 C 391.933594 409.238281 391.261719 409.910156 390.433594 409.910156 C 389.605469 409.910156 388.933594 409.238281 388.933594 408.410156 Z M 388.933594 408.410156 " transform="matrix(1,0,0,-1,-166,539)"/>
<path style="fill-rule:nonzero;fill:rgb(98.8%,74.5%,43.1%);fill-opacity:1;stroke-width:0.6;stroke-linecap:butt;stroke-linejoin:miter;stroke:rgb(0%,0%,0%);stroke-opacity:1;stroke-miterlimit:10;" d="M 393.671875 418.917969 C 393.671875 418.089844 394.34375 417.417969 395.171875 417.417969 C 396 417.417969 396.671875 418.089844 396.671875 418.917969 C 396.671875 419.746094 396 420.417969 395.171875 420.417969 C 394.34375 420.417969 393.671875 419.746094 393.671875 418.917969 Z M 393.671875 418.917969 " transform="matrix(1,0,0,-1,-166,539)"/>
<path style="fill-rule:nonzero;fill:rgb(98.8%,74.5%,43.1%);fill-opacity:1;stroke-width:0.6;stroke-linecap:butt;stroke-linejoin:miter;stroke:rgb(0%,0%,0%);stroke-opacity:1;stroke-miterlimit:10;" d="M 384.066406 419.207031 C 384.066406 418.375 384.738281 417.707031 385.566406 417.707031 C 386.398438 417.707031 387.066406 418.375 387.066406 419.207031 C 387.066406 420.035156 386.398438 420.707031 385.566406 420.707031 C 384.738281 420.707031 384.066406 420.035156 384.066406 419.207031 Z M 384.066406 419.207031 " transform="matrix(1,0,0,-1,-166,539)"/>
<path style="fill-rule:nonzero;fill:rgb(98.8%,74.5%,43.1%);fill-opacity:1;stroke-width:0.6;stroke-linecap:butt;stroke-linejoin:miter;stroke:rgb(0%,0%,0%);stroke-opacity:1;stroke-miterlimit:10;" d="M 376.507813 430.6875 C 376.507813 429.859375 377.179688 429.1875 378.007813 429.1875 C 378.835938 429.1875 379.507813 429.859375 379.507813 430.6875 C 379.507813 431.515625 378.835938 432.1875 378.007813 432.1875 C 377.179688 432.1875 376.507813 431.515625 376.507813 430.6875 Z M 376.507813 430.6875 " transform="matrix(1,0,0,-1,-166,539)"/>
<path style="fill-rule:nonzero;fill:rgb(98.8%,74.5%,43.1%);fill-opacity:1;stroke-width:0.6;stroke-linecap:butt;stroke-linejoin:miter;stroke:rgb(0%,0%,0%);stroke-opacity:1;stroke-miterlimit:10;" d="M 402.386719 442.832031 C 402.386719 442.003906 403.058594 441.332031 403.886719 441.332031 C 404.714844 441.332031 405.386719 442.003906 405.386719 442.832031 C 405.386719 443.660156 404.714844 444.332031 403.886719 444.332031 C 403.058594 444.332031 402.386719 443.660156 402.386719 442.832031 Z M 402.386719 442.832031 " transform="matrix(1,0,0,-1,-166,539)"/>
<path style="fill-rule:nonzero;fill:rgb(98.8%,74.5%,43.1%);fill-opacity:1;stroke-width:0.6;stroke-linecap:butt;stroke-linejoin:miter;stroke:rgb(0%,0%,0%);stroke-opacity:1;stroke-miterlimit:10;" d="M 402.671875 456.386719 C 402.671875 455.5625 403.34375 454.886719 404.171875 454.886719 C 405 454.886719 405.671875 455.5625 405.671875 456.386719 C 405.671875 457.21875 405 457.886719 404.171875 457.886719 C 403.34375 457.886719 402.671875 457.21875 402.671875 456.386719 Z M 402.671875 456.386719 " transform="matrix(1,0,0,-1,-166,539)"/>
<path style="fill-rule:nonzero;fill:rgb(98.8%,74.5%,43.1%);fill-opacity:1;stroke-width:0.6;stroke-linecap:butt;stroke-linejoin:miter;stroke:rgb(0%,0%,0%);stroke-opacity:1;stroke-miterlimit:10;" d="M 227.058594 459.113281 C 227.058594 458.285156 227.730469 457.613281 228.558594 457.613281 C 229.386719 457.613281 230.058594 458.285156 230.058594 459.113281 C 230.058594 459.941406 229.386719 460.613281 228.558594 460.613281 C 227.730469 460.613281 227.058594 459.941406 227.058594 459.113281 Z M 227.058594 459.113281 " transform="matrix(1,0,0,-1,-166,539)"/>
<path style="fill-rule:nonzero;fill:rgb(98.8%,74.5%,43.1%);fill-opacity:1;stroke-width:0.6;stroke-linecap:butt;stroke-linejoin:miter;stroke:rgb(0%,0%,0%);stroke-opacity:1;stroke-miterlimit:10;" d="M 230.992188 452.492188 C 230.992188 451.664063 231.664063 450.992188 232.492188 450.992188 C 233.320313 450.992188 233.992188 451.664063 233.992188 452.492188 C 233.992188 453.320313 233.320313 453.992188 232.492188 453.992188 C 231.664063 453.992188 230.992188 453.320313 230.992188 452.492188 Z M 230.992188 452.492188 " transform="matrix(1,0,0,-1,-166,539)"/>
<path style="fill-rule:nonzero;fill:rgb(98.8%,74.5%,43.1%);fill-opacity:1;stroke-width:0.6;stroke-linecap:butt;stroke-linejoin:miter;stroke:rgb(0%,0%,0%);stroke-opacity:1;stroke-miterlimit:10;" d="M 269.15625 448.867188 C 269.15625 448.039063 269.828125 447.367188 270.65625 447.367188 C 271.484375 447.367188 272.15625 448.039063 272.15625 448.867188 C 272.15625 449.695313 271.484375 450.367188 270.65625 450.367188 C 269.828125 450.367188 269.15625 449.695313 269.15625 448.867188 Z M 269.15625 448.867188 " transform="matrix(1,0,0,-1,-166,539)"/>
<path style="fill-rule:nonzero;fill:rgb(98.8%,74.5%,43.1%);fill-opacity:1;stroke-width:0.6;stroke-linecap:butt;stroke-linejoin:miter;stroke:rgb(0%,0%,0%);stroke-opacity:1;stroke-miterlimit:10;" d="M 325.335938 489.636719 C 325.335938 488.8125 326.007813 488.136719 326.835938 488.136719 C 327.664063 488.136719 328.335938 488.8125 328.335938 489.636719 C 328.335938 490.464844 327.664063 491.136719 326.835938 491.136719 C 326.007813 491.136719 325.335938 490.464844 325.335938 489.636719 Z M 325.335938 489.636719 " transform="matrix(1,0,0,-1,-166,539)"/>
<path style="fill-rule:nonzero;fill:rgb(98.8%,74.5%,43.1%);fill-opacity:1;stroke-width:0.6;stroke-linecap:butt;stroke-linejoin:miter;stroke:rgb(0%,0%,0%);stroke-opacity:1;stroke-miterlimit:10;" d="M 325.820313 489.527344 C 325.820313 488.699219 326.492188 488.027344 327.320313 488.027344 C 328.148438 488.027344 328.820313 488.699219 328.820313 489.527344 C 328.820313 490.355469 328.148438 491.027344 327.320313 491.027344 C 326.492188 491.027344 325.820313 490.355469 325.820313 489.527344 Z M 325.820313 489.527344 " transform="matrix(1,0,0,-1,-166,539)"/>
<path style="fill-rule:nonzero;fill:rgb(98.8%,74.5%,43.1%);fill-opacity:1;stroke-width:0.6;stroke-linecap:butt;stroke-linejoin:miter;stroke:rgb(0%,0%,0%);stroke-opacity:1;stroke-miterlimit:10;" d="M 388.929688 521.148438 C 388.929688 520.320313 389.601563 519.648438 390.429688 519.648438 C 391.261719 519.648438 391.929688 520.320313 391.929688 521.148438 C 391.929688 521.976563 391.261719 522.648438 390.429688 522.648438 C 389.601563 522.648438 388.929688 521.976563 388.929688 521.148438 Z M 388.929688 521.148438 " transform="matrix(1,0,0,-1,-166,539)"/>
<path style="fill-rule:nonzero;fill:rgb(98.8%,74.5%,43.1%);fill-opacity:1;stroke-width:0.6;stroke-linecap:butt;stroke-linejoin:miter;stroke:rgb(0%,0%,0%);stroke-opacity:1;stroke-miterlimit:10;" d="M 304.660156 514.078125 C 304.660156 513.25 305.335938 512.578125 306.160156 512.578125 C 306.992188 512.578125 307.660156 513.25 307.660156 514.078125 C 307.660156 514.90625 306.992188 515.578125 306.160156 515.578125 C 305.335938 515.578125 304.660156 514.90625 304.660156 514.078125 Z M 304.660156 514.078125 " transform="matrix(1,0,0,-1,-166,539)"/>
<path style="fill-rule:nonzero;fill:rgb(98.8%,74.5%,43.1%);fill-opacity:1;stroke-width:0.6;stroke-linecap:butt;stroke-linejoin:miter;stroke:rgb(0%,0%,0%);stroke-opacity:1;stroke-miterlimit:10;" d="M 217.164063 499.710938 C 217.164063 498.882813 217.835938 498.210938 218.664063 498.210938 C 219.492188 498.210938 220.164063 498.882813 220.164063 499.710938 C 220.164063 500.539063 219.492188 501.210938 218.664063 501.210938 C 217.835938 501.210938 217.164063 500.539063 217.164063 499.710938 Z M 217.164063 499.710938 " transform="matrix(1,0,0,-1,-166,539)"/>
<path style="fill-rule:nonzero;fill:rgb(69.4%,87%,53.7%);fill-opacity:1;stroke-width:0.6;stroke-linecap:butt;stroke-linejoin:miter;stroke:rgb(0%,0%,0%);stroke-opacity:1;stroke-miterlimit:10;" d="M 261.132813 429.085938 C 261.132813 428.257813 261.804688 427.585938 262.632813 427.585938 C 263.460938 427.585938 264.132813 428.257813 264.132813 429.085938 C 264.132813 429.914063 263.460938 430.585938 262.632813 430.585938 C 261.804688 430.585938 261.132813 429.914063 261.132813 429.085938 Z M 261.132813 429.085938 " transform="matrix(1,0,0,-1,-166,539)"/>
<path style="fill-rule:nonzero;fill:rgb(69.4%,87%,53.7%);fill-opacity:1;stroke-width:0.6;stroke-linecap:butt;stroke-linejoin:miter;stroke:rgb(0%,0%,0%);stroke-opacity:1;stroke-miterlimit:10;" d="M 241.964844 441.507813 C 241.964844 440.679688 242.636719 440.007813 243.464844 440.007813 C 244.292969 440.007813 244.964844 440.679688 244.964844 441.507813 C 244.964844 442.335938 244.292969 443.007813 243.464844 443.007813 C 242.636719 443.007813 241.964844 442.335938 241.964844 441.507813 Z M 241.964844 441.507813 " transform="matrix(1,0,0,-1,-166,539)"/>
<path style="fill-rule:nonzero;fill:rgb(69.4%,87%,53.7%);fill-opacity:1;stroke-width:0.6;stroke-linecap:butt;stroke-linejoin:miter;stroke:rgb(0%,0%,0%);stroke-opacity:1;stroke-miterlimit:10;" d="M 313.875 444.289063 C 313.875 443.460938 314.546875 442.789063 315.375 442.789063 C 316.203125 442.789063 316.875 443.460938 316.875 444.289063 C 316.875 445.121094 316.203125 445.789063 315.375 445.789063 C 314.546875 445.789063 313.875 445.121094 313.875 444.289063 Z M 313.875 444.289063 " transform="matrix(1,0,0,-1,-166,539)"/>
<path style="fill-rule:nonzero;fill:rgb(69.4%,87%,53.7%);fill-opacity:1;stroke-width:0.6;stroke-linecap:butt;stroke-linejoin:miter;stroke:rgb(0%,0%,0%);stroke-opacity:1;stroke-miterlimit:10;" d="M 311.050781 461.613281 C 311.050781 460.785156 311.722656 460.113281 312.550781 460.113281 C 313.378906 460.113281 314.050781 460.785156 314.050781 461.613281 C 314.050781 462.441406 313.378906 463.113281 312.550781 463.113281 C 311.722656 463.113281 311.050781 462.441406 311.050781 461.613281 Z M 311.050781 461.613281 " transform="matrix(1,0,0,-1,-166,539)"/>
<path style="fill-rule:nonzero;fill:rgb(69.4%,87%,53.7%);fill-opacity:1;stroke-width:0.6;stroke-linecap:butt;stroke-linejoin:miter;stroke:rgb(0%,0%,0%);stroke-opacity:1;stroke-miterlimit:10;" d="M 300.390625 465.019531 C 300.390625 464.191406 301.0625 463.519531 301.890625 463.519531 C 302.71875 463.519531 303.390625 464.191406 303.390625 465.019531 C 303.390625 465.847656 302.71875 466.519531 301.890625 466.519531 C 301.0625 466.519531 300.390625 465.847656 300.390625 465.019531 Z M 300.390625 465.019531 " transform="matrix(1,0,0,-1,-166,539)"/>
<path style="fill-rule:nonzero;fill:rgb(69.4%,87%,53.7%);fill-opacity:1;stroke-width:0.6;stroke-linecap:butt;stroke-linejoin:miter;stroke:rgb(0%,0%,0%);stroke-opacity:1;stroke-miterlimit:10;" d="M 318.859375 464.757813 C 318.859375 463.929688 319.53125 463.257813 320.359375 463.257813 C 321.1875 463.257813 321.859375 463.929688 321.859375 464.757813 C 321.859375 465.585938 321.1875 466.257813 320.359375 466.257813 C 319.53125 466.257813 318.859375 465.585938 318.859375 464.757813 Z M 318.859375 464.757813 " transform="matrix(1,0,0,-1,-166,539)"/>
<path style="fill-rule:nonzero;fill:rgb(69.4%,87%,53.7%);fill-opacity:1;stroke-width:0.6;stroke-linecap:butt;stroke-linejoin:miter;stroke:rgb(0%,0%,0%);stroke-opacity:1;stroke-miterlimit:10;" d="M 349.019531 469.273438 C 349.019531 468.445313 349.6875 467.773438 350.519531 467.773438 C 351.347656 467.773438 352.019531 468.445313 352.019531 469.273438 C 352.019531 470.101563 351.347656 470.773438 350.519531 470.773438 C 349.6875 470.773438 349.019531 470.101563 349.019531 469.273438 Z M 349.019531 469.273438 " transform="matrix(1,0,0,-1,-166,539)"/>
<path style="fill-rule:nonzero;fill:rgb(69.4%,87%,53.7%);fill-opacity:1;stroke-width:0.6;stroke-linecap:butt;stroke-linejoin:miter;stroke:rgb(0%,0%,0%);stroke-opacity:1;stroke-miterlimit:10;" d="M 351.621094 489.234375 C 351.621094 488.40625 352.289063 487.734375 353.121094 487.734375 C 353.949219 487.734375 354.621094 488.40625 354.621094 489.234375 C 354.621094 490.066406 353.949219 490.734375 353.121094 490.734375 C 352.289063 490.734375 351.621094 490.066406 351.621094 489.234375 Z M 351.621094 489.234375 " transform="matrix(1,0,0,-1,-166,539)"/>
<path style="fill-rule:nonzero;fill:rgb(69.4%,87%,53.7%);fill-opacity:1;stroke-width:0.6;stroke-linecap:butt;stroke-linejoin:miter;stroke:rgb(0%,0%,0%);stroke-opacity:1;stroke-miterlimit:10;" d="M 354.527344 483.195313 C 354.527344 482.367188 355.195313 481.695313 356.027344 481.695313 C 356.855469 481.695313 357.527344 482.367188 357.527344 483.195313 C 357.527344 484.027344 356.855469 484.695313 356.027344 484.695313 C 355.195313 484.695313 354.527344 484.027344 354.527344 483.195313 Z M 354.527344 483.195313 " transform="matrix(1,0,0,-1,-166,539)"/>
<path style="fill-rule:nonzero;fill:rgb(69.4%,87%,53.7%);fill-opacity:1;stroke-width:0.6;stroke-linecap:butt;stroke-linejoin:miter;stroke:rgb(0%,0%,0%);stroke-opacity:1;stroke-miterlimit:10;" d="M 255.0625 478.339844 C 255.0625 477.511719 255.734375 476.839844 256.5625 476.839844 C 257.390625 476.839844 258.0625 477.511719 258.0625 478.339844 C 258.0625 479.167969 257.390625 479.839844 256.5625 479.839844 C 255.734375 479.839844 255.0625 479.167969 255.0625 478.339844 Z M 255.0625 478.339844 " transform="matrix(1,0,0,-1,-166,539)"/>
<path style="fill-rule:nonzero;fill:rgb(78.8%,69.4%,83.5%);fill-opacity:1;stroke-width:0.6;stroke-linecap:butt;stroke-linejoin:miter;stroke:rgb(0%,0%,0%);stroke-opacity:1;stroke-miterlimit:10;" d="M 366.769531 441.324219 C 366.769531 440.496094 367.441406 439.824219 368.269531 439.824219 C 369.097656 439.824219 369.769531 440.496094 369.769531 441.324219 C 369.769531 442.15625 369.097656 442.824219 368.269531 442.824219 C 367.441406 442.824219 366.769531 442.15625 366.769531 441.324219 Z M 366.769531 441.324219 " transform="matrix(1,0,0,-1,-166,539)"/>
<path style="fill-rule:nonzero;fill:rgb(78.8%,69.4%,83.5%);fill-opacity:1;stroke-width:0.6;stroke-linecap:butt;stroke-linejoin:miter;stroke:rgb(0%,0%,0%);stroke-opacity:1;stroke-miterlimit:10;" d="M 369.105469 471.523438 C 369.105469 470.695313 369.777344 470.023438 370.605469 470.023438 C 371.433594 470.023438 372.105469 470.695313 372.105469 471.523438 C 372.105469 472.355469 371.433594 473.023438 370.605469 473.023438 C 369.777344 473.023438 369.105469 472.355469 369.105469 471.523438 Z M 369.105469 471.523438 " transform="matrix(1,0,0,-1,-166,539)"/>
<path style="fill-rule:nonzero;fill:rgb(65%,80.3%,88.6%);fill-opacity:1;stroke-width:0.6;stroke-linecap:butt;stroke-linejoin:miter;stroke:rgb(0%,0%,0%);stroke-opacity:1;stroke-miterlimit:10;" d="M 196.777344 454.039063 C 196.777344 453.210938 197.449219 452.539063 198.277344 452.539063 C 199.105469 452.539063 199.777344 453.210938 199.777344 454.039063 C 199.777344 454.867188 199.105469 455.539063 198.277344 455.539063 C 197.449219 455.539063 196.777344 454.867188 196.777344 454.039063 Z M 196.777344 454.039063 " transform="matrix(1,0,0,-1,-166,539)"/>
<path style="fill-rule:nonzero;fill:rgb(65%,80.3%,88.6%);fill-opacity:1;stroke-width:0.6;stroke-linecap:butt;stroke-linejoin:miter;stroke:rgb(0%,0%,0%);stroke-opacity:1;stroke-miterlimit:10;" d="M 237.59375 442.164063 C 237.59375 441.335938 238.265625 440.664063 239.09375 440.664063 C 239.921875 440.664063 240.59375 441.335938 240.59375 442.164063 C 240.59375 442.992188 239.921875 443.664063 239.09375 443.664063 C 238.265625 443.664063 237.59375 442.992188 237.59375 442.164063 Z M 237.59375 442.164063 " transform="matrix(1,0,0,-1,-166,539)"/>
<path style="fill-rule:nonzero;fill:rgb(65%,80.3%,88.6%);fill-opacity:1;stroke-width:0.6;stroke-linecap:butt;stroke-linejoin:miter;stroke:rgb(0%,0%,0%);stroke-opacity:1;stroke-miterlimit:10;" d="M 184.324219 470 C 184.324219 469.171875 184.996094 468.5 185.824219 468.5 C 186.652344 468.5 187.324219 469.171875 187.324219 470 C 187.324219 470.832031 186.652344 471.5 185.824219 471.5 C 184.996094 471.5 184.324219 470.832031 184.324219 470 Z M 184.324219 470 " transform="matrix(1,0,0,-1,-166,539)"/>
<path style="fill-rule:nonzero;fill:rgb(65%,80.3%,88.6%);fill-opacity:1;stroke-width:0.6;stroke-linecap:butt;stroke-linejoin:miter;stroke:rgb(0%,0%,0%);stroke-opacity:1;stroke-miterlimit:10;" d="M 257.695313 463.808594 C 257.695313 462.980469 258.367188 462.308594 259.195313 462.308594 C 260.023438 462.308594 260.695313 462.980469 260.695313 463.808594 C 260.695313 464.636719 260.023438 465.308594 259.195313 465.308594 C 258.367188 465.308594 257.695313 464.636719 257.695313 463.808594 Z M 257.695313 463.808594 " transform="matrix(1,0,0,-1,-166,539)"/>
<path style="fill-rule:nonzero;fill:rgb(65%,80.3%,88.6%);fill-opacity:1;stroke-width:0.6;stroke-linecap:butt;stroke-linejoin:miter;stroke:rgb(0%,0%,0%);stroke-opacity:1;stroke-miterlimit:10;" d="M 267.316406 471.304688 C 267.316406 470.476563 267.988281 469.804688 268.816406 469.804688 C 269.644531 469.804688 270.316406 470.476563 270.316406 471.304688 C 270.316406 472.132813 269.644531 472.804688 268.816406 472.804688 C 267.988281 472.804688 267.316406 472.132813 267.316406 471.304688 Z M 267.316406 471.304688 " transform="matrix(1,0,0,-1,-166,539)"/>
<path style="fill-rule:nonzero;fill:rgb(65%,80.3%,88.6%);fill-opacity:1;stroke-width:0.6;stroke-linecap:butt;stroke-linejoin:miter;stroke:rgb(0%,0%,0%);stroke-opacity:1;stroke-miterlimit:10;" d="M 252.839844 493.035156 C 252.839844 492.207031 253.511719 491.535156 254.339844 491.535156 C 255.167969 491.535156 255.839844 492.207031 255.839844 493.035156 C 255.839844 493.867188 255.167969 494.535156 254.339844 494.535156 C 253.511719 494.535156 252.839844 493.867188 252.839844 493.035156 Z M 252.839844 493.035156 " transform="matrix(1,0,0,-1,-166,539)"/>
<path style="fill-rule:nonzero;fill:rgb(65%,80.3%,88.6%);fill-opacity:1;stroke-width:0.6;stroke-linecap:butt;stroke-linejoin:miter;stroke:rgb(0%,0%,0%);stroke-opacity:1;stroke-miterlimit:10;" d="M 245.480469 498.421875 C 245.480469 497.59375 246.152344 496.921875 246.980469 496.921875 C 247.8125 496.921875 248.480469 497.59375 248.480469 498.421875 C 248.480469 499.25 247.8125 499.921875 246.980469 499.921875 C 246.152344 499.921875 245.480469 499.25 245.480469 498.421875 Z M 245.480469 498.421875 " transform="matrix(1,0,0,-1,-166,539)"/>
<path style="fill-rule:nonzero;fill:rgb(65%,80.3%,88.6%);fill-opacity:1;stroke-width:0.6;stroke-linecap:butt;stroke-linejoin:miter;stroke:rgb(0%,0%,0%);stroke-opacity:1;stroke-miterlimit:10;" d="M 231.683594 506.640625 C 231.683594 505.8125 232.355469 505.140625 233.183594 505.140625 C 234.011719 505.140625 234.683594 505.8125 234.683594 506.640625 C 234.683594 507.46875 234.011719 508.140625 233.183594 508.140625 C 232.355469 508.140625 231.683594 507.46875 231.683594 506.640625 Z M 231.683594 506.640625 " transform="matrix(1,0,0,-1,-166,539)"/>
<path style="fill-rule:nonzero;fill:rgb(65%,80.3%,88.6%);fill-opacity:1;stroke-width:0.6;stroke-linecap:butt;stroke-linejoin:miter;stroke:rgb(0%,0%,0%);stroke-opacity:1;stroke-miterlimit:10;" d="M 274.230469 504.71875 C 274.230469 503.890625 274.902344 503.21875 275.730469 503.21875 C 276.5625 503.21875 277.230469 503.890625 277.230469 504.71875 C 277.230469 505.546875 276.5625 506.21875 275.730469 506.21875 C 274.902344 506.21875 274.230469 505.546875 274.230469 504.71875 Z M 274.230469 504.71875 " transform="matrix(1,0,0,-1,-166,539)"/>
<path style="fill-rule:nonzero;fill:rgb(65%,80.3%,88.6%);fill-opacity:1;stroke-width:0.6;stroke-linecap:butt;stroke-linejoin:miter;stroke:rgb(0%,0%,0%);stroke-opacity:1;stroke-miterlimit:10;" d="M 277.957031 519.113281 C 277.957031 518.285156 278.628906 517.613281 279.457031 517.613281 C 280.285156 517.613281 280.957031 518.285156 280.957031 519.113281 C 280.957031 519.945313 280.285156 520.613281 279.457031 520.613281 C 278.628906 520.613281 277.957031 519.945313 277.957031 519.113281 Z M 277.957031 519.113281 " transform="matrix(1,0,0,-1,-166,539)"/>
<path style="fill-rule:nonzero;fill:rgb(65%,80.3%,88.6%);fill-opacity:1;stroke-width:0.6;stroke-linecap:butt;stroke-linejoin:miter;stroke:rgb(0%,0%,0%);stroke-opacity:1;stroke-miterlimit:10;" d="M 300.363281 522.238281 C 300.363281 521.410156 301.03125 520.738281 301.863281 520.738281 C 302.691406 520.738281 303.363281 521.410156 303.363281 522.238281 C 303.363281 523.070313 302.691406 523.738281 301.863281 523.738281 C 301.03125 523.738281 300.363281 523.070313 300.363281 522.238281 Z M 300.363281 522.238281 " transform="matrix(1,0,0,-1,-166,539)"/>
<path style="fill-rule:nonzero;fill:rgb(65%,80.3%,88.6%);fill-opacity:1;stroke-width:0.6;stroke-linecap:butt;stroke-linejoin:miter;stroke:rgb(0%,0%,0%);stroke-opacity:1;stroke-miterlimit:10;" d="M 265.566406 536.019531 C 265.566406 535.191406 266.238281 534.519531 267.066406 534.519531 C 267.898438 534.519531 268.566406 535.191406 268.566406 536.019531 C 268.566406 536.847656 267.898438 537.519531 267.066406 537.519531 C 266.238281 537.519531 265.566406 536.847656 265.566406 536.019531 Z M 265.566406 536.019531 " transform="matrix(1,0,0,-1,-166,539)"/>
<path style="fill-rule:nonzero;fill:rgb(65%,80.3%,88.6%);fill-opacity:1;stroke-width:0.6;stroke-linecap:butt;stroke-linejoin:miter;stroke:rgb(0%,0%,0%);stroke-opacity:1;stroke-miterlimit:10;" d="M 365.25 482.363281 C 365.25 481.535156 365.921875 480.863281 366.75 480.863281 C 367.578125 480.863281 368.25 481.535156 368.25 482.363281 C 368.25 483.195313 367.578125 483.863281 366.75 483.863281 C 365.921875 483.863281 365.25 483.195313 365.25 482.363281 Z M 365.25 482.363281 " transform="matrix(1,0,0,-1,-166,539)"/>
<path style="fill-rule:nonzero;fill:rgb(65%,80.3%,88.6%);fill-opacity:1;stroke-width:0.6;stroke-linecap:butt;stroke-linejoin:miter;stroke:rgb(0%,0%,0%);stroke-opacity:1;stroke-miterlimit:10;" d="M 371.535156 501.878906 C 371.535156 501.050781 372.207031 500.378906 373.035156 500.378906 C 373.863281 500.378906 374.535156 501.050781 374.535156 501.878906 C 374.535156 502.707031 373.863281 503.378906 373.035156 503.378906 C 372.207031 503.378906 371.535156 502.707031 371.535156 501.878906 Z M 371.535156 501.878906 " transform="matrix(1,0,0,-1,-166,539)"/>
<path style="fill-rule:nonzero;fill:rgb(65%,80.3%,88.6%);fill-opacity:1;stroke-width:0.6;stroke-linecap:butt;stroke-linejoin:miter;stroke:rgb(0%,0%,0%);stroke-opacity:1;stroke-miterlimit:10;" d="M 379.230469 511.21875 C 379.230469 510.390625 379.902344 509.71875 380.730469 509.71875 C 381.558594 509.71875 382.230469 510.390625 382.230469 511.21875 C 382.230469 512.046875 381.558594 512.71875 380.730469 512.71875 C 379.902344 512.71875 379.230469 512.046875 379.230469 511.21875 Z M 379.230469 511.21875 " transform="matrix(1,0,0,-1,-166,539)"/>
<path style="fill-rule:nonzero;fill:rgb(65%,80.3%,88.6%);fill-opacity:1;stroke-width:0.6;stroke-linecap:butt;stroke-linejoin:miter;stroke:rgb(0%,0%,0%);stroke-opacity:1;stroke-miterlimit:10;" d="M 366.449219 532.078125 C 366.449219 531.25 367.121094 530.578125 367.949219 530.578125 C 368.777344 530.578125 369.449219 531.25 369.449219 532.078125 C 369.449219 532.90625 368.777344 533.578125 367.949219 533.578125 C 367.121094 533.578125 366.449219 532.90625 366.449219 532.078125 Z M 366.449219 532.078125 " transform="matrix(1,0,0,-1,-166,539)"/>
<path style="fill-rule:nonzero;fill:rgb(65%,80.3%,88.6%);fill-opacity:1;stroke-width:0.6;stroke-linecap:butt;stroke-linejoin:miter;stroke:rgb(0%,0%,0%);stroke-opacity:1;stroke-miterlimit:10;" d="M 397.5 531.179688 C 397.5 530.351563 398.171875 529.679688 399 529.679688 C 399.828125 529.679688 400.5 530.351563 400.5 531.179688 C 400.5 532.007813 399.828125 532.679688 399 532.679688 C 398.171875 532.679688 397.5 532.007813 397.5 531.179688 Z M 397.5 531.179688 " transform="matrix(1,0,0,-1,-166,539)"/>
<path style="fill-rule:nonzero;fill:rgb(65%,80.3%,88.6%);fill-opacity:1;stroke-width:0.6;stroke-linecap:butt;stroke-linejoin:miter;stroke:rgb(0%,0%,0%);stroke-opacity:1;stroke-miterlimit:10;" d="M 241.347656 413.976563 C 241.347656 413.148438 242.019531 412.476563 242.847656 412.476563 C 243.675781 412.476563 244.347656 413.148438 244.347656 413.976563 C 244.347656 414.804688 243.675781 415.476563 242.847656 415.476563 C 242.019531 415.476563 241.347656 414.804688 241.347656 413.976563 Z M 241.347656 413.976563 " transform="matrix(1,0,0,-1,-166,539)"/>
<path style="fill-rule:nonzero;fill:rgb(65%,80.3%,88.6%);fill-opacity:1;stroke-width:0.6;stroke-linecap:butt;stroke-linejoin:miter;stroke:rgb(0%,0%,0%);stroke-opacity:1;stroke-miterlimit:10;" d="M 215.875 421.234375 C 215.875 420.40625 216.546875 419.734375 217.375 419.734375 C 218.203125 419.734375 218.875 420.40625 218.875 421.234375 C 218.875 422.0625 218.203125 422.734375 217.375 422.734375 C 216.546875 422.734375 215.875 422.0625 215.875 421.234375 Z M 215.875 421.234375 " transform="matrix(1,0,0,-1,-166,539)"/>
<path style="fill-rule:nonzero;fill:rgb(65%,80.3%,88.6%);fill-opacity:1;stroke-width:0.6;stroke-linecap:butt;stroke-linejoin:miter;stroke:rgb(0%,0%,0%);stroke-opacity:1;stroke-miterlimit:10;" d="M 190.675781 424.382813 C 190.675781 423.554688 191.347656 422.882813 192.175781 422.882813 C 193.003906 422.882813 193.675781 423.554688 193.675781 424.382813 C 193.675781 425.210938 193.003906 425.882813 192.175781 425.882813 C 191.347656 425.882813 190.675781 425.210938 190.675781 424.382813 Z M 190.675781 424.382813 " transform="matrix(1,0,0,-1,-166,539)"/>
<path style="fill-rule:nonzero;fill:rgb(65%,80.3%,88.6%);fill-opacity:1;stroke-width:0.6;stroke-linecap:butt;stroke-linejoin:miter;stroke:rgb(0%,0%,0%);stroke-opacity:1;stroke-miterlimit:10;" d="M 167.53125 422.605469 C 167.53125 421.777344 168.203125 421.105469 169.03125 421.105469 C 169.859375 421.105469 170.53125 421.777344 170.53125 422.605469 C 170.53125 423.433594 169.859375 424.105469 169.03125 424.105469 C 168.203125 424.105469 167.53125 423.433594 167.53125 422.605469 Z M 167.53125 422.605469 " transform="matrix(1,0,0,-1,-166,539)"/>
<path style="fill-rule:nonzero;fill:rgb(65%,80.3%,88.6%);fill-opacity:1;stroke-width:0.6;stroke-linecap:butt;stroke-linejoin:miter;stroke:rgb(0%,0%,0%);stroke-opacity:1;stroke-miterlimit:10;" d="M 377.027344 426.933594 C 377.027344 426.105469 377.699219 425.433594 378.527344 425.433594 C 379.355469 425.433594 380.027344 426.105469 380.027344 426.933594 C 380.027344 427.761719 379.355469 428.433594 378.527344 428.433594 C 377.699219 428.433594 377.027344 427.761719 377.027344 426.933594 Z M 377.027344 426.933594 " transform="matrix(1,0,0,-1,-166,539)"/>
<path style="fill-rule:nonzero;fill:rgb(69.4%,87%,53.7%);fill-opacity:1;stroke-width:0.6;stroke-linecap:butt;stroke-linejoin:miter;stroke:rgb(0%,0%,0%);stroke-opacity:1;stroke-miterlimit:10;" d="M 299.964844 420.277344 C 299.964844 419.449219 300.636719 418.777344 301.464844 418.777344 C 302.292969 418.777344 302.964844 419.449219 302.964844 420.277344 C 302.964844 421.105469 302.292969 421.777344 301.464844 421.777344 C 300.636719 421.777344 299.964844 421.105469 299.964844 420.277344 Z M 299.964844 420.277344 " transform="matrix(1,0,0,-1,-166,539)"/>
<path style="fill-rule:nonzero;fill:rgb(69.4%,87%,53.7%);fill-opacity:1;stroke-width:0.6;stroke-linecap:butt;stroke-linejoin:miter;stroke:rgb(0%,0%,0%);stroke-opacity:1;stroke-miterlimit:10;" d="M 271.320313 405.6875 C 271.320313 404.859375 271.992188 404.1875 272.820313 404.1875 C 273.648438 404.1875 274.320313 404.859375 274.320313 405.6875 C 274.320313 406.515625 273.648438 407.1875 272.820313 407.1875 C 271.992188 407.1875 271.320313 406.515625 271.320313 405.6875 Z M 271.320313 405.6875 " transform="matrix(1,0,0,-1,-166,539)"/>
<path style="fill-rule:nonzero;fill:rgb(69.4%,87%,53.7%);fill-opacity:1;stroke-width:0.6;stroke-linecap:butt;stroke-linejoin:miter;stroke:rgb(0%,0%,0%);stroke-opacity:1;stroke-miterlimit:10;" d="M 228.976563 402.484375 C 228.976563 401.65625 229.648438 400.984375 230.476563 400.984375 C 231.304688 400.984375 231.976563 401.65625 231.976563 402.484375 C 231.976563 403.3125 231.304688 403.984375 230.476563 403.984375 C 229.648438 403.984375 228.976563 403.3125 228.976563 402.484375 Z M 228.976563 402.484375 " transform="matrix(1,0,0,-1,-166,539)"/>
<path style="fill-rule:nonzero;fill:rgb(98.8%,74.5%,43.1%);fill-opacity:0.7;stroke-width:5.5;stroke-linecap:round;stroke-linejoin:round;stroke:rgb(98.8%,74.5%,43.1%);stroke-opacity:1;stroke-miterlimit:10;" d="M 198.496094 423.421875 L 190.464844 399 " transform="matrix(1,0,0,-1,-166,539)"/>
<path style="fill:none;stroke-width:0.4;stroke-linecap:butt;stroke-linejoin:miter;stroke:rgb(0%,0%,0%);stroke-opacity:1;stroke-miterlimit:10;" d="M 190.464844 399 L 198.496094 423.421875 " transform="matrix(1,0,0,-1,-166,539)"/>
<path style="fill-rule:nonzero;fill:rgb(98.8%,74.5%,43.1%);fill-opacity:1;stroke-width:0.6;stroke-linecap:butt;stroke-linejoin:miter;stroke:rgb(0%,0%,0%);stroke-opacity:1;stroke-miterlimit:10;" d="M 196.996094 423.421875 C 196.996094 422.59375 197.667969 421.921875 198.496094 421.921875 C 199.324219 421.921875 199.996094 422.59375 199.996094 423.421875 C 199.996094 424.253906 199.324219 424.921875 198.496094 424.921875 C 197.667969 424.921875 196.996094 424.253906 196.996094 423.421875 Z M 196.996094 423.421875 " transform="matrix(1,0,0,-1,-166,539)"/>
<path style="fill-rule:nonzero;fill:rgb(98.8%,74.5%,43.1%);fill-opacity:1;stroke-width:0.6;stroke-linecap:butt;stroke-linejoin:miter;stroke:rgb(0%,0%,0%);stroke-opacity:1;stroke-miterlimit:10;" d="M 188.964844 399 C 188.964844 398.171875 189.636719 397.5 190.464844 397.5 C 191.292969 397.5 191.964844 398.171875 191.964844 399 C 191.964844 399.828125 191.292969 400.5 190.464844 400.5 C 189.636719 400.5 188.964844 399.828125 188.964844 399 Z M 188.964844 399 " transform="matrix(1,0,0,-1,-166,539)"/>
</g>
</svg>
