<?xml version="1.0" encoding="UTF-8"?>
<svg xmlns="http://www.w3.org/2000/svg" xmlns:xlink="http://www.w3.org/1999/xlink" width="256pt" height="355pt" viewBox="0 0 256 355" version="1.1">
<g id="surface45401">
<path style="fill-rule:nonzero;fill:rgb(89.4%,94.1%,96.4%);fill-opacity:1;stroke-width:0.59;stroke-linecap:butt;stroke-linejoin:miter;stroke:rgb(0%,0%,0%);stroke-opacity:1;stroke-miterlimit:10;" d="M 6.058594 230.707031 C 6.058594 227.28125 8.835938 224.503906 12.265625 224.503906 C 15.691406 224.503906 18.46875 227.28125 18.46875 230.707031 C 18.46875 234.132813 15.691406 236.910156 12.265625 236.910156 C 8.835938 236.910156 6.058594 234.132813 6.058594 230.707031 Z M 6.058594 230.707031 " transform="matrix(1,0,0,-1,-5,489)"/>
<path style="fill-rule:nonzero;fill:rgb(89.4%,94.1%,96.4%);fill-opacity:1;stroke-width:0.59;stroke-linecap:butt;stroke-linejoin:miter;stroke:rgb(0%,0%,0%);stroke-opacity:1;stroke-miterlimit:10;" d="M 50.261719 336.644531 C 50.261719 333.21875 53.039063 330.441406 56.46875 330.441406 C 59.894531 330.441406 62.671875 333.21875 62.671875 336.644531 C 62.671875 340.070313 59.894531 342.851563 56.46875 342.851563 C 53.039063 342.851563 50.261719 340.070313 50.261719 336.644531 Z M 50.261719 336.644531 " transform="matrix(1,0,0,-1,-5,489)"/>
<path style="fill-rule:nonzero;fill:rgb(89.4%,94.1%,96.4%);fill-opacity:1;stroke-width:0.59;stroke-linecap:butt;stroke-linejoin:miter;stroke:rgb(0%,0%,0%);stroke-opacity:1;stroke-miterlimit:10;" d="M 118.136719 304.992188 C 120.320313 305.953125 121.847656 308.136719 121.847656 310.675781 C 121.847656 311.457031 121.707031 312.203125 121.445313 312.890625 C 120.554688 315.222656 118.292969 316.882813 115.644531 316.882813 C 112.21875 316.882813 109.441406 314.101563 109.441406 310.675781 C 109.441406 307.25 112.21875 304.472656 115.644531 304.472656 C 116.53125 304.472656 117.375 304.660156 118.136719 304.992188 Z M 118.136719 304.992188 " transform="matrix(1,0,0,-1,-5,489)"/>
<path style="fill-rule:nonzero;fill:rgb(89.4%,94.1%,96.4%);fill-opacity:1;stroke-width:0.59;stroke-linecap:butt;stroke-linejoin:miter;stroke:rgb(0%,0%,0%);stroke-opacity:1;stroke-miterlimit:10;" d="M 150.808594 190.839844 C 150.808594 187.414063 153.585938 184.636719 157.011719 184.636719 C 160.4375 184.636719 163.214844 187.414063 163.214844 190.839844 C 163.214844 194.265625 160.4375 197.046875 157.011719 197.046875 C 153.585938 197.046875 150.808594 194.265625 150.808594 190.839844 Z M 150.808594 190.839844 " transform="matrix(1,0,0,-1,-5,489)"/>
<path style="fill-rule:nonzero;fill:rgb(90.5%,96%,85.8%);fill-opacity:1;stroke-width:0.59;stroke-linecap:butt;stroke-linejoin:miter;stroke:rgb(0%,0%,0%);stroke-opacity:1;stroke-miterlimit:10;" d="M 184.769531 347.535156 C 184.769531 344.109375 187.546875 341.328125 190.972656 341.328125 C 194.398438 341.328125 197.179688 344.109375 197.179688 347.535156 C 197.179688 350.960938 194.398438 353.738281 190.972656 353.738281 C 187.546875 353.738281 184.769531 350.960938 184.769531 347.535156 Z M 184.769531 347.535156 " transform="matrix(1,0,0,-1,-5,489)"/>
<path style="fill-rule:nonzero;fill:rgb(90.5%,96%,85.8%);fill-opacity:1;stroke-width:0.59;stroke-linecap:butt;stroke-linejoin:miter;stroke:rgb(0%,0%,0%);stroke-opacity:1;stroke-miterlimit:10;" d="M 247.226563 277.160156 C 247.226563 273.734375 250.003906 270.953125 253.429688 270.953125 C 256.855469 270.953125 259.632813 273.734375 259.632813 277.160156 C 259.632813 280.585938 256.855469 283.363281 253.429688 283.363281 C 250.003906 283.363281 247.226563 280.585938 247.226563 277.160156 Z M 247.226563 277.160156 " transform="matrix(1,0,0,-1,-5,489)"/>
<path style="fill-rule:nonzero;fill:rgb(89.4%,94.1%,96.4%);fill-opacity:1;stroke-width:0.59;stroke-linecap:butt;stroke-linejoin:miter;stroke:rgb(0%,0%,0%);stroke-opacity:1;stroke-miterlimit:10;" d="M 188.734375 250.410156 L 197.28125 257.117188 L 197.59375 257.363281 C 199.015625 258.476563 199.878906 260.152344 199.960938 261.953125 L 201.292969 290.371094 C 201.410156 292.90625 199.972656 295.261719 197.664063 296.308594 L 187.46875 300.945313 L 181.398438 303.847656 C 179.605469 304.703125 177.527344 304.644531 175.796875 303.722656 C 175.597656 303.613281 175.402344 303.496094 175.214844 303.367188 C 173.386719 302.113281 172.367188 299.980469 172.535156 297.769531 C 172.605469 296.878906 172.863281 296.03125 173.28125 295.269531 C 173.894531 294.148438 174.851563 293.222656 176.046875 292.652344 L 182.167969 289.722656 C 182.203125 289.707031 182.242188 289.691406 182.277344 289.671875 L 188.703125 286.753906 L 187.699219 265.371094 L 170.765625 252.082031 C 168.070313 249.96875 167.601563 246.066406 169.714844 243.371094 C 171.832031 240.675781 175.730469 240.207031 178.425781 242.320313 Z M 188.734375 250.410156 " transform="matrix(1,0,0,-1,-5,489)"/>
<path style="fill-rule:nonzero;fill:rgb(99.2%,87.8%,87.8%);fill-opacity:1;stroke-width:0.59;stroke-linecap:butt;stroke-linejoin:miter;stroke:rgb(0%,0%,0%);stroke-opacity:1;stroke-miterlimit:10;" d="M 188.734375 250.410156 C 189.210938 247.457031 191.773438 245.199219 194.859375 245.199219 C 198.285156 245.199219 201.066406 247.976563 201.066406 251.402344 C 201.066406 253.972656 199.507813 256.175781 197.28125 257.117188 C 196.539063 257.433594 195.71875 257.609375 194.859375 257.609375 C 191.433594 257.609375 188.65625 254.828125 188.65625 251.402344 C 188.65625 251.066406 188.683594 250.734375 188.734375 250.410156 Z M 188.734375 250.410156 " transform="matrix(1,0,0,-1,-5,489)"/>
<path style="fill-rule:nonzero;fill:rgb(99.2%,87.8%,87.8%);fill-opacity:1;stroke-width:0.59;stroke-linecap:butt;stroke-linejoin:miter;stroke:rgb(0%,0%,0%);stroke-opacity:1;stroke-miterlimit:10;" d="M 45.546875 254.65625 C 45.546875 251.230469 48.324219 248.453125 51.753906 248.453125 C 55.179688 248.453125 57.957031 251.230469 57.957031 254.65625 C 57.957031 258.082031 55.179688 260.859375 51.753906 260.859375 C 48.324219 260.859375 45.546875 258.082031 45.546875 254.65625 Z M 45.546875 254.65625 " transform="matrix(1,0,0,-1,-5,489)"/>
<path style="fill-rule:nonzero;fill:rgb(90.5%,96%,85.8%);fill-opacity:1;stroke-width:0.59;stroke-linecap:butt;stroke-linejoin:miter;stroke:rgb(0%,0%,0%);stroke-opacity:1;stroke-miterlimit:10;" d="M 186.460938 414.242188 C 186.472656 415.742188 185.9375 417.183594 184.980469 418.304688 C 184.605469 418.742188 184.167969 419.132813 183.671875 419.460938 L 164.535156 432.074219 L 140.78125 457.804688 C 139.28125 459.433594 137.023438 460.136719 134.859375 459.648438 C 132.695313 459.160156 130.960938 457.558594 130.300781 455.441406 C 129.640625 453.324219 130.160156 451.019531 131.664063 449.390625 L 155.929688 423.105469 C 156.269531 422.734375 156.652344 422.40625 157.074219 422.132813 L 167.628906 415.175781 L 176.84375 409.101563 C 178.695313 407.882813 181.054688 407.742188 183.035156 408.734375 C 184.027344 409.230469 184.847656 409.972656 185.4375 410.867188 C 186.027344 411.761719 186.386719 412.808594 186.449219 413.914063 C 186.457031 414.023438 186.460938 414.132813 186.460938 414.242188 Z M 186.460938 414.242188 " transform="matrix(1,0,0,-1,-5,489)"/>
<path style="fill-rule:nonzero;fill:rgb(99.2%,87.8%,87.8%);fill-opacity:1;stroke-width:0.59;stroke-linecap:butt;stroke-linejoin:miter;stroke:rgb(0%,0%,0%);stroke-opacity:1;stroke-miterlimit:10;" d="M 186.472656 414.238281 L 186.460938 414.242188 L 185.375 414.835938 L 185.261719 414.882813 L 185.0625 414.945313 L 185.082031 414.9375 L 184.96875 414.972656 L 184.722656 414.996094 L 184.480469 414.972656 L 184.246094 414.902344 L 184.035156 414.785156 L 183.847656 414.625 L 183.695313 414.433594 L 183.585938 414.21875 L 183.503906 413.921875 L 183.472656 413.738281 L 183.464844 413.738281 L 183.390625 413.425781 L 183.070313 412.671875 L 182.804688 412.277344 L 182.261719 411.734375 L 181.867188 411.46875 L 181.113281 411.148438 L 180.714844 411.054688 L 180.34375 411.027344 L 180.175781 411.027344 L 179.808594 411.054688 L 179.417969 411.144531 L 178.671875 411.453125 L 178.28125 411.710938 L 177.742188 412.234375 L 177.476563 412.617188 L 177.144531 413.351563 L 177.042969 413.742188 L 177.007813 414.132813 L 177.003906 414.335938 L 177.03125 414.738281 L 177.125 415.136719 L 177.445313 415.890625 L 177.710938 416.285156 L 178.265625 416.839844 L 178.335938 416.925781 L 178.496094 417.160156 L 178.589844 417.371094 L 178.640625 417.59375 L 178.648438 417.816406 L 178.617188 418.042969 L 178.542969 418.257813 L 178.433594 418.457031 L 178.285156 418.628906 L 178.066406 418.808594 L 177.96875 418.875 L 176.742188 419.542969 L 176.730469 419.550781 L 176.695313 419.566406 L 176.683594 419.574219 L 176.144531 419.839844 L 176.082031 419.863281 L 175.902344 419.933594 L 175.839844 419.949219 L 174.65625 420.246094 L 174.597656 420.261719 L 174.40625 420.289063 L 174.34375 420.292969 L 173.8125 420.316406 L 173.683594 420.316406 L 173.097656 420.289063 L 173.027344 420.28125 L 172.828125 420.25 L 172.761719 420.238281 L 171.546875 419.910156 L 171.46875 419.882813 L 171.242188 419.789063 L 171.171875 419.753906 L 170.109375 419.136719 L 170.039063 419.089844 L 169.84375 418.9375 L 169.78125 418.878906 L 168.875 417.957031 L 168.828125 417.902344 L 168.699219 417.734375 L 168.65625 417.675781 L 168.339844 417.152344 L 168.320313 417.125 L 168.277344 417.039063 L 168.261719 417.011719 L 167.933594 416.316406 L 167.808594 415.964844 L 167.636719 415.214844 L 167.632813 415.199219 L 167.628906 415.175781 C 167.1875 412.628906 168.378906 409.972656 170.773438 408.667969 L 200.425781 392.492188 C 203.433594 390.851563 207.203125 391.960938 208.84375 394.96875 C 209.703125 396.546875 209.808594 398.332031 209.28125 399.910156 L 209.277344 399.910156 L 209.269531 399.9375 L 209.261719 399.953125 L 208.945313 400.738281 L 208.886719 400.855469 L 208.757813 401.070313 L 208.703125 401.148438 L 207.546875 402.550781 L 207.476563 402.617188 L 207.296875 402.777344 L 207.171875 402.878906 L 206.410156 403.355469 L 206.394531 403.367188 L 206.34375 403.398438 L 206.324219 403.410156 L 186.460938 414.242188 L 186.453125 414.246094 Z M 186.472656 414.238281 " transform="matrix(1,0,0,-1,-5,489)"/>
<path style="fill-rule:nonzero;fill:rgb(89.4%,94.1%,96.4%);fill-opacity:1;stroke-width:0.59;stroke-linecap:butt;stroke-linejoin:miter;stroke:rgb(0%,0%,0%);stroke-opacity:1;stroke-miterlimit:10;" d="M 215.421875 404.34375 L 225.316406 411.496094 C 227.824219 413.308594 228.613281 416.6875 227.171875 419.421875 L 223.648438 426.09375 L 208.398438 454.980469 C 207.363281 456.941406 205.355469 458.203125 203.140625 458.285156 C 200.925781 458.367188 198.832031 457.257813 197.652344 455.378906 L 185.546875 436.058594 C 184.898438 435.023438 184.566406 433.820313 184.601563 432.597656 L 184.980469 418.304688 L 185.070313 415.003906 L 185.070313 414.988281 L 185.070313 415.011719 L 185.070313 415.003906 L 185.132813 412.671875 L 185.132813 412.65625 L 185.136719 412.609375 L 185.136719 412.59375 L 185.191406 411.878906 L 185.195313 411.839844 L 185.234375 411.613281 L 185.242188 411.582031 L 185.414063 410.949219 L 185.425781 410.917969 L 185.445313 410.859375 L 185.4375 410.882813 L 185.472656 410.789063 L 185.78125 410.007813 L 185.855469 409.867188 L 185.980469 409.660156 L 186.035156 409.578125 L 187.230469 408.148438 L 187.300781 408.078125 L 187.480469 407.921875 L 187.613281 407.820313 L 188.378906 407.347656 L 188.394531 407.339844 L 188.445313 407.308594 L 188.464844 407.296875 L 200.085938 401.113281 L 200.183594 401.070313 L 200.433594 400.988281 L 200.636719 400.960938 L 200.847656 400.964844 L 201.050781 401.003906 L 201.296875 401.097656 L 201.4375 401.164063 L 201.550781 401.21875 L 202.484375 401.589844 L 202.863281 401.675781 L 203.324219 401.707031 L 203.46875 401.707031 L 203.859375 401.6875 L 204.109375 401.648438 L 204.484375 401.550781 L 204.589844 401.515625 L 204.597656 401.515625 L 204.605469 401.511719 L 204.632813 401.503906 L 204.640625 401.5 L 204.703125 401.476563 L 204.769531 401.449219 L 205.289063 401.207031 L 205.675781 400.929688 L 206.542969 400 L 206.617188 399.902344 L 206.621094 399.90625 L 206.730469 399.761719 L 206.929688 399.546875 L 207.117188 399.410156 L 207.332031 399.308594 L 207.558594 399.253906 L 207.792969 399.238281 L 208.023438 399.269531 L 208.253906 399.347656 L 208.441406 399.429688 L 209.234375 399.886719 L 209.253906 399.894531 L 209.277344 399.910156 L 209.28125 399.910156 C 209.347656 399.957031 209.410156 400.003906 209.476563 400.050781 Z M 215.421875 404.34375 " transform="matrix(1,0,0,-1,-5,489)"/>
<path style="fill-rule:nonzero;fill:rgb(90.5%,96%,85.8%);fill-opacity:1;stroke-width:0.59;stroke-linecap:butt;stroke-linejoin:miter;stroke:rgb(0%,0%,0%);stroke-opacity:1;stroke-miterlimit:10;" d="M 229.441406 378.558594 L 232.429688 380.171875 L 241.089844 384.847656 C 243.285156 386.03125 244.554688 388.417969 244.316406 390.902344 L 242.585938 408.871094 C 242.546875 409.289063 242.464844 409.703125 242.339844 410.105469 L 236.75 428.242188 C 236.007813 430.640625 233.894531 432.359375 231.390625 432.589844 C 228.890625 432.820313 226.496094 431.519531 225.328125 429.296875 L 223.648438 426.09375 L 221.59375 422.1875 L 221.550781 422.082031 L 221.46875 421.816406 L 221.441406 421.59375 L 221.457031 421.371094 L 221.511719 421.15625 L 221.601563 420.953125 L 221.730469 420.769531 L 221.886719 420.613281 L 222.070313 420.488281 L 222.328125 420.375 L 222.433594 420.339844 L 222.46875 420.332031 L 222.664063 420.269531 L 223.644531 419.855469 L 224.035156 419.589844 L 224.746094 418.878906 L 225.011719 418.484375 L 225.425781 417.507813 L 225.519531 417.109375 L 225.554688 416.605469 L 225.554688 416.445313 L 225.53125 416.007813 L 225.453125 415.648438 L 225.113281 414.730469 L 224.941406 414.417969 L 224.6875 414.078125 L 224.574219 413.945313 L 224.199219 413.566406 L 223.84375 413.316406 L 222.753906 412.808594 L 222.320313 412.695313 L 221.734375 412.652344 L 221.632813 412.648438 L 221.589844 412.648438 L 221.441406 412.660156 L 220.628906 412.785156 L 220.054688 413.03125 L 218.953125 413.878906 L 218.839844 413.949219 L 218.535156 414.089844 L 218.277344 414.148438 L 218.011719 414.148438 L 217.753906 414.09375 L 217.511719 413.980469 L 217.300781 413.820313 L 217.085938 413.566406 L 217.011719 413.453125 L 215.90625 411.351563 L 215.894531 411.328125 L 215.863281 411.257813 L 215.851563 411.234375 L 215.4375 410.265625 L 215.257813 409.519531 L 215.171875 408.480469 L 215.171875 408.453125 L 215.167969 408.367188 L 215.167969 408.183594 L 215.171875 408.171875 L 215.179688 408.003906 L 215.179688 407.992188 L 215.421875 404.34375 L 216.910156 381.777344 C 217.050781 379.671875 218.25 377.777344 220.101563 376.757813 C 221.949219 375.734375 224.1875 375.722656 226.046875 376.726563 Z M 229.441406 378.558594 " transform="matrix(1,0,0,-1,-5,489)"/>
<path style="fill-rule:nonzero;fill:rgb(99.2%,87.8%,87.8%);fill-opacity:1;stroke-width:0.59;stroke-linecap:butt;stroke-linejoin:miter;stroke:rgb(0%,0%,0%);stroke-opacity:1;stroke-miterlimit:10;" d="M 232.429688 380.171875 C 231.28125 379.917969 230.253906 379.351563 229.441406 378.558594 C 228.28125 377.433594 227.5625 375.855469 227.5625 374.113281 C 227.5625 370.6875 230.339844 367.910156 233.769531 367.910156 C 237.195313 367.910156 239.972656 370.6875 239.972656 374.113281 C 239.972656 377.539063 237.195313 380.316406 233.769531 380.316406 C 233.308594 380.316406 232.859375 380.265625 232.429688 380.171875 Z M 232.429688 380.171875 " transform="matrix(1,0,0,-1,-5,489)"/>
<path style="fill-rule:nonzero;fill:rgb(99.2%,87.8%,87.8%);fill-opacity:1;stroke-width:0.59;stroke-linecap:butt;stroke-linejoin:miter;stroke:rgb(0%,0%,0%);stroke-opacity:1;stroke-miterlimit:10;" d="M 156.277344 368.746094 L 157.851563 362.683594 C 158.710938 359.363281 162.097656 357.375 165.414063 358.234375 C 168.730469 359.09375 170.722656 362.480469 169.863281 365.796875 L 168.289063 371.863281 C 167.429688 375.179688 164.042969 377.171875 160.726563 376.308594 C 157.410156 375.449219 155.417969 372.0625 156.277344 368.746094 Z M 156.277344 368.746094 " transform="matrix(1,0,0,-1,-5,489)"/>
<path style="fill-rule:nonzero;fill:rgb(99.2%,87.8%,87.8%);fill-opacity:1;stroke-width:0.59;stroke-linecap:butt;stroke-linejoin:miter;stroke:rgb(0%,0%,0%);stroke-opacity:1;stroke-miterlimit:10;" d="M 37.464844 207.464844 C 39.589844 208.027344 41.199219 209.511719 41.878906 211.472656 C 42.601563 213.566406 42.15625 215.886719 40.703125 217.5625 L 37.773438 220.941406 L 36.207031 222.75 C 34.757813 224.425781 32.519531 225.199219 30.34375 224.78125 C 28.167969 224.359375 26.382813 222.8125 25.65625 220.71875 C 24.933594 218.621094 25.378906 216.300781 26.832031 214.625 L 31.328125 209.4375 C 32.777344 207.761719 35.015625 206.988281 37.191406 207.40625 Z M 37.464844 207.464844 " transform="matrix(1,0,0,-1,-5,489)"/>
<path style="fill-rule:nonzero;fill:rgb(89.4%,94.1%,96.4%);fill-opacity:1;stroke-width:0.59;stroke-linecap:butt;stroke-linejoin:miter;stroke:rgb(0%,0%,0%);stroke-opacity:1;stroke-miterlimit:10;" d="M 37.773438 220.941406 L 37.761719 220.929688 L 37.742188 220.914063 L 37.695313 220.867188 L 37.675781 220.851563 L 37.066406 220.210938 L 36.96875 220.082031 L 36.832031 219.886719 L 36.785156 219.800781 L 36.140625 218.453125 L 36.097656 218.332031 L 36.023438 218.019531 L 36.015625 217.761719 L 36.066406 217.507813 L 36.164063 217.273438 L 36.3125 217.0625 L 36.5 216.886719 L 36.777344 216.722656 L 36.894531 216.664063 L 36.9375 216.652344 L 37.195313 216.527344 L 38.222656 215.886719 L 38.613281 215.492188 L 38.894531 215.042969 L 38.933594 214.976563 L 38.9375 214.972656 L 38.976563 214.894531 L 38.996094 214.851563 L 39.019531 214.789063 L 39.175781 214.375 L 39.25 214.03125 L 39.28125 213.59375 L 39.28125 213.40625 L 39.242188 212.929688 L 39.160156 212.566406 L 38.984375 212.128906 L 38.929688 212.011719 L 38.925781 212 L 38.914063 211.984375 L 38.910156 211.972656 L 38.847656 211.863281 L 38.640625 211.546875 L 38.371094 211.246094 L 37.609375 210.636719 L 37.527344 210.558594 L 37.339844 210.339844 L 37.222656 210.144531 L 37.148438 209.929688 L 37.113281 209.703125 L 37.125 209.417969 L 37.363281 208.3125 L 37.601563 207.503906 C 38.261719 205.714844 39.71875 204.3125 41.570313 203.734375 C 43.6875 203.074219 45.992188 203.59375 47.625 205.09375 C 49.253906 206.597656 49.957031 208.855469 49.472656 211.015625 L 47.972656 217.6875 C 47.484375 219.851563 45.882813 221.589844 43.765625 222.25 C 41.675781 222.902344 39.402344 222.402344 37.773438 220.941406 Z M 37.773438 220.941406 " transform="matrix(1,0,0,-1,-5,489)"/>
<path style="fill-rule:nonzero;fill:rgb(99.2%,87.8%,87.8%);fill-opacity:1;stroke-width:0.59;stroke-linecap:butt;stroke-linejoin:miter;stroke:rgb(0%,0%,0%);stroke-opacity:1;stroke-miterlimit:10;" d="M 61.816406 276.453125 C 64.246094 275.164063 67.324219 275.613281 69.277344 277.722656 C 71.601563 280.238281 71.449219 284.164063 68.933594 286.492188 L 68.03125 287.324219 L 59.769531 294.964844 C 57.253906 297.289063 53.328125 297.136719 51 294.621094 C 48.675781 292.105469 48.828125 288.179688 51.34375 285.855469 L 60.511719 277.382813 C 60.914063 277.007813 61.355469 276.699219 61.816406 276.453125 Z M 61.816406 276.453125 " transform="matrix(1,0,0,-1,-5,489)"/>
<path style="fill-rule:nonzero;fill:rgb(89.4%,94.1%,96.4%);fill-opacity:1;stroke-width:0.59;stroke-linecap:butt;stroke-linejoin:miter;stroke:rgb(0%,0%,0%);stroke-opacity:1;stroke-miterlimit:10;" d="M 64.132813 293.707031 L 77.308594 293.308594 C 79.527344 293.238281 81.609375 294.359375 82.773438 296.242188 C 83.941406 298.128906 84.011719 300.492188 82.960938 302.445313 C 81.914063 304.398438 79.902344 305.640625 77.6875 305.710938 L 64.507813 306.109375 C 62.292969 306.175781 60.210938 305.058594 59.042969 303.171875 C 57.878906 301.285156 57.804688 298.921875 58.855469 296.96875 C 59.90625 295.019531 61.917969 293.773438 64.132813 293.707031 Z M 64.132813 293.707031 " transform="matrix(1,0,0,-1,-5,489)"/>
<path style="fill-rule:nonzero;fill:rgb(89.4%,94.1%,96.4%);fill-opacity:1;stroke-width:0.59;stroke-linecap:butt;stroke-linejoin:miter;stroke:rgb(0%,0%,0%);stroke-opacity:1;stroke-miterlimit:10;" d="M 215.113281 467.585938 L 226.898438 453.765625 C 229.121094 451.160156 233.035156 450.847656 235.644531 453.070313 C 238.25 455.292969 238.5625 459.210938 236.339844 461.816406 L 222.332031 478.246094 C 220.105469 480.851563 216.191406 481.164063 213.585938 478.941406 C 211.558594 477.210938 210.917969 474.460938 211.78125 472.09375 C 212.027344 471.417969 212.394531 470.773438 212.890625 470.195313 Z M 215.113281 467.585938 " transform="matrix(1,0,0,-1,-5,489)"/>
<path style="fill-rule:nonzero;fill:rgb(89.4%,94.1%,96.4%);fill-opacity:1;stroke-width:0.59;stroke-linecap:butt;stroke-linejoin:miter;stroke:rgb(0%,0%,0%);stroke-opacity:1;stroke-miterlimit:10;" d="M 111.03125 257.59375 L 134.199219 245.042969 C 137.210938 243.410156 140.976563 244.527344 142.609375 247.542969 C 144.242188 250.554688 143.121094 254.320313 140.109375 255.953125 L 116.941406 268.503906 C 113.929688 270.136719 110.164063 269.015625 108.53125 266.003906 C 106.902344 262.992188 108.019531 259.226563 111.03125 257.59375 Z M 111.03125 257.59375 " transform="matrix(1,0,0,-1,-5,489)"/>
<path style="fill-rule:nonzero;fill:rgb(99.2%,87.8%,87.8%);fill-opacity:1;stroke-width:0.59;stroke-linecap:butt;stroke-linejoin:miter;stroke:rgb(0%,0%,0%);stroke-opacity:1;stroke-miterlimit:10;" d="M 215.113281 467.585938 C 214.824219 469.167969 213.921875 470.601563 212.5625 471.546875 L 211.78125 472.09375 L 190.996094 486.597656 C 189.179688 487.867188 186.824219 488.070313 184.816406 487.128906 C 182.808594 486.191406 181.453125 484.25 181.265625 482.042969 C 181.074219 479.835938 182.078125 477.691406 183.894531 476.425781 L 205.464844 461.371094 C 207.28125 460.101563 209.636719 459.898438 211.644531 460.839844 C 213.652344 461.78125 215.003906 463.71875 215.195313 465.929688 C 215.242188 466.488281 215.214844 467.046875 215.113281 467.585938 Z M 215.113281 467.585938 " transform="matrix(1,0,0,-1,-5,489)"/>
<path style="fill-rule:nonzero;fill:rgb(89.4%,94.1%,96.4%);fill-opacity:1;stroke-width:0.59;stroke-linecap:butt;stroke-linejoin:miter;stroke:rgb(0%,0%,0%);stroke-opacity:1;stroke-miterlimit:10;" d="M 68.03125 287.324219 L 68.011719 287.289063 L 68.003906 287.277344 L 67.984375 287.242188 L 67.359375 286.152344 L 67.3125 286.042969 L 67.21875 285.761719 L 67.1875 285.527344 L 67.199219 285.292969 L 67.257813 285.0625 L 67.386719 284.796875 L 67.449219 284.695313 L 68.101563 283.820313 L 68.277344 283.492188 L 68.429688 283.058594 L 68.46875 282.9375 L 68.46875 282.921875 L 68.472656 282.914063 L 68.476563 282.890625 L 68.480469 282.886719 L 68.488281 282.855469 L 68.507813 282.765625 L 68.566406 282.476563 L 68.585938 282.289063 L 68.597656 282.003906 L 68.59375 281.871094 L 68.558594 281.351563 L 68.464844 280.953125 L 68.050781 279.976563 L 67.785156 279.582031 L 67.074219 278.871094 L 66.679688 278.605469 L 65.703125 278.195313 L 65.304688 278.097656 L 64.8125 278.066406 L 64.628906 278.066406 L 63.949219 278.121094 L 63.890625 278.128906 L 63.75 278.144531 L 63.421875 278.152344 L 63.164063 278.101563 L 62.925781 278 L 62.710938 277.847656 L 62.492188 277.601563 L 62.414063 277.496094 L 61.816406 276.453125 L 59.332031 272.105469 C 58.761719 271.105469 58.480469 269.972656 58.519531 268.824219 L 58.984375 254.433594 C 59.097656 251.007813 61.964844 248.320313 65.386719 248.433594 C 68.8125 248.542969 71.5 251.410156 71.386719 254.835938 L 70.976563 267.472656 L 78.757813 281.089844 C 80.457031 284.0625 79.425781 287.855469 76.449219 289.554688 C 73.5 291.238281 69.753906 290.238281 68.03125 287.324219 Z M 68.03125 287.324219 " transform="matrix(1,0,0,-1,-5,489)"/>
<path style="fill-rule:nonzero;fill:rgb(99.2%,87.8%,87.8%);fill-opacity:1;stroke-width:0.59;stroke-linecap:butt;stroke-linejoin:miter;stroke:rgb(0%,0%,0%);stroke-opacity:1;stroke-miterlimit:10;" d="M 61.496094 163.085938 L 64.945313 171.019531 L 69.125 180.632813 C 70.214844 183.140625 69.535156 186.066406 67.449219 187.839844 L 53.691406 199.511719 C 51.496094 201.375 48.304688 201.480469 45.992188 199.769531 L 18.839844 179.710938 C 18.15625 179.203125 17.582031 178.5625 17.15625 177.824219 L 6.953125 160.1875 C 5.839844 158.261719 5.84375 155.882813 6.964844 153.957031 C 8.085938 152.035156 10.152344 150.859375 12.378906 150.878906 L 52.324219 151.222656 C 54.773438 151.242188 56.984375 152.707031 57.960938 154.953125 Z M 61.496094 163.085938 " transform="matrix(1,0,0,-1,-5,489)"/>
<path style="fill-rule:nonzero;fill:rgb(90.5%,96%,85.8%);fill-opacity:1;stroke-width:0.59;stroke-linecap:butt;stroke-linejoin:miter;stroke:rgb(0%,0%,0%);stroke-opacity:1;stroke-miterlimit:10;" d="M 64.945313 171.019531 C 63.773438 170.539063 62.761719 169.707031 62.058594 168.601563 C 61.007813 166.941406 60.808594 164.898438 61.496094 163.085938 C 61.582031 162.855469 61.683594 162.625 61.800781 162.402344 L 74.605469 137.914063 C 75.632813 135.953125 77.628906 134.683594 79.84375 134.59375 C 82.058594 134.5 84.15625 135.597656 85.34375 137.46875 C 86.53125 139.339844 86.628906 141.703125 85.601563 143.664063 L 72.796875 168.152344 C 71.769531 170.117188 69.773438 171.386719 67.558594 171.476563 C 66.648438 171.515625 65.757813 171.351563 64.945313 171.019531 Z M 64.945313 171.019531 " transform="matrix(1,0,0,-1,-5,489)"/>
<path style="fill-rule:nonzero;fill:rgb(99.2%,87.8%,87.8%);fill-opacity:1;stroke-width:0.59;stroke-linecap:butt;stroke-linejoin:miter;stroke:rgb(0%,0%,0%);stroke-opacity:1;stroke-miterlimit:10;" d="M 121.445313 312.890625 L 120.164063 311.726563 L 120.15625 311.722656 L 120.140625 311.703125 L 120.132813 311.699219 L 119.945313 311.519531 L 119.871094 311.433594 L 119.703125 311.199219 L 119.605469 310.992188 L 119.535156 310.714844 L 119.519531 310.601563 L 119.488281 310.113281 L 119.433594 309.816406 L 119.289063 309.363281 L 119.246094 309.246094 L 119.238281 309.222656 L 119.234375 309.21875 L 119.226563 309.195313 L 119.222656 309.1875 L 119.21875 309.175781 L 119.15625 309.042969 L 118.859375 308.492188 L 118.636719 308.195313 L 118.53125 308.089844 L 118.453125 307.996094 L 118.28125 307.75 L 118.1875 307.53125 L 118.128906 307.238281 L 118.113281 307.121094 L 118.113281 307.046875 L 118.136719 304.992188 L 118.339844 286.664063 C 118.371094 283.796875 120.363281 281.324219 123.160156 280.683594 C 125.953125 280.042969 128.824219 281.402344 130.097656 283.972656 L 141.558594 307.058594 C 141.574219 307.09375 141.59375 307.132813 141.609375 307.167969 L 148.125 320.984375 C 149.386719 323.660156 148.585938 326.859375 146.207031 328.617188 C 143.828125 330.378906 140.535156 330.214844 138.347656 328.226563 Z M 121.445313 312.890625 " transform="matrix(1,0,0,-1,-5,489)"/>
<path style="fill-rule:nonzero;fill:rgb(99.2%,87.8%,87.8%);fill-opacity:1;stroke-width:0.59;stroke-linecap:butt;stroke-linejoin:miter;stroke:rgb(0%,0%,0%);stroke-opacity:1;stroke-miterlimit:10;" d="M 82.027344 314.917969 L 89.890625 345.921875 C 90.734375 349.242188 88.726563 352.617188 85.402344 353.460938 C 82.082031 354.300781 78.707031 352.289063 77.863281 348.96875 L 70 317.96875 C 69.160156 314.644531 71.167969 311.269531 74.488281 310.429688 C 77.8125 309.585938 81.1875 311.597656 82.027344 314.917969 Z M 82.027344 314.917969 " transform="matrix(1,0,0,-1,-5,489)"/>
<path style="fill-rule:nonzero;fill:rgb(99.2%,87.8%,87.8%);fill-opacity:1;stroke-width:0.59;stroke-linecap:butt;stroke-linejoin:miter;stroke:rgb(0%,0%,0%);stroke-opacity:1;stroke-miterlimit:10;" d="M 109.757813 248.414063 C 109.484375 248.78125 109.171875 249.117188 108.824219 249.417969 L 92.425781 263.570313 C 90.746094 265.019531 88.425781 265.460938 86.332031 264.730469 C 84.238281 264.003906 82.691406 262.210938 82.277344 260.035156 C 81.863281 257.859375 82.640625 255.625 84.320313 254.175781 L 100.195313 240.472656 L 104.28125 234.960938 C 106.320313 232.207031 110.203125 231.628906 112.957031 233.667969 C 115.710938 235.707031 116.289063 239.59375 114.25 242.347656 Z M 109.757813 248.414063 " transform="matrix(1,0,0,-1,-5,489)"/>
<path style="fill-rule:nonzero;fill:rgb(89.4%,94.1%,96.4%);fill-opacity:1;stroke-width:0.59;stroke-linecap:butt;stroke-linejoin:miter;stroke:rgb(0%,0%,0%);stroke-opacity:1;stroke-miterlimit:10;" d="M 108.027344 390.160156 C 106.226563 389.136719 105.113281 387.316406 104.925781 385.359375 C 104.824219 384.292969 104.996094 383.1875 105.480469 382.144531 C 106.933594 379.039063 110.625 377.699219 113.730469 379.148438 L 146.207031 394.324219 C 148.214844 395.261719 149.570313 397.203125 149.761719 399.410156 C 149.953125 401.617188 148.953125 403.761719 147.136719 405.03125 C 145.320313 406.300781 142.964844 406.503906 140.957031 405.566406 L 108.476563 390.390625 C 108.320313 390.320313 108.171875 390.242188 108.027344 390.160156 Z M 108.027344 390.160156 " transform="matrix(1,0,0,-1,-5,489)"/>
<path style="fill-rule:nonzero;fill:rgb(89.4%,94.1%,96.4%);fill-opacity:1;stroke-width:0.59;stroke-linecap:butt;stroke-linejoin:miter;stroke:rgb(0%,0%,0%);stroke-opacity:1;stroke-miterlimit:10;" d="M 150.6875 335.101563 L 161.472656 321.65625 C 162.929688 319.835938 165.289063 318.988281 167.570313 319.460938 C 169.855469 319.9375 171.679688 321.652344 172.296875 323.902344 L 180.148438 352.652344 C 180.859375 355.261719 179.804688 358.027344 177.535156 359.496094 C 175.269531 360.964844 172.3125 360.796875 170.226563 359.082031 L 151.589844 343.773438 C 148.964844 341.617188 148.5625 337.75 150.6875 335.101563 Z M 150.6875 335.101563 " transform="matrix(1,0,0,-1,-5,489)"/>
<path style="fill-rule:nonzero;fill:rgb(99.2%,87.8%,87.8%);fill-opacity:1;stroke-width:0.59;stroke-linecap:butt;stroke-linejoin:miter;stroke:rgb(0%,0%,0%);stroke-opacity:1;stroke-miterlimit:10;" d="M 95.835938 448.839844 L 103.945313 444.21875 C 104.011719 444.179688 104.078125 444.144531 104.144531 444.109375 C 105.589844 443.355469 107.277344 443.199219 108.839844 443.679688 C 110.476563 444.179688 111.832031 445.335938 112.585938 446.871094 L 125.839844 473.832031 C 127.011719 476.214844 126.539063 479.074219 124.664063 480.953125 C 122.789063 482.828125 119.929688 483.308594 117.546875 482.140625 L 86.035156 466.710938 L 84.96875 466.191406 C 82.90625 465.179688 81.570313 463.109375 81.496094 460.8125 C 81.464844 459.746094 81.707031 458.710938 82.171875 457.792969 C 82.714844 456.738281 83.554688 455.835938 84.625 455.226563 Z M 95.835938 448.839844 " transform="matrix(1,0,0,-1,-5,489)"/>
<path style="fill-rule:nonzero;fill:rgb(99.2%,87.8%,87.8%);fill-opacity:1;stroke-width:0.59;stroke-linecap:butt;stroke-linejoin:miter;stroke:rgb(0%,0%,0%);stroke-opacity:1;stroke-miterlimit:10;" d="M 104.925781 385.359375 C 105.71875 385.8125 106.410156 386.4375 106.949219 387.210938 C 107.566406 388.101563 107.929688 389.117188 108.027344 390.160156 C 108.132813 391.25 107.945313 392.367188 107.464844 393.394531 C 106.519531 395.398438 104.574219 396.746094 102.367188 396.933594 L 100.152344 397.117188 L 89.9375 397.96875 L 56.535156 400.75 C 54.328125 400.933594 52.1875 399.925781 50.925781 398.105469 C 49.660156 396.285156 49.464844 393.929688 50.410156 391.921875 C 51.355469 389.917969 53.296875 388.570313 55.503906 388.386719 L 101.335938 384.566406 C 102.605469 384.460938 103.855469 384.75 104.925781 385.359375 Z M 104.925781 385.359375 " transform="matrix(1,0,0,-1,-5,489)"/>
<path style="fill-rule:nonzero;fill:rgb(90.5%,96%,85.8%);fill-opacity:1;stroke-width:0.59;stroke-linecap:butt;stroke-linejoin:miter;stroke:rgb(0%,0%,0%);stroke-opacity:1;stroke-miterlimit:10;" d="M 104.144531 444.109375 C 103.667969 446.835938 101.402344 448.996094 98.515625 449.222656 C 97.574219 449.296875 96.664063 449.15625 95.835938 448.839844 C 93.660156 448.015625 92.042969 445.996094 91.847656 443.523438 L 90.949219 432.066406 C 90.945313 432.023438 90.941406 431.984375 90.941406 431.945313 L 89.144531 401.390625 C 89.070313 400.175781 89.359375 398.992188 89.9375 397.96875 C 90.414063 397.128906 91.089844 396.394531 91.925781 395.847656 C 93.773438 394.628906 96.136719 394.488281 98.117188 395.480469 C 98.917969 395.882813 99.605469 396.445313 100.152344 397.117188 C 100.957031 398.109375 101.453125 399.34375 101.53125 400.664063 L 103.324219 431.15625 L 104.21875 442.554688 C 104.257813 443.085938 104.230469 443.609375 104.144531 444.109375 Z M 104.144531 444.109375 " transform="matrix(1,0,0,-1,-5,489)"/>
<path style="fill-rule:nonzero;fill:rgb(99.2%,87.8%,87.8%);fill-opacity:1;stroke-width:0.59;stroke-linecap:butt;stroke-linejoin:miter;stroke:rgb(0%,0%,0%);stroke-opacity:1;stroke-miterlimit:10;" d="M 173.28125 295.269531 L 174.625 297.507813 L 174.691406 297.660156 L 174.824219 298.128906 L 174.847656 298.289063 L 174.847656 298.296875 L 174.878906 298.792969 L 174.929688 299.078125 L 175.058594 299.515625 L 175.101563 299.632813 L 175.109375 299.65625 L 175.113281 299.664063 L 175.121094 299.683594 L 175.125 299.691406 L 175.132813 299.710938 L 175.1875 299.835938 L 175.453125 300.351563 L 175.65625 300.636719 L 175.746094 300.734375 L 175.816406 300.824219 L 175.972656 301.0625 L 176.058594 301.273438 L 176.113281 301.550781 L 176.128906 301.664063 L 176.128906 301.6875 L 176.125 301.753906 L 176.125 301.777344 L 176.082031 302.550781 L 176.019531 302.921875 L 175.808594 303.679688 L 175.804688 303.695313 L 175.796875 303.722656 C 175.34375 305.0625 174.429688 306.257813 173.117188 307.042969 C 170.183594 308.808594 166.371094 307.859375 164.605469 304.921875 L 145.058594 272.402344 C 144.441406 271.375 144.136719 270.1875 144.179688 268.984375 L 145.078125 244.046875 C 145.121094 242.78125 145.554688 241.558594 146.3125 240.546875 L 172.824219 205.21875 C 174.152344 203.445313 176.328125 202.519531 178.527344 202.785156 C 180.730469 203.050781 182.621094 204.46875 183.492188 206.507813 C 184.363281 208.546875 184.078125 210.894531 182.746094 212.667969 L 157.40625 246.4375 L 156.644531 267.589844 Z M 173.28125 295.269531 " transform="matrix(1,0,0,-1,-5,489)"/>
<path style="fill-rule:nonzero;fill:rgb(90.5%,96%,85.8%);fill-opacity:1;stroke-width:0.59;stroke-linecap:butt;stroke-linejoin:miter;stroke:rgb(0%,0%,0%);stroke-opacity:1;stroke-miterlimit:10;" d="M 193.0625 194.023438 C 193.40625 192.726563 194.160156 191.574219 195.214844 190.742188 L 224.195313 167.824219 C 226.882813 165.699219 230.785156 166.15625 232.910156 168.84375 C 235.035156 171.53125 234.578125 175.433594 231.890625 177.558594 L 204.53125 199.191406 L 193.601563 240.550781 C 193.035156 242.695313 191.367188 244.371094 189.230469 244.953125 C 187.089844 245.535156 184.804688 244.929688 183.230469 243.367188 C 181.660156 241.808594 181.039063 239.523438 181.605469 237.382813 Z M 193.0625 194.023438 " transform="matrix(1,0,0,-1,-5,489)"/>
<path style="fill-rule:nonzero;fill:rgb(89.4%,94.1%,96.4%);fill-opacity:1;stroke-width:0.59;stroke-linecap:butt;stroke-linejoin:miter;stroke:rgb(0%,0%,0%);stroke-opacity:1;stroke-miterlimit:10;" d="M 82.171875 457.792969 L 83.296875 458.539063 L 83.390625 458.613281 L 83.609375 458.828125 L 83.742188 459.03125 L 83.835938 459.253906 L 83.882813 459.492188 L 83.878906 459.796875 L 83.871094 459.863281 L 83.878906 459.90625 L 83.871094 459.90625 L 83.828125 460.53125 L 83.828125 460.707031 L 83.867188 461.273438 L 83.941406 461.613281 L 84.136719 462.140625 L 84.1875 462.261719 L 84.191406 462.269531 L 84.199219 462.289063 L 84.207031 462.304688 L 84.265625 462.414063 L 84.53125 462.863281 L 84.804688 463.183594 L 85.695313 463.925781 L 85.929688 464.101563 L 86.171875 464.316406 L 86.320313 464.527344 L 86.425781 464.761719 L 86.476563 465.015625 L 86.472656 465.339844 L 86.457031 465.46875 L 86.375 465.835938 L 86.359375 465.886719 L 86.3125 466.042969 L 86.292969 466.09375 L 86.046875 466.679688 L 86.042969 466.691406 L 86.03125 466.710938 L 86.035156 466.710938 C 85.238281 468.402344 83.707031 469.675781 81.832031 470.113281 L 63.328125 474.4375 C 62.621094 474.601563 61.890625 474.640625 61.171875 474.554688 L 45.433594 472.652344 C 42.847656 472.339844 40.734375 470.445313 40.140625 467.910156 L 33.171875 438.226563 C 32.589844 435.753906 33.578125 433.171875 35.664063 431.71875 C 37.75 430.265625 40.511719 430.234375 42.632813 431.636719 Z M 82.171875 457.792969 " transform="matrix(1,0,0,-1,-5,489)"/>
<path style="fill-rule:nonzero;fill:rgb(65%,80.3%,88.6%);fill-opacity:1;stroke-width:0.827;stroke-linecap:butt;stroke-linejoin:miter;stroke:rgb(0%,0%,0%);stroke-opacity:1;stroke-miterlimit:10;" d="M 37.144531 436.808594 C 37.144531 435.667969 38.070313 434.742188 39.210938 434.742188 C 40.351563 434.742188 41.277344 435.667969 41.277344 436.808594 C 41.277344 437.953125 40.351563 438.878906 39.210938 438.878906 C 38.070313 438.878906 37.144531 437.953125 37.144531 436.808594 Z M 37.144531 436.808594 " transform="matrix(1,0,0,-1,-5,489)"/>
<path style="fill-rule:nonzero;fill:rgb(65%,80.3%,88.6%);fill-opacity:1;stroke-width:0.827;stroke-linecap:butt;stroke-linejoin:miter;stroke:rgb(0%,0%,0%);stroke-opacity:1;stroke-miterlimit:10;" d="M 44.109375 466.492188 C 44.109375 465.351563 45.035156 464.425781 46.179688 464.425781 C 47.320313 464.425781 48.246094 465.351563 48.246094 466.492188 C 48.246094 467.636719 47.320313 468.5625 46.179688 468.5625 C 45.035156 468.5625 44.109375 467.636719 44.109375 466.492188 Z M 44.109375 466.492188 " transform="matrix(1,0,0,-1,-5,489)"/>
<path style="fill-rule:nonzero;fill:rgb(65%,80.3%,88.6%);fill-opacity:1;stroke-width:0.827;stroke-linecap:butt;stroke-linejoin:miter;stroke:rgb(0%,0%,0%);stroke-opacity:1;stroke-miterlimit:10;" d="M 59.847656 468.394531 C 59.847656 467.253906 60.773438 466.328125 61.914063 466.328125 C 63.058594 466.328125 63.984375 467.253906 63.984375 468.394531 C 63.984375 469.539063 63.058594 470.464844 61.914063 470.464844 C 60.773438 470.464844 59.847656 469.539063 59.847656 468.394531 Z M 59.847656 468.394531 " transform="matrix(1,0,0,-1,-5,489)"/>
<path style="fill-rule:nonzero;fill:rgb(65%,80.3%,88.6%);fill-opacity:1;stroke-width:0.827;stroke-linecap:butt;stroke-linejoin:miter;stroke:rgb(0%,0%,0%);stroke-opacity:1;stroke-miterlimit:10;" d="M 63.652344 461.304688 C 63.652344 460.164063 64.578125 459.238281 65.71875 459.238281 C 66.863281 459.238281 67.789063 460.164063 67.789063 461.304688 C 67.789063 462.445313 66.863281 463.371094 65.71875 463.371094 C 64.578125 463.371094 63.652344 462.445313 63.652344 461.304688 Z M 63.652344 461.304688 " transform="matrix(1,0,0,-1,-5,489)"/>
<path style="fill-rule:nonzero;fill:rgb(65%,80.3%,88.6%);fill-opacity:1;stroke-width:0.827;stroke-linecap:butt;stroke-linejoin:miter;stroke:rgb(0%,0%,0%);stroke-opacity:1;stroke-miterlimit:10;" d="M 78.351563 464.070313 C 78.351563 462.929688 79.277344 462.003906 80.417969 462.003906 C 81.5625 462.003906 82.488281 462.929688 82.488281 464.070313 C 82.488281 465.214844 81.5625 466.140625 80.417969 466.140625 C 79.277344 466.140625 78.351563 465.214844 78.351563 464.070313 Z M 78.351563 464.070313 " transform="matrix(1,0,0,-1,-5,489)"/>
<path style="fill-rule:nonzero;fill:rgb(65%,80.3%,88.6%);fill-opacity:1;stroke-width:0.827;stroke-linecap:butt;stroke-linejoin:miter;stroke:rgb(0%,0%,0%);stroke-opacity:1;stroke-miterlimit:10;" d="M 10.195313 230.707031 C 10.195313 229.5625 11.121094 228.636719 12.265625 228.636719 C 13.40625 228.636719 14.332031 229.5625 14.332031 230.707031 C 14.332031 231.847656 13.40625 232.773438 12.265625 232.773438 C 11.121094 232.773438 10.195313 231.847656 10.195313 230.707031 Z M 10.195313 230.707031 " transform="matrix(1,0,0,-1,-5,489)"/>
<path style="fill-rule:nonzero;fill:rgb(65%,80.3%,88.6%);fill-opacity:1;stroke-width:0.827;stroke-linecap:butt;stroke-linejoin:miter;stroke:rgb(0%,0%,0%);stroke-opacity:1;stroke-miterlimit:10;" d="M 39.851563 216.328125 C 39.851563 215.183594 40.777344 214.257813 41.917969 214.257813 C 43.0625 214.257813 43.988281 215.183594 43.988281 216.328125 C 43.988281 217.46875 43.0625 218.394531 41.917969 218.394531 C 40.777344 218.394531 39.851563 217.46875 39.851563 216.328125 Z M 39.851563 216.328125 " transform="matrix(1,0,0,-1,-5,489)"/>
<path style="fill-rule:nonzero;fill:rgb(65%,80.3%,88.6%);fill-opacity:1;stroke-width:0.827;stroke-linecap:butt;stroke-linejoin:miter;stroke:rgb(0%,0%,0%);stroke-opacity:1;stroke-miterlimit:10;" d="M 41.351563 209.65625 C 41.351563 208.515625 42.277344 207.589844 43.417969 207.589844 C 44.5625 207.589844 45.488281 208.515625 45.488281 209.65625 C 45.488281 210.796875 44.5625 211.722656 43.417969 211.722656 C 42.277344 211.722656 41.351563 210.796875 41.351563 209.65625 Z M 41.351563 209.65625 " transform="matrix(1,0,0,-1,-5,489)"/>
<path style="fill-rule:nonzero;fill:rgb(65%,80.3%,88.6%);fill-opacity:1;stroke-width:0.827;stroke-linecap:butt;stroke-linejoin:miter;stroke:rgb(0%,0%,0%);stroke-opacity:1;stroke-miterlimit:10;" d="M 63.117188 254.632813 C 63.117188 253.492188 64.042969 252.566406 65.1875 252.566406 C 66.328125 252.566406 67.253906 253.492188 67.253906 254.632813 C 67.253906 255.773438 66.328125 256.699219 65.1875 256.699219 C 64.042969 256.699219 63.117188 255.773438 63.117188 254.632813 Z M 63.117188 254.632813 " transform="matrix(1,0,0,-1,-5,489)"/>
<path style="fill-rule:nonzero;fill:rgb(65%,80.3%,88.6%);fill-opacity:1;stroke-width:0.827;stroke-linecap:butt;stroke-linejoin:miter;stroke:rgb(0%,0%,0%);stroke-opacity:1;stroke-miterlimit:10;" d="M 62.652344 269.027344 C 62.652344 267.882813 63.578125 266.957031 64.71875 266.957031 C 65.863281 266.957031 66.789063 267.882813 66.789063 269.027344 C 66.789063 270.167969 65.863281 271.09375 64.71875 271.09375 C 63.578125 271.09375 62.652344 270.167969 62.652344 269.027344 Z M 62.652344 269.027344 " transform="matrix(1,0,0,-1,-5,489)"/>
<path style="fill-rule:nonzero;fill:rgb(65%,80.3%,88.6%);fill-opacity:1;stroke-width:0.827;stroke-linecap:butt;stroke-linejoin:miter;stroke:rgb(0%,0%,0%);stroke-opacity:1;stroke-miterlimit:10;" d="M 71.304688 284.167969 C 71.304688 283.023438 72.230469 282.097656 73.371094 282.097656 C 74.515625 282.097656 75.441406 283.023438 75.441406 284.167969 C 75.441406 285.308594 74.515625 286.234375 73.371094 286.234375 C 72.230469 286.234375 71.304688 285.308594 71.304688 284.167969 Z M 71.304688 284.167969 " transform="matrix(1,0,0,-1,-5,489)"/>
<path style="fill-rule:nonzero;fill:rgb(65%,80.3%,88.6%);fill-opacity:1;stroke-width:0.827;stroke-linecap:butt;stroke-linejoin:miter;stroke:rgb(0%,0%,0%);stroke-opacity:1;stroke-miterlimit:10;" d="M 62.253906 299.90625 C 62.253906 298.765625 63.179688 297.839844 64.320313 297.839844 C 65.460938 297.839844 66.386719 298.765625 66.386719 299.90625 C 66.386719 301.050781 65.460938 301.976563 64.320313 301.976563 C 63.179688 301.976563 62.253906 301.050781 62.253906 299.90625 Z M 62.253906 299.90625 " transform="matrix(1,0,0,-1,-5,489)"/>
<path style="fill-rule:nonzero;fill:rgb(65%,80.3%,88.6%);fill-opacity:1;stroke-width:0.827;stroke-linecap:butt;stroke-linejoin:miter;stroke:rgb(0%,0%,0%);stroke-opacity:1;stroke-miterlimit:10;" d="M 75.429688 299.507813 C 75.429688 298.367188 76.355469 297.441406 77.5 297.441406 C 78.640625 297.441406 79.566406 298.367188 79.566406 299.507813 C 79.566406 300.648438 78.640625 301.574219 77.5 301.574219 C 76.355469 301.574219 75.429688 300.648438 75.429688 299.507813 Z M 75.429688 299.507813 " transform="matrix(1,0,0,-1,-5,489)"/>
<path style="fill-rule:nonzero;fill:rgb(65%,80.3%,88.6%);fill-opacity:1;stroke-width:0.827;stroke-linecap:butt;stroke-linejoin:miter;stroke:rgb(0%,0%,0%);stroke-opacity:1;stroke-miterlimit:10;" d="M 54.398438 336.644531 C 54.398438 335.503906 55.324219 334.578125 56.46875 334.578125 C 57.609375 334.578125 58.535156 335.503906 58.535156 336.644531 C 58.535156 337.789063 57.609375 338.714844 56.46875 338.714844 C 55.324219 338.714844 54.398438 337.789063 54.398438 336.644531 Z M 54.398438 336.644531 " transform="matrix(1,0,0,-1,-5,489)"/>
<path style="fill-rule:nonzero;fill:rgb(65%,80.3%,88.6%);fill-opacity:1;stroke-width:0.827;stroke-linecap:butt;stroke-linejoin:miter;stroke:rgb(0%,0%,0%);stroke-opacity:1;stroke-miterlimit:10;" d="M 113.578125 310.675781 C 113.578125 309.535156 114.503906 308.609375 115.644531 308.609375 C 116.789063 308.609375 117.714844 309.535156 117.714844 310.675781 C 117.714844 311.820313 116.789063 312.746094 115.644531 312.746094 C 114.503906 312.746094 113.578125 311.820313 113.578125 310.675781 Z M 113.578125 310.675781 " transform="matrix(1,0,0,-1,-5,489)"/>
<path style="fill-rule:nonzero;fill:rgb(65%,80.3%,88.6%);fill-opacity:1;stroke-width:0.827;stroke-linecap:butt;stroke-linejoin:miter;stroke:rgb(0%,0%,0%);stroke-opacity:1;stroke-miterlimit:10;" d="M 111.921875 263.046875 C 111.921875 261.90625 112.847656 260.980469 113.988281 260.980469 C 115.128906 260.980469 116.054688 261.90625 116.054688 263.046875 C 116.054688 264.191406 115.128906 265.117188 113.988281 265.117188 C 112.847656 265.117188 111.921875 264.191406 111.921875 263.046875 Z M 111.921875 263.046875 " transform="matrix(1,0,0,-1,-5,489)"/>
<path style="fill-rule:nonzero;fill:rgb(65%,80.3%,88.6%);fill-opacity:1;stroke-width:0.827;stroke-linecap:butt;stroke-linejoin:miter;stroke:rgb(0%,0%,0%);stroke-opacity:1;stroke-miterlimit:10;" d="M 135.085938 250.496094 C 135.085938 249.355469 136.011719 248.429688 137.152344 248.429688 C 138.296875 248.429688 139.222656 249.355469 139.222656 250.496094 C 139.222656 251.640625 138.296875 252.566406 137.152344 252.566406 C 136.011719 252.566406 135.085938 251.640625 135.085938 250.496094 Z M 135.085938 250.496094 " transform="matrix(1,0,0,-1,-5,489)"/>
<path style="fill-rule:nonzero;fill:rgb(65%,80.3%,88.6%);fill-opacity:1;stroke-width:0.827;stroke-linecap:butt;stroke-linejoin:miter;stroke:rgb(0%,0%,0%);stroke-opacity:1;stroke-miterlimit:10;" d="M 109.035156 384.769531 C 109.035156 383.628906 109.960938 382.703125 111.101563 382.703125 C 112.246094 382.703125 113.171875 383.628906 113.171875 384.769531 C 113.171875 385.914063 112.246094 386.839844 111.101563 386.839844 C 109.960938 386.839844 109.035156 385.914063 109.035156 384.769531 Z M 109.035156 384.769531 " transform="matrix(1,0,0,-1,-5,489)"/>
<path style="fill-rule:nonzero;fill:rgb(65%,80.3%,88.6%);fill-opacity:1;stroke-width:0.827;stroke-linecap:butt;stroke-linejoin:miter;stroke:rgb(0%,0%,0%);stroke-opacity:1;stroke-miterlimit:10;" d="M 141.515625 399.945313 C 141.515625 398.804688 142.441406 397.878906 143.582031 397.878906 C 144.722656 397.878906 145.648438 398.804688 145.648438 399.945313 C 145.648438 401.089844 144.722656 402.015625 143.582031 402.015625 C 142.441406 402.015625 141.515625 401.089844 141.515625 399.945313 Z M 141.515625 399.945313 " transform="matrix(1,0,0,-1,-5,489)"/>
<path style="fill-rule:nonzero;fill:rgb(65%,80.3%,88.6%);fill-opacity:1;stroke-width:0.827;stroke-linecap:butt;stroke-linejoin:miter;stroke:rgb(0%,0%,0%);stroke-opacity:1;stroke-miterlimit:10;" d="M 153.460938 338.980469 C 153.460938 337.839844 154.386719 336.914063 155.527344 336.914063 C 156.671875 336.914063 157.597656 337.839844 157.597656 338.980469 C 157.597656 340.121094 156.671875 341.050781 155.527344 341.050781 C 154.386719 341.050781 153.460938 340.121094 153.460938 338.980469 Z M 153.460938 338.980469 " transform="matrix(1,0,0,-1,-5,489)"/>
<path style="fill-rule:nonzero;fill:rgb(65%,80.3%,88.6%);fill-opacity:1;stroke-width:0.827;stroke-linecap:butt;stroke-linejoin:miter;stroke:rgb(0%,0%,0%);stroke-opacity:1;stroke-miterlimit:10;" d="M 172.097656 354.289063 C 172.097656 353.148438 173.023438 352.222656 174.164063 352.222656 C 175.304688 352.222656 176.230469 353.148438 176.230469 354.289063 C 176.230469 355.429688 175.304688 356.355469 174.164063 356.355469 C 173.023438 356.355469 172.097656 355.429688 172.097656 354.289063 Z M 172.097656 354.289063 " transform="matrix(1,0,0,-1,-5,489)"/>
<path style="fill-rule:nonzero;fill:rgb(65%,80.3%,88.6%);fill-opacity:1;stroke-width:0.827;stroke-linecap:butt;stroke-linejoin:miter;stroke:rgb(0%,0%,0%);stroke-opacity:1;stroke-miterlimit:10;" d="M 164.242188 325.535156 C 164.242188 324.394531 165.167969 323.46875 166.3125 323.46875 C 167.453125 323.46875 168.378906 324.394531 168.378906 325.535156 C 168.378906 326.679688 167.453125 327.605469 166.3125 327.605469 C 165.167969 327.605469 164.242188 326.679688 164.242188 325.535156 Z M 164.242188 325.535156 " transform="matrix(1,0,0,-1,-5,489)"/>
<path style="fill-rule:nonzero;fill:rgb(65%,80.3%,88.6%);fill-opacity:1;stroke-width:0.827;stroke-linecap:butt;stroke-linejoin:miter;stroke:rgb(0%,0%,0%);stroke-opacity:1;stroke-miterlimit:10;" d="M 176.65625 298.25 C 176.65625 297.109375 177.582031 296.183594 178.722656 296.183594 C 179.863281 296.183594 180.789063 297.109375 180.789063 298.25 C 180.789063 299.390625 179.863281 300.316406 178.722656 300.316406 C 177.582031 300.316406 176.65625 299.390625 176.65625 298.25 Z M 176.65625 298.25 " transform="matrix(1,0,0,-1,-5,489)"/>
<path style="fill-rule:nonzero;fill:rgb(65%,80.3%,88.6%);fill-opacity:1;stroke-width:0.827;stroke-linecap:butt;stroke-linejoin:miter;stroke:rgb(0%,0%,0%);stroke-opacity:1;stroke-miterlimit:10;" d="M 182.777344 295.320313 C 182.777344 294.179688 183.703125 293.253906 184.847656 293.253906 C 185.988281 293.253906 186.914063 294.179688 186.914063 295.320313 C 186.914063 296.464844 185.988281 297.390625 184.847656 297.390625 C 183.703125 297.390625 182.777344 296.464844 182.777344 295.320313 Z M 182.777344 295.320313 " transform="matrix(1,0,0,-1,-5,489)"/>
<path style="fill-rule:nonzero;fill:rgb(65%,80.3%,88.6%);fill-opacity:1;stroke-width:0.827;stroke-linecap:butt;stroke-linejoin:miter;stroke:rgb(0%,0%,0%);stroke-opacity:1;stroke-miterlimit:10;" d="M 193.027344 290.660156 C 193.027344 289.519531 193.953125 288.59375 195.097656 288.59375 C 196.238281 288.59375 197.164063 289.519531 197.164063 290.660156 C 197.164063 291.804688 196.238281 292.730469 195.097656 292.730469 C 193.953125 292.730469 193.027344 291.804688 193.027344 290.660156 Z M 193.027344 290.660156 " transform="matrix(1,0,0,-1,-5,489)"/>
<path style="fill-rule:nonzero;fill:rgb(65%,80.3%,88.6%);fill-opacity:1;stroke-width:0.827;stroke-linecap:butt;stroke-linejoin:miter;stroke:rgb(0%,0%,0%);stroke-opacity:1;stroke-miterlimit:10;" d="M 191.695313 262.242188 C 191.695313 261.101563 192.621094 260.175781 193.765625 260.175781 C 194.90625 260.175781 195.832031 261.101563 195.832031 262.242188 C 195.832031 263.386719 194.90625 264.3125 193.765625 264.3125 C 192.621094 264.3125 191.695313 263.386719 191.695313 262.242188 Z M 191.695313 262.242188 " transform="matrix(1,0,0,-1,-5,489)"/>
<path style="fill-rule:nonzero;fill:rgb(65%,80.3%,88.6%);fill-opacity:1;stroke-width:0.827;stroke-linecap:butt;stroke-linejoin:miter;stroke:rgb(0%,0%,0%);stroke-opacity:1;stroke-miterlimit:10;" d="M 172.527344 247.203125 C 172.527344 246.058594 173.453125 245.132813 174.597656 245.132813 C 175.738281 245.132813 176.664063 246.058594 176.664063 247.203125 C 176.664063 248.34375 175.738281 249.269531 174.597656 249.269531 C 173.453125 249.269531 172.527344 248.34375 172.527344 247.203125 Z M 172.527344 247.203125 " transform="matrix(1,0,0,-1,-5,489)"/>
<path style="fill-rule:nonzero;fill:rgb(65%,80.3%,88.6%);fill-opacity:1;stroke-width:0.827;stroke-linecap:butt;stroke-linejoin:miter;stroke:rgb(0%,0%,0%);stroke-opacity:1;stroke-miterlimit:10;" d="M 154.941406 190.839844 C 154.941406 189.699219 155.867188 188.773438 157.011719 188.773438 C 158.152344 188.773438 159.078125 189.699219 159.078125 190.839844 C 159.078125 191.984375 158.152344 192.910156 157.011719 192.910156 C 155.867188 192.910156 154.941406 191.984375 154.941406 190.839844 Z M 154.941406 190.839844 " transform="matrix(1,0,0,-1,-5,489)"/>
<path style="fill-rule:nonzero;fill:rgb(65%,80.3%,88.6%);fill-opacity:1;stroke-width:0.827;stroke-linecap:butt;stroke-linejoin:miter;stroke:rgb(0%,0%,0%);stroke-opacity:1;stroke-miterlimit:10;" d="M 189.265625 412.796875 C 189.265625 411.65625 190.191406 410.730469 191.335938 410.730469 C 192.476563 410.730469 193.402344 411.65625 193.402344 412.796875 C 193.402344 413.941406 192.476563 414.867188 191.335938 414.867188 C 190.191406 414.867188 189.265625 413.941406 189.265625 412.796875 Z M 189.265625 412.796875 " transform="matrix(1,0,0,-1,-5,489)"/>
<path style="fill-rule:nonzero;fill:rgb(65%,80.3%,88.6%);fill-opacity:1;stroke-width:0.827;stroke-linecap:butt;stroke-linejoin:miter;stroke:rgb(0%,0%,0%);stroke-opacity:1;stroke-miterlimit:10;" d="M 203.777344 405.078125 C 203.777344 403.933594 204.703125 403.007813 205.84375 403.007813 C 206.984375 403.007813 207.910156 403.933594 207.910156 405.078125 C 207.910156 406.21875 206.984375 407.144531 205.84375 407.144531 C 204.703125 407.144531 203.777344 406.21875 203.777344 405.078125 Z M 203.777344 405.078125 " transform="matrix(1,0,0,-1,-5,489)"/>
<path style="fill-rule:nonzero;fill:rgb(65%,80.3%,88.6%);fill-opacity:1;stroke-width:0.827;stroke-linecap:butt;stroke-linejoin:miter;stroke:rgb(0%,0%,0%);stroke-opacity:1;stroke-miterlimit:10;" d="M 219.617188 416.523438 C 219.617188 415.382813 220.542969 414.457031 221.683594 414.457031 C 222.824219 414.457031 223.753906 415.382813 223.753906 416.523438 C 223.753906 417.667969 222.824219 418.59375 221.683594 418.59375 C 220.542969 418.59375 219.617188 417.667969 219.617188 416.523438 Z M 219.617188 416.523438 " transform="matrix(1,0,0,-1,-5,489)"/>
<path style="fill-rule:nonzero;fill:rgb(65%,80.3%,88.6%);fill-opacity:1;stroke-width:0.827;stroke-linecap:butt;stroke-linejoin:miter;stroke:rgb(0%,0%,0%);stroke-opacity:1;stroke-miterlimit:10;" d="M 201.644531 424.246094 C 201.644531 423.101563 202.570313 422.175781 203.714844 422.175781 C 204.855469 422.175781 205.78125 423.101563 205.78125 424.246094 C 205.78125 425.386719 204.855469 426.3125 203.714844 426.3125 C 202.570313 426.3125 201.644531 425.386719 201.644531 424.246094 Z M 201.644531 424.246094 " transform="matrix(1,0,0,-1,-5,489)"/>
<path style="fill-rule:nonzero;fill:rgb(65%,80.3%,88.6%);fill-opacity:1;stroke-width:0.827;stroke-linecap:butt;stroke-linejoin:miter;stroke:rgb(0%,0%,0%);stroke-opacity:1;stroke-miterlimit:10;" d="M 188.734375 432.765625 C 188.734375 431.621094 189.660156 430.695313 190.804688 430.695313 C 191.945313 430.695313 192.871094 431.621094 192.871094 432.765625 C 192.871094 433.90625 191.945313 434.832031 190.804688 434.832031 C 189.660156 434.832031 188.734375 433.90625 188.734375 432.765625 Z M 188.734375 432.765625 " transform="matrix(1,0,0,-1,-5,489)"/>
<path style="fill-rule:nonzero;fill:rgb(65%,80.3%,88.6%);fill-opacity:1;stroke-width:0.827;stroke-linecap:butt;stroke-linejoin:miter;stroke:rgb(0%,0%,0%);stroke-opacity:1;stroke-miterlimit:10;" d="M 200.84375 452.085938 C 200.84375 450.941406 201.769531 450.015625 202.910156 450.015625 C 204.054688 450.015625 204.980469 450.941406 204.980469 452.085938 C 204.980469 453.226563 204.054688 454.152344 202.910156 454.152344 C 201.769531 454.152344 200.84375 453.226563 200.84375 452.085938 Z M 200.84375 452.085938 " transform="matrix(1,0,0,-1,-5,489)"/>
<path style="fill-rule:nonzero;fill:rgb(65%,80.3%,88.6%);fill-opacity:1;stroke-width:0.827;stroke-linecap:butt;stroke-linejoin:miter;stroke:rgb(0%,0%,0%);stroke-opacity:1;stroke-miterlimit:10;" d="M 229.550781 457.792969 C 229.550781 456.648438 230.476563 455.722656 231.617188 455.722656 C 232.761719 455.722656 233.6875 456.648438 233.6875 457.792969 C 233.6875 458.933594 232.761719 459.859375 231.617188 459.859375 C 230.476563 459.859375 229.550781 458.933594 229.550781 457.792969 Z M 229.550781 457.792969 " transform="matrix(1,0,0,-1,-5,489)"/>
<path style="fill-rule:nonzero;fill:rgb(65%,80.3%,88.6%);fill-opacity:1;stroke-width:0.827;stroke-linecap:butt;stroke-linejoin:miter;stroke:rgb(0%,0%,0%);stroke-opacity:1;stroke-miterlimit:10;" d="M 215.542969 474.21875 C 215.542969 473.078125 216.46875 472.152344 217.609375 472.152344 C 218.753906 472.152344 219.679688 473.078125 219.679688 474.21875 C 219.679688 475.363281 218.753906 476.289063 217.609375 476.289063 C 216.46875 476.289063 215.542969 475.363281 215.542969 474.21875 Z M 215.542969 474.21875 " transform="matrix(1,0,0,-1,-5,489)"/>
<path style="fill-rule:nonzero;fill:rgb(69.4%,87%,53.7%);fill-opacity:1;stroke-width:0.827;stroke-linecap:butt;stroke-linejoin:miter;stroke:rgb(0%,0%,0%);stroke-opacity:1;stroke-miterlimit:10;" d="M 228.753906 426.414063 C 228.753906 425.269531 229.679688 424.34375 230.820313 424.34375 C 231.964844 424.34375 232.890625 425.269531 232.890625 426.414063 C 232.890625 427.554688 231.964844 428.480469 230.820313 428.480469 C 229.679688 428.480469 228.753906 427.554688 228.753906 426.414063 Z M 228.753906 426.414063 " transform="matrix(1,0,0,-1,-5,489)"/>
<path style="fill-rule:nonzero;fill:rgb(69.4%,87%,53.7%);fill-opacity:1;stroke-width:0.827;stroke-linecap:butt;stroke-linejoin:miter;stroke:rgb(0%,0%,0%);stroke-opacity:1;stroke-miterlimit:10;" d="M 219.300781 408.410156 C 219.300781 407.269531 220.226563 406.34375 221.371094 406.34375 C 222.511719 406.34375 223.4375 407.269531 223.4375 408.410156 C 223.4375 409.550781 222.511719 410.476563 221.371094 410.476563 C 220.226563 410.476563 219.300781 409.550781 219.300781 408.410156 Z M 219.300781 408.410156 " transform="matrix(1,0,0,-1,-5,489)"/>
<path style="fill-rule:nonzero;fill:rgb(69.4%,87%,53.7%);fill-opacity:1;stroke-width:0.827;stroke-linecap:butt;stroke-linejoin:miter;stroke:rgb(0%,0%,0%);stroke-opacity:1;stroke-miterlimit:10;" d="M 226.488281 410.671875 C 226.488281 409.53125 227.414063 408.605469 228.558594 408.605469 C 229.699219 408.605469 230.625 409.53125 230.625 410.671875 C 230.625 411.816406 229.699219 412.742188 228.558594 412.742188 C 227.414063 412.742188 226.488281 411.816406 226.488281 410.671875 Z M 226.488281 410.671875 " transform="matrix(1,0,0,-1,-5,489)"/>
<path style="fill-rule:nonzero;fill:rgb(69.4%,87%,53.7%);fill-opacity:1;stroke-width:0.827;stroke-linecap:butt;stroke-linejoin:miter;stroke:rgb(0%,0%,0%);stroke-opacity:1;stroke-miterlimit:10;" d="M 234.34375 408.277344 C 234.34375 407.136719 235.269531 406.210938 236.410156 406.210938 C 237.554688 406.210938 238.480469 407.136719 238.480469 408.277344 C 238.480469 409.417969 237.554688 410.34375 236.410156 410.34375 C 235.269531 410.34375 234.34375 409.417969 234.34375 408.277344 Z M 234.34375 408.277344 " transform="matrix(1,0,0,-1,-5,489)"/>
<path style="fill-rule:nonzero;fill:rgb(69.4%,87%,53.7%);fill-opacity:1;stroke-width:0.827;stroke-linecap:butt;stroke-linejoin:miter;stroke:rgb(0%,0%,0%);stroke-opacity:1;stroke-miterlimit:10;" d="M 236.074219 390.308594 C 236.074219 389.164063 237 388.238281 238.140625 388.238281 C 239.285156 388.238281 240.210938 389.164063 240.210938 390.308594 C 240.210938 391.449219 239.285156 392.375 238.140625 392.375 C 237 392.375 236.074219 391.449219 236.074219 390.308594 Z M 236.074219 390.308594 " transform="matrix(1,0,0,-1,-5,489)"/>
<path style="fill-rule:nonzero;fill:rgb(69.4%,87%,53.7%);fill-opacity:1;stroke-width:0.827;stroke-linecap:butt;stroke-linejoin:miter;stroke:rgb(0%,0%,0%);stroke-opacity:1;stroke-miterlimit:10;" d="M 227.15625 392.570313 C 227.15625 391.429688 228.082031 390.503906 229.222656 390.503906 C 230.367188 390.503906 231.292969 391.429688 231.292969 392.570313 C 231.292969 393.710938 230.367188 394.636719 229.222656 394.636719 C 228.082031 394.636719 227.15625 393.710938 227.15625 392.570313 Z M 227.15625 392.570313 " transform="matrix(1,0,0,-1,-5,489)"/>
<path style="fill-rule:nonzero;fill:rgb(69.4%,87%,53.7%);fill-opacity:1;stroke-width:0.827;stroke-linecap:butt;stroke-linejoin:miter;stroke:rgb(0%,0%,0%);stroke-opacity:1;stroke-miterlimit:10;" d="M 221.03125 382.1875 C 221.03125 381.046875 221.960938 380.117188 223.101563 380.117188 C 224.242188 380.117188 225.167969 381.046875 225.167969 382.1875 C 225.167969 383.328125 224.242188 384.253906 223.101563 384.253906 C 221.960938 384.253906 221.03125 383.328125 221.03125 382.1875 Z M 221.03125 382.1875 " transform="matrix(1,0,0,-1,-5,489)"/>
<path style="fill-rule:nonzero;fill:rgb(69.4%,87%,53.7%);fill-opacity:1;stroke-width:0.827;stroke-linecap:butt;stroke-linejoin:miter;stroke:rgb(0%,0%,0%);stroke-opacity:1;stroke-miterlimit:10;" d="M 188.90625 347.535156 C 188.90625 346.390625 189.832031 345.464844 190.972656 345.464844 C 192.117188 345.464844 193.042969 346.390625 193.042969 347.535156 C 193.042969 348.675781 192.117188 349.601563 190.972656 349.601563 C 189.832031 349.601563 188.90625 348.675781 188.90625 347.535156 Z M 188.90625 347.535156 " transform="matrix(1,0,0,-1,-5,489)"/>
<path style="fill-rule:nonzero;fill:rgb(69.4%,87%,53.7%);fill-opacity:1;stroke-width:0.827;stroke-linecap:butt;stroke-linejoin:miter;stroke:rgb(0%,0%,0%);stroke-opacity:1;stroke-miterlimit:10;" d="M 251.363281 277.160156 C 251.363281 276.015625 252.289063 275.089844 253.429688 275.089844 C 254.570313 275.089844 255.496094 276.015625 255.496094 277.160156 C 255.496094 278.300781 254.570313 279.226563 253.429688 279.226563 C 252.289063 279.226563 251.363281 278.300781 251.363281 277.160156 Z M 251.363281 277.160156 " transform="matrix(1,0,0,-1,-5,489)"/>
<path style="fill-rule:nonzero;fill:rgb(69.4%,87%,53.7%);fill-opacity:1;stroke-width:0.827;stroke-linecap:butt;stroke-linejoin:miter;stroke:rgb(0%,0%,0%);stroke-opacity:1;stroke-miterlimit:10;" d="M 185.535156 238.96875 C 185.535156 237.824219 186.460938 236.898438 187.605469 236.898438 C 188.746094 236.898438 189.671875 237.824219 189.671875 238.96875 C 189.671875 240.109375 188.746094 241.035156 187.605469 241.035156 C 186.460938 241.035156 185.535156 240.109375 185.535156 238.96875 Z M 185.535156 238.96875 " transform="matrix(1,0,0,-1,-5,489)"/>
<path style="fill-rule:nonzero;fill:rgb(69.4%,87%,53.7%);fill-opacity:1;stroke-width:0.827;stroke-linecap:butt;stroke-linejoin:miter;stroke:rgb(0%,0%,0%);stroke-opacity:1;stroke-miterlimit:10;" d="M 196.992188 195.609375 C 196.992188 194.464844 197.921875 193.539063 199.0625 193.539063 C 200.203125 193.539063 201.128906 194.464844 201.128906 195.609375 C 201.128906 196.75 200.203125 197.675781 199.0625 197.675781 C 197.921875 197.675781 196.992188 196.75 196.992188 195.609375 Z M 196.992188 195.609375 " transform="matrix(1,0,0,-1,-5,489)"/>
<path style="fill-rule:nonzero;fill:rgb(69.4%,87%,53.7%);fill-opacity:1;stroke-width:0.827;stroke-linecap:butt;stroke-linejoin:miter;stroke:rgb(0%,0%,0%);stroke-opacity:1;stroke-miterlimit:10;" d="M 225.976563 172.691406 C 225.976563 171.550781 226.902344 170.625 228.042969 170.625 C 229.183594 170.625 230.109375 171.550781 230.109375 172.691406 C 230.109375 173.835938 229.183594 174.761719 228.042969 174.761719 C 226.902344 174.761719 225.976563 173.835938 225.976563 172.691406 Z M 225.976563 172.691406 " transform="matrix(1,0,0,-1,-5,489)"/>
<path style="fill-rule:nonzero;fill:rgb(69.4%,87%,53.7%);fill-opacity:1;stroke-width:0.827;stroke-linecap:butt;stroke-linejoin:miter;stroke:rgb(0%,0%,0%);stroke-opacity:1;stroke-miterlimit:10;" d="M 65.230469 165.277344 C 65.230469 164.136719 66.15625 163.210938 67.296875 163.210938 C 68.441406 163.210938 69.367188 164.136719 69.367188 165.277344 C 69.367188 166.421875 68.441406 167.347656 67.296875 167.347656 C 66.15625 167.347656 65.230469 166.421875 65.230469 165.277344 Z M 65.230469 165.277344 " transform="matrix(1,0,0,-1,-5,489)"/>
<path style="fill-rule:nonzero;fill:rgb(69.4%,87%,53.7%);fill-opacity:1;stroke-width:0.827;stroke-linecap:butt;stroke-linejoin:miter;stroke:rgb(0%,0%,0%);stroke-opacity:1;stroke-miterlimit:10;" d="M 78.035156 140.789063 C 78.035156 139.648438 78.960938 138.722656 80.105469 138.722656 C 81.246094 138.722656 82.171875 139.648438 82.171875 140.789063 C 82.171875 141.933594 81.246094 142.859375 80.105469 142.859375 C 78.960938 142.859375 78.035156 141.933594 78.035156 140.789063 Z M 78.035156 140.789063 " transform="matrix(1,0,0,-1,-5,489)"/>
<path style="fill-rule:nonzero;fill:rgb(69.4%,87%,53.7%);fill-opacity:1;stroke-width:0.827;stroke-linecap:butt;stroke-linejoin:miter;stroke:rgb(0%,0%,0%);stroke-opacity:1;stroke-miterlimit:10;" d="M 178.191406 414.28125 C 178.191406 413.140625 179.117188 412.214844 180.257813 412.214844 C 181.398438 412.214844 182.324219 413.140625 182.324219 414.28125 C 182.324219 415.421875 181.398438 416.347656 180.257813 416.347656 C 179.117188 416.347656 178.191406 415.421875 178.191406 414.28125 Z M 178.191406 414.28125 " transform="matrix(1,0,0,-1,-5,489)"/>
<path style="fill-rule:nonzero;fill:rgb(69.4%,87%,53.7%);fill-opacity:1;stroke-width:0.827;stroke-linecap:butt;stroke-linejoin:miter;stroke:rgb(0%,0%,0%);stroke-opacity:1;stroke-miterlimit:10;" d="M 158.421875 427.3125 C 158.421875 426.171875 159.347656 425.242188 160.488281 425.242188 C 161.628906 425.242188 162.554688 426.171875 162.554688 427.3125 C 162.554688 428.453125 161.628906 429.378906 160.488281 429.378906 C 159.347656 429.378906 158.421875 428.453125 158.421875 427.3125 Z M 158.421875 427.3125 " transform="matrix(1,0,0,-1,-5,489)"/>
<path style="fill-rule:nonzero;fill:rgb(69.4%,87%,53.7%);fill-opacity:1;stroke-width:0.827;stroke-linecap:butt;stroke-linejoin:miter;stroke:rgb(0%,0%,0%);stroke-opacity:1;stroke-miterlimit:10;" d="M 134.15625 453.597656 C 134.15625 452.453125 135.082031 451.527344 136.222656 451.527344 C 137.367188 451.527344 138.292969 452.453125 138.292969 453.597656 C 138.292969 454.738281 137.367188 455.664063 136.222656 455.664063 C 135.082031 455.664063 134.15625 454.738281 134.15625 453.597656 Z M 134.15625 453.597656 " transform="matrix(1,0,0,-1,-5,489)"/>
<path style="fill-rule:nonzero;fill:rgb(69.4%,87%,53.7%);fill-opacity:1;stroke-width:0.827;stroke-linecap:butt;stroke-linejoin:miter;stroke:rgb(0%,0%,0%);stroke-opacity:1;stroke-miterlimit:10;" d="M 93.269531 401.027344 C 93.269531 399.886719 94.195313 398.960938 95.335938 398.960938 C 96.476563 398.960938 97.40625 399.886719 97.40625 401.027344 C 97.40625 402.167969 96.476563 403.09375 95.335938 403.09375 C 94.195313 403.09375 93.269531 402.167969 93.269531 401.027344 Z M 93.269531 401.027344 " transform="matrix(1,0,0,-1,-5,489)"/>
<path style="fill-rule:nonzero;fill:rgb(69.4%,87%,53.7%);fill-opacity:1;stroke-width:0.827;stroke-linecap:butt;stroke-linejoin:miter;stroke:rgb(0%,0%,0%);stroke-opacity:1;stroke-miterlimit:10;" d="M 95.066406 431.578125 C 95.066406 430.4375 95.992188 429.511719 97.132813 429.511719 C 98.277344 429.511719 99.203125 430.4375 99.203125 431.578125 C 99.203125 432.722656 98.277344 433.648438 97.132813 433.648438 C 95.992188 433.648438 95.066406 432.722656 95.066406 431.578125 Z M 95.066406 431.578125 " transform="matrix(1,0,0,-1,-5,489)"/>
<path style="fill-rule:nonzero;fill:rgb(69.4%,87%,53.7%);fill-opacity:1;stroke-width:0.827;stroke-linecap:butt;stroke-linejoin:miter;stroke:rgb(0%,0%,0%);stroke-opacity:1;stroke-miterlimit:10;" d="M 95.964844 443.039063 C 95.964844 441.894531 96.890625 440.96875 98.03125 440.96875 C 99.175781 440.96875 100.101563 441.894531 100.101563 443.039063 C 100.101563 444.179688 99.175781 445.105469 98.03125 445.105469 C 96.890625 445.105469 95.964844 444.179688 95.964844 443.039063 Z M 95.964844 443.039063 " transform="matrix(1,0,0,-1,-5,489)"/>
<path style="fill-rule:nonzero;fill:rgb(98%,60%,60%);fill-opacity:1;stroke-width:0.827;stroke-linecap:butt;stroke-linejoin:miter;stroke:rgb(0%,0%,0%);stroke-opacity:1;stroke-miterlimit:10;" d="M 104.949219 449.609375 C 104.949219 448.46875 105.875 447.539063 107.019531 447.539063 C 108.160156 447.539063 109.085938 448.46875 109.085938 449.609375 C 109.085938 450.75 108.160156 451.675781 107.019531 451.675781 C 105.875 451.675781 104.949219 450.75 104.949219 449.609375 Z M 104.949219 449.609375 " transform="matrix(1,0,0,-1,-5,489)"/>
<path style="fill-rule:nonzero;fill:rgb(98%,60%,60%);fill-opacity:1;stroke-width:0.827;stroke-linecap:butt;stroke-linejoin:miter;stroke:rgb(0%,0%,0%);stroke-opacity:1;stroke-miterlimit:10;" d="M 118.203125 476.570313 C 118.203125 475.425781 119.132813 474.5 120.273438 474.5 C 121.414063 474.5 122.339844 475.425781 122.339844 476.570313 C 122.339844 477.710938 121.414063 478.636719 120.273438 478.636719 C 119.132813 478.636719 118.203125 477.710938 118.203125 476.570313 Z M 118.203125 476.570313 " transform="matrix(1,0,0,-1,-5,489)"/>
<path style="fill-rule:nonzero;fill:rgb(98%,60%,60%);fill-opacity:1;stroke-width:0.827;stroke-linecap:butt;stroke-linejoin:miter;stroke:rgb(0%,0%,0%);stroke-opacity:1;stroke-miterlimit:10;" d="M 185.378906 481.511719 C 185.378906 480.367188 186.304688 479.441406 187.445313 479.441406 C 188.589844 479.441406 189.515625 480.367188 189.515625 481.511719 C 189.515625 482.652344 188.589844 483.578125 187.445313 483.578125 C 186.304688 483.578125 185.378906 482.652344 185.378906 481.511719 Z M 185.378906 481.511719 " transform="matrix(1,0,0,-1,-5,489)"/>
<path style="fill-rule:nonzero;fill:rgb(98%,60%,60%);fill-opacity:1;stroke-width:0.827;stroke-linecap:butt;stroke-linejoin:miter;stroke:rgb(0%,0%,0%);stroke-opacity:1;stroke-miterlimit:10;" d="M 206.945313 466.460938 C 206.945313 465.316406 207.871094 464.390625 209.015625 464.390625 C 210.15625 464.390625 211.082031 465.316406 211.082031 466.460938 C 211.082031 467.601563 210.15625 468.527344 209.015625 468.527344 C 207.871094 468.527344 206.945313 467.601563 206.945313 466.460938 Z M 206.945313 466.460938 " transform="matrix(1,0,0,-1,-5,489)"/>
<path style="fill-rule:nonzero;fill:rgb(98%,60%,60%);fill-opacity:1;stroke-width:0.827;stroke-linecap:butt;stroke-linejoin:miter;stroke:rgb(0%,0%,0%);stroke-opacity:1;stroke-miterlimit:10;" d="M 85.628906 460.617188 C 85.628906 459.476563 86.554688 458.550781 87.699219 458.550781 C 88.839844 458.550781 89.765625 459.476563 89.765625 460.617188 C 89.765625 461.761719 88.839844 462.6875 87.699219 462.6875 C 86.554688 462.6875 85.628906 461.761719 85.628906 460.617188 Z M 85.628906 460.617188 " transform="matrix(1,0,0,-1,-5,489)"/>
<path style="fill-rule:nonzero;fill:rgb(98%,60%,60%);fill-opacity:1;stroke-width:0.827;stroke-linecap:butt;stroke-linejoin:miter;stroke:rgb(0%,0%,0%);stroke-opacity:1;stroke-miterlimit:10;" d="M 53.953125 394.566406 C 53.953125 393.425781 54.878906 392.5 56.019531 392.5 C 57.164063 392.5 58.089844 393.425781 58.089844 394.566406 C 58.089844 395.710938 57.164063 396.636719 56.019531 396.636719 C 54.878906 396.636719 53.953125 395.710938 53.953125 394.566406 Z M 53.953125 394.566406 " transform="matrix(1,0,0,-1,-5,489)"/>
<path style="fill-rule:nonzero;fill:rgb(98%,60%,60%);fill-opacity:1;stroke-width:0.827;stroke-linecap:butt;stroke-linejoin:miter;stroke:rgb(0%,0%,0%);stroke-opacity:1;stroke-miterlimit:10;" d="M 99.785156 390.75 C 99.785156 389.605469 100.710938 388.679688 101.851563 388.679688 C 102.992188 388.679688 103.917969 389.605469 103.917969 390.75 C 103.917969 391.890625 102.992188 392.816406 101.851563 392.816406 C 100.710938 392.816406 99.785156 391.890625 99.785156 390.75 Z M 99.785156 390.75 " transform="matrix(1,0,0,-1,-5,489)"/>
<path style="fill-rule:nonzero;fill:rgb(98%,60%,60%);fill-opacity:1;stroke-width:0.827;stroke-linecap:butt;stroke-linejoin:miter;stroke:rgb(0%,0%,0%);stroke-opacity:1;stroke-miterlimit:10;" d="M 171.675781 414.113281 C 171.675781 412.972656 172.601563 412.046875 173.742188 412.046875 C 174.886719 412.046875 175.8125 412.972656 175.8125 414.113281 C 175.8125 415.253906 174.886719 416.179688 173.742188 416.179688 C 172.601563 416.179688 171.675781 415.253906 171.675781 414.113281 Z M 171.675781 414.113281 " transform="matrix(1,0,0,-1,-5,489)"/>
<path style="fill-rule:nonzero;fill:rgb(98%,60%,60%);fill-opacity:1;stroke-width:0.827;stroke-linecap:butt;stroke-linejoin:miter;stroke:rgb(0%,0%,0%);stroke-opacity:1;stroke-miterlimit:10;" d="M 201.328125 397.9375 C 201.328125 396.796875 202.257813 395.871094 203.398438 395.871094 C 204.539063 395.871094 205.464844 396.796875 205.464844 397.9375 C 205.464844 399.078125 204.539063 400.007813 203.398438 400.007813 C 202.257813 400.007813 201.328125 399.078125 201.328125 397.9375 Z M 201.328125 397.9375 " transform="matrix(1,0,0,-1,-5,489)"/>
<path style="fill-rule:nonzero;fill:rgb(98%,60%,60%);fill-opacity:1;stroke-width:0.827;stroke-linecap:butt;stroke-linejoin:miter;stroke:rgb(0%,0%,0%);stroke-opacity:1;stroke-miterlimit:10;" d="M 160.21875 370.304688 C 160.21875 369.164063 161.144531 368.238281 162.285156 368.238281 C 163.425781 368.238281 164.351563 369.164063 164.351563 370.304688 C 164.351563 371.445313 163.425781 372.371094 162.285156 372.371094 C 161.144531 372.371094 160.21875 371.445313 160.21875 370.304688 Z M 160.21875 370.304688 " transform="matrix(1,0,0,-1,-5,489)"/>
<path style="fill-rule:nonzero;fill:rgb(98%,60%,60%);fill-opacity:1;stroke-width:0.827;stroke-linecap:butt;stroke-linejoin:miter;stroke:rgb(0%,0%,0%);stroke-opacity:1;stroke-miterlimit:10;" d="M 161.789063 364.238281 C 161.789063 363.097656 162.714844 362.171875 163.859375 362.171875 C 165 362.171875 165.925781 363.097656 165.925781 364.238281 C 165.925781 365.382813 165 366.308594 163.859375 366.308594 C 162.714844 366.308594 161.789063 365.382813 161.789063 364.238281 Z M 161.789063 364.238281 " transform="matrix(1,0,0,-1,-5,489)"/>
<path style="fill-rule:nonzero;fill:rgb(98%,60%,60%);fill-opacity:1;stroke-width:0.827;stroke-linecap:butt;stroke-linejoin:miter;stroke:rgb(0%,0%,0%);stroke-opacity:1;stroke-miterlimit:10;" d="M 81.808594 347.445313 C 81.808594 346.304688 82.738281 345.378906 83.878906 345.378906 C 85.019531 345.378906 85.945313 346.304688 85.945313 347.445313 C 85.945313 348.585938 85.019531 349.511719 83.878906 349.511719 C 82.738281 349.511719 81.808594 348.585938 81.808594 347.445313 Z M 81.808594 347.445313 " transform="matrix(1,0,0,-1,-5,489)"/>
<path style="fill-rule:nonzero;fill:rgb(98%,60%,60%);fill-opacity:1;stroke-width:0.827;stroke-linecap:butt;stroke-linejoin:miter;stroke:rgb(0%,0%,0%);stroke-opacity:1;stroke-miterlimit:10;" d="M 73.949219 316.441406 C 73.949219 315.300781 74.875 314.375 76.015625 314.375 C 77.15625 314.375 78.082031 315.300781 78.082031 316.441406 C 78.082031 317.585938 77.15625 318.511719 76.015625 318.511719 C 74.875 318.511719 73.949219 317.585938 73.949219 316.441406 Z M 73.949219 316.441406 " transform="matrix(1,0,0,-1,-5,489)"/>
<path style="fill-rule:nonzero;fill:rgb(98%,60%,60%);fill-opacity:1;stroke-width:0.827;stroke-linecap:butt;stroke-linejoin:miter;stroke:rgb(0%,0%,0%);stroke-opacity:1;stroke-miterlimit:10;" d="M 140.445313 323.632813 C 140.445313 322.488281 141.371094 321.5625 142.515625 321.5625 C 143.65625 321.5625 144.582031 322.488281 144.582031 323.632813 C 144.582031 324.773438 143.65625 325.699219 142.515625 325.699219 C 141.371094 325.699219 140.445313 324.773438 140.445313 323.632813 Z M 140.445313 323.632813 " transform="matrix(1,0,0,-1,-5,489)"/>
<path style="fill-rule:nonzero;fill:rgb(98%,60%,60%);fill-opacity:1;stroke-width:0.827;stroke-linecap:butt;stroke-linejoin:miter;stroke:rgb(0%,0%,0%);stroke-opacity:1;stroke-miterlimit:10;" d="M 133.929688 309.816406 C 133.929688 308.671875 134.855469 307.746094 136 307.746094 C 137.140625 307.746094 138.066406 308.671875 138.066406 309.816406 C 138.066406 310.957031 137.140625 311.882813 136 311.882813 C 134.855469 311.882813 133.929688 310.957031 133.929688 309.816406 Z M 133.929688 309.816406 " transform="matrix(1,0,0,-1,-5,489)"/>
<path style="fill-rule:nonzero;fill:rgb(98%,60%,60%);fill-opacity:1;stroke-width:0.827;stroke-linecap:butt;stroke-linejoin:miter;stroke:rgb(0%,0%,0%);stroke-opacity:1;stroke-miterlimit:10;" d="M 167.855469 301.726563 C 167.855469 300.585938 168.78125 299.660156 169.921875 299.660156 C 171.066406 299.660156 171.992188 300.585938 171.992188 301.726563 C 171.992188 302.867188 171.066406 303.796875 169.921875 303.796875 C 168.78125 303.796875 167.855469 302.867188 167.855469 301.726563 Z M 167.855469 301.726563 " transform="matrix(1,0,0,-1,-5,489)"/>
<path style="fill-rule:nonzero;fill:rgb(98%,60%,60%);fill-opacity:1;stroke-width:0.827;stroke-linecap:butt;stroke-linejoin:miter;stroke:rgb(0%,0%,0%);stroke-opacity:1;stroke-miterlimit:10;" d="M 122.25 307.117188 C 122.25 305.976563 123.175781 305.050781 124.316406 305.050781 C 125.460938 305.050781 126.386719 305.976563 126.386719 307.117188 C 126.386719 308.261719 125.460938 309.1875 124.316406 309.1875 C 123.175781 309.1875 122.25 308.261719 122.25 307.117188 Z M 122.25 307.117188 " transform="matrix(1,0,0,-1,-5,489)"/>
<path style="fill-rule:nonzero;fill:rgb(98%,60%,60%);fill-opacity:1;stroke-width:0.827;stroke-linecap:butt;stroke-linejoin:miter;stroke:rgb(0%,0%,0%);stroke-opacity:1;stroke-miterlimit:10;" d="M 122.472656 286.730469 C 122.472656 285.589844 123.398438 284.664063 124.542969 284.664063 C 125.683594 284.664063 126.609375 285.589844 126.609375 286.730469 C 126.609375 287.871094 125.683594 288.800781 124.542969 288.800781 C 123.398438 288.800781 122.472656 287.871094 122.472656 286.730469 Z M 122.472656 286.730469 " transform="matrix(1,0,0,-1,-5,489)"/>
<path style="fill-rule:nonzero;fill:rgb(98%,60%,60%);fill-opacity:1;stroke-width:0.827;stroke-linecap:butt;stroke-linejoin:miter;stroke:rgb(0%,0%,0%);stroke-opacity:1;stroke-miterlimit:10;" d="M 148.308594 269.207031 C 148.308594 268.066406 149.234375 267.140625 150.378906 267.140625 C 151.519531 267.140625 152.445313 268.066406 152.445313 269.207031 C 152.445313 270.351563 151.519531 271.277344 150.378906 271.277344 C 149.234375 271.277344 148.308594 270.351563 148.308594 269.207031 Z M 148.308594 269.207031 " transform="matrix(1,0,0,-1,-5,489)"/>
<path style="fill-rule:nonzero;fill:rgb(98%,60%,60%);fill-opacity:1;stroke-width:0.827;stroke-linecap:butt;stroke-linejoin:miter;stroke:rgb(0%,0%,0%);stroke-opacity:1;stroke-miterlimit:10;" d="M 149.210938 244.269531 C 149.210938 243.128906 150.136719 242.203125 151.277344 242.203125 C 152.417969 242.203125 153.34375 243.128906 153.34375 244.269531 C 153.34375 245.414063 152.417969 246.339844 151.277344 246.339844 C 150.136719 246.339844 149.210938 245.414063 149.210938 244.269531 Z M 149.210938 244.269531 " transform="matrix(1,0,0,-1,-5,489)"/>
<path style="fill-rule:nonzero;fill:rgb(98%,60%,60%);fill-opacity:1;stroke-width:0.827;stroke-linecap:butt;stroke-linejoin:miter;stroke:rgb(0%,0%,0%);stroke-opacity:1;stroke-miterlimit:10;" d="M 107.195313 238.652344 C 107.195313 237.511719 108.121094 236.585938 109.265625 236.585938 C 110.40625 236.585938 111.332031 237.511719 111.332031 238.652344 C 111.332031 239.796875 110.40625 240.722656 109.265625 240.722656 C 108.121094 240.722656 107.195313 239.796875 107.195313 238.652344 Z M 107.195313 238.652344 " transform="matrix(1,0,0,-1,-5,489)"/>
<path style="fill-rule:nonzero;fill:rgb(98%,60%,60%);fill-opacity:1;stroke-width:0.827;stroke-linecap:butt;stroke-linejoin:miter;stroke:rgb(0%,0%,0%);stroke-opacity:1;stroke-miterlimit:10;" d="M 102.703125 244.71875 C 102.703125 243.578125 103.628906 242.652344 104.773438 242.652344 C 105.914063 242.652344 106.839844 243.578125 106.839844 244.71875 C 106.839844 245.863281 105.914063 246.789063 104.773438 246.789063 C 103.628906 246.789063 102.703125 245.863281 102.703125 244.71875 Z M 102.703125 244.71875 " transform="matrix(1,0,0,-1,-5,489)"/>
<path style="fill-rule:nonzero;fill:rgb(98%,60%,60%);fill-opacity:1;stroke-width:0.827;stroke-linecap:butt;stroke-linejoin:miter;stroke:rgb(0%,0%,0%);stroke-opacity:1;stroke-miterlimit:10;" d="M 86.304688 258.871094 C 86.304688 257.730469 87.230469 256.804688 88.371094 256.804688 C 89.515625 256.804688 90.441406 257.730469 90.441406 258.871094 C 90.441406 260.015625 89.515625 260.941406 88.371094 260.941406 C 87.230469 260.941406 86.304688 260.015625 86.304688 258.871094 Z M 86.304688 258.871094 " transform="matrix(1,0,0,-1,-5,489)"/>
<path style="fill-rule:nonzero;fill:rgb(98%,60%,60%);fill-opacity:1;stroke-width:0.827;stroke-linecap:butt;stroke-linejoin:miter;stroke:rgb(0%,0%,0%);stroke-opacity:1;stroke-miterlimit:10;" d="M 192.792969 251.402344 C 192.792969 250.261719 193.71875 249.335938 194.859375 249.335938 C 196.003906 249.335938 196.929688 250.261719 196.929688 251.402344 C 196.929688 252.546875 196.003906 253.472656 194.859375 253.472656 C 193.71875 253.472656 192.792969 252.546875 192.792969 251.402344 Z M 192.792969 251.402344 " transform="matrix(1,0,0,-1,-5,489)"/>
<path style="fill-rule:nonzero;fill:rgb(98%,60%,60%);fill-opacity:1;stroke-width:0.827;stroke-linecap:butt;stroke-linejoin:miter;stroke:rgb(0%,0%,0%);stroke-opacity:1;stroke-miterlimit:10;" d="M 175.71875 208.941406 C 175.71875 207.800781 176.644531 206.875 177.785156 206.875 C 178.929688 206.875 179.855469 207.800781 179.855469 208.941406 C 179.855469 210.085938 178.929688 211.011719 177.785156 211.011719 C 176.644531 211.011719 175.71875 210.085938 175.71875 208.941406 Z M 175.71875 208.941406 " transform="matrix(1,0,0,-1,-5,489)"/>
<path style="fill-rule:nonzero;fill:rgb(98%,60%,60%);fill-opacity:1;stroke-width:0.827;stroke-linecap:butt;stroke-linejoin:miter;stroke:rgb(0%,0%,0%);stroke-opacity:1;stroke-miterlimit:10;" d="M 61.367188 183.105469 C 61.367188 181.964844 62.292969 181.039063 63.433594 181.039063 C 64.578125 181.039063 65.503906 181.964844 65.503906 183.105469 C 65.503906 184.25 64.578125 185.175781 63.433594 185.175781 C 62.292969 185.175781 61.367188 184.25 61.367188 183.105469 Z M 61.367188 183.105469 " transform="matrix(1,0,0,-1,-5,489)"/>
<path style="fill-rule:nonzero;fill:rgb(98%,60%,60%);fill-opacity:1;stroke-width:0.827;stroke-linecap:butt;stroke-linejoin:miter;stroke:rgb(0%,0%,0%);stroke-opacity:1;stroke-miterlimit:10;" d="M 50.203125 157.425781 C 50.203125 156.285156 51.128906 155.359375 52.269531 155.359375 C 53.414063 155.359375 54.339844 156.285156 54.339844 157.425781 C 54.339844 158.570313 53.414063 159.496094 52.269531 159.496094 C 51.128906 159.496094 50.203125 158.570313 50.203125 157.425781 Z M 50.203125 157.425781 " transform="matrix(1,0,0,-1,-5,489)"/>
<path style="fill-rule:nonzero;fill:rgb(98%,60%,60%);fill-opacity:1;stroke-width:0.827;stroke-linecap:butt;stroke-linejoin:miter;stroke:rgb(0%,0%,0%);stroke-opacity:1;stroke-miterlimit:10;" d="M 44.324219 162.269531 C 44.324219 161.128906 45.25 160.199219 46.390625 160.199219 C 47.535156 160.199219 48.460938 161.128906 48.460938 162.269531 C 48.460938 163.410156 47.535156 164.335938 46.390625 164.335938 C 45.25 164.335938 44.324219 163.410156 44.324219 162.269531 Z M 44.324219 162.269531 " transform="matrix(1,0,0,-1,-5,489)"/>
<path style="fill-rule:nonzero;fill:rgb(98%,60%,60%);fill-opacity:1;stroke-width:0.827;stroke-linecap:butt;stroke-linejoin:miter;stroke:rgb(0%,0%,0%);stroke-opacity:1;stroke-miterlimit:10;" d="M 39.136719 166.246094 C 39.136719 165.105469 40.0625 164.179688 41.203125 164.179688 C 42.34375 164.179688 43.273438 165.105469 43.273438 166.246094 C 43.273438 167.390625 42.34375 168.316406 41.203125 168.316406 C 40.0625 168.316406 39.136719 167.390625 39.136719 166.246094 Z M 39.136719 166.246094 " transform="matrix(1,0,0,-1,-5,489)"/>
<path style="fill-rule:nonzero;fill:rgb(98%,60%,60%);fill-opacity:1;stroke-width:0.827;stroke-linecap:butt;stroke-linejoin:miter;stroke:rgb(0%,0%,0%);stroke-opacity:1;stroke-miterlimit:10;" d="M 33.257813 170.742188 C 33.257813 169.601563 34.183594 168.675781 35.324219 168.675781 C 36.464844 168.675781 37.390625 169.601563 37.390625 170.742188 C 37.390625 171.886719 36.464844 172.8125 35.324219 172.8125 C 34.183594 172.8125 33.257813 171.886719 33.257813 170.742188 Z M 33.257813 170.742188 " transform="matrix(1,0,0,-1,-5,489)"/>
<path style="fill-rule:nonzero;fill:rgb(98%,60%,60%);fill-opacity:1;stroke-width:0.827;stroke-linecap:butt;stroke-linejoin:miter;stroke:rgb(0%,0%,0%);stroke-opacity:1;stroke-miterlimit:10;" d="M 10.257813 157.082031 C 10.257813 155.9375 11.183594 155.011719 12.324219 155.011719 C 13.464844 155.011719 14.390625 155.9375 14.390625 157.082031 C 14.390625 158.222656 13.464844 159.148438 12.324219 159.148438 C 11.183594 159.148438 10.257813 158.222656 10.257813 157.082031 Z M 10.257813 157.082031 " transform="matrix(1,0,0,-1,-5,489)"/>
<path style="fill-rule:nonzero;fill:rgb(98%,60%,60%);fill-opacity:1;stroke-width:0.827;stroke-linecap:butt;stroke-linejoin:miter;stroke:rgb(0%,0%,0%);stroke-opacity:1;stroke-miterlimit:10;" d="M 20.460938 174.71875 C 20.460938 173.578125 21.386719 172.652344 22.527344 172.652344 C 23.667969 172.652344 24.59375 173.578125 24.59375 174.71875 C 24.59375 175.863281 23.667969 176.789063 22.527344 176.789063 C 21.386719 176.789063 20.460938 175.863281 20.460938 174.71875 Z M 20.460938 174.71875 " transform="matrix(1,0,0,-1,-5,489)"/>
<path style="fill-rule:nonzero;fill:rgb(98%,60%,60%);fill-opacity:1;stroke-width:0.827;stroke-linecap:butt;stroke-linejoin:miter;stroke:rgb(0%,0%,0%);stroke-opacity:1;stroke-miterlimit:10;" d="M 41.730469 188.898438 C 41.730469 187.757813 42.65625 186.832031 43.796875 186.832031 C 44.941406 186.832031 45.867188 187.757813 45.867188 188.898438 C 45.867188 190.042969 44.941406 190.96875 43.796875 190.96875 C 42.65625 190.96875 41.730469 190.042969 41.730469 188.898438 Z M 41.730469 188.898438 " transform="matrix(1,0,0,-1,-5,489)"/>
<path style="fill-rule:nonzero;fill:rgb(98%,60%,60%);fill-opacity:1;stroke-width:0.827;stroke-linecap:butt;stroke-linejoin:miter;stroke:rgb(0%,0%,0%);stroke-opacity:1;stroke-miterlimit:10;" d="M 47.609375 194.78125 C 47.609375 193.636719 48.535156 192.710938 49.675781 192.710938 C 50.820313 192.710938 51.746094 193.636719 51.746094 194.78125 C 51.746094 195.921875 50.820313 196.847656 49.675781 196.847656 C 48.535156 196.847656 47.609375 195.921875 47.609375 194.78125 Z M 47.609375 194.78125 " transform="matrix(1,0,0,-1,-5,489)"/>
<path style="fill-rule:nonzero;fill:rgb(98%,60%,60%);fill-opacity:1;stroke-width:0.827;stroke-linecap:butt;stroke-linejoin:miter;stroke:rgb(0%,0%,0%);stroke-opacity:1;stroke-miterlimit:10;" d="M 33.949219 213.5 C 33.949219 212.359375 34.875 211.433594 36.015625 211.433594 C 37.15625 211.433594 38.082031 212.359375 38.082031 213.5 C 38.082031 214.640625 37.15625 215.566406 36.015625 215.566406 C 34.875 215.566406 33.949219 214.640625 33.949219 213.5 Z M 33.949219 213.5 " transform="matrix(1,0,0,-1,-5,489)"/>
<path style="fill-rule:nonzero;fill:rgb(98%,60%,60%);fill-opacity:1;stroke-width:0.827;stroke-linecap:butt;stroke-linejoin:miter;stroke:rgb(0%,0%,0%);stroke-opacity:1;stroke-miterlimit:10;" d="M 29.453125 218.6875 C 29.453125 217.546875 30.378906 216.621094 31.519531 216.621094 C 32.660156 216.621094 33.585938 217.546875 33.585938 218.6875 C 33.585938 219.828125 32.660156 220.757813 31.519531 220.757813 C 30.378906 220.757813 29.453125 219.828125 29.453125 218.6875 Z M 29.453125 218.6875 " transform="matrix(1,0,0,-1,-5,489)"/>
<path style="fill-rule:nonzero;fill:rgb(98%,60%,60%);fill-opacity:1;stroke-width:0.827;stroke-linecap:butt;stroke-linejoin:miter;stroke:rgb(0%,0%,0%);stroke-opacity:1;stroke-miterlimit:10;" d="M 49.683594 254.65625 C 49.683594 253.515625 50.609375 252.589844 51.753906 252.589844 C 52.894531 252.589844 53.820313 253.515625 53.820313 254.65625 C 53.820313 255.800781 52.894531 256.726563 51.753906 256.726563 C 50.609375 256.726563 49.683594 255.800781 49.683594 254.65625 Z M 49.683594 254.65625 " transform="matrix(1,0,0,-1,-5,489)"/>
<path style="fill-rule:nonzero;fill:rgb(98%,60%,60%);fill-opacity:1;stroke-width:0.827;stroke-linecap:butt;stroke-linejoin:miter;stroke:rgb(0%,0%,0%);stroke-opacity:1;stroke-miterlimit:10;" d="M 62.652344 281.9375 C 62.652344 280.792969 63.578125 279.867188 64.722656 279.867188 C 65.863281 279.867188 66.789063 280.792969 66.789063 281.9375 C 66.789063 283.078125 65.863281 284.003906 64.722656 284.003906 C 63.578125 284.003906 62.652344 283.078125 62.652344 281.9375 Z M 62.652344 281.9375 " transform="matrix(1,0,0,-1,-5,489)"/>
<path style="fill-rule:nonzero;fill:rgb(98%,60%,60%);fill-opacity:1;stroke-width:0.827;stroke-linecap:butt;stroke-linejoin:miter;stroke:rgb(0%,0%,0%);stroke-opacity:1;stroke-miterlimit:10;" d="M 53.488281 290.410156 C 53.488281 289.269531 54.414063 288.34375 55.558594 288.34375 C 56.699219 288.34375 57.625 289.269531 57.625 290.410156 C 57.625 291.550781 56.699219 292.476563 55.558594 292.476563 C 54.414063 292.476563 53.488281 291.550781 53.488281 290.410156 Z M 53.488281 290.410156 " transform="matrix(1,0,0,-1,-5,489)"/>
<path style="fill-rule:nonzero;fill:rgb(98%,60%,60%);fill-opacity:1;stroke-width:0.827;stroke-linecap:butt;stroke-linejoin:miter;stroke:rgb(0%,0%,0%);stroke-opacity:1;stroke-miterlimit:10;" d="M 231.699219 374.113281 C 231.699219 372.972656 232.625 372.046875 233.769531 372.046875 C 234.910156 372.046875 235.835938 372.972656 235.835938 374.113281 C 235.835938 375.253906 234.910156 376.179688 233.769531 376.179688 C 232.625 376.179688 231.699219 375.253906 231.699219 374.113281 Z M 231.699219 374.113281 " transform="matrix(1,0,0,-1,-5,489)"/>
</g>
</svg>
