<?xml version="1.0" encoding="UTF-8"?>
<svg xmlns="http://www.w3.org/2000/svg" xmlns:xlink="http://www.w3.org/1999/xlink" width="246pt" height="148pt" viewBox="0 0 246 148" version="1.1">
<g id="surface227814">
<path style="fill-rule:nonzero;fill:rgb(99.6%,92.1%,82.7%);fill-opacity:1;stroke-width:0.432;stroke-linecap:butt;stroke-linejoin:miter;stroke:rgb(0%,0%,0%);stroke-opacity:1;stroke-miterlimit:10;" d="M 213.953125 62.492188 C 213.953125 65 215.984375 67.03125 218.496094 67.03125 C 221.003906 67.03125 223.035156 65 223.035156 62.492188 C 223.035156 59.984375 221.003906 57.949219 218.496094 57.949219 C 215.984375 57.949219 213.953125 59.984375 213.953125 62.492188 Z M 213.953125 62.492188 " transform="matrix(1,0,0,-1,-4,174)"/>
<path style="fill-rule:nonzero;fill:rgb(90.5%,96%,85.8%);fill-opacity:1;stroke-width:0.432;stroke-linecap:butt;stroke-linejoin:miter;stroke:rgb(0%,0%,0%);stroke-opacity:1;stroke-miterlimit:10;" d="M 86.421875 77.121094 L 105.589844 64.699219 C 106.339844 64.214844 106.929688 63.519531 107.285156 62.703125 L 117.472656 39.300781 C 118.121094 37.816406 117.925781 36.09375 116.960938 34.789063 C 115.996094 33.484375 114.40625 32.792969 112.792969 32.976563 C 111.183594 33.160156 109.789063 34.1875 109.144531 35.675781 L 99.5 57.820313 L 81.480469 69.5 C 79.375 70.863281 78.773438 73.675781 80.136719 75.78125 C 81.503906 77.886719 84.316406 78.488281 86.421875 77.121094 Z M 86.421875 77.121094 " transform="matrix(1,0,0,-1,-4,174)"/>
<path style="fill-rule:nonzero;fill:rgb(89.4%,94.1%,96.4%);fill-opacity:1;stroke-width:0.432;stroke-linecap:butt;stroke-linejoin:miter;stroke:rgb(0%,0%,0%);stroke-opacity:1;stroke-miterlimit:10;" d="M 85.066406 67.175781 L 87.835938 46.378906 C 88.039063 44.859375 87.460938 43.34375 86.304688 42.34375 C 85.144531 41.339844 83.5625 40.992188 82.089844 41.410156 L 56.617188 48.667969 C 55.054688 49.113281 53.847656 50.359375 53.453125 51.9375 C 53.058594 53.511719 53.539063 55.179688 54.707031 56.308594 L 76.429688 77.238281 C 77.664063 78.425781 79.460938 78.820313 81.078125 78.257813 C 81.546875 78.09375 81.976563 77.855469 82.355469 77.5625 C 82.859375 77.175781 83.273438 76.6875 83.574219 76.132813 C 83.726563 75.847656 83.523438 75.507813 83.191406 75.386719 C 82.199219 75.023438 81.601563 74.011719 81.765625 72.96875 C 81.933594 71.921875 82.8125 71.140625 83.867188 71.101563 C 84.234375 71.089844 84.574219 70.867188 84.621094 70.515625 L 84.84375 68.855469 Z M 85.066406 67.175781 " transform="matrix(1,0,0,-1,-4,174)"/>
<path style="fill-rule:nonzero;fill:rgb(89.4%,94.1%,96.4%);fill-opacity:1;stroke-width:0.432;stroke-linecap:butt;stroke-linejoin:miter;stroke:rgb(0%,0%,0%);stroke-opacity:1;stroke-miterlimit:10;" d="M 32.3125 60.714844 C 38.339844 61.179688 39.054688 52.148438 33.03125 51.660156 C 33.023438 51.660156 33.015625 51.65625 33.007813 51.65625 L 9.863281 49.878906 C 8.246094 49.753906 6.683594 50.503906 5.769531 51.839844 C 4.851563 53.179688 4.71875 54.90625 5.421875 56.367188 C 6.121094 57.832031 7.550781 58.8125 9.167969 58.933594 Z M 32.3125 60.714844 " transform="matrix(1,0,0,-1,-4,174)"/>
<path style="fill-rule:nonzero;fill:rgb(99.6%,92.1%,82.7%);fill-opacity:1;stroke-width:0.432;stroke-linecap:butt;stroke-linejoin:miter;stroke:rgb(0%,0%,0%);stroke-opacity:1;stroke-miterlimit:10;" d="M 33.03125 51.660156 L 33.5 53.085938 C 33.589844 53.363281 33.804688 53.570313 34.058594 53.714844 C 35.28125 54.402344 35.816406 55.886719 35.3125 57.199219 C 35.214844 57.464844 35.207031 57.765625 35.375 57.988281 C 35.644531 58.335938 35.957031 58.640625 36.308594 58.894531 C 37.449219 59.726563 38.960938 60.015625 40.402344 59.539063 C 42.785156 58.757813 44.082031 56.191406 43.296875 53.808594 L 35.265625 29.382813 C 34.480469 27 31.914063 25.703125 29.53125 26.488281 C 27.148438 27.269531 25.851563 29.839844 26.636719 32.222656 Z M 33.03125 51.660156 " transform="matrix(1,0,0,-1,-4,174)"/>
<path style="fill-rule:nonzero;fill:rgb(99.6%,92.1%,82.7%);fill-opacity:1;stroke-width:0.432;stroke-linecap:butt;stroke-linejoin:miter;stroke:rgb(0%,0%,0%);stroke-opacity:1;stroke-miterlimit:10;" d="M 106.601563 80.671875 C 106.601563 83.179688 108.632813 85.214844 111.144531 85.214844 C 113.652344 85.214844 115.683594 83.179688 115.683594 80.671875 C 115.683594 78.160156 113.652344 76.128906 111.144531 76.128906 C 108.632813 76.128906 106.601563 78.160156 106.601563 80.671875 Z M 106.601563 80.671875 " transform="matrix(1,0,0,-1,-4,174)"/>
<path style="fill-rule:nonzero;fill:rgb(99.6%,92.1%,82.7%);fill-opacity:1;stroke-width:0.432;stroke-linecap:butt;stroke-linejoin:miter;stroke:rgb(0%,0%,0%);stroke-opacity:1;stroke-miterlimit:10;" d="M 226.375 152.953125 C 226.375 155.460938 228.410156 157.492188 230.917969 157.492188 C 233.425781 157.492188 235.460938 155.460938 235.460938 152.953125 C 235.460938 150.445313 233.425781 148.410156 230.917969 148.410156 C 228.410156 148.410156 226.375 150.445313 226.375 152.953125 Z M 226.375 152.953125 " transform="matrix(1,0,0,-1,-4,174)"/>
<path style="fill-rule:nonzero;fill:rgb(99.6%,92.1%,82.7%);fill-opacity:1;stroke-width:0.432;stroke-linecap:butt;stroke-linejoin:miter;stroke:rgb(0%,0%,0%);stroke-opacity:1;stroke-miterlimit:10;" d="M 142.105469 145.882813 C 142.105469 148.390625 144.140625 150.421875 146.648438 150.421875 C 149.15625 150.421875 151.191406 148.390625 151.191406 145.882813 C 151.191406 143.371094 149.15625 141.339844 146.648438 141.339844 C 144.140625 141.339844 142.105469 143.371094 142.105469 145.882813 Z M 142.105469 145.882813 " transform="matrix(1,0,0,-1,-4,174)"/>
<path style="fill-rule:nonzero;fill:rgb(99.6%,92.1%,82.7%);fill-opacity:1;stroke-width:0.432;stroke-linecap:butt;stroke-linejoin:miter;stroke:rgb(0%,0%,0%);stroke-opacity:1;stroke-miterlimit:10;" d="M 54.609375 131.511719 C 54.609375 134.019531 56.644531 136.054688 59.152344 136.054688 C 61.660156 136.054688 63.695313 134.019531 63.695313 131.511719 C 63.695313 129.003906 61.660156 126.96875 59.152344 126.96875 C 56.644531 126.96875 54.609375 129.003906 54.609375 131.511719 Z M 54.609375 131.511719 " transform="matrix(1,0,0,-1,-4,174)"/>
<path style="fill-rule:nonzero;fill:rgb(90.5%,96%,85.8%);fill-opacity:1;stroke-width:0.432;stroke-linecap:butt;stroke-linejoin:miter;stroke:rgb(0%,0%,0%);stroke-opacity:1;stroke-miterlimit:10;" d="M 92.507813 110.140625 C 92.507813 112.648438 94.539063 114.683594 97.046875 114.683594 C 99.558594 114.683594 101.589844 112.648438 101.589844 110.140625 C 101.589844 107.632813 99.558594 105.597656 97.046875 105.597656 C 94.539063 105.597656 92.507813 107.632813 92.507813 110.140625 Z M 92.507813 110.140625 " transform="matrix(1,0,0,-1,-4,174)"/>
<path style="fill-rule:nonzero;fill:rgb(89.4%,94.1%,96.4%);fill-opacity:1;stroke-width:0.432;stroke-linecap:butt;stroke-linejoin:miter;stroke:rgb(0%,0%,0%);stroke-opacity:1;stroke-miterlimit:10;" d="M 137.808594 154.042969 C 137.808594 156.550781 139.839844 158.585938 142.347656 158.585938 C 144.855469 158.585938 146.890625 156.550781 146.890625 154.042969 C 146.890625 151.535156 144.855469 149.5 142.347656 149.5 C 139.839844 149.5 137.808594 151.535156 137.808594 154.042969 Z M 137.808594 154.042969 " transform="matrix(1,0,0,-1,-4,174)"/>
<path style="fill-rule:nonzero;fill:rgb(90.5%,96%,85.8%);fill-opacity:1;stroke-width:0.432;stroke-linecap:butt;stroke-linejoin:miter;stroke:rgb(0%,0%,0%);stroke-opacity:1;stroke-miterlimit:10;" d="M 137.410156 52.078125 C 137.410156 54.589844 139.445313 56.621094 141.953125 56.621094 C 144.460938 56.621094 146.496094 54.589844 146.496094 52.078125 C 146.496094 49.570313 144.460938 47.535156 141.953125 47.535156 C 139.445313 47.535156 137.410156 49.570313 137.410156 52.078125 Z M 137.410156 52.078125 " transform="matrix(1,0,0,-1,-4,174)"/>
<path style="fill-rule:nonzero;fill:rgb(90.5%,96%,85.8%);fill-opacity:1;stroke-width:0.432;stroke-linecap:butt;stroke-linejoin:miter;stroke:rgb(0%,0%,0%);stroke-opacity:1;stroke-miterlimit:10;" d="M 66.421875 34.285156 C 66.421875 36.796875 68.453125 38.828125 70.960938 38.828125 C 73.472656 38.828125 75.503906 36.796875 75.503906 34.285156 C 75.503906 31.777344 73.472656 29.746094 70.960938 29.746094 C 68.453125 29.746094 66.421875 31.777344 66.421875 34.285156 Z M 66.421875 34.285156 " transform="matrix(1,0,0,-1,-4,174)"/>
<path style="fill-rule:nonzero;fill:rgb(99.6%,92.1%,82.7%);fill-opacity:1;stroke-width:0.432;stroke-linecap:butt;stroke-linejoin:miter;stroke:rgb(0%,0%,0%);stroke-opacity:1;stroke-miterlimit:10;" d="M 168.332031 125.871094 L 168.816406 125.761719 C 171.261719 125.203125 172.792969 122.769531 172.234375 120.320313 C 171.675781 117.878906 169.242188 116.34375 166.796875 116.902344 L 166.316406 117.011719 C 163.867188 117.570313 162.335938 120.003906 162.894531 122.449219 C 163.453125 124.894531 165.886719 126.425781 168.332031 125.871094 Z M 168.332031 125.871094 " transform="matrix(1,0,0,-1,-4,174)"/>
<path style="fill-rule:nonzero;fill:rgb(99.6%,92.1%,82.7%);fill-opacity:1;stroke-width:0.432;stroke-linecap:butt;stroke-linejoin:miter;stroke:rgb(0%,0%,0%);stroke-opacity:1;stroke-miterlimit:10;" d="M 72.949219 93.234375 L 76.886719 86.613281 C 77.714844 85.21875 77.734375 83.488281 76.941406 82.070313 C 76.148438 80.65625 74.660156 79.773438 73.039063 79.753906 C 71.414063 79.730469 69.90625 80.578125 69.074219 81.972656 L 65.140625 88.59375 C 64.3125 89.988281 64.289063 91.71875 65.082031 93.136719 C 65.878906 94.550781 67.367188 95.433594 68.988281 95.457031 C 70.609375 95.476563 72.121094 94.628906 72.949219 93.234375 Z M 72.949219 93.234375 " transform="matrix(1,0,0,-1,-4,174)"/>
<path style="fill-rule:nonzero;fill:rgb(89.4%,94.1%,96.4%);fill-opacity:1;stroke-width:0.432;stroke-linecap:butt;stroke-linejoin:miter;stroke:rgb(0%,0%,0%);stroke-opacity:1;stroke-miterlimit:10;" d="M 96.890625 99.195313 L 106.507813 106.6875 C 107.789063 107.6875 109.503906 107.925781 111.007813 107.316406 C 112.511719 106.707031 113.578125 105.339844 113.800781 103.734375 C 114.023438 102.125 113.375 100.519531 112.09375 99.523438 L 102.476563 92.027344 C 101.195313 91.03125 99.480469 90.792969 97.976563 91.402344 C 96.472656 92.011719 95.40625 93.378906 95.183594 94.984375 C 94.960938 96.59375 95.609375 98.195313 96.890625 99.195313 Z M 96.890625 99.195313 " transform="matrix(1,0,0,-1,-4,174)"/>
<path style="fill-rule:nonzero;fill:rgb(99.6%,92.1%,82.7%);fill-opacity:1;stroke-width:0.432;stroke-linecap:butt;stroke-linejoin:miter;stroke:rgb(0%,0%,0%);stroke-opacity:1;stroke-miterlimit:10;" d="M 239.832031 74.730469 L 240.117188 88.285156 C 240.167969 90.792969 242.242188 92.785156 244.75 92.730469 C 247.257813 92.679688 249.25 90.605469 249.199219 88.097656 L 248.914063 74.539063 C 248.863281 72.03125 246.785156 70.042969 244.277344 70.09375 C 241.769531 70.148438 239.78125 72.222656 239.832031 74.730469 Z M 239.832031 74.730469 " transform="matrix(1,0,0,-1,-4,174)"/>
<path style="fill-rule:nonzero;fill:rgb(99.6%,92.1%,82.7%);fill-opacity:1;stroke-width:0.432;stroke-linecap:butt;stroke-linejoin:miter;stroke:rgb(0%,0%,0%);stroke-opacity:1;stroke-miterlimit:10;" d="M 226.191406 55.546875 L 235.792969 55.261719 C 237.234375 55.21875 238.570313 54.492188 239.390625 53.308594 C 240.210938 52.125 240.421875 50.621094 239.957031 49.257813 L 236.230469 38.308594 C 235.445313 36.007813 232.988281 34.730469 230.652344 35.414063 L 225.785156 36.839844 C 224.011719 37.359375 222.734375 38.898438 222.542969 40.734375 L 221.535156 50.542969 C 221.402344 51.847656 221.835938 53.140625 222.730469 54.101563 C 223.621094 55.058594 224.882813 55.585938 226.191406 55.546875 Z M 226.191406 55.546875 " transform="matrix(1,0,0,-1,-4,174)"/>
<path style="fill-rule:nonzero;fill:rgb(89.4%,94.1%,96.4%);fill-opacity:1;stroke-width:0.432;stroke-linecap:butt;stroke-linejoin:miter;stroke:rgb(0%,0%,0%);stroke-opacity:1;stroke-miterlimit:10;" d="M 29.890625 104.597656 L 42.34375 88.636719 C 43.886719 86.65625 43.535156 83.804688 41.558594 82.261719 C 39.578125 80.71875 36.726563 81.070313 35.183594 83.050781 L 22.730469 99.011719 C 21.730469 100.289063 21.492188 102.003906 22.101563 103.507813 C 22.710938 105.011719 24.074219 106.078125 25.683594 106.304688 C 27.289063 106.527344 28.894531 105.878906 29.890625 104.597656 Z M 29.890625 104.597656 " transform="matrix(1,0,0,-1,-4,174)"/>
<path style="fill-rule:nonzero;fill:rgb(90.5%,96%,85.8%);fill-opacity:1;stroke-width:0.432;stroke-linecap:butt;stroke-linejoin:miter;stroke:rgb(0%,0%,0%);stroke-opacity:1;stroke-miterlimit:10;" d="M 200.605469 116.96875 C 201.15625 115.828125 201.203125 114.507813 200.734375 113.328125 L 195.226563 99.40625 C 194.628906 97.894531 193.273438 96.820313 191.667969 96.582031 C 190.0625 96.34375 188.453125 96.980469 187.445313 98.253906 C 186.4375 99.523438 186.183594 101.238281 186.78125 102.746094 L 191.558594 114.820313 L 189.511719 119.070313 C 188.425781 121.328125 189.375 124.042969 191.636719 125.132813 C 193.898438 126.21875 196.613281 125.269531 197.699219 123.007813 Z M 200.605469 116.96875 " transform="matrix(1,0,0,-1,-4,174)"/>
<path style="fill-rule:nonzero;fill:rgb(90.5%,96%,85.8%);fill-opacity:1;stroke-width:0.432;stroke-linecap:butt;stroke-linejoin:miter;stroke:rgb(0%,0%,0%);stroke-opacity:1;stroke-miterlimit:10;" d="M 142.441406 101.363281 L 160.910156 101.101563 C 162.292969 101.085938 163.589844 100.4375 164.4375 99.34375 C 165.28125 98.25 165.585938 96.828125 165.257813 95.488281 L 160.273438 75.019531 C 159.84375 73.257813 158.410156 71.921875 156.625 71.617188 C 154.839844 71.3125 153.042969 72.097656 152.054688 73.617188 L 138.570313 94.34375 C 137.65625 95.75 137.589844 97.546875 138.402344 99.015625 C 139.210938 100.484375 140.765625 101.386719 142.441406 101.363281 Z M 142.441406 101.363281 " transform="matrix(1,0,0,-1,-4,174)"/>
<path style="fill-rule:nonzero;fill:rgb(89.4%,94.1%,96.4%);fill-opacity:1;stroke-width:0.432;stroke-linecap:butt;stroke-linejoin:miter;stroke:rgb(0%,0%,0%);stroke-opacity:1;stroke-miterlimit:10;" d="M 89.792969 134.125 C 89.917969 134.050781 90.035156 133.972656 90.152344 133.890625 L 95.179688 130.207031 L 112.316406 139.566406 L 115.007813 149.96875 L 103.890625 165.140625 C 102.410156 167.160156 102.847656 170.003906 104.871094 171.488281 C 106.894531 172.96875 109.734375 172.53125 111.21875 170.507813 L 123.609375 153.601563 C 124.414063 152.503906 124.683594 151.097656 124.339844 149.777344 L 120.617188 135.382813 C 120.300781 134.167969 119.496094 133.136719 118.394531 132.535156 L 97 120.851563 C 95.457031 120.007813 93.5625 120.132813 92.140625 121.175781 L 84.960938 126.429688 L 71.347656 134.542969 C 69.953125 135.371094 69.105469 136.882813 69.128906 138.507813 C 69.152344 140.128906 70.039063 141.617188 71.453125 142.410156 C 72.871094 143.199219 74.601563 143.175781 75.996094 142.347656 Z M 89.792969 134.125 " transform="matrix(1,0,0,-1,-4,174)"/>
<path style="fill-rule:nonzero;fill:rgb(89.4%,94.1%,96.4%);fill-opacity:1;stroke-width:0.432;stroke-linecap:butt;stroke-linejoin:miter;stroke:rgb(0%,0%,0%);stroke-opacity:1;stroke-miterlimit:10;" d="M 209.199219 135.074219 C 209.375 135.621094 209.652344 136.128906 210.015625 136.570313 L 217.710938 145.910156 C 218.746094 147.164063 220.367188 147.769531 221.964844 147.503906 C 223.566406 147.234375 224.902344 146.132813 225.472656 144.613281 C 226.039063 143.09375 225.753906 141.386719 224.722656 140.132813 L 217.578125 131.464844 L 211.5625 112.773438 C 211.0625 111.230469 209.78125 110.070313 208.195313 109.726563 C 206.605469 109.386719 204.957031 109.914063 203.871094 111.121094 C 202.78125 112.324219 202.417969 114.015625 202.914063 115.558594 Z M 209.199219 135.074219 " transform="matrix(1,0,0,-1,-4,174)"/>
<path style="fill-rule:nonzero;fill:rgb(93.7%,90.5%,94.9%);fill-opacity:1;stroke-width:0.432;stroke-linecap:butt;stroke-linejoin:miter;stroke:rgb(0%,0%,0%);stroke-opacity:1;stroke-miterlimit:10;" d="M 204.226563 73.480469 L 206.5625 103.679688 C 206.691406 105.296875 207.667969 106.722656 209.132813 107.425781 C 210.59375 108.125 212.320313 107.992188 213.660156 107.074219 C 215 106.15625 215.746094 104.59375 215.621094 102.976563 L 213.285156 72.777344 C 213.160156 71.160156 212.179688 69.730469 210.714844 69.03125 C 209.253906 68.332031 207.527344 68.464844 206.1875 69.382813 C 204.851563 70.300781 204.101563 71.859375 204.226563 73.480469 Z M 204.226563 73.480469 " transform="matrix(1,0,0,-1,-4,174)"/>
<path style="fill-rule:nonzero;fill:rgb(89.4%,94.1%,96.4%);fill-opacity:1;stroke-width:0.432;stroke-linecap:butt;stroke-linejoin:miter;stroke:rgb(0%,0%,0%);stroke-opacity:1;stroke-miterlimit:10;" d="M 208.566406 168.421875 L 239.617188 167.523438 C 242.125 167.449219 244.097656 165.359375 244.027344 162.851563 C 243.953125 160.34375 241.863281 158.371094 239.355469 158.441406 L 208.304688 159.339844 C 205.796875 159.414063 203.824219 161.503906 203.898438 164.011719 C 203.96875 166.519531 206.0625 168.492188 208.566406 168.421875 Z M 208.566406 168.421875 " transform="matrix(1,0,0,-1,-4,174)"/>
<path style="fill-rule:nonzero;fill:rgb(98.8%,74.5%,43.1%);fill-opacity:1;stroke-width:0.605;stroke-linecap:butt;stroke-linejoin:miter;stroke:rgb(0%,0%,0%);stroke-opacity:1;stroke-miterlimit:10;" d="M 29.4375 30.800781 C 29.4375 31.636719 30.113281 32.316406 30.949219 32.316406 C 31.785156 32.316406 32.464844 31.636719 32.464844 30.800781 C 32.464844 29.964844 31.785156 29.289063 30.949219 29.289063 C 30.113281 29.289063 29.4375 29.964844 29.4375 30.800781 Z M 29.4375 30.800781 " transform="matrix(1,0,0,-1,-4,174)"/>
<path style="fill-rule:nonzero;fill:rgb(98.8%,74.5%,43.1%);fill-opacity:1;stroke-width:0.605;stroke-linecap:butt;stroke-linejoin:miter;stroke:rgb(0%,0%,0%);stroke-opacity:1;stroke-miterlimit:10;" d="M 37.46875 55.226563 C 37.46875 56.0625 38.148438 56.738281 38.984375 56.738281 C 39.820313 56.738281 40.496094 56.0625 40.496094 55.226563 C 40.496094 54.390625 39.820313 53.710938 38.984375 53.710938 C 38.148438 53.710938 37.46875 54.390625 37.46875 55.226563 Z M 37.46875 55.226563 " transform="matrix(1,0,0,-1,-4,174)"/>
<path style="fill-rule:nonzero;fill:rgb(98.8%,74.5%,43.1%);fill-opacity:1;stroke-width:0.605;stroke-linecap:butt;stroke-linejoin:miter;stroke:rgb(0%,0%,0%);stroke-opacity:1;stroke-miterlimit:10;" d="M 225.546875 41.199219 C 225.546875 42.035156 226.226563 42.714844 227.0625 42.714844 C 227.898438 42.714844 228.574219 42.035156 228.574219 41.199219 C 228.574219 40.363281 227.898438 39.6875 227.0625 39.6875 C 226.226563 39.6875 225.546875 40.363281 225.546875 41.199219 Z M 225.546875 41.199219 " transform="matrix(1,0,0,-1,-4,174)"/>
<path style="fill-rule:nonzero;fill:rgb(98.8%,74.5%,43.1%);fill-opacity:1;stroke-width:0.605;stroke-linecap:butt;stroke-linejoin:miter;stroke:rgb(0%,0%,0%);stroke-opacity:1;stroke-miterlimit:10;" d="M 230.414063 39.773438 C 230.414063 40.609375 231.09375 41.289063 231.929688 41.289063 C 232.765625 41.289063 233.445313 40.609375 233.445313 39.773438 C 233.445313 38.9375 232.765625 38.261719 231.929688 38.261719 C 231.09375 38.261719 230.414063 38.9375 230.414063 39.773438 Z M 230.414063 39.773438 " transform="matrix(1,0,0,-1,-4,174)"/>
<path style="fill-rule:nonzero;fill:rgb(98.8%,74.5%,43.1%);fill-opacity:1;stroke-width:0.605;stroke-linecap:butt;stroke-linejoin:miter;stroke:rgb(0%,0%,0%);stroke-opacity:1;stroke-miterlimit:10;" d="M 229.40625 40.214844 C 229.40625 41.050781 230.085938 41.726563 230.921875 41.726563 C 231.757813 41.726563 232.433594 41.050781 232.433594 40.214844 C 232.433594 39.378906 231.757813 38.699219 230.921875 38.699219 C 230.085938 38.699219 229.40625 39.378906 229.40625 40.214844 Z M 229.40625 40.214844 " transform="matrix(1,0,0,-1,-4,174)"/>
<path style="fill-rule:nonzero;fill:rgb(98.8%,74.5%,43.1%);fill-opacity:1;stroke-width:0.605;stroke-linecap:butt;stroke-linejoin:miter;stroke:rgb(0%,0%,0%);stroke-opacity:1;stroke-miterlimit:10;" d="M 234.144531 50.722656 C 234.144531 51.558594 234.824219 52.234375 235.660156 52.234375 C 236.496094 52.234375 237.171875 51.558594 237.171875 50.722656 C 237.171875 49.882813 236.496094 49.207031 235.660156 49.207031 C 234.824219 49.207031 234.144531 49.882813 234.144531 50.722656 Z M 234.144531 50.722656 " transform="matrix(1,0,0,-1,-4,174)"/>
<path style="fill-rule:nonzero;fill:rgb(98.8%,74.5%,43.1%);fill-opacity:1;stroke-width:0.605;stroke-linecap:butt;stroke-linejoin:miter;stroke:rgb(0%,0%,0%);stroke-opacity:1;stroke-miterlimit:10;" d="M 224.539063 51.007813 C 224.539063 51.84375 225.21875 52.523438 226.054688 52.523438 C 226.890625 52.523438 227.570313 51.84375 227.570313 51.007813 C 227.570313 50.171875 226.890625 49.492188 226.054688 49.492188 C 225.21875 49.492188 224.539063 50.171875 224.539063 51.007813 Z M 224.539063 51.007813 " transform="matrix(1,0,0,-1,-4,174)"/>
<path style="fill-rule:nonzero;fill:rgb(98.8%,74.5%,43.1%);fill-opacity:1;stroke-width:0.605;stroke-linecap:butt;stroke-linejoin:miter;stroke:rgb(0%,0%,0%);stroke-opacity:1;stroke-miterlimit:10;" d="M 216.980469 62.488281 C 216.980469 63.324219 217.660156 64.003906 218.496094 64.003906 C 219.332031 64.003906 220.007813 63.324219 220.007813 62.488281 C 220.007813 61.652344 219.332031 60.976563 218.496094 60.976563 C 217.660156 60.976563 216.980469 61.652344 216.980469 62.488281 Z M 216.980469 62.488281 " transform="matrix(1,0,0,-1,-4,174)"/>
<path style="fill-rule:nonzero;fill:rgb(98.8%,74.5%,43.1%);fill-opacity:1;stroke-width:0.605;stroke-linecap:butt;stroke-linejoin:miter;stroke:rgb(0%,0%,0%);stroke-opacity:1;stroke-miterlimit:10;" d="M 242.859375 74.636719 C 242.859375 75.472656 243.539063 76.148438 244.375 76.148438 C 245.210938 76.148438 245.886719 75.472656 245.886719 74.636719 C 245.886719 73.800781 245.210938 73.121094 244.375 73.121094 C 243.539063 73.121094 242.859375 73.800781 242.859375 74.636719 Z M 242.859375 74.636719 " transform="matrix(1,0,0,-1,-4,174)"/>
<path style="fill-rule:nonzero;fill:rgb(98.8%,74.5%,43.1%);fill-opacity:1;stroke-width:0.605;stroke-linecap:butt;stroke-linejoin:miter;stroke:rgb(0%,0%,0%);stroke-opacity:1;stroke-miterlimit:10;" d="M 243.144531 88.191406 C 243.144531 89.027344 243.820313 89.703125 244.65625 89.703125 C 245.492188 89.703125 246.171875 89.027344 246.171875 88.191406 C 246.171875 87.355469 245.492188 86.675781 244.65625 86.675781 C 243.820313 86.675781 243.144531 87.355469 243.144531 88.191406 Z M 243.144531 88.191406 " transform="matrix(1,0,0,-1,-4,174)"/>
<path style="fill-rule:nonzero;fill:rgb(98.8%,74.5%,43.1%);fill-opacity:1;stroke-width:0.605;stroke-linecap:butt;stroke-linejoin:miter;stroke:rgb(0%,0%,0%);stroke-opacity:1;stroke-miterlimit:10;" d="M 67.53125 90.914063 C 67.53125 91.75 68.210938 92.429688 69.046875 92.429688 C 69.882813 92.429688 70.558594 91.75 70.558594 90.914063 C 70.558594 90.078125 69.882813 89.398438 69.046875 89.398438 C 68.210938 89.398438 67.53125 90.078125 67.53125 90.914063 Z M 67.53125 90.914063 " transform="matrix(1,0,0,-1,-4,174)"/>
<path style="fill-rule:nonzero;fill:rgb(98.8%,74.5%,43.1%);fill-opacity:1;stroke-width:0.605;stroke-linecap:butt;stroke-linejoin:miter;stroke:rgb(0%,0%,0%);stroke-opacity:1;stroke-miterlimit:10;" d="M 71.464844 84.292969 C 71.464844 85.128906 72.144531 85.808594 72.980469 85.808594 C 73.816406 85.808594 74.496094 85.128906 74.496094 84.292969 C 74.496094 83.457031 73.816406 82.777344 72.980469 82.777344 C 72.144531 82.777344 71.464844 83.457031 71.464844 84.292969 Z M 71.464844 84.292969 " transform="matrix(1,0,0,-1,-4,174)"/>
<path style="fill-rule:nonzero;fill:rgb(98.8%,74.5%,43.1%);fill-opacity:1;stroke-width:0.605;stroke-linecap:butt;stroke-linejoin:miter;stroke:rgb(0%,0%,0%);stroke-opacity:1;stroke-miterlimit:10;" d="M 109.628906 80.671875 C 109.628906 81.507813 110.308594 82.183594 111.144531 82.183594 C 111.980469 82.183594 112.65625 81.507813 112.65625 80.671875 C 112.65625 79.835938 111.980469 79.15625 111.144531 79.15625 C 110.308594 79.15625 109.628906 79.835938 109.628906 80.671875 Z M 109.628906 80.671875 " transform="matrix(1,0,0,-1,-4,174)"/>
<path style="fill-rule:nonzero;fill:rgb(98.8%,74.5%,43.1%);fill-opacity:1;stroke-width:0.605;stroke-linecap:butt;stroke-linejoin:miter;stroke:rgb(0%,0%,0%);stroke-opacity:1;stroke-miterlimit:10;" d="M 165.808594 121.441406 C 165.808594 122.277344 166.488281 122.953125 167.324219 122.953125 C 168.160156 122.953125 168.835938 122.277344 168.835938 121.441406 C 168.835938 120.605469 168.160156 119.925781 167.324219 119.925781 C 166.488281 119.925781 165.808594 120.605469 165.808594 121.441406 Z M 165.808594 121.441406 " transform="matrix(1,0,0,-1,-4,174)"/>
<path style="fill-rule:nonzero;fill:rgb(98.8%,74.5%,43.1%);fill-opacity:1;stroke-width:0.605;stroke-linecap:butt;stroke-linejoin:miter;stroke:rgb(0%,0%,0%);stroke-opacity:1;stroke-miterlimit:10;" d="M 166.292969 121.332031 C 166.292969 122.167969 166.96875 122.84375 167.804688 122.84375 C 168.640625 122.84375 169.320313 122.167969 169.320313 121.332031 C 169.320313 120.496094 168.640625 119.816406 167.804688 119.816406 C 166.96875 119.816406 166.292969 120.496094 166.292969 121.332031 Z M 166.292969 121.332031 " transform="matrix(1,0,0,-1,-4,174)"/>
<path style="fill-rule:nonzero;fill:rgb(98.8%,74.5%,43.1%);fill-opacity:1;stroke-width:0.605;stroke-linecap:butt;stroke-linejoin:miter;stroke:rgb(0%,0%,0%);stroke-opacity:1;stroke-miterlimit:10;" d="M 229.402344 152.953125 C 229.402344 153.789063 230.082031 154.464844 230.917969 154.464844 C 231.753906 154.464844 232.433594 153.789063 232.433594 152.953125 C 232.433594 152.117188 231.753906 151.4375 230.917969 151.4375 C 230.082031 151.4375 229.402344 152.117188 229.402344 152.953125 Z M 229.402344 152.953125 " transform="matrix(1,0,0,-1,-4,174)"/>
<path style="fill-rule:nonzero;fill:rgb(98.8%,74.5%,43.1%);fill-opacity:1;stroke-width:0.605;stroke-linecap:butt;stroke-linejoin:miter;stroke:rgb(0%,0%,0%);stroke-opacity:1;stroke-miterlimit:10;" d="M 145.132813 145.882813 C 145.132813 146.71875 145.8125 147.394531 146.648438 147.394531 C 147.484375 147.394531 148.164063 146.71875 148.164063 145.882813 C 148.164063 145.046875 147.484375 144.367188 146.648438 144.367188 C 145.8125 144.367188 145.132813 145.046875 145.132813 145.882813 Z M 145.132813 145.882813 " transform="matrix(1,0,0,-1,-4,174)"/>
<path style="fill-rule:nonzero;fill:rgb(98.8%,74.5%,43.1%);fill-opacity:1;stroke-width:0.605;stroke-linecap:butt;stroke-linejoin:miter;stroke:rgb(0%,0%,0%);stroke-opacity:1;stroke-miterlimit:10;" d="M 57.636719 131.511719 C 57.636719 132.347656 58.316406 133.027344 59.152344 133.027344 C 59.988281 133.027344 60.664063 132.347656 60.664063 131.511719 C 60.664063 130.675781 59.988281 129.996094 59.152344 129.996094 C 58.316406 129.996094 57.636719 130.675781 57.636719 131.511719 Z M 57.636719 131.511719 " transform="matrix(1,0,0,-1,-4,174)"/>
<path style="fill-rule:nonzero;fill:rgb(69.4%,87%,53.7%);fill-opacity:1;stroke-width:0.605;stroke-linecap:butt;stroke-linejoin:miter;stroke:rgb(0%,0%,0%);stroke-opacity:1;stroke-miterlimit:10;" d="M 101.605469 60.890625 C 101.605469 61.726563 102.285156 62.402344 103.121094 62.402344 C 103.957031 62.402344 104.632813 61.726563 104.632813 60.890625 C 104.632813 60.054688 103.957031 59.375 103.121094 59.375 C 102.285156 59.375 101.605469 60.054688 101.605469 60.890625 Z M 101.605469 60.890625 " transform="matrix(1,0,0,-1,-4,174)"/>
<path style="fill-rule:nonzero;fill:rgb(69.4%,87%,53.7%);fill-opacity:1;stroke-width:0.605;stroke-linecap:butt;stroke-linejoin:miter;stroke:rgb(0%,0%,0%);stroke-opacity:1;stroke-miterlimit:10;" d="M 82.4375 73.3125 C 82.4375 74.148438 83.117188 74.824219 83.953125 74.824219 C 84.789063 74.824219 85.464844 74.148438 85.464844 73.3125 C 85.464844 72.476563 84.789063 71.796875 83.953125 71.796875 C 83.117188 71.796875 82.4375 72.476563 82.4375 73.3125 Z M 82.4375 73.3125 " transform="matrix(1,0,0,-1,-4,174)"/>
<path style="fill-rule:nonzero;fill:rgb(69.4%,87%,53.7%);fill-opacity:1;stroke-width:0.605;stroke-linecap:butt;stroke-linejoin:miter;stroke:rgb(0%,0%,0%);stroke-opacity:1;stroke-miterlimit:10;" d="M 154.347656 76.09375 C 154.347656 76.929688 155.027344 77.605469 155.863281 77.605469 C 156.699219 77.605469 157.375 76.929688 157.375 76.09375 C 157.375 75.257813 156.699219 74.578125 155.863281 74.578125 C 155.027344 74.578125 154.347656 75.257813 154.347656 76.09375 Z M 154.347656 76.09375 " transform="matrix(1,0,0,-1,-4,174)"/>
<path style="fill-rule:nonzero;fill:rgb(69.4%,87%,53.7%);fill-opacity:1;stroke-width:0.605;stroke-linecap:butt;stroke-linejoin:miter;stroke:rgb(0%,0%,0%);stroke-opacity:1;stroke-miterlimit:10;" d="M 151.523438 93.414063 C 151.523438 94.253906 152.199219 94.929688 153.035156 94.929688 C 153.871094 94.929688 154.550781 94.253906 154.550781 93.414063 C 154.550781 92.578125 153.871094 91.902344 153.035156 91.902344 C 152.199219 91.902344 151.523438 92.578125 151.523438 93.414063 Z M 151.523438 93.414063 " transform="matrix(1,0,0,-1,-4,174)"/>
<path style="fill-rule:nonzero;fill:rgb(69.4%,87%,53.7%);fill-opacity:1;stroke-width:0.605;stroke-linecap:butt;stroke-linejoin:miter;stroke:rgb(0%,0%,0%);stroke-opacity:1;stroke-miterlimit:10;" d="M 140.863281 96.820313 C 140.863281 97.65625 141.542969 98.335938 142.378906 98.335938 C 143.214844 98.335938 143.894531 97.65625 143.894531 96.820313 C 143.894531 95.984375 143.214844 95.304688 142.378906 95.304688 C 141.542969 95.304688 140.863281 95.984375 140.863281 96.820313 Z M 140.863281 96.820313 " transform="matrix(1,0,0,-1,-4,174)"/>
<path style="fill-rule:nonzero;fill:rgb(69.4%,87%,53.7%);fill-opacity:1;stroke-width:0.605;stroke-linecap:butt;stroke-linejoin:miter;stroke:rgb(0%,0%,0%);stroke-opacity:1;stroke-miterlimit:10;" d="M 159.332031 96.5625 C 159.332031 97.398438 160.007813 98.074219 160.84375 98.074219 C 161.683594 98.074219 162.359375 97.398438 162.359375 96.5625 C 162.359375 95.726563 161.683594 95.046875 160.84375 95.046875 C 160.007813 95.046875 159.332031 95.726563 159.332031 96.5625 Z M 159.332031 96.5625 " transform="matrix(1,0,0,-1,-4,174)"/>
<path style="fill-rule:nonzero;fill:rgb(69.4%,87%,53.7%);fill-opacity:1;stroke-width:0.605;stroke-linecap:butt;stroke-linejoin:miter;stroke:rgb(0%,0%,0%);stroke-opacity:1;stroke-miterlimit:10;" d="M 189.492188 101.074219 C 189.492188 101.910156 190.167969 102.589844 191.003906 102.589844 C 191.839844 102.589844 192.519531 101.910156 192.519531 101.074219 C 192.519531 100.238281 191.839844 99.5625 191.003906 99.5625 C 190.167969 99.5625 189.492188 100.238281 189.492188 101.074219 Z M 189.492188 101.074219 " transform="matrix(1,0,0,-1,-4,174)"/>
<path style="fill-rule:nonzero;fill:rgb(69.4%,87%,53.7%);fill-opacity:1;stroke-width:0.605;stroke-linecap:butt;stroke-linejoin:miter;stroke:rgb(0%,0%,0%);stroke-opacity:1;stroke-miterlimit:10;" d="M 192.09375 121.039063 C 192.09375 121.875 192.769531 122.550781 193.605469 122.550781 C 194.441406 122.550781 195.121094 121.875 195.121094 121.039063 C 195.121094 120.203125 194.441406 119.523438 193.605469 119.523438 C 192.769531 119.523438 192.09375 120.203125 192.09375 121.039063 Z M 192.09375 121.039063 " transform="matrix(1,0,0,-1,-4,174)"/>
<path style="fill-rule:nonzero;fill:rgb(69.4%,87%,53.7%);fill-opacity:1;stroke-width:0.605;stroke-linecap:butt;stroke-linejoin:miter;stroke:rgb(0%,0%,0%);stroke-opacity:1;stroke-miterlimit:10;" d="M 195 115 C 195 115.835938 195.675781 116.511719 196.511719 116.511719 C 197.347656 116.511719 198.027344 115.835938 198.027344 115 C 198.027344 114.164063 197.347656 113.484375 196.511719 113.484375 C 195.675781 113.484375 195 114.164063 195 115 Z M 195 115 " transform="matrix(1,0,0,-1,-4,174)"/>
<path style="fill-rule:nonzero;fill:rgb(69.4%,87%,53.7%);fill-opacity:1;stroke-width:0.605;stroke-linecap:butt;stroke-linejoin:miter;stroke:rgb(0%,0%,0%);stroke-opacity:1;stroke-miterlimit:10;" d="M 95.535156 110.140625 C 95.535156 110.976563 96.210938 111.65625 97.046875 111.65625 C 97.882813 111.65625 98.5625 110.976563 98.5625 110.140625 C 98.5625 109.304688 97.882813 108.628906 97.046875 108.628906 C 96.210938 108.628906 95.535156 109.304688 95.535156 110.140625 Z M 95.535156 110.140625 " transform="matrix(1,0,0,-1,-4,174)"/>
<path style="fill-rule:nonzero;fill:rgb(78.8%,69.4%,83.5%);fill-opacity:1;stroke-width:0.605;stroke-linecap:butt;stroke-linejoin:miter;stroke:rgb(0%,0%,0%);stroke-opacity:1;stroke-miterlimit:10;" d="M 207.242188 73.128906 C 207.242188 73.964844 207.917969 74.640625 208.753906 74.640625 C 209.589844 74.640625 210.269531 73.964844 210.269531 73.128906 C 210.269531 72.292969 209.589844 71.613281 208.753906 71.613281 C 207.917969 71.613281 207.242188 72.292969 207.242188 73.128906 Z M 207.242188 73.128906 " transform="matrix(1,0,0,-1,-4,174)"/>
<path style="fill-rule:nonzero;fill:rgb(78.8%,69.4%,83.5%);fill-opacity:1;stroke-width:0.605;stroke-linecap:butt;stroke-linejoin:miter;stroke:rgb(0%,0%,0%);stroke-opacity:1;stroke-miterlimit:10;" d="M 209.578125 103.328125 C 209.578125 104.164063 210.257813 104.839844 211.09375 104.839844 C 211.929688 104.839844 212.605469 104.164063 212.605469 103.328125 C 212.605469 102.492188 211.929688 101.8125 211.09375 101.8125 C 210.257813 101.8125 209.578125 102.492188 209.578125 103.328125 Z M 209.578125 103.328125 " transform="matrix(1,0,0,-1,-4,174)"/>
<path style="fill-rule:nonzero;fill:rgb(65%,80.3%,88.6%);fill-opacity:1;stroke-width:0.605;stroke-linecap:butt;stroke-linejoin:miter;stroke:rgb(0%,0%,0%);stroke-opacity:1;stroke-miterlimit:10;" d="M 37.25 85.84375 C 37.25 86.679688 37.925781 87.355469 38.761719 87.355469 C 39.597656 87.355469 40.277344 86.679688 40.277344 85.84375 C 40.277344 85.007813 39.597656 84.328125 38.761719 84.328125 C 37.925781 84.328125 37.25 85.007813 37.25 85.84375 Z M 37.25 85.84375 " transform="matrix(1,0,0,-1,-4,174)"/>
<path style="fill-rule:nonzero;fill:rgb(65%,80.3%,88.6%);fill-opacity:1;stroke-width:0.605;stroke-linecap:butt;stroke-linejoin:miter;stroke:rgb(0%,0%,0%);stroke-opacity:1;stroke-miterlimit:10;" d="M 78.066406 73.96875 C 78.066406 74.804688 78.746094 75.480469 79.582031 75.480469 C 80.417969 75.480469 81.09375 74.804688 81.09375 73.96875 C 81.09375 73.132813 80.417969 72.453125 79.582031 72.453125 C 78.746094 72.453125 78.066406 73.132813 78.066406 73.96875 Z M 78.066406 73.96875 " transform="matrix(1,0,0,-1,-4,174)"/>
<path style="fill-rule:nonzero;fill:rgb(65%,80.3%,88.6%);fill-opacity:1;stroke-width:0.605;stroke-linecap:butt;stroke-linejoin:miter;stroke:rgb(0%,0%,0%);stroke-opacity:1;stroke-miterlimit:10;" d="M 24.796875 101.804688 C 24.796875 102.640625 25.476563 103.316406 26.3125 103.316406 C 27.148438 103.316406 27.824219 102.640625 27.824219 101.804688 C 27.824219 100.96875 27.148438 100.289063 26.3125 100.289063 C 25.476563 100.289063 24.796875 100.96875 24.796875 101.804688 Z M 24.796875 101.804688 " transform="matrix(1,0,0,-1,-4,174)"/>
<path style="fill-rule:nonzero;fill:rgb(65%,80.3%,88.6%);fill-opacity:1;stroke-width:0.605;stroke-linecap:butt;stroke-linejoin:miter;stroke:rgb(0%,0%,0%);stroke-opacity:1;stroke-miterlimit:10;" d="M 98.167969 95.609375 C 98.167969 96.449219 98.847656 97.125 99.683594 97.125 C 100.519531 97.125 101.195313 96.449219 101.195313 95.609375 C 101.195313 94.773438 100.519531 94.097656 99.683594 94.097656 C 98.847656 94.097656 98.167969 94.773438 98.167969 95.609375 Z M 98.167969 95.609375 " transform="matrix(1,0,0,-1,-4,174)"/>
<path style="fill-rule:nonzero;fill:rgb(65%,80.3%,88.6%);fill-opacity:1;stroke-width:0.605;stroke-linecap:butt;stroke-linejoin:miter;stroke:rgb(0%,0%,0%);stroke-opacity:1;stroke-miterlimit:10;" d="M 107.789063 103.105469 C 107.789063 103.941406 108.464844 104.621094 109.300781 104.621094 C 110.136719 104.621094 110.816406 103.941406 110.816406 103.105469 C 110.816406 102.269531 110.136719 101.59375 109.300781 101.59375 C 108.464844 101.59375 107.789063 102.269531 107.789063 103.105469 Z M 107.789063 103.105469 " transform="matrix(1,0,0,-1,-4,174)"/>
<path style="fill-rule:nonzero;fill:rgb(65%,80.3%,88.6%);fill-opacity:1;stroke-width:0.605;stroke-linecap:butt;stroke-linejoin:miter;stroke:rgb(0%,0%,0%);stroke-opacity:1;stroke-miterlimit:10;" d="M 93.3125 124.839844 C 93.3125 125.675781 93.988281 126.351563 94.824219 126.351563 C 95.660156 126.351563 96.339844 125.675781 96.339844 124.839844 C 96.339844 124.003906 95.660156 123.324219 94.824219 123.324219 C 93.988281 123.324219 93.3125 124.003906 93.3125 124.839844 Z M 93.3125 124.839844 " transform="matrix(1,0,0,-1,-4,174)"/>
<path style="fill-rule:nonzero;fill:rgb(65%,80.3%,88.6%);fill-opacity:1;stroke-width:0.605;stroke-linecap:butt;stroke-linejoin:miter;stroke:rgb(0%,0%,0%);stroke-opacity:1;stroke-miterlimit:10;" d="M 85.953125 130.222656 C 85.953125 131.058594 86.632813 131.738281 87.46875 131.738281 C 88.304688 131.738281 88.984375 131.058594 88.984375 130.222656 C 88.984375 129.386719 88.304688 128.710938 87.46875 128.710938 C 86.632813 128.710938 85.953125 129.386719 85.953125 130.222656 Z M 85.953125 130.222656 " transform="matrix(1,0,0,-1,-4,174)"/>
<path style="fill-rule:nonzero;fill:rgb(65%,80.3%,88.6%);fill-opacity:1;stroke-width:0.605;stroke-linecap:butt;stroke-linejoin:miter;stroke:rgb(0%,0%,0%);stroke-opacity:1;stroke-miterlimit:10;" d="M 72.15625 138.445313 C 72.15625 139.28125 72.835938 139.957031 73.671875 139.957031 C 74.507813 139.957031 75.183594 139.28125 75.183594 138.445313 C 75.183594 137.609375 74.507813 136.929688 73.671875 136.929688 C 72.835938 136.929688 72.15625 137.609375 72.15625 138.445313 Z M 72.15625 138.445313 " transform="matrix(1,0,0,-1,-4,174)"/>
<path style="fill-rule:nonzero;fill:rgb(65%,80.3%,88.6%);fill-opacity:1;stroke-width:0.605;stroke-linecap:butt;stroke-linejoin:miter;stroke:rgb(0%,0%,0%);stroke-opacity:1;stroke-miterlimit:10;" d="M 114.707031 136.519531 C 114.707031 137.359375 115.382813 138.035156 116.21875 138.035156 C 117.054688 138.035156 117.734375 137.359375 117.734375 136.519531 C 117.734375 135.683594 117.054688 135.007813 116.21875 135.007813 C 115.382813 135.007813 114.707031 135.683594 114.707031 136.519531 Z M 114.707031 136.519531 " transform="matrix(1,0,0,-1,-4,174)"/>
<path style="fill-rule:nonzero;fill:rgb(65%,80.3%,88.6%);fill-opacity:1;stroke-width:0.605;stroke-linecap:butt;stroke-linejoin:miter;stroke:rgb(0%,0%,0%);stroke-opacity:1;stroke-miterlimit:10;" d="M 118.429688 150.917969 C 118.429688 151.753906 119.109375 152.429688 119.945313 152.429688 C 120.78125 152.429688 121.457031 151.753906 121.457031 150.917969 C 121.457031 150.082031 120.78125 149.402344 119.945313 149.402344 C 119.109375 149.402344 118.429688 150.082031 118.429688 150.917969 Z M 118.429688 150.917969 " transform="matrix(1,0,0,-1,-4,174)"/>
<path style="fill-rule:nonzero;fill:rgb(65%,80.3%,88.6%);fill-opacity:1;stroke-width:0.605;stroke-linecap:butt;stroke-linejoin:miter;stroke:rgb(0%,0%,0%);stroke-opacity:1;stroke-miterlimit:10;" d="M 140.835938 154.042969 C 140.835938 154.878906 141.511719 155.554688 142.347656 155.554688 C 143.183594 155.554688 143.863281 154.878906 143.863281 154.042969 C 143.863281 153.207031 143.183594 152.527344 142.347656 152.527344 C 141.511719 152.527344 140.835938 153.207031 140.835938 154.042969 Z M 140.835938 154.042969 " transform="matrix(1,0,0,-1,-4,174)"/>
<path style="fill-rule:nonzero;fill:rgb(65%,80.3%,88.6%);fill-opacity:1;stroke-width:0.605;stroke-linecap:butt;stroke-linejoin:miter;stroke:rgb(0%,0%,0%);stroke-opacity:1;stroke-miterlimit:10;" d="M 106.039063 167.824219 C 106.039063 168.660156 106.71875 169.335938 107.554688 169.335938 C 108.390625 169.335938 109.070313 168.660156 109.070313 167.824219 C 109.070313 166.988281 108.390625 166.308594 107.554688 166.308594 C 106.71875 166.308594 106.039063 166.988281 106.039063 167.824219 Z M 106.039063 167.824219 " transform="matrix(1,0,0,-1,-4,174)"/>
<path style="fill-rule:nonzero;fill:rgb(65%,80.3%,88.6%);fill-opacity:1;stroke-width:0.605;stroke-linecap:butt;stroke-linejoin:miter;stroke:rgb(0%,0%,0%);stroke-opacity:1;stroke-miterlimit:10;" d="M 205.722656 114.167969 C 205.722656 115.003906 206.402344 115.679688 207.238281 115.679688 C 208.074219 115.679688 208.75 115.003906 208.75 114.167969 C 208.75 113.332031 208.074219 112.652344 207.238281 112.652344 C 206.402344 112.652344 205.722656 113.332031 205.722656 114.167969 Z M 205.722656 114.167969 " transform="matrix(1,0,0,-1,-4,174)"/>
<path style="fill-rule:nonzero;fill:rgb(65%,80.3%,88.6%);fill-opacity:1;stroke-width:0.605;stroke-linecap:butt;stroke-linejoin:miter;stroke:rgb(0%,0%,0%);stroke-opacity:1;stroke-miterlimit:10;" d="M 212.007813 133.679688 C 212.007813 134.519531 212.6875 135.195313 213.523438 135.195313 C 214.359375 135.195313 215.035156 134.519531 215.035156 133.679688 C 215.035156 132.84375 214.359375 132.167969 213.523438 132.167969 C 212.6875 132.167969 212.007813 132.84375 212.007813 133.679688 Z M 212.007813 133.679688 " transform="matrix(1,0,0,-1,-4,174)"/>
<path style="fill-rule:nonzero;fill:rgb(65%,80.3%,88.6%);fill-opacity:1;stroke-width:0.605;stroke-linecap:butt;stroke-linejoin:miter;stroke:rgb(0%,0%,0%);stroke-opacity:1;stroke-miterlimit:10;" d="M 219.703125 143.023438 C 219.703125 143.859375 220.382813 144.535156 221.21875 144.535156 C 222.054688 144.535156 222.734375 143.859375 222.734375 143.023438 C 222.734375 142.1875 222.054688 141.507813 221.21875 141.507813 C 220.382813 141.507813 219.703125 142.1875 219.703125 143.023438 Z M 219.703125 143.023438 " transform="matrix(1,0,0,-1,-4,174)"/>
<path style="fill-rule:nonzero;fill:rgb(65%,80.3%,88.6%);fill-opacity:1;stroke-width:0.605;stroke-linecap:butt;stroke-linejoin:miter;stroke:rgb(0%,0%,0%);stroke-opacity:1;stroke-miterlimit:10;" d="M 206.921875 163.878906 C 206.921875 164.71875 207.601563 165.394531 208.4375 165.394531 C 209.273438 165.394531 209.949219 164.71875 209.949219 163.878906 C 209.949219 163.042969 209.273438 162.367188 208.4375 162.367188 C 207.601563 162.367188 206.921875 163.042969 206.921875 163.878906 Z M 206.921875 163.878906 " transform="matrix(1,0,0,-1,-4,174)"/>
<path style="fill-rule:nonzero;fill:rgb(65%,80.3%,88.6%);fill-opacity:1;stroke-width:0.605;stroke-linecap:butt;stroke-linejoin:miter;stroke:rgb(0%,0%,0%);stroke-opacity:1;stroke-miterlimit:10;" d="M 237.972656 162.984375 C 237.972656 163.820313 238.648438 164.496094 239.484375 164.496094 C 240.320313 164.496094 241 163.820313 241 162.984375 C 241 162.148438 240.320313 161.46875 239.484375 161.46875 C 238.648438 161.46875 237.972656 162.148438 237.972656 162.984375 Z M 237.972656 162.984375 " transform="matrix(1,0,0,-1,-4,174)"/>
<path style="fill-rule:nonzero;fill:rgb(65%,80.3%,88.6%);fill-opacity:1;stroke-width:0.605;stroke-linecap:butt;stroke-linejoin:miter;stroke:rgb(0%,0%,0%);stroke-opacity:1;stroke-miterlimit:10;" d="M 81.820313 45.777344 C 81.820313 46.613281 82.496094 47.292969 83.332031 47.292969 C 84.167969 47.292969 84.847656 46.613281 84.847656 45.777344 C 84.847656 44.941406 84.167969 44.265625 83.332031 44.265625 C 82.496094 44.265625 81.820313 44.941406 81.820313 45.777344 Z M 81.820313 45.777344 " transform="matrix(1,0,0,-1,-4,174)"/>
<path style="fill-rule:nonzero;fill:rgb(65%,80.3%,88.6%);fill-opacity:1;stroke-width:0.605;stroke-linecap:butt;stroke-linejoin:miter;stroke:rgb(0%,0%,0%);stroke-opacity:1;stroke-miterlimit:10;" d="M 56.347656 53.035156 C 56.347656 53.871094 57.023438 54.550781 57.859375 54.550781 C 58.695313 54.550781 59.375 53.871094 59.375 53.035156 C 59.375 52.199219 58.695313 51.523438 57.859375 51.523438 C 57.023438 51.523438 56.347656 52.199219 56.347656 53.035156 Z M 56.347656 53.035156 " transform="matrix(1,0,0,-1,-4,174)"/>
<path style="fill-rule:nonzero;fill:rgb(65%,80.3%,88.6%);fill-opacity:1;stroke-width:0.605;stroke-linecap:butt;stroke-linejoin:miter;stroke:rgb(0%,0%,0%);stroke-opacity:1;stroke-miterlimit:10;" d="M 31.148438 56.1875 C 31.148438 57.023438 31.824219 57.699219 32.660156 57.699219 C 33.496094 57.699219 34.175781 57.023438 34.175781 56.1875 C 34.175781 55.351563 33.496094 54.671875 32.660156 54.671875 C 31.824219 54.671875 31.148438 55.351563 31.148438 56.1875 Z M 31.148438 56.1875 " transform="matrix(1,0,0,-1,-4,174)"/>
<path style="fill-rule:nonzero;fill:rgb(65%,80.3%,88.6%);fill-opacity:1;stroke-width:0.605;stroke-linecap:butt;stroke-linejoin:miter;stroke:rgb(0%,0%,0%);stroke-opacity:1;stroke-miterlimit:10;" d="M 8.003906 54.40625 C 8.003906 55.242188 8.679688 55.921875 9.515625 55.921875 C 10.351563 55.921875 11.03125 55.242188 11.03125 54.40625 C 11.03125 53.570313 10.351563 52.890625 9.515625 52.890625 C 8.679688 52.890625 8.003906 53.570313 8.003906 54.40625 Z M 8.003906 54.40625 " transform="matrix(1,0,0,-1,-4,174)"/>
<path style="fill-rule:nonzero;fill:rgb(69.4%,87%,53.7%);fill-opacity:1;stroke-width:0.605;stroke-linecap:butt;stroke-linejoin:miter;stroke:rgb(0%,0%,0%);stroke-opacity:1;stroke-miterlimit:10;" d="M 140.4375 52.078125 C 140.4375 52.914063 141.117188 53.59375 141.953125 53.59375 C 142.789063 53.59375 143.464844 52.914063 143.464844 52.078125 C 143.464844 51.242188 142.789063 50.566406 141.953125 50.566406 C 141.117188 50.566406 140.4375 51.242188 140.4375 52.078125 Z M 140.4375 52.078125 " transform="matrix(1,0,0,-1,-4,174)"/>
<path style="fill-rule:nonzero;fill:rgb(69.4%,87%,53.7%);fill-opacity:1;stroke-width:0.605;stroke-linecap:butt;stroke-linejoin:miter;stroke:rgb(0%,0%,0%);stroke-opacity:1;stroke-miterlimit:10;" d="M 111.792969 37.488281 C 111.792969 38.324219 112.46875 39.003906 113.308594 39.003906 C 114.144531 39.003906 114.820313 38.324219 114.820313 37.488281 C 114.820313 36.652344 114.144531 35.976563 113.308594 35.976563 C 112.46875 35.976563 111.792969 36.652344 111.792969 37.488281 Z M 111.792969 37.488281 " transform="matrix(1,0,0,-1,-4,174)"/>
<path style="fill-rule:nonzero;fill:rgb(69.4%,87%,53.7%);fill-opacity:1;stroke-width:0.605;stroke-linecap:butt;stroke-linejoin:miter;stroke:rgb(0%,0%,0%);stroke-opacity:1;stroke-miterlimit:10;" d="M 69.449219 34.285156 C 69.449219 35.125 70.125 35.800781 70.960938 35.800781 C 71.800781 35.800781 72.476563 35.125 72.476563 34.285156 C 72.476563 33.449219 71.800781 32.773438 70.960938 32.773438 C 70.125 32.773438 69.449219 33.449219 69.449219 34.285156 Z M 69.449219 34.285156 " transform="matrix(1,0,0,-1,-4,174)"/>
<path style="fill-rule:nonzero;fill:rgb(89.4%,94.1%,96.4%);fill-opacity:1;stroke-width:0.432;stroke-linecap:butt;stroke-linejoin:miter;stroke:rgb(0%,0%,0%);stroke-opacity:1;stroke-miterlimit:10;" d="M 214.664063 60.046875 C 214.902344 60.839844 215.351563 61.539063 215.945313 62.085938 C 216.191406 62.3125 216.59375 62.136719 216.742188 61.769531 C 217.070313 60.96875 217.898438 60.492188 218.753906 60.613281 C 219.613281 60.730469 220.28125 61.414063 220.375 62.273438 C 220.421875 62.667969 220.761719 62.945313 221.058594 62.796875 C 221.789063 62.425781 222.40625 61.867188 222.84375 61.179688 C 223.296875 60.476563 223.558594 59.636719 223.558594 58.738281 C 223.558594 56.230469 221.523438 54.195313 219.015625 54.195313 C 216.507813 54.195313 214.472656 56.230469 214.472656 58.738281 C 214.472656 59.191406 214.539063 59.632813 214.664063 60.046875 Z M 214.664063 60.046875 " transform="matrix(1,0,0,-1,-4,174)"/>
<path style="fill-rule:nonzero;fill:rgb(65%,80.3%,88.6%);fill-opacity:1;stroke-width:0.605;stroke-linecap:butt;stroke-linejoin:miter;stroke:rgb(0%,0%,0%);stroke-opacity:1;stroke-miterlimit:10;" d="M 217.5 58.738281 C 217.5 59.574219 218.179688 60.25 219.015625 60.25 C 219.851563 60.25 220.53125 59.574219 220.53125 58.738281 C 220.53125 57.902344 219.851563 57.222656 219.015625 57.222656 C 218.179688 57.222656 217.5 57.902344 217.5 58.738281 Z M 217.5 58.738281 " transform="matrix(1,0,0,-1,-4,174)"/>
</g>
</svg>
