<?xml version="1.0" encoding="UTF-8"?>
<svg xmlns="http://www.w3.org/2000/svg" xmlns:xlink="http://www.w3.org/1999/xlink" width="256pt" height="355pt" viewBox="0 0 256 355" version="1.1">
<g id="surface328384">
<path style="fill-rule:evenodd;fill:rgb(98.8%,87.8%,87%);fill-opacity:1;stroke-width:0.59;stroke-linecap:butt;stroke-linejoin:round;stroke:rgb(0%,0%,0%);stroke-opacity:1;stroke-miterlimit:10;" d="M 163.855469 407.03125 C 165.023438 409.414063 164.550781 412.273438 162.675781 414.152344 C 160.800781 416.03125 157.941406 416.507813 155.558594 415.339844 L 122.984375 399.390625 C 120.917969 398.378906 119.582031 396.308594 119.511719 394.011719 C 119.4375 391.714844 120.644531 389.566406 122.640625 388.429688 L 141.960938 377.417969 C 143.449219 376.570313 145.21875 376.375 146.855469 376.878906 C 148.488281 377.382813 149.84375 378.535156 150.601563 380.070313 Z M 163.855469 407.03125 " transform="matrix(1,0,0,-1,-43,422)"/>
<path style="fill-rule:evenodd;fill:rgb(98.8%,87.8%,87%);fill-opacity:1;stroke-width:0.59;stroke-linecap:butt;stroke-linejoin:round;stroke:rgb(0%,0%,0%);stroke-opacity:1;stroke-miterlimit:10;" d="M 139.351563 317.765625 C 142.765625 317.484375 145.761719 320.019531 146.046875 323.433594 C 146.332031 326.847656 143.792969 329.847656 140.382813 330.132813 L 94.550781 333.949219 C 91.136719 334.234375 88.136719 331.695313 87.851563 328.28125 C 87.566406 324.867188 90.105469 321.867188 93.519531 321.582031 Z M 139.351563 317.765625 " transform="matrix(1,0,0,-1,-43,422)"/>
<path style="fill-rule:evenodd;fill:rgb(91.7%,96%,90.5%);fill-opacity:1;stroke-width:0.59;stroke-linecap:butt;stroke-linejoin:round;stroke:rgb(0%,0%,0%);stroke-opacity:1;stroke-miterlimit:10;" d="M 142.15625 377.3125 C 141.683594 380.035156 139.414063 382.195313 136.53125 382.421875 C 135.589844 382.496094 134.679688 382.355469 133.847656 382.039063 C 131.671875 381.214844 130.054688 379.195313 129.859375 376.722656 L 128.960938 365.265625 C 128.960938 365.226563 128.957031 365.183594 128.953125 365.144531 L 127.15625 334.589844 C 127.085938 333.375 127.371094 332.191406 127.953125 331.167969 C 128.429688 330.328125 129.101563 329.59375 129.9375 329.046875 C 131.789063 327.828125 134.148438 327.6875 136.132813 328.679688 C 136.929688 329.082031 137.621094 329.644531 138.164063 330.316406 C 138.972656 331.308594 139.464844 332.542969 139.542969 333.863281 L 141.335938 364.355469 L 142.230469 375.753906 C 142.273438 376.285156 142.246094 376.808594 142.15625 377.3125 Z M 142.15625 377.3125 " transform="matrix(1,0,0,-1,-43,422)"/>
<path style="fill-rule:evenodd;fill:rgb(87.8%,92.1%,95.6%);fill-opacity:1;stroke-width:0.59;stroke-linecap:butt;stroke-linejoin:round;stroke:rgb(0%,0%,0%);stroke-opacity:1;stroke-miterlimit:10;" d="M 250.902344 403.394531 L 264.910156 386.96875 L 264.910156 386.964844 C 267.136719 384.359375 271.050781 384.050781 273.65625 386.273438 C 276.261719 388.496094 276.574219 392.410156 274.351563 395.015625 L 260.34375 411.445313 C 258.117188 414.050781 254.203125 414.363281 251.597656 412.140625 C 248.992188 409.917969 248.679688 406 250.902344 403.394531 Z M 250.902344 403.394531 " transform="matrix(1,0,0,-1,-43,422)"/>
<path style="fill-rule:evenodd;fill:rgb(87.8%,92.1%,95.6%);fill-opacity:1;stroke-width:0.59;stroke-linecap:butt;stroke-linejoin:round;stroke:rgb(0%,0%,0%);stroke-opacity:1;stroke-miterlimit:10;" d="M 124.046875 399.910156 C 123.253906 401.601563 121.71875 402.875 119.84375 403.3125 L 101.339844 407.636719 C 100.632813 407.800781 99.90625 407.839844 99.183594 407.753906 L 83.449219 405.851563 C 80.863281 405.539063 78.746094 403.644531 78.152344 401.109375 L 71.183594 371.429688 C 70.605469 368.953125 71.59375 366.371094 73.679688 364.917969 C 75.765625 363.464844 78.527344 363.433594 80.648438 364.835938 L 120.1875 390.992188 L 121.617188 391.941406 C 121.925781 392.144531 122.03125 392.539063 121.941406 392.902344 C 121.511719 394.683594 122.382813 396.523438 124.039063 397.316406 C 124.378906 397.480469 124.625 397.808594 124.570313 398.175781 C 124.5625 398.238281 124.550781 398.304688 124.539063 398.367188 C 124.449219 398.871094 124.296875 399.355469 124.09375 399.808594 C 124.078125 399.84375 124.0625 399.875 124.046875 399.910156 Z M 124.046875 399.910156 " transform="matrix(1,0,0,-1,-43,422)"/>
<path style="fill-rule:evenodd;fill:rgb(87.8%,92.1%,95.6%);fill-opacity:1;stroke-width:0.59;stroke-linecap:butt;stroke-linejoin:round;stroke:rgb(0%,0%,0%);stroke-opacity:1;stroke-miterlimit:10;" d="M 184.222656 327.527344 C 187.328125 328.976563 188.667969 332.667969 187.21875 335.773438 C 185.765625 338.875 182.074219 340.21875 178.972656 338.765625 L 146.492188 323.59375 C 145 322.898438 143.84375 321.636719 143.285156 320.089844 C 142.722656 318.542969 142.796875 316.835938 143.492188 315.34375 C 144.191406 313.851563 145.453125 312.699219 147 312.136719 C 148.546875 311.574219 150.253906 311.652344 151.746094 312.347656 Z M 184.222656 327.527344 " transform="matrix(1,0,0,-1,-43,422)"/>
<path style="fill-rule:evenodd;fill:rgb(98.8%,87.8%,87%);fill-opacity:1;stroke-width:0.59;stroke-linecap:butt;stroke-linejoin:round;stroke:rgb(0%,0%,0%);stroke-opacity:1;stroke-miterlimit:10;" d="M 243.476563 394.570313 C 246.285156 392.609375 250.152344 393.296875 252.113281 396.109375 C 254.078125 398.917969 253.386719 402.785156 250.578125 404.746094 L 229.011719 419.796875 C 226.203125 421.757813 222.335938 421.070313 220.375 418.261719 C 218.414063 415.453125 219.101563 411.585938 221.910156 409.625 Z M 243.476563 394.570313 " transform="matrix(1,0,0,-1,-43,422)"/>
<path style="fill-rule:evenodd;fill:rgb(91.7%,96%,90.5%);fill-opacity:1;stroke-width:0.59;stroke-linecap:butt;stroke-linejoin:round;stroke:rgb(0%,0%,0%);stroke-opacity:1;stroke-miterlimit:10;" d="M 205.644531 348.371094 L 214.730469 342.386719 L 214.730469 342.382813 C 216.09375 341.4375 217.777344 341.078125 219.40625 341.378906 C 221.039063 341.683594 222.480469 342.628906 223.410156 344.003906 C 224.339844 345.375 224.679688 347.066406 224.355469 348.691406 C 224.03125 350.316406 223.070313 351.746094 221.6875 352.660156 L 202.546875 365.277344 L 178.796875 391.003906 C 177.292969 392.632813 175.035156 393.335938 172.871094 392.847656 C 170.710938 392.359375 168.972656 390.757813 168.316406 388.640625 C 167.65625 386.523438 168.175781 384.21875 169.679688 382.589844 L 193.941406 356.304688 C 194.285156 355.933594 194.667969 355.609375 195.089844 355.332031 L 205.644531 348.375 Z M 205.644531 348.371094 " transform="matrix(1,0,0,-1,-43,422)"/>
<path style="fill-rule:evenodd;fill:rgb(98.8%,87.8%,87%);fill-opacity:1;stroke-width:0.59;stroke-linecap:butt;stroke-linejoin:round;stroke:rgb(0%,0%,0%);stroke-opacity:1;stroke-miterlimit:10;" d="M 223.09375 348.195313 L 244.382813 336.585938 C 245.757813 335.835938 246.796875 334.59375 247.292969 333.109375 C 247.824219 331.53125 247.71875 329.746094 246.859375 328.167969 C 245.21875 325.160156 241.449219 324.050781 238.441406 325.691406 L 208.785156 341.867188 C 206.390625 343.171875 205.199219 345.828125 205.644531 348.375 C 205.757813 349.027344 205.976563 349.671875 206.308594 350.285156 C 207.949219 353.292969 211.71875 354.398438 214.726563 352.757813 L 214.878906 352.675781 L 216.230469 351.941406 C 216.917969 351.5625 216.777344 350.53125 216.070313 349.882813 C 215.019531 348.921875 214.71875 347.390625 215.320313 346.097656 C 215.925781 344.808594 217.296875 344.0625 218.707031 344.25 C 220.117188 344.441406 221.242188 345.527344 221.484375 346.929688 C 221.644531 347.863281 222.410156 348.53125 223.09375 348.195313 Z M 223.09375 348.195313 " transform="matrix(1,0,0,-1,-43,422)"/>
<path style="fill-rule:evenodd;fill:rgb(87.8%,92.1%,95.6%);fill-opacity:1;stroke-width:0.59;stroke-linecap:butt;stroke-linejoin:round;stroke:rgb(0%,0%,0%);stroke-opacity:1;stroke-miterlimit:10;" d="M 246.410156 388.179688 C 245.375 390.144531 243.371094 391.402344 241.15625 391.484375 C 238.9375 391.566406 236.847656 390.460938 235.667969 388.578125 L 223.558594 369.257813 C 222.910156 368.222656 222.582031 367.019531 222.613281 365.800781 L 222.996094 351.503906 L 223.085938 348.210938 L 223.085938 348.203125 L 223.148438 345.832031 C 223.164063 345.222656 223.269531 344.632813 223.453125 344.066406 C 223.453125 344.066406 223.453125 344.0625 223.453125 344.058594 C 223.945313 342.566406 225 341.285156 226.433594 340.519531 L 236.632813 335.09375 L 238.273438 334.222656 C 238.621094 334.035156 239.039063 334.097656 239.375 334.3125 C 240.277344 334.894531 241.390625 335.0625 242.425781 334.773438 C 243.464844 334.484375 244.328125 333.765625 244.800781 332.800781 C 244.96875 332.457031 245.324219 332.238281 245.675781 332.34375 C 246.242188 332.519531 246.785156 332.773438 247.292969 333.109375 C 247.359375 333.152344 247.425781 333.199219 247.488281 333.246094 L 263.328125 344.691406 C 265.835938 346.503906 266.625 349.882813 265.183594 352.617188 Z M 246.410156 388.179688 " transform="matrix(1,0,0,-1,-43,422)"/>
<path style="fill-rule:evenodd;fill:rgb(91.7%,96%,90.5%);fill-opacity:1;stroke-width:0.59;stroke-linecap:butt;stroke-linejoin:round;stroke:rgb(0%,0%,0%);stroke-opacity:1;stroke-miterlimit:10;" d="M 270.441406 313.371094 L 279.101563 318.046875 C 281.296875 319.234375 282.570313 321.617188 282.332031 324.101563 L 280.601563 342.070313 C 280.5625 342.488281 280.476563 342.902344 280.355469 343.304688 L 274.761719 361.441406 C 274.023438 363.84375 271.90625 365.558594 269.40625 365.789063 C 266.902344 366.023438 264.511719 364.722656 263.34375 362.496094 L 261.660156 359.296875 L 259.890625 355.925781 L 259.644531 355.457031 C 259.226563 354.65625 259.886719 353.734375 260.863281 353.425781 C 262.34375 352.957031 263.398438 351.652344 263.554688 350.109375 C 263.707031 348.570313 262.925781 347.082031 261.570313 346.332031 C 260.214844 345.582031 258.539063 345.714844 257.316406 346.664063 C 256.507813 347.296875 255.371094 347.3125 254.949219 346.511719 L 254.703125 346.042969 L 253.890625 344.492188 C 253.359375 343.480469 253.117188 342.34375 253.191406 341.199219 L 253.433594 337.542969 L 254.925781 314.976563 C 255.0625 312.871094 256.265625 310.980469 258.113281 309.957031 C 259.960938 308.933594 262.203125 308.925781 264.0625 309.929688 L 267.457031 311.761719 Z M 270.441406 313.371094 " transform="matrix(1,0,0,-1,-43,422)"/>
<path style="fill-rule:evenodd;fill:rgb(98.8%,87.8%,87%);fill-opacity:1;stroke-width:0.59;stroke-linecap:butt;stroke-linejoin:round;stroke:rgb(0%,0%,0%);stroke-opacity:1;stroke-miterlimit:10;" d="M 277.984375 307.316406 C 277.984375 310.742188 275.207031 313.519531 271.78125 313.519531 C 268.355469 313.519531 265.578125 310.742188 265.578125 307.316406 C 265.578125 303.890625 268.355469 301.113281 271.78125 301.113281 C 275.207031 301.113281 277.984375 303.890625 277.984375 307.316406 Z M 277.984375 307.316406 " transform="matrix(1,0,0,-1,-43,422)"/>
<path style="fill-rule:evenodd;fill:rgb(87.8%,92.1%,95.6%);fill-opacity:1;stroke-width:0.59;stroke-linecap:butt;stroke-linejoin:round;stroke:rgb(0%,0%,0%);stroke-opacity:1;stroke-miterlimit:10;" d="M 159.863281 243.878906 C 159.863281 247.304688 157.085938 250.082031 153.660156 250.082031 C 150.230469 250.082031 147.453125 247.304688 147.453125 243.878906 C 147.453125 240.449219 150.230469 237.671875 153.660156 237.671875 C 157.085938 237.671875 159.863281 240.449219 159.863281 243.878906 Z M 159.863281 243.878906 " transform="matrix(1,0,0,-1,-43,422)"/>
<path style="fill-rule:evenodd;fill:rgb(98.8%,87.8%,87%);fill-opacity:1;stroke-width:0.59;stroke-linecap:butt;stroke-linejoin:round;stroke:rgb(0%,0%,0%);stroke-opacity:1;stroke-miterlimit:10;" d="M 156.148438 238.191406 L 156.351563 219.863281 C 156.382813 216.996094 158.375 214.523438 161.171875 213.882813 C 163.96875 213.242188 166.835938 214.605469 168.113281 217.171875 L 179.570313 240.257813 C 179.589844 240.292969 179.605469 240.332031 179.625 240.367188 L 186.140625 254.1875 C 187.402344 256.863281 186.597656 260.058594 184.21875 261.816406 C 181.84375 263.578125 178.550781 263.414063 176.359375 261.425781 L 159.457031 246.089844 L 158.160156 244.914063 C 158.085938 244.84375 158.007813 244.769531 157.9375 244.699219 C 157.65625 244.414063 157.554688 244.015625 157.527344 243.617188 C 157.472656 242.777344 157.144531 241.980469 156.597656 241.347656 C 156.335938 241.042969 156.125 240.6875 156.125 240.289063 C 156.125 240.277344 156.125 240.265625 156.128906 240.25 Z M 156.148438 238.191406 " transform="matrix(1,0,0,-1,-43,422)"/>
<path style="fill-rule:evenodd;fill:rgb(98.8%,87.8%,87%);fill-opacity:1;stroke-width:0.59;stroke-linecap:butt;stroke-linejoin:round;stroke:rgb(0%,0%,0%);stroke-opacity:1;stroke-miterlimit:10;" d="M 106.949219 219.691406 C 109.464844 217.367188 109.617188 213.441406 107.292969 210.925781 C 104.964844 208.40625 101.039063 208.253906 98.523438 210.582031 L 89.359375 219.054688 C 86.84375 221.382813 86.6875 225.304688 89.015625 227.820313 C 91.339844 230.339844 95.265625 230.492188 97.78125 228.164063 Z M 106.949219 219.691406 " transform="matrix(1,0,0,-1,-43,422)"/>
<path style="fill-rule:evenodd;fill:rgb(87.8%,92.1%,95.6%);fill-opacity:1;stroke-width:0.59;stroke-linecap:butt;stroke-linejoin:round;stroke:rgb(0%,0%,0%);stroke-opacity:1;stroke-miterlimit:10;" d="M 214.058594 225.851563 L 220.183594 222.925781 C 220.21875 222.90625 220.257813 222.890625 220.292969 222.871094 L 226.714844 219.953125 L 225.714844 198.570313 L 208.78125 185.28125 C 206.085938 183.167969 205.613281 179.269531 207.730469 176.570313 C 209.84375 173.878906 213.746094 173.40625 216.441406 175.519531 L 235.296875 190.316406 L 235.609375 190.5625 C 237.027344 191.675781 237.890625 193.351563 237.976563 195.152344 L 239.308594 223.570313 C 239.425781 226.105469 237.988281 228.460938 235.675781 229.511719 L 225.480469 234.144531 L 219.414063 237.046875 C 216.324219 238.523438 212.621094 237.214844 211.144531 234.125 C 209.664063 231.035156 210.972656 227.332031 214.0625 225.855469 Z M 214.058594 225.851563 " transform="matrix(1,0,0,-1,-43,422)"/>
<path style="fill-rule:evenodd;fill:rgb(98.8%,87.8%,87%);fill-opacity:1;stroke-width:0.59;stroke-linecap:butt;stroke-linejoin:round;stroke:rgb(0%,0%,0%);stroke-opacity:1;stroke-miterlimit:10;" d="M 213.8125 236.921875 C 213.355469 238.261719 212.441406 239.457031 211.132813 240.242188 C 208.195313 242.007813 204.382813 241.058594 202.617188 238.121094 L 183.074219 205.605469 C 182.453125 204.574219 182.148438 203.386719 182.191406 202.183594 L 183.089844 177.246094 C 183.136719 175.980469 183.566406 174.757813 184.328125 173.746094 L 210.835938 138.417969 C 212.167969 136.648438 214.34375 135.71875 216.542969 135.984375 C 218.742188 136.25 220.636719 137.667969 221.507813 139.707031 C 222.375 141.746094 222.09375 144.09375 220.761719 145.867188 L 195.421875 179.640625 L 194.65625 200.789063 L 211.292969 228.472656 L 212.550781 230.5625 C 212.761719 230.914063 212.839844 231.320313 212.867188 231.726563 C 212.925781 232.496094 213.207031 233.234375 213.6875 233.84375 C 213.933594 234.160156 214.140625 234.523438 214.140625 234.929688 C 214.140625 235.609375 214.027344 236.28125 213.8125 236.921875 Z M 213.8125 236.921875 " transform="matrix(1,0,0,-1,-43,422)"/>
<path style="fill-rule:evenodd;fill:rgb(98.8%,87.8%,87%);fill-opacity:1;stroke-width:0.59;stroke-linecap:butt;stroke-linejoin:round;stroke:rgb(0%,0%,0%);stroke-opacity:1;stroke-miterlimit:10;" d="M 239.082031 184.605469 C 239.082031 188.03125 236.300781 190.808594 232.875 190.808594 C 229.449219 190.808594 226.671875 188.03125 226.671875 184.605469 C 226.671875 181.175781 229.449219 178.398438 232.875 178.398438 C 236.300781 178.398438 239.082031 181.175781 239.082031 184.605469 Z M 239.082031 184.605469 " transform="matrix(1,0,0,-1,-43,422)"/>
<path style="fill-rule:evenodd;fill:rgb(98.8%,87.8%,87%);fill-opacity:1;stroke-width:0.59;stroke-linecap:butt;stroke-linejoin:round;stroke:rgb(0%,0%,0%);stroke-opacity:1;stroke-miterlimit:10;" d="M 78.71875 150.765625 L 74.222656 155.949219 C 72.769531 157.625 70.535156 158.398438 68.359375 157.980469 C 66.183594 157.558594 64.394531 156.011719 63.671875 153.917969 C 62.945313 151.820313 63.394531 149.5 64.84375 147.824219 L 69.339844 142.636719 C 70.417969 141.394531 71.945313 140.628906 73.589844 140.511719 C 75.230469 140.394531 76.851563 140.933594 78.09375 142.011719 C 79.335938 143.089844 80.101563 144.617188 80.21875 146.257813 C 80.335938 147.898438 79.796875 149.519531 78.71875 150.765625 Z M 78.71875 150.765625 " transform="matrix(1,0,0,-1,-43,422)"/>
<path style="fill-rule:evenodd;fill:rgb(87.8%,92.1%,95.6%);fill-opacity:1;stroke-width:0.59;stroke-linecap:butt;stroke-linejoin:round;stroke:rgb(0%,0%,0%);stroke-opacity:1;stroke-miterlimit:10;" d="M 75.613281 140.703125 C 76.277344 138.914063 77.734375 137.511719 79.585938 136.933594 C 81.699219 136.273438 84.007813 136.792969 85.636719 138.292969 C 87.265625 139.796875 87.972656 142.054688 87.484375 144.214844 L 85.984375 150.886719 C 85.5 153.050781 83.898438 154.789063 81.78125 155.449219 C 79.691406 156.101563 77.414063 155.601563 75.789063 154.144531 C 75.769531 154.125 75.75 154.105469 75.726563 154.089844 C 75.332031 153.722656 74.988281 153.3125 74.703125 152.867188 C 74.289063 152.214844 74 151.492188 73.847656 150.738281 C 73.769531 150.34375 74.105469 150 74.527344 149.933594 C 75.90625 149.722656 77 148.660156 77.25 147.289063 C 77.5 145.917969 76.855469 144.539063 75.644531 143.851563 C 75.25 143.628906 74.992188 143.210938 75.089844 142.78125 L 75.378906 141.496094 C 75.441406 141.222656 75.519531 140.957031 75.613281 140.703125 Z M 75.613281 140.703125 " transform="matrix(1,0,0,-1,-43,422)"/>
<path style="fill-rule:evenodd;fill:rgb(98.8%,87.8%,87%);fill-opacity:1;stroke-width:0.59;stroke-linecap:butt;stroke-linejoin:round;stroke:rgb(0%,0%,0%);stroke-opacity:1;stroke-miterlimit:10;" d="M 107.136719 113.835938 C 108.226563 116.34375 107.546875 119.269531 105.460938 121.039063 L 91.703125 132.710938 C 89.507813 134.574219 86.320313 134.679688 84.003906 132.96875 L 56.855469 112.910156 C 56.167969 112.402344 55.597656 111.761719 55.171875 111.027344 L 44.96875 93.386719 C 43.851563 91.460938 43.855469 89.082031 44.976563 87.15625 C 46.097656 85.234375 48.164063 84.058594 50.390625 84.078125 L 90.339844 84.421875 C 92.789063 84.445313 94.996094 85.90625 95.972656 88.152344 Z M 107.136719 113.835938 " transform="matrix(1,0,0,-1,-43,422)"/>
<path style="fill-rule:evenodd;fill:rgb(91.7%,96%,90.5%);fill-opacity:1;stroke-width:0.59;stroke-linecap:butt;stroke-linejoin:round;stroke:rgb(0%,0%,0%);stroke-opacity:1;stroke-miterlimit:10;" d="M 99.507813 96.285156 C 99.597656 96.054688 99.699219 95.824219 99.816406 95.605469 L 112.621094 71.117188 C 113.648438 69.152344 115.644531 67.882813 117.859375 67.792969 C 120.074219 67.699219 122.167969 68.796875 123.355469 70.667969 C 124.542969 72.539063 124.644531 74.902344 123.617188 76.867188 L 110.808594 101.355469 C 109.785156 103.316406 107.785156 104.585938 105.570313 104.679688 C 104.664063 104.714844 103.773438 104.554688 102.957031 104.21875 C 101.789063 103.738281 100.773438 102.90625 100.074219 101.804688 C 99.019531 100.144531 98.824219 98.097656 99.507813 96.285156 Z M 99.507813 96.285156 " transform="matrix(1,0,0,-1,-43,422)"/>
<path style="fill-rule:evenodd;fill:rgb(87.8%,92.1%,95.6%);fill-opacity:1;stroke-width:0.59;stroke-linecap:butt;stroke-linejoin:round;stroke:rgb(0%,0%,0%);stroke-opacity:1;stroke-miterlimit:10;" d="M 44.074219 163.90625 C 44.074219 160.480469 46.851563 157.703125 50.277344 157.703125 C 53.703125 157.703125 56.480469 160.480469 56.480469 163.90625 C 56.480469 167.332031 53.703125 170.109375 50.277344 170.109375 C 46.851563 170.109375 44.074219 167.332031 44.074219 163.90625 Z M 44.074219 163.90625 " transform="matrix(1,0,0,-1,-43,422)"/>
<path style="fill-rule:evenodd;fill:rgb(87.8%,92.1%,95.6%);fill-opacity:1;stroke-width:0.59;stroke-linecap:butt;stroke-linejoin:round;stroke:rgb(0%,0%,0%);stroke-opacity:1;stroke-miterlimit:10;" d="M 88.277344 269.847656 C 88.277344 266.417969 91.054688 263.640625 94.480469 263.640625 C 97.90625 263.640625 100.683594 266.417969 100.683594 269.847656 C 100.683594 273.273438 97.90625 276.050781 94.480469 276.050781 C 91.054688 276.050781 88.277344 273.273438 88.277344 269.847656 Z M 88.277344 269.847656 " transform="matrix(1,0,0,-1,-43,422)"/>
<path style="fill-rule:evenodd;fill:rgb(87.8%,92.1%,95.6%);fill-opacity:1;stroke-width:0.59;stroke-linecap:butt;stroke-linejoin:round;stroke:rgb(0%,0%,0%);stroke-opacity:1;stroke-miterlimit:10;" d="M 188.820313 124.039063 C 188.820313 120.613281 191.597656 117.835938 195.023438 117.835938 C 198.449219 117.835938 201.230469 120.613281 201.230469 124.039063 C 201.230469 127.464844 198.449219 130.246094 195.023438 130.246094 C 191.597656 130.246094 188.820313 127.464844 188.820313 124.039063 Z M 188.820313 124.039063 " transform="matrix(1,0,0,-1,-43,422)"/>
<path style="fill-rule:evenodd;fill:rgb(91.7%,96%,90.5%);fill-opacity:1;stroke-width:0.59;stroke-linecap:butt;stroke-linejoin:round;stroke:rgb(0%,0%,0%);stroke-opacity:1;stroke-miterlimit:10;" d="M 222.785156 280.734375 C 222.785156 277.308594 225.5625 274.53125 228.988281 274.53125 C 232.414063 274.53125 235.191406 277.308594 235.191406 280.734375 C 235.191406 284.160156 232.414063 286.9375 228.988281 286.9375 C 225.5625 286.9375 222.785156 284.160156 222.785156 280.734375 Z M 222.785156 280.734375 " transform="matrix(1,0,0,-1,-43,422)"/>
<path style="fill-rule:evenodd;fill:rgb(91.7%,96%,90.5%);fill-opacity:1;stroke-width:0.59;stroke-linecap:butt;stroke-linejoin:round;stroke:rgb(0%,0%,0%);stroke-opacity:1;stroke-miterlimit:10;" d="M 285.238281 210.359375 C 285.238281 206.933594 288.015625 204.15625 291.445313 204.15625 C 294.871094 204.15625 297.648438 206.933594 297.648438 210.359375 C 297.648438 213.785156 294.871094 216.5625 291.445313 216.5625 C 288.015625 216.5625 285.238281 213.785156 285.238281 210.359375 Z M 285.238281 210.359375 " transform="matrix(1,0,0,-1,-43,422)"/>
<path style="fill-rule:evenodd;fill:rgb(98.8%,87.8%,87%);fill-opacity:1;stroke-width:0.59;stroke-linecap:butt;stroke-linejoin:round;stroke:rgb(0%,0%,0%);stroke-opacity:1;stroke-miterlimit:10;" d="M 83.5625 187.855469 C 83.5625 184.429688 86.339844 181.652344 89.765625 181.652344 C 93.191406 181.652344 95.96875 184.429688 95.96875 187.855469 C 95.96875 191.28125 93.191406 194.0625 89.765625 194.0625 C 86.339844 194.0625 83.5625 191.28125 83.5625 187.855469 Z M 83.5625 187.855469 " transform="matrix(1,0,0,-1,-43,422)"/>
<path style="fill-rule:evenodd;fill:rgb(98.8%,87.8%,87%);fill-opacity:1;stroke-width:0.59;stroke-linecap:butt;stroke-linejoin:round;stroke:rgb(0%,0%,0%);stroke-opacity:1;stroke-miterlimit:10;" d="M 194.292969 301.949219 L 195.867188 295.882813 C 196.726563 292.566406 200.113281 290.574219 203.429688 291.433594 C 206.746094 292.292969 208.738281 295.679688 207.875 298.996094 L 206.304688 305.0625 C 205.445313 308.378906 202.058594 310.371094 198.742188 309.507813 C 195.425781 308.648438 193.433594 305.265625 194.292969 301.949219 Z M 194.292969 301.949219 " transform="matrix(1,0,0,-1,-43,422)"/>
<path style="fill-rule:evenodd;fill:rgb(87.8%,92.1%,95.6%);fill-opacity:1;stroke-width:0.59;stroke-linecap:butt;stroke-linejoin:round;stroke:rgb(0%,0%,0%);stroke-opacity:1;stroke-miterlimit:10;" d="M 102.144531 226.90625 L 115.324219 226.507813 C 117.539063 226.441406 119.621094 227.558594 120.789063 229.445313 C 121.953125 231.328125 122.027344 233.691406 120.976563 235.644531 C 119.925781 237.597656 117.914063 238.839844 115.699219 238.910156 L 102.523438 239.308594 C 100.308594 239.375 98.222656 238.257813 97.058594 236.371094 C 95.890625 234.488281 95.820313 232.121094 96.871094 230.167969 C 97.917969 228.21875 99.929688 226.972656 102.144531 226.90625 Z M 102.144531 226.90625 " transform="matrix(1,0,0,-1,-43,422)"/>
<path style="fill-rule:evenodd;fill:rgb(87.8%,92.1%,95.6%);fill-opacity:1;stroke-width:0.59;stroke-linecap:butt;stroke-linejoin:round;stroke:rgb(0%,0%,0%);stroke-opacity:1;stroke-miterlimit:10;" d="M 149.046875 190.792969 L 172.210938 178.242188 C 175.226563 176.609375 178.992188 177.730469 180.621094 180.742188 C 182.253906 183.753906 181.136719 187.519531 178.125 189.152344 L 154.957031 201.703125 C 151.945313 203.335938 148.179688 202.214844 146.546875 199.203125 C 144.914063 196.191406 146.035156 192.425781 149.046875 190.792969 Z M 149.046875 190.792969 " transform="matrix(1,0,0,-1,-43,422)"/>
<path style="fill-rule:evenodd;fill:rgb(98.8%,87.8%,87%);fill-opacity:1;stroke-width:0.59;stroke-linecap:butt;stroke-linejoin:round;stroke:rgb(0%,0%,0%);stroke-opacity:1;stroke-miterlimit:10;" d="M 120.042969 248.117188 L 127.90625 279.121094 C 128.75 282.441406 126.738281 285.816406 123.417969 286.660156 C 120.097656 287.5 116.722656 285.492188 115.878906 282.167969 L 108.015625 251.167969 C 107.171875 247.847656 109.183594 244.472656 112.503906 243.628906 C 115.824219 242.785156 119.199219 244.796875 120.042969 248.117188 Z M 120.042969 248.117188 " transform="matrix(1,0,0,-1,-43,422)"/>
<path style="fill-rule:evenodd;fill:rgb(98.8%,87.8%,87%);fill-opacity:1;stroke-width:0.59;stroke-linecap:butt;stroke-linejoin:round;stroke:rgb(0%,0%,0%);stroke-opacity:1;stroke-miterlimit:10;" d="M 147.769531 181.613281 C 147.496094 181.980469 147.1875 182.316406 146.839844 182.617188 L 130.4375 196.769531 C 128.761719 198.21875 126.4375 198.660156 124.34375 197.933594 C 122.25 197.203125 120.707031 195.410156 120.292969 193.234375 C 119.875 191.058594 120.652344 188.824219 122.332031 187.375 L 138.210938 173.671875 L 142.292969 168.160156 C 144.332031 165.40625 148.21875 164.828125 150.972656 166.867188 C 153.726563 168.90625 154.304688 172.792969 152.265625 175.546875 Z M 147.769531 181.613281 " transform="matrix(1,0,0,-1,-43,422)"/>
<path style="fill-rule:evenodd;fill:rgb(87.8%,92.1%,95.6%);fill-opacity:1;stroke-width:0.59;stroke-linecap:butt;stroke-linejoin:round;stroke:rgb(0%,0%,0%);stroke-opacity:1;stroke-miterlimit:10;" d="M 188.703125 268.300781 L 199.484375 254.855469 C 200.945313 253.035156 203.300781 252.1875 205.585938 252.660156 C 207.871094 253.136719 209.695313 254.851563 210.308594 257.101563 L 218.164063 285.855469 C 218.875 288.460938 217.816406 291.226563 215.550781 292.695313 C 213.285156 294.164063 210.328125 293.996094 208.238281 292.28125 L 189.605469 276.976563 C 186.980469 274.816406 186.578125 270.949219 188.703125 268.300781 Z M 188.703125 268.300781 " transform="matrix(1,0,0,-1,-43,422)"/>
<path style="fill-rule:evenodd;fill:rgb(91.7%,96%,90.5%);fill-opacity:1;stroke-width:0.59;stroke-linecap:butt;stroke-linejoin:round;stroke:rgb(0%,0%,0%);stroke-opacity:1;stroke-miterlimit:10;" d="M 231.078125 127.222656 C 231.421875 125.925781 232.175781 124.773438 233.226563 123.941406 L 262.207031 101.027344 C 264.894531 98.898438 268.796875 99.355469 270.921875 102.042969 C 273.046875 104.730469 272.59375 108.632813 269.90625 110.757813 L 242.546875 132.390625 L 231.617188 173.75 C 231.050781 175.894531 229.382813 177.574219 227.242188 178.152344 C 225.105469 178.734375 222.820313 178.128906 221.246094 176.570313 C 219.671875 175.007813 219.054688 172.726563 219.621094 170.582031 Z M 231.078125 127.222656 " transform="matrix(1,0,0,-1,-43,422)"/>
<path style="fill-rule:evenodd;fill:rgb(70.1%,80.3%,89.4%);fill-opacity:1;stroke-width:0.827;stroke-linecap:butt;stroke-linejoin:round;stroke:rgb(0%,0%,0%);stroke-opacity:1;stroke-miterlimit:10;" d="M 75.15625 370.007813 C 75.15625 368.867188 76.082031 367.941406 77.222656 367.941406 C 78.367188 367.941406 79.292969 368.867188 79.292969 370.007813 C 79.292969 371.152344 78.367188 372.078125 77.222656 372.078125 C 76.082031 372.078125 75.15625 371.152344 75.15625 370.007813 Z M 75.15625 370.007813 " transform="matrix(1,0,0,-1,-43,422)"/>
<path style="fill-rule:evenodd;fill:rgb(70.1%,80.3%,89.4%);fill-opacity:1;stroke-width:0.827;stroke-linecap:butt;stroke-linejoin:round;stroke:rgb(0%,0%,0%);stroke-opacity:1;stroke-miterlimit:10;" d="M 82.125 399.691406 C 82.125 398.550781 83.050781 397.625 84.191406 397.625 C 85.335938 397.625 86.261719 398.550781 86.261719 399.691406 C 86.261719 400.835938 85.335938 401.761719 84.191406 401.761719 C 83.050781 401.761719 82.125 400.835938 82.125 399.691406 Z M 82.125 399.691406 " transform="matrix(1,0,0,-1,-43,422)"/>
<path style="fill-rule:evenodd;fill:rgb(70.1%,80.3%,89.4%);fill-opacity:1;stroke-width:0.827;stroke-linecap:butt;stroke-linejoin:round;stroke:rgb(0%,0%,0%);stroke-opacity:1;stroke-miterlimit:10;" d="M 97.859375 401.597656 C 97.859375 400.453125 98.785156 399.527344 99.929688 399.527344 C 101.070313 399.527344 101.996094 400.453125 101.996094 401.597656 C 101.996094 402.738281 101.070313 403.664063 99.929688 403.664063 C 98.785156 403.664063 97.859375 402.738281 97.859375 401.597656 Z M 97.859375 401.597656 " transform="matrix(1,0,0,-1,-43,422)"/>
<path style="fill-rule:evenodd;fill:rgb(70.1%,80.3%,89.4%);fill-opacity:1;stroke-width:0.827;stroke-linecap:butt;stroke-linejoin:round;stroke:rgb(0%,0%,0%);stroke-opacity:1;stroke-miterlimit:10;" d="M 101.664063 394.503906 C 101.664063 393.363281 102.589844 392.4375 103.734375 392.4375 C 104.875 392.4375 105.800781 393.363281 105.800781 394.503906 C 105.800781 395.648438 104.875 396.574219 103.734375 396.574219 C 102.589844 396.574219 101.664063 395.648438 101.664063 394.503906 Z M 101.664063 394.503906 " transform="matrix(1,0,0,-1,-43,422)"/>
<path style="fill-rule:evenodd;fill:rgb(70.1%,80.3%,89.4%);fill-opacity:1;stroke-width:0.827;stroke-linecap:butt;stroke-linejoin:round;stroke:rgb(0%,0%,0%);stroke-opacity:1;stroke-miterlimit:10;" d="M 116.363281 397.273438 C 116.363281 396.128906 117.289063 395.203125 118.433594 395.203125 C 119.574219 395.203125 120.5 396.128906 120.5 397.273438 C 120.5 398.414063 119.574219 399.339844 118.433594 399.339844 C 117.289063 399.339844 116.363281 398.414063 116.363281 397.273438 Z M 116.363281 397.273438 " transform="matrix(1,0,0,-1,-43,422)"/>
<path style="fill-rule:evenodd;fill:rgb(70.1%,80.3%,89.4%);fill-opacity:1;stroke-width:0.827;stroke-linecap:butt;stroke-linejoin:round;stroke:rgb(0%,0%,0%);stroke-opacity:1;stroke-miterlimit:10;" d="M 48.210938 163.90625 C 48.210938 162.765625 49.136719 161.835938 50.277344 161.835938 C 51.421875 161.835938 52.347656 162.765625 52.347656 163.90625 C 52.347656 165.046875 51.421875 165.972656 50.277344 165.972656 C 49.136719 165.972656 48.210938 165.046875 48.210938 163.90625 Z M 48.210938 163.90625 " transform="matrix(1,0,0,-1,-43,422)"/>
<path style="fill-rule:evenodd;fill:rgb(70.1%,80.3%,89.4%);fill-opacity:1;stroke-width:0.827;stroke-linecap:butt;stroke-linejoin:round;stroke:rgb(0%,0%,0%);stroke-opacity:1;stroke-miterlimit:10;" d="M 77.863281 149.527344 C 77.863281 148.382813 78.789063 147.457031 79.933594 147.457031 C 81.074219 147.457031 82 148.382813 82 149.527344 C 82 150.667969 81.074219 151.59375 79.933594 151.59375 C 78.789063 151.59375 77.863281 150.667969 77.863281 149.527344 Z M 77.863281 149.527344 " transform="matrix(1,0,0,-1,-43,422)"/>
<path style="fill-rule:evenodd;fill:rgb(70.1%,80.3%,89.4%);fill-opacity:1;stroke-width:0.827;stroke-linecap:butt;stroke-linejoin:round;stroke:rgb(0%,0%,0%);stroke-opacity:1;stroke-miterlimit:10;" d="M 79.363281 142.855469 C 79.363281 141.714844 80.289063 140.789063 81.433594 140.789063 C 82.574219 140.789063 83.5 141.714844 83.5 142.855469 C 83.5 143.996094 82.574219 144.921875 81.433594 144.921875 C 80.289063 144.921875 79.363281 143.996094 79.363281 142.855469 Z M 79.363281 142.855469 " transform="matrix(1,0,0,-1,-43,422)"/>
<path style="fill-rule:evenodd;fill:rgb(70.1%,80.3%,89.4%);fill-opacity:1;stroke-width:0.827;stroke-linecap:butt;stroke-linejoin:round;stroke:rgb(0%,0%,0%);stroke-opacity:1;stroke-miterlimit:10;" d="M 100.265625 233.109375 C 100.265625 231.964844 101.191406 231.039063 102.335938 231.039063 C 103.476563 231.039063 104.402344 231.964844 104.402344 233.109375 C 104.402344 234.25 103.476563 235.175781 102.335938 235.175781 C 101.191406 235.175781 100.265625 234.25 100.265625 233.109375 Z M 100.265625 233.109375 " transform="matrix(1,0,0,-1,-43,422)"/>
<path style="fill-rule:evenodd;fill:rgb(70.1%,80.3%,89.4%);fill-opacity:1;stroke-width:0.827;stroke-linecap:butt;stroke-linejoin:round;stroke:rgb(0%,0%,0%);stroke-opacity:1;stroke-miterlimit:10;" d="M 113.445313 232.707031 C 113.445313 231.566406 114.371094 230.640625 115.511719 230.640625 C 116.652344 230.640625 117.582031 231.566406 117.582031 232.707031 C 117.582031 233.851563 116.652344 234.777344 115.511719 234.777344 C 114.371094 234.777344 113.445313 233.851563 113.445313 232.707031 Z M 113.445313 232.707031 " transform="matrix(1,0,0,-1,-43,422)"/>
<path style="fill-rule:evenodd;fill:rgb(70.1%,80.3%,89.4%);fill-opacity:1;stroke-width:0.827;stroke-linecap:butt;stroke-linejoin:round;stroke:rgb(0%,0%,0%);stroke-opacity:1;stroke-miterlimit:10;" d="M 92.414063 269.847656 C 92.414063 268.703125 93.339844 267.777344 94.480469 267.777344 C 95.621094 267.777344 96.546875 268.703125 96.546875 269.847656 C 96.546875 270.988281 95.621094 271.914063 94.480469 271.914063 C 93.339844 271.914063 92.414063 270.988281 92.414063 269.847656 Z M 92.414063 269.847656 " transform="matrix(1,0,0,-1,-43,422)"/>
<path style="fill-rule:evenodd;fill:rgb(70.1%,80.3%,89.4%);fill-opacity:1;stroke-width:0.827;stroke-linecap:butt;stroke-linejoin:round;stroke:rgb(0%,0%,0%);stroke-opacity:1;stroke-miterlimit:10;" d="M 151.589844 243.875 C 151.589844 242.734375 152.515625 241.808594 153.660156 241.808594 C 154.800781 241.808594 155.726563 242.734375 155.726563 243.875 C 155.726563 245.019531 154.800781 245.945313 153.660156 245.945313 C 152.515625 245.945313 151.589844 245.019531 151.589844 243.875 Z M 151.589844 243.875 " transform="matrix(1,0,0,-1,-43,422)"/>
<path style="fill-rule:evenodd;fill:rgb(70.1%,80.3%,89.4%);fill-opacity:1;stroke-width:0.827;stroke-linecap:butt;stroke-linejoin:round;stroke:rgb(0%,0%,0%);stroke-opacity:1;stroke-miterlimit:10;" d="M 149.933594 196.246094 C 149.933594 195.105469 150.859375 194.179688 152 194.179688 C 153.144531 194.179688 154.070313 195.105469 154.070313 196.246094 C 154.070313 197.390625 153.144531 198.316406 152 198.316406 C 150.859375 198.316406 149.933594 197.390625 149.933594 196.246094 Z M 149.933594 196.246094 " transform="matrix(1,0,0,-1,-43,422)"/>
<path style="fill-rule:evenodd;fill:rgb(70.1%,80.3%,89.4%);fill-opacity:1;stroke-width:0.827;stroke-linecap:butt;stroke-linejoin:round;stroke:rgb(0%,0%,0%);stroke-opacity:1;stroke-miterlimit:10;" d="M 173.101563 183.695313 C 173.101563 182.554688 174.027344 181.628906 175.167969 181.628906 C 176.3125 181.628906 177.234375 182.554688 177.234375 183.695313 C 177.234375 184.839844 176.3125 185.765625 175.167969 185.765625 C 174.027344 185.765625 173.101563 184.839844 173.101563 183.695313 Z M 173.101563 183.695313 " transform="matrix(1,0,0,-1,-43,422)"/>
<path style="fill-rule:evenodd;fill:rgb(70.1%,80.3%,89.4%);fill-opacity:1;stroke-width:0.827;stroke-linecap:butt;stroke-linejoin:round;stroke:rgb(0%,0%,0%);stroke-opacity:1;stroke-miterlimit:10;" d="M 147.050781 317.972656 C 147.050781 316.828125 147.976563 315.902344 149.117188 315.902344 C 150.257813 315.902344 151.183594 316.828125 151.183594 317.972656 C 151.183594 319.113281 150.257813 320.039063 149.117188 320.039063 C 147.976563 320.039063 147.050781 319.113281 147.050781 317.972656 Z M 147.050781 317.972656 " transform="matrix(1,0,0,-1,-43,422)"/>
<path style="fill-rule:evenodd;fill:rgb(70.1%,80.3%,89.4%);fill-opacity:1;stroke-width:0.827;stroke-linecap:butt;stroke-linejoin:round;stroke:rgb(0%,0%,0%);stroke-opacity:1;stroke-miterlimit:10;" d="M 179.527344 333.144531 C 179.527344 332.003906 180.453125 331.078125 181.597656 331.078125 C 182.738281 331.078125 183.664063 332.003906 183.664063 333.144531 C 183.664063 334.289063 182.738281 335.214844 181.597656 335.214844 C 180.453125 335.214844 179.527344 334.289063 179.527344 333.144531 Z M 179.527344 333.144531 " transform="matrix(1,0,0,-1,-43,422)"/>
<path style="fill-rule:evenodd;fill:rgb(70.1%,80.3%,89.4%);fill-opacity:1;stroke-width:0.827;stroke-linecap:butt;stroke-linejoin:round;stroke:rgb(0%,0%,0%);stroke-opacity:1;stroke-miterlimit:10;" d="M 191.476563 272.179688 C 191.476563 271.039063 192.402344 270.113281 193.542969 270.113281 C 194.683594 270.113281 195.609375 271.039063 195.609375 272.179688 C 195.609375 273.324219 194.683594 274.25 193.542969 274.25 C 192.402344 274.25 191.476563 273.324219 191.476563 272.179688 Z M 191.476563 272.179688 " transform="matrix(1,0,0,-1,-43,422)"/>
<path style="fill-rule:evenodd;fill:rgb(70.1%,80.3%,89.4%);fill-opacity:1;stroke-width:0.827;stroke-linecap:butt;stroke-linejoin:round;stroke:rgb(0%,0%,0%);stroke-opacity:1;stroke-miterlimit:10;" d="M 210.109375 287.488281 C 210.109375 286.347656 211.035156 285.421875 212.179688 285.421875 C 213.320313 285.421875 214.246094 286.347656 214.246094 287.488281 C 214.246094 288.628906 213.320313 289.558594 212.179688 289.558594 C 211.035156 289.558594 210.109375 288.628906 210.109375 287.488281 Z M 210.109375 287.488281 " transform="matrix(1,0,0,-1,-43,422)"/>
<path style="fill-rule:evenodd;fill:rgb(70.1%,80.3%,89.4%);fill-opacity:1;stroke-width:0.827;stroke-linecap:butt;stroke-linejoin:round;stroke:rgb(0%,0%,0%);stroke-opacity:1;stroke-miterlimit:10;" d="M 202.257813 258.738281 C 202.257813 257.59375 203.183594 256.667969 204.324219 256.667969 C 205.46875 256.667969 206.394531 257.59375 206.394531 258.738281 C 206.394531 259.878906 205.46875 260.804688 204.324219 260.804688 C 203.183594 260.804688 202.257813 259.878906 202.257813 258.738281 Z M 202.257813 258.738281 " transform="matrix(1,0,0,-1,-43,422)"/>
<path style="fill-rule:evenodd;fill:rgb(70.1%,80.3%,89.4%);fill-opacity:1;stroke-width:0.827;stroke-linecap:butt;stroke-linejoin:round;stroke:rgb(0%,0%,0%);stroke-opacity:1;stroke-miterlimit:10;" d="M 214.667969 231.449219 C 214.667969 230.308594 215.59375 229.382813 216.738281 229.382813 C 217.878906 229.382813 218.804688 230.308594 218.804688 231.449219 C 218.804688 232.589844 217.878906 233.519531 216.738281 233.519531 C 215.59375 233.519531 214.667969 232.589844 214.667969 231.449219 Z M 214.667969 231.449219 " transform="matrix(1,0,0,-1,-43,422)"/>
<path style="fill-rule:evenodd;fill:rgb(70.1%,80.3%,89.4%);fill-opacity:1;stroke-width:0.827;stroke-linecap:butt;stroke-linejoin:round;stroke:rgb(0%,0%,0%);stroke-opacity:1;stroke-miterlimit:10;" d="M 220.792969 228.519531 C 220.792969 227.378906 221.71875 226.453125 222.859375 226.453125 C 224 226.453125 224.929688 227.378906 224.929688 228.519531 C 224.929688 229.664063 224 230.589844 222.859375 230.589844 C 221.71875 230.589844 220.792969 229.664063 220.792969 228.519531 Z M 220.792969 228.519531 " transform="matrix(1,0,0,-1,-43,422)"/>
<path style="fill-rule:evenodd;fill:rgb(70.1%,80.3%,89.4%);fill-opacity:1;stroke-width:0.827;stroke-linecap:butt;stroke-linejoin:round;stroke:rgb(0%,0%,0%);stroke-opacity:1;stroke-miterlimit:10;" d="M 231.042969 223.863281 C 231.042969 222.71875 231.96875 221.792969 233.109375 221.792969 C 234.25 221.792969 235.179688 222.71875 235.179688 223.863281 C 235.179688 225.003906 234.25 225.929688 233.109375 225.929688 C 231.96875 225.929688 231.042969 225.003906 231.042969 223.863281 Z M 231.042969 223.863281 " transform="matrix(1,0,0,-1,-43,422)"/>
<path style="fill-rule:evenodd;fill:rgb(70.1%,80.3%,89.4%);fill-opacity:1;stroke-width:0.827;stroke-linecap:butt;stroke-linejoin:round;stroke:rgb(0%,0%,0%);stroke-opacity:1;stroke-miterlimit:10;" d="M 229.710938 195.441406 C 229.710938 194.300781 230.636719 193.375 231.777344 193.375 C 232.921875 193.375 233.847656 194.300781 233.847656 195.441406 C 233.847656 196.585938 232.921875 197.511719 231.777344 197.511719 C 230.636719 197.511719 229.710938 196.585938 229.710938 195.441406 Z M 229.710938 195.441406 " transform="matrix(1,0,0,-1,-43,422)"/>
<path style="fill-rule:evenodd;fill:rgb(70.1%,80.3%,89.4%);fill-opacity:1;stroke-width:0.827;stroke-linecap:butt;stroke-linejoin:round;stroke:rgb(0%,0%,0%);stroke-opacity:1;stroke-miterlimit:10;" d="M 210.542969 180.402344 C 210.542969 179.257813 211.46875 178.332031 212.609375 178.332031 C 213.753906 178.332031 214.679688 179.257813 214.679688 180.402344 C 214.679688 181.542969 213.753906 182.46875 212.609375 182.46875 C 211.46875 182.46875 210.542969 181.542969 210.542969 180.402344 Z M 210.542969 180.402344 " transform="matrix(1,0,0,-1,-43,422)"/>
<path style="fill-rule:evenodd;fill:rgb(70.1%,80.3%,89.4%);fill-opacity:1;stroke-width:0.827;stroke-linecap:butt;stroke-linejoin:round;stroke:rgb(0%,0%,0%);stroke-opacity:1;stroke-miterlimit:10;" d="M 192.957031 124.039063 C 192.957031 122.898438 193.882813 121.972656 195.023438 121.972656 C 196.167969 121.972656 197.09375 122.898438 197.09375 124.039063 C 197.09375 125.183594 196.167969 126.109375 195.023438 126.109375 C 193.882813 126.109375 192.957031 125.183594 192.957031 124.039063 Z M 192.957031 124.039063 " transform="matrix(1,0,0,-1,-43,422)"/>
<path style="fill-rule:evenodd;fill:rgb(70.1%,80.3%,89.4%);fill-opacity:1;stroke-width:0.827;stroke-linecap:butt;stroke-linejoin:round;stroke:rgb(0%,0%,0%);stroke-opacity:1;stroke-miterlimit:10;" d="M 227.28125 345.996094 C 227.28125 344.855469 228.207031 343.929688 229.347656 343.929688 C 230.492188 343.929688 231.417969 344.855469 231.417969 345.996094 C 231.417969 347.140625 230.492188 348.066406 229.347656 348.066406 C 228.207031 348.066406 227.28125 347.140625 227.28125 345.996094 Z M 227.28125 345.996094 " transform="matrix(1,0,0,-1,-43,422)"/>
<path style="fill-rule:evenodd;fill:rgb(70.1%,80.3%,89.4%);fill-opacity:1;stroke-width:0.827;stroke-linecap:butt;stroke-linejoin:round;stroke:rgb(0%,0%,0%);stroke-opacity:1;stroke-miterlimit:10;" d="M 241.789063 338.277344 C 241.789063 337.132813 242.714844 336.207031 243.859375 336.207031 C 245 336.207031 245.925781 337.132813 245.925781 338.277344 C 245.925781 339.417969 245 340.34375 243.859375 340.34375 C 242.714844 340.34375 241.789063 339.417969 241.789063 338.277344 Z M 241.789063 338.277344 " transform="matrix(1,0,0,-1,-43,422)"/>
<path style="fill-rule:evenodd;fill:rgb(70.1%,80.3%,89.4%);fill-opacity:1;stroke-width:0.827;stroke-linecap:butt;stroke-linejoin:round;stroke:rgb(0%,0%,0%);stroke-opacity:1;stroke-miterlimit:10;" d="M 257.628906 349.726563 C 257.628906 348.582031 258.554688 347.65625 259.699219 347.65625 C 260.839844 347.65625 261.765625 348.582031 261.765625 349.726563 C 261.765625 350.867188 260.839844 351.792969 259.699219 351.792969 C 258.554688 351.792969 257.628906 350.867188 257.628906 349.726563 Z M 257.628906 349.726563 " transform="matrix(1,0,0,-1,-43,422)"/>
<path style="fill-rule:evenodd;fill:rgb(70.1%,80.3%,89.4%);fill-opacity:1;stroke-width:0.827;stroke-linecap:butt;stroke-linejoin:round;stroke:rgb(0%,0%,0%);stroke-opacity:1;stroke-miterlimit:10;" d="M 239.660156 357.445313 C 239.660156 356.304688 240.585938 355.375 241.726563 355.375 C 242.871094 355.375 243.796875 356.304688 243.796875 357.445313 C 243.796875 358.585938 242.871094 359.511719 241.726563 359.511719 C 240.585938 359.511719 239.660156 358.585938 239.660156 357.445313 Z M 239.660156 357.445313 " transform="matrix(1,0,0,-1,-43,422)"/>
<path style="fill-rule:evenodd;fill:rgb(70.1%,80.3%,89.4%);fill-opacity:1;stroke-width:0.827;stroke-linecap:butt;stroke-linejoin:round;stroke:rgb(0%,0%,0%);stroke-opacity:1;stroke-miterlimit:10;" d="M 226.75 365.964844 C 226.75 364.820313 227.675781 363.894531 228.816406 363.894531 C 229.957031 363.894531 230.886719 364.820313 230.886719 365.964844 C 230.886719 367.105469 229.957031 368.03125 228.816406 368.03125 C 227.675781 368.03125 226.75 367.105469 226.75 365.964844 Z M 226.75 365.964844 " transform="matrix(1,0,0,-1,-43,422)"/>
<path style="fill-rule:evenodd;fill:rgb(70.1%,80.3%,89.4%);fill-opacity:1;stroke-width:0.827;stroke-linecap:butt;stroke-linejoin:round;stroke:rgb(0%,0%,0%);stroke-opacity:1;stroke-miterlimit:10;" d="M 238.855469 385.285156 C 238.855469 384.144531 239.78125 383.214844 240.925781 383.214844 C 242.066406 383.214844 242.992188 384.144531 242.992188 385.285156 C 242.992188 386.425781 242.066406 387.351563 240.925781 387.351563 C 239.78125 387.351563 238.855469 386.425781 238.855469 385.285156 Z M 238.855469 385.285156 " transform="matrix(1,0,0,-1,-43,422)"/>
<path style="fill-rule:evenodd;fill:rgb(80%,90.1%,76.8%);fill-opacity:1;stroke-width:0.827;stroke-linecap:butt;stroke-linejoin:round;stroke:rgb(0%,0%,0%);stroke-opacity:1;stroke-miterlimit:10;" d="M 266.765625 359.613281 C 266.765625 358.472656 267.691406 357.542969 268.835938 357.542969 C 269.976563 357.542969 270.902344 358.472656 270.902344 359.613281 C 270.902344 360.753906 269.976563 361.679688 268.835938 361.679688 C 267.691406 361.679688 266.765625 360.753906 266.765625 359.613281 Z M 266.765625 359.613281 " transform="matrix(1,0,0,-1,-43,422)"/>
<path style="fill-rule:evenodd;fill:rgb(80%,90.1%,76.8%);fill-opacity:1;stroke-width:0.827;stroke-linecap:butt;stroke-linejoin:round;stroke:rgb(0%,0%,0%);stroke-opacity:1;stroke-miterlimit:10;" d="M 257.316406 341.609375 C 257.316406 340.46875 258.242188 339.542969 259.382813 339.542969 C 260.527344 339.542969 261.453125 340.46875 261.453125 341.609375 C 261.453125 342.75 260.527344 343.679688 259.382813 343.679688 C 258.242188 343.679688 257.316406 342.75 257.316406 341.609375 Z M 257.316406 341.609375 " transform="matrix(1,0,0,-1,-43,422)"/>
<path style="fill-rule:evenodd;fill:rgb(80%,90.1%,76.8%);fill-opacity:1;stroke-width:0.827;stroke-linecap:butt;stroke-linejoin:round;stroke:rgb(0%,0%,0%);stroke-opacity:1;stroke-miterlimit:10;" d="M 264.503906 343.871094 C 264.503906 342.730469 265.429688 341.804688 266.570313 341.804688 C 267.714844 341.804688 268.640625 342.730469 268.640625 343.871094 C 268.640625 345.015625 267.714844 345.941406 266.570313 345.941406 C 265.429688 345.941406 264.503906 345.015625 264.503906 343.871094 Z M 264.503906 343.871094 " transform="matrix(1,0,0,-1,-43,422)"/>
<path style="fill-rule:evenodd;fill:rgb(80%,90.1%,76.8%);fill-opacity:1;stroke-width:0.827;stroke-linecap:butt;stroke-linejoin:round;stroke:rgb(0%,0%,0%);stroke-opacity:1;stroke-miterlimit:10;" d="M 272.359375 341.476563 C 272.359375 340.335938 273.285156 339.410156 274.425781 339.410156 C 275.566406 339.410156 276.492188 340.335938 276.492188 341.476563 C 276.492188 342.617188 275.566406 343.542969 274.425781 343.542969 C 273.285156 343.542969 272.359375 342.617188 272.359375 341.476563 Z M 272.359375 341.476563 " transform="matrix(1,0,0,-1,-43,422)"/>
<path style="fill-rule:evenodd;fill:rgb(80%,90.1%,76.8%);fill-opacity:1;stroke-width:0.827;stroke-linecap:butt;stroke-linejoin:round;stroke:rgb(0%,0%,0%);stroke-opacity:1;stroke-miterlimit:10;" d="M 274.085938 323.507813 C 274.085938 322.363281 275.015625 321.4375 276.15625 321.4375 C 277.296875 321.4375 278.222656 322.363281 278.222656 323.507813 C 278.222656 324.648438 277.296875 325.574219 276.15625 325.574219 C 275.015625 325.574219 274.085938 324.648438 274.085938 323.507813 Z M 274.085938 323.507813 " transform="matrix(1,0,0,-1,-43,422)"/>
<path style="fill-rule:evenodd;fill:rgb(80%,90.1%,76.8%);fill-opacity:1;stroke-width:0.827;stroke-linecap:butt;stroke-linejoin:round;stroke:rgb(0%,0%,0%);stroke-opacity:1;stroke-miterlimit:10;" d="M 265.167969 325.769531 C 265.167969 324.628906 266.097656 323.703125 267.238281 323.703125 C 268.378906 323.703125 269.304688 324.628906 269.304688 325.769531 C 269.304688 326.910156 268.378906 327.835938 267.238281 327.835938 C 266.097656 327.835938 265.167969 326.910156 265.167969 325.769531 Z M 265.167969 325.769531 " transform="matrix(1,0,0,-1,-43,422)"/>
<path style="fill-rule:evenodd;fill:rgb(80%,90.1%,76.8%);fill-opacity:1;stroke-width:0.827;stroke-linecap:butt;stroke-linejoin:round;stroke:rgb(0%,0%,0%);stroke-opacity:1;stroke-miterlimit:10;" d="M 259.046875 315.386719 C 259.046875 314.246094 259.972656 313.320313 261.113281 313.320313 C 262.257813 313.320313 263.183594 314.246094 263.183594 315.386719 C 263.183594 316.527344 262.257813 317.453125 261.113281 317.453125 C 259.972656 317.453125 259.046875 316.527344 259.046875 315.386719 Z M 259.046875 315.386719 " transform="matrix(1,0,0,-1,-43,422)"/>
<path style="fill-rule:evenodd;fill:rgb(80%,90.1%,76.8%);fill-opacity:1;stroke-width:0.827;stroke-linecap:butt;stroke-linejoin:round;stroke:rgb(0%,0%,0%);stroke-opacity:1;stroke-miterlimit:10;" d="M 226.917969 280.734375 C 226.917969 279.589844 227.847656 278.664063 228.988281 278.664063 C 230.128906 278.664063 231.054688 279.589844 231.054688 280.734375 C 231.054688 281.875 230.128906 282.800781 228.988281 282.800781 C 227.847656 282.800781 226.917969 281.875 226.917969 280.734375 Z M 226.917969 280.734375 " transform="matrix(1,0,0,-1,-43,422)"/>
<path style="fill-rule:evenodd;fill:rgb(80%,90.1%,76.8%);fill-opacity:1;stroke-width:0.827;stroke-linecap:butt;stroke-linejoin:round;stroke:rgb(0%,0%,0%);stroke-opacity:1;stroke-miterlimit:10;" d="M 289.375 210.359375 C 289.375 209.214844 290.300781 208.289063 291.445313 208.289063 C 292.585938 208.289063 293.511719 209.214844 293.511719 210.359375 C 293.511719 211.5 292.585938 212.425781 291.445313 212.425781 C 290.300781 212.425781 289.375 211.5 289.375 210.359375 Z M 289.375 210.359375 " transform="matrix(1,0,0,-1,-43,422)"/>
<path style="fill-rule:evenodd;fill:rgb(80%,90.1%,76.8%);fill-opacity:1;stroke-width:0.827;stroke-linecap:butt;stroke-linejoin:round;stroke:rgb(0%,0%,0%);stroke-opacity:1;stroke-miterlimit:10;" d="M 223.550781 172.167969 C 223.550781 171.023438 224.476563 170.097656 225.617188 170.097656 C 226.761719 170.097656 227.6875 171.023438 227.6875 172.167969 C 227.6875 173.308594 226.761719 174.234375 225.617188 174.234375 C 224.476563 174.234375 223.550781 173.308594 223.550781 172.167969 Z M 223.550781 172.167969 " transform="matrix(1,0,0,-1,-43,422)"/>
<path style="fill-rule:evenodd;fill:rgb(80%,90.1%,76.8%);fill-opacity:1;stroke-width:0.827;stroke-linecap:butt;stroke-linejoin:round;stroke:rgb(0%,0%,0%);stroke-opacity:1;stroke-miterlimit:10;" d="M 235.007813 128.808594 C 235.007813 127.664063 235.933594 126.738281 237.074219 126.738281 C 238.21875 126.738281 239.144531 127.664063 239.144531 128.808594 C 239.144531 129.949219 238.21875 130.875 237.074219 130.875 C 235.933594 130.875 235.007813 129.949219 235.007813 128.808594 Z M 235.007813 128.808594 " transform="matrix(1,0,0,-1,-43,422)"/>
<path style="fill-rule:evenodd;fill:rgb(80%,90.1%,76.8%);fill-opacity:1;stroke-width:0.827;stroke-linecap:butt;stroke-linejoin:round;stroke:rgb(0%,0%,0%);stroke-opacity:1;stroke-miterlimit:10;" d="M 263.988281 105.890625 C 263.988281 104.75 264.914063 103.824219 266.058594 103.824219 C 267.199219 103.824219 268.125 104.75 268.125 105.890625 C 268.125 107.035156 267.199219 107.960938 266.058594 107.960938 C 264.914063 107.960938 263.988281 107.035156 263.988281 105.890625 Z M 263.988281 105.890625 " transform="matrix(1,0,0,-1,-43,422)"/>
<path style="fill-rule:evenodd;fill:rgb(80%,90.1%,76.8%);fill-opacity:1;stroke-width:0.827;stroke-linecap:butt;stroke-linejoin:round;stroke:rgb(0%,0%,0%);stroke-opacity:1;stroke-miterlimit:10;" d="M 103.246094 98.480469 C 103.246094 97.335938 104.171875 96.410156 105.3125 96.410156 C 106.453125 96.410156 107.378906 97.335938 107.378906 98.480469 C 107.378906 99.621094 106.453125 100.546875 105.3125 100.546875 C 104.171875 100.546875 103.246094 99.621094 103.246094 98.480469 Z M 103.246094 98.480469 " transform="matrix(1,0,0,-1,-43,422)"/>
<path style="fill-rule:evenodd;fill:rgb(80%,90.1%,76.8%);fill-opacity:1;stroke-width:0.827;stroke-linecap:butt;stroke-linejoin:round;stroke:rgb(0%,0%,0%);stroke-opacity:1;stroke-miterlimit:10;" d="M 116.050781 73.992188 C 116.050781 72.847656 116.976563 71.921875 118.117188 71.921875 C 119.261719 71.921875 120.1875 72.847656 120.1875 73.992188 C 120.1875 75.132813 119.261719 76.058594 118.117188 76.058594 C 116.976563 76.058594 116.050781 75.132813 116.050781 73.992188 Z M 116.050781 73.992188 " transform="matrix(1,0,0,-1,-43,422)"/>
<path style="fill-rule:evenodd;fill:rgb(80%,90.1%,76.8%);fill-opacity:1;stroke-width:0.827;stroke-linecap:butt;stroke-linejoin:round;stroke:rgb(0%,0%,0%);stroke-opacity:1;stroke-miterlimit:10;" d="M 216.203125 347.480469 C 216.203125 346.339844 217.128906 345.414063 218.273438 345.414063 C 219.414063 345.414063 220.339844 346.339844 220.339844 347.480469 C 220.339844 348.621094 219.414063 349.546875 218.273438 349.546875 C 217.128906 349.546875 216.203125 348.621094 216.203125 347.480469 Z M 216.203125 347.480469 " transform="matrix(1,0,0,-1,-43,422)"/>
<path style="fill-rule:evenodd;fill:rgb(80%,90.1%,76.8%);fill-opacity:1;stroke-width:0.827;stroke-linecap:butt;stroke-linejoin:round;stroke:rgb(0%,0%,0%);stroke-opacity:1;stroke-miterlimit:10;" d="M 196.433594 360.511719 C 196.433594 359.371094 197.359375 358.445313 198.5 358.445313 C 199.644531 358.445313 200.570313 359.371094 200.570313 360.511719 C 200.570313 361.652344 199.644531 362.578125 198.5 362.578125 C 197.359375 362.578125 196.433594 361.652344 196.433594 360.511719 Z M 196.433594 360.511719 " transform="matrix(1,0,0,-1,-43,422)"/>
<path style="fill-rule:evenodd;fill:rgb(80%,90.1%,76.8%);fill-opacity:1;stroke-width:0.827;stroke-linecap:butt;stroke-linejoin:round;stroke:rgb(0%,0%,0%);stroke-opacity:1;stroke-miterlimit:10;" d="M 172.167969 386.796875 C 172.167969 385.65625 173.097656 384.730469 174.238281 384.730469 C 175.382813 384.730469 176.304688 385.65625 176.304688 386.796875 C 176.304688 387.9375 175.382813 388.863281 174.238281 388.863281 C 173.097656 388.863281 172.167969 387.9375 172.167969 386.796875 Z M 172.167969 386.796875 " transform="matrix(1,0,0,-1,-43,422)"/>
<path style="fill-rule:evenodd;fill:rgb(80%,90.1%,76.8%);fill-opacity:1;stroke-width:0.827;stroke-linecap:butt;stroke-linejoin:round;stroke:rgb(0%,0%,0%);stroke-opacity:1;stroke-miterlimit:10;" d="M 131.28125 334.226563 C 131.28125 333.085938 132.207031 332.160156 133.351563 332.160156 C 134.492188 332.160156 135.417969 333.085938 135.417969 334.226563 C 135.417969 335.367188 134.492188 336.292969 133.351563 336.292969 C 132.207031 336.292969 131.28125 335.367188 131.28125 334.226563 Z M 131.28125 334.226563 " transform="matrix(1,0,0,-1,-43,422)"/>
<path style="fill-rule:evenodd;fill:rgb(80%,90.1%,76.8%);fill-opacity:1;stroke-width:0.827;stroke-linecap:butt;stroke-linejoin:round;stroke:rgb(0%,0%,0%);stroke-opacity:1;stroke-miterlimit:10;" d="M 133.078125 364.78125 C 133.078125 363.636719 134.003906 362.710938 135.148438 362.710938 C 136.289063 362.710938 137.214844 363.636719 137.214844 364.78125 C 137.214844 365.921875 136.289063 366.847656 135.148438 366.847656 C 134.003906 366.847656 133.078125 365.921875 133.078125 364.78125 Z M 133.078125 364.78125 " transform="matrix(1,0,0,-1,-43,422)"/>
<path style="fill-rule:evenodd;fill:rgb(80%,90.1%,76.8%);fill-opacity:1;stroke-width:0.827;stroke-linecap:butt;stroke-linejoin:round;stroke:rgb(0%,0%,0%);stroke-opacity:1;stroke-miterlimit:10;" d="M 133.976563 376.238281 C 133.976563 375.097656 134.902344 374.167969 136.046875 374.167969 C 137.1875 374.167969 138.113281 375.097656 138.113281 376.238281 C 138.113281 377.378906 137.1875 378.304688 136.046875 378.304688 C 134.902344 378.304688 133.976563 377.378906 133.976563 376.238281 Z M 133.976563 376.238281 " transform="matrix(1,0,0,-1,-43,422)"/>
<path style="fill-rule:evenodd;fill:rgb(97.2%,70.1%,68.2%);fill-opacity:1;stroke-width:0.827;stroke-linecap:butt;stroke-linejoin:round;stroke:rgb(0%,0%,0%);stroke-opacity:1;stroke-miterlimit:10;" d="M 142.964844 382.808594 C 142.964844 381.667969 143.890625 380.742188 145.03125 380.742188 C 146.175781 380.742188 147.101563 381.667969 147.101563 382.808594 C 147.101563 383.949219 146.175781 384.875 145.03125 384.875 C 143.890625 384.875 142.964844 383.949219 142.964844 382.808594 Z M 142.964844 382.808594 " transform="matrix(1,0,0,-1,-43,422)"/>
<path style="fill-rule:evenodd;fill:rgb(97.2%,70.1%,68.2%);fill-opacity:1;stroke-width:0.827;stroke-linecap:butt;stroke-linejoin:round;stroke:rgb(0%,0%,0%);stroke-opacity:1;stroke-miterlimit:10;" d="M 156.21875 409.769531 C 156.21875 408.625 157.144531 407.699219 158.285156 407.699219 C 159.429688 407.699219 160.355469 408.625 160.355469 409.769531 C 160.355469 410.910156 159.429688 411.835938 158.285156 411.835938 C 157.144531 411.835938 156.21875 410.910156 156.21875 409.769531 Z M 156.21875 409.769531 " transform="matrix(1,0,0,-1,-43,422)"/>
<path style="fill-rule:evenodd;fill:rgb(97.2%,70.1%,68.2%);fill-opacity:1;stroke-width:0.827;stroke-linecap:butt;stroke-linejoin:round;stroke:rgb(0%,0%,0%);stroke-opacity:1;stroke-miterlimit:10;" d="M 223.394531 414.710938 C 223.394531 413.570313 224.320313 412.644531 225.460938 412.644531 C 226.601563 412.644531 227.527344 413.570313 227.527344 414.710938 C 227.527344 415.851563 226.601563 416.777344 225.460938 416.777344 C 224.320313 416.777344 223.394531 415.851563 223.394531 414.710938 Z M 223.394531 414.710938 " transform="matrix(1,0,0,-1,-43,422)"/>
<path style="fill-rule:evenodd;fill:rgb(97.2%,70.1%,68.2%);fill-opacity:1;stroke-width:0.827;stroke-linecap:butt;stroke-linejoin:round;stroke:rgb(0%,0%,0%);stroke-opacity:1;stroke-miterlimit:10;" d="M 244.960938 399.660156 C 244.960938 398.515625 245.886719 397.589844 247.027344 397.589844 C 248.167969 397.589844 249.097656 398.515625 249.097656 399.660156 C 249.097656 400.800781 248.167969 401.726563 247.027344 401.726563 C 245.886719 401.726563 244.960938 400.800781 244.960938 399.660156 Z M 244.960938 399.660156 " transform="matrix(1,0,0,-1,-43,422)"/>
<path style="fill-rule:evenodd;fill:rgb(97.2%,70.1%,68.2%);fill-opacity:1;stroke-width:0.827;stroke-linecap:butt;stroke-linejoin:round;stroke:rgb(0%,0%,0%);stroke-opacity:1;stroke-miterlimit:10;" d="M 123.644531 393.816406 C 123.644531 392.675781 124.570313 391.75 125.710938 391.75 C 126.855469 391.75 127.78125 392.675781 127.78125 393.816406 C 127.78125 394.960938 126.855469 395.886719 125.710938 395.886719 C 124.570313 395.886719 123.644531 394.960938 123.644531 393.816406 Z M 123.644531 393.816406 " transform="matrix(1,0,0,-1,-43,422)"/>
<path style="fill-rule:evenodd;fill:rgb(97.2%,70.1%,68.2%);fill-opacity:1;stroke-width:0.827;stroke-linecap:butt;stroke-linejoin:round;stroke:rgb(0%,0%,0%);stroke-opacity:1;stroke-miterlimit:10;" d="M 91.964844 327.769531 C 91.964844 326.625 92.890625 325.699219 94.035156 325.699219 C 95.175781 325.699219 96.101563 326.625 96.101563 327.769531 C 96.101563 328.910156 95.175781 329.835938 94.035156 329.835938 C 92.890625 329.835938 91.964844 328.910156 91.964844 327.769531 Z M 91.964844 327.769531 " transform="matrix(1,0,0,-1,-43,422)"/>
<path style="fill-rule:evenodd;fill:rgb(97.2%,70.1%,68.2%);fill-opacity:1;stroke-width:0.827;stroke-linecap:butt;stroke-linejoin:round;stroke:rgb(0%,0%,0%);stroke-opacity:1;stroke-miterlimit:10;" d="M 137.796875 323.949219 C 137.796875 322.808594 138.722656 321.878906 139.863281 321.878906 C 141.007813 321.878906 141.933594 322.808594 141.933594 323.949219 C 141.933594 325.089844 141.007813 326.015625 139.863281 326.015625 C 138.722656 326.015625 137.796875 325.089844 137.796875 323.949219 Z M 137.796875 323.949219 " transform="matrix(1,0,0,-1,-43,422)"/>
<path style="fill-rule:evenodd;fill:rgb(97.2%,70.1%,68.2%);fill-opacity:1;stroke-width:0.827;stroke-linecap:butt;stroke-linejoin:round;stroke:rgb(0%,0%,0%);stroke-opacity:1;stroke-miterlimit:10;" d="M 209.6875 347.3125 C 209.6875 346.171875 210.613281 345.246094 211.757813 345.246094 C 212.898438 345.246094 213.824219 346.171875 213.824219 347.3125 C 213.824219 348.453125 212.898438 349.378906 211.757813 349.378906 C 210.613281 349.378906 209.6875 348.453125 209.6875 347.3125 Z M 209.6875 347.3125 " transform="matrix(1,0,0,-1,-43,422)"/>
<path style="fill-rule:evenodd;fill:rgb(97.2%,70.1%,68.2%);fill-opacity:1;stroke-width:0.827;stroke-linecap:butt;stroke-linejoin:round;stroke:rgb(0%,0%,0%);stroke-opacity:1;stroke-miterlimit:10;" d="M 239.34375 331.136719 C 239.34375 329.996094 240.269531 329.070313 241.410156 329.070313 C 242.554688 329.070313 243.480469 329.996094 243.480469 331.136719 C 243.480469 332.28125 242.554688 333.207031 241.410156 333.207031 C 240.269531 333.207031 239.34375 332.28125 239.34375 331.136719 Z M 239.34375 331.136719 " transform="matrix(1,0,0,-1,-43,422)"/>
<path style="fill-rule:evenodd;fill:rgb(97.2%,70.1%,68.2%);fill-opacity:1;stroke-width:0.827;stroke-linecap:butt;stroke-linejoin:round;stroke:rgb(0%,0%,0%);stroke-opacity:1;stroke-miterlimit:10;" d="M 198.230469 303.503906 C 198.230469 302.363281 199.15625 301.4375 200.300781 301.4375 C 201.441406 301.4375 202.367188 302.363281 202.367188 303.503906 C 202.367188 304.648438 201.441406 305.574219 200.300781 305.574219 C 199.15625 305.574219 198.230469 304.648438 198.230469 303.503906 Z M 198.230469 303.503906 " transform="matrix(1,0,0,-1,-43,422)"/>
<path style="fill-rule:evenodd;fill:rgb(97.2%,70.1%,68.2%);fill-opacity:1;stroke-width:0.827;stroke-linecap:butt;stroke-linejoin:round;stroke:rgb(0%,0%,0%);stroke-opacity:1;stroke-miterlimit:10;" d="M 199.804688 297.4375 C 199.804688 296.296875 200.730469 295.371094 201.871094 295.371094 C 203.015625 295.371094 203.941406 296.296875 203.941406 297.4375 C 203.941406 298.582031 203.015625 299.507813 201.871094 299.507813 C 200.730469 299.507813 199.804688 298.582031 199.804688 297.4375 Z M 199.804688 297.4375 " transform="matrix(1,0,0,-1,-43,422)"/>
<path style="fill-rule:evenodd;fill:rgb(97.2%,70.1%,68.2%);fill-opacity:1;stroke-width:0.827;stroke-linecap:butt;stroke-linejoin:round;stroke:rgb(0%,0%,0%);stroke-opacity:1;stroke-miterlimit:10;" d="M 119.824219 280.644531 C 119.824219 279.503906 120.75 278.578125 121.890625 278.578125 C 123.035156 278.578125 123.960938 279.503906 123.960938 280.644531 C 123.960938 281.785156 123.035156 282.710938 121.890625 282.710938 C 120.75 282.710938 119.824219 281.785156 119.824219 280.644531 Z M 119.824219 280.644531 " transform="matrix(1,0,0,-1,-43,422)"/>
<path style="fill-rule:evenodd;fill:rgb(97.2%,70.1%,68.2%);fill-opacity:1;stroke-width:0.827;stroke-linecap:butt;stroke-linejoin:round;stroke:rgb(0%,0%,0%);stroke-opacity:1;stroke-miterlimit:10;" d="M 111.960938 249.640625 C 111.960938 248.5 112.886719 247.574219 114.027344 247.574219 C 115.171875 247.574219 116.097656 248.5 116.097656 249.640625 C 116.097656 250.785156 115.171875 251.710938 114.027344 251.710938 C 112.886719 251.710938 111.960938 250.785156 111.960938 249.640625 Z M 111.960938 249.640625 " transform="matrix(1,0,0,-1,-43,422)"/>
<path style="fill-rule:evenodd;fill:rgb(97.2%,70.1%,68.2%);fill-opacity:1;stroke-width:0.827;stroke-linecap:butt;stroke-linejoin:round;stroke:rgb(0%,0%,0%);stroke-opacity:1;stroke-miterlimit:10;" d="M 178.460938 256.832031 C 178.460938 255.691406 179.386719 254.765625 180.527344 254.765625 C 181.671875 254.765625 182.597656 255.691406 182.597656 256.832031 C 182.597656 257.972656 181.671875 258.898438 180.527344 258.898438 C 179.386719 258.898438 178.460938 257.972656 178.460938 256.832031 Z M 178.460938 256.832031 " transform="matrix(1,0,0,-1,-43,422)"/>
<path style="fill-rule:evenodd;fill:rgb(97.2%,70.1%,68.2%);fill-opacity:1;stroke-width:0.827;stroke-linecap:butt;stroke-linejoin:round;stroke:rgb(0%,0%,0%);stroke-opacity:1;stroke-miterlimit:10;" d="M 171.945313 243.015625 C 171.945313 241.871094 172.871094 240.945313 174.015625 240.945313 C 175.15625 240.945313 176.082031 241.871094 176.082031 243.015625 C 176.082031 244.15625 175.15625 245.082031 174.015625 245.082031 C 172.871094 245.082031 171.945313 244.15625 171.945313 243.015625 Z M 171.945313 243.015625 " transform="matrix(1,0,0,-1,-43,422)"/>
<path style="fill-rule:evenodd;fill:rgb(97.2%,70.1%,68.2%);fill-opacity:1;stroke-width:0.827;stroke-linecap:butt;stroke-linejoin:round;stroke:rgb(0%,0%,0%);stroke-opacity:1;stroke-miterlimit:10;" d="M 205.867188 234.925781 C 205.867188 233.785156 206.792969 232.859375 207.9375 232.859375 C 209.078125 232.859375 210.003906 233.785156 210.003906 234.925781 C 210.003906 236.070313 209.078125 236.996094 207.9375 236.996094 C 206.792969 236.996094 205.867188 236.070313 205.867188 234.925781 Z M 205.867188 234.925781 " transform="matrix(1,0,0,-1,-43,422)"/>
<path style="fill-rule:evenodd;fill:rgb(97.2%,70.1%,68.2%);fill-opacity:1;stroke-width:0.827;stroke-linecap:butt;stroke-linejoin:round;stroke:rgb(0%,0%,0%);stroke-opacity:1;stroke-miterlimit:10;" d="M 160.261719 240.320313 C 160.261719 239.175781 161.1875 238.25 162.332031 238.25 C 163.472656 238.25 164.398438 239.175781 164.398438 240.320313 C 164.398438 241.460938 163.472656 242.386719 162.332031 242.386719 C 161.1875 242.386719 160.261719 241.460938 160.261719 240.320313 Z M 160.261719 240.320313 " transform="matrix(1,0,0,-1,-43,422)"/>
<path style="fill-rule:evenodd;fill:rgb(97.2%,70.1%,68.2%);fill-opacity:1;stroke-width:0.827;stroke-linecap:butt;stroke-linejoin:round;stroke:rgb(0%,0%,0%);stroke-opacity:1;stroke-miterlimit:10;" d="M 160.488281 219.929688 C 160.488281 218.789063 161.414063 217.863281 162.554688 217.863281 C 163.699219 217.863281 164.625 218.789063 164.625 219.929688 C 164.625 221.074219 163.699219 222 162.554688 222 C 161.414063 222 160.488281 221.074219 160.488281 219.929688 Z M 160.488281 219.929688 " transform="matrix(1,0,0,-1,-43,422)"/>
<path style="fill-rule:evenodd;fill:rgb(97.2%,70.1%,68.2%);fill-opacity:1;stroke-width:0.827;stroke-linecap:butt;stroke-linejoin:round;stroke:rgb(0%,0%,0%);stroke-opacity:1;stroke-miterlimit:10;" d="M 186.324219 202.40625 C 186.324219 201.265625 187.25 200.339844 188.390625 200.339844 C 189.535156 200.339844 190.460938 201.265625 190.460938 202.40625 C 190.460938 203.550781 189.535156 204.476563 188.390625 204.476563 C 187.25 204.476563 186.324219 203.550781 186.324219 202.40625 Z M 186.324219 202.40625 " transform="matrix(1,0,0,-1,-43,422)"/>
<path style="fill-rule:evenodd;fill:rgb(97.2%,70.1%,68.2%);fill-opacity:1;stroke-width:0.827;stroke-linecap:butt;stroke-linejoin:round;stroke:rgb(0%,0%,0%);stroke-opacity:1;stroke-miterlimit:10;" d="M 187.222656 177.472656 C 187.222656 176.328125 188.148438 175.402344 189.289063 175.402344 C 190.433594 175.402344 191.359375 176.328125 191.359375 177.472656 C 191.359375 178.613281 190.433594 179.539063 189.289063 179.539063 C 188.148438 179.539063 187.222656 178.613281 187.222656 177.472656 Z M 187.222656 177.472656 " transform="matrix(1,0,0,-1,-43,422)"/>
<path style="fill-rule:evenodd;fill:rgb(97.2%,70.1%,68.2%);fill-opacity:1;stroke-width:0.827;stroke-linecap:butt;stroke-linejoin:round;stroke:rgb(0%,0%,0%);stroke-opacity:1;stroke-miterlimit:10;" d="M 145.210938 171.855469 C 145.210938 170.710938 146.136719 169.785156 147.277344 169.785156 C 148.421875 169.785156 149.347656 170.710938 149.347656 171.855469 C 149.347656 172.996094 148.421875 173.921875 147.277344 173.921875 C 146.136719 173.921875 145.210938 172.996094 145.210938 171.855469 Z M 145.210938 171.855469 " transform="matrix(1,0,0,-1,-43,422)"/>
<path style="fill-rule:evenodd;fill:rgb(97.2%,70.1%,68.2%);fill-opacity:1;stroke-width:0.827;stroke-linecap:butt;stroke-linejoin:round;stroke:rgb(0%,0%,0%);stroke-opacity:1;stroke-miterlimit:10;" d="M 140.71875 177.917969 C 140.71875 176.777344 141.644531 175.851563 142.785156 175.851563 C 143.929688 175.851563 144.855469 176.777344 144.855469 177.917969 C 144.855469 179.0625 143.929688 179.988281 142.785156 179.988281 C 141.644531 179.988281 140.71875 179.0625 140.71875 177.917969 Z M 140.71875 177.917969 " transform="matrix(1,0,0,-1,-43,422)"/>
<path style="fill-rule:evenodd;fill:rgb(97.2%,70.1%,68.2%);fill-opacity:1;stroke-width:0.827;stroke-linecap:butt;stroke-linejoin:round;stroke:rgb(0%,0%,0%);stroke-opacity:1;stroke-miterlimit:10;" d="M 124.316406 192.074219 C 124.316406 190.929688 125.242188 190.003906 126.386719 190.003906 C 127.527344 190.003906 128.453125 190.929688 128.453125 192.074219 C 128.453125 193.214844 127.527344 194.140625 126.386719 194.140625 C 125.242188 194.140625 124.316406 193.214844 124.316406 192.074219 Z M 124.316406 192.074219 " transform="matrix(1,0,0,-1,-43,422)"/>
<path style="fill-rule:evenodd;fill:rgb(97.2%,70.1%,68.2%);fill-opacity:1;stroke-width:0.827;stroke-linecap:butt;stroke-linejoin:round;stroke:rgb(0%,0%,0%);stroke-opacity:1;stroke-miterlimit:10;" d="M 230.808594 184.605469 C 230.808594 183.460938 231.734375 182.535156 232.875 182.535156 C 234.015625 182.535156 234.941406 183.460938 234.941406 184.605469 C 234.941406 185.746094 234.015625 186.671875 232.875 186.671875 C 231.734375 186.671875 230.808594 185.746094 230.808594 184.605469 Z M 230.808594 184.605469 " transform="matrix(1,0,0,-1,-43,422)"/>
<path style="fill-rule:evenodd;fill:rgb(97.2%,70.1%,68.2%);fill-opacity:1;stroke-width:0.827;stroke-linecap:butt;stroke-linejoin:round;stroke:rgb(0%,0%,0%);stroke-opacity:1;stroke-miterlimit:10;" d="M 213.730469 142.144531 C 213.730469 141 214.65625 140.074219 215.800781 140.074219 C 216.941406 140.074219 217.867188 141 217.867188 142.144531 C 217.867188 143.285156 216.941406 144.210938 215.800781 144.210938 C 214.65625 144.210938 213.730469 143.285156 213.730469 142.144531 Z M 213.730469 142.144531 " transform="matrix(1,0,0,-1,-43,422)"/>
<path style="fill-rule:evenodd;fill:rgb(97.2%,70.1%,68.2%);fill-opacity:1;stroke-width:0.827;stroke-linecap:butt;stroke-linejoin:round;stroke:rgb(0%,0%,0%);stroke-opacity:1;stroke-miterlimit:10;" d="M 99.378906 116.308594 C 99.378906 115.164063 100.304688 114.238281 101.449219 114.238281 C 102.589844 114.238281 103.515625 115.164063 103.515625 116.308594 C 103.515625 117.449219 102.589844 118.375 101.449219 118.375 C 100.304688 118.375 99.378906 117.449219 99.378906 116.308594 Z M 99.378906 116.308594 " transform="matrix(1,0,0,-1,-43,422)"/>
<path style="fill-rule:evenodd;fill:rgb(97.2%,70.1%,68.2%);fill-opacity:1;stroke-width:0.827;stroke-linecap:butt;stroke-linejoin:round;stroke:rgb(0%,0%,0%);stroke-opacity:1;stroke-miterlimit:10;" d="M 88.21875 90.625 C 88.21875 89.484375 89.144531 88.558594 90.285156 88.558594 C 91.425781 88.558594 92.351563 89.484375 92.351563 90.625 C 92.351563 91.769531 91.425781 92.695313 90.285156 92.695313 C 89.144531 92.695313 88.21875 91.769531 88.21875 90.625 Z M 88.21875 90.625 " transform="matrix(1,0,0,-1,-43,422)"/>
<path style="fill-rule:evenodd;fill:rgb(97.2%,70.1%,68.2%);fill-opacity:1;stroke-width:0.827;stroke-linecap:butt;stroke-linejoin:round;stroke:rgb(0%,0%,0%);stroke-opacity:1;stroke-miterlimit:10;" d="M 82.335938 95.46875 C 82.335938 94.328125 83.261719 93.402344 84.40625 93.402344 C 85.546875 93.402344 86.472656 94.328125 86.472656 95.46875 C 86.472656 96.609375 85.546875 97.535156 84.40625 97.535156 C 83.261719 97.535156 82.335938 96.609375 82.335938 95.46875 Z M 82.335938 95.46875 " transform="matrix(1,0,0,-1,-43,422)"/>
<path style="fill-rule:evenodd;fill:rgb(97.2%,70.1%,68.2%);fill-opacity:1;stroke-width:0.827;stroke-linecap:butt;stroke-linejoin:round;stroke:rgb(0%,0%,0%);stroke-opacity:1;stroke-miterlimit:10;" d="M 77.148438 99.445313 C 77.148438 98.304688 78.074219 97.378906 79.21875 97.378906 C 80.359375 97.378906 81.285156 98.304688 81.285156 99.445313 C 81.285156 100.589844 80.359375 101.515625 79.21875 101.515625 C 78.074219 101.515625 77.148438 100.589844 77.148438 99.445313 Z M 77.148438 99.445313 " transform="matrix(1,0,0,-1,-43,422)"/>
<path style="fill-rule:evenodd;fill:rgb(97.2%,70.1%,68.2%);fill-opacity:1;stroke-width:0.827;stroke-linecap:butt;stroke-linejoin:round;stroke:rgb(0%,0%,0%);stroke-opacity:1;stroke-miterlimit:10;" d="M 71.269531 103.941406 C 71.269531 102.800781 72.195313 101.875 73.335938 101.875 C 74.480469 101.875 75.40625 102.800781 75.40625 103.941406 C 75.40625 105.085938 74.480469 106.011719 73.335938 106.011719 C 72.195313 106.011719 71.269531 105.085938 71.269531 103.941406 Z M 71.269531 103.941406 " transform="matrix(1,0,0,-1,-43,422)"/>
<path style="fill-rule:evenodd;fill:rgb(97.2%,70.1%,68.2%);fill-opacity:1;stroke-width:0.827;stroke-linecap:butt;stroke-linejoin:round;stroke:rgb(0%,0%,0%);stroke-opacity:1;stroke-miterlimit:10;" d="M 48.269531 90.28125 C 48.269531 89.140625 49.195313 88.210938 50.339844 88.210938 C 51.480469 88.210938 52.40625 89.140625 52.40625 90.28125 C 52.40625 91.421875 51.480469 92.347656 50.339844 92.347656 C 49.195313 92.347656 48.269531 91.421875 48.269531 90.28125 Z M 48.269531 90.28125 " transform="matrix(1,0,0,-1,-43,422)"/>
<path style="fill-rule:evenodd;fill:rgb(97.2%,70.1%,68.2%);fill-opacity:1;stroke-width:0.827;stroke-linecap:butt;stroke-linejoin:round;stroke:rgb(0%,0%,0%);stroke-opacity:1;stroke-miterlimit:10;" d="M 58.472656 107.917969 C 58.472656 106.777344 59.398438 105.851563 60.542969 105.851563 C 61.683594 105.851563 62.609375 106.777344 62.609375 107.917969 C 62.609375 109.0625 61.683594 109.988281 60.542969 109.988281 C 59.398438 109.988281 58.472656 109.0625 58.472656 107.917969 Z M 58.472656 107.917969 " transform="matrix(1,0,0,-1,-43,422)"/>
<path style="fill-rule:evenodd;fill:rgb(97.2%,70.1%,68.2%);fill-opacity:1;stroke-width:0.827;stroke-linecap:butt;stroke-linejoin:round;stroke:rgb(0%,0%,0%);stroke-opacity:1;stroke-miterlimit:10;" d="M 79.742188 122.101563 C 79.742188 120.957031 80.667969 120.03125 81.8125 120.03125 C 82.953125 120.03125 83.878906 120.957031 83.878906 122.101563 C 83.878906 123.242188 82.953125 124.167969 81.8125 124.167969 C 80.667969 124.167969 79.742188 123.242188 79.742188 122.101563 Z M 79.742188 122.101563 " transform="matrix(1,0,0,-1,-43,422)"/>
<path style="fill-rule:evenodd;fill:rgb(97.2%,70.1%,68.2%);fill-opacity:1;stroke-width:0.827;stroke-linecap:butt;stroke-linejoin:round;stroke:rgb(0%,0%,0%);stroke-opacity:1;stroke-miterlimit:10;" d="M 85.621094 127.980469 C 85.621094 126.835938 86.550781 125.910156 87.691406 125.910156 C 88.832031 125.910156 89.757813 126.835938 89.757813 127.980469 C 89.757813 129.121094 88.832031 130.046875 87.691406 130.046875 C 86.550781 130.046875 85.621094 129.121094 85.621094 127.980469 Z M 85.621094 127.980469 " transform="matrix(1,0,0,-1,-43,422)"/>
<path style="fill-rule:evenodd;fill:rgb(97.2%,70.1%,68.2%);fill-opacity:1;stroke-width:0.827;stroke-linecap:butt;stroke-linejoin:round;stroke:rgb(0%,0%,0%);stroke-opacity:1;stroke-miterlimit:10;" d="M 71.960938 146.699219 C 71.960938 145.558594 72.886719 144.632813 74.03125 144.632813 C 75.171875 144.632813 76.097656 145.558594 76.097656 146.699219 C 76.097656 147.839844 75.171875 148.769531 74.03125 148.769531 C 72.886719 148.769531 71.960938 147.839844 71.960938 146.699219 Z M 71.960938 146.699219 " transform="matrix(1,0,0,-1,-43,422)"/>
<path style="fill-rule:evenodd;fill:rgb(97.2%,70.1%,68.2%);fill-opacity:1;stroke-width:0.827;stroke-linecap:butt;stroke-linejoin:round;stroke:rgb(0%,0%,0%);stroke-opacity:1;stroke-miterlimit:10;" d="M 67.464844 151.886719 C 67.464844 150.746094 68.390625 149.820313 69.535156 149.820313 C 70.675781 149.820313 71.601563 150.746094 71.601563 151.886719 C 71.601563 153.03125 70.675781 153.957031 69.535156 153.957031 C 68.390625 153.957031 67.464844 153.03125 67.464844 151.886719 Z M 67.464844 151.886719 " transform="matrix(1,0,0,-1,-43,422)"/>
<path style="fill-rule:evenodd;fill:rgb(97.2%,70.1%,68.2%);fill-opacity:1;stroke-width:0.827;stroke-linecap:butt;stroke-linejoin:round;stroke:rgb(0%,0%,0%);stroke-opacity:1;stroke-miterlimit:10;" d="M 87.699219 187.855469 C 87.699219 186.714844 88.625 185.789063 89.765625 185.789063 C 90.90625 185.789063 91.835938 186.714844 91.835938 187.855469 C 91.835938 189 90.90625 189.925781 89.765625 189.925781 C 88.625 189.925781 87.699219 189 87.699219 187.855469 Z M 87.699219 187.855469 " transform="matrix(1,0,0,-1,-43,422)"/>
<path style="fill-rule:evenodd;fill:rgb(97.2%,70.1%,68.2%);fill-opacity:1;stroke-width:0.827;stroke-linecap:butt;stroke-linejoin:round;stroke:rgb(0%,0%,0%);stroke-opacity:1;stroke-miterlimit:10;" d="M 100.667969 215.136719 C 100.667969 213.992188 101.59375 213.066406 102.734375 213.066406 C 103.878906 213.066406 104.804688 213.992188 104.804688 215.136719 C 104.804688 216.277344 103.878906 217.203125 102.734375 217.203125 C 101.59375 217.203125 100.667969 216.277344 100.667969 215.136719 Z M 100.667969 215.136719 " transform="matrix(1,0,0,-1,-43,422)"/>
<path style="fill-rule:evenodd;fill:rgb(97.2%,70.1%,68.2%);fill-opacity:1;stroke-width:0.827;stroke-linecap:butt;stroke-linejoin:round;stroke:rgb(0%,0%,0%);stroke-opacity:1;stroke-miterlimit:10;" d="M 91.503906 223.609375 C 91.503906 222.46875 92.429688 221.542969 93.570313 221.542969 C 94.710938 221.542969 95.636719 222.46875 95.636719 223.609375 C 95.636719 224.75 94.710938 225.679688 93.570313 225.679688 C 92.429688 225.679688 91.503906 224.75 91.503906 223.609375 Z M 91.503906 223.609375 " transform="matrix(1,0,0,-1,-43,422)"/>
<path style="fill-rule:evenodd;fill:rgb(97.2%,70.1%,68.2%);fill-opacity:1;stroke-width:0.827;stroke-linecap:butt;stroke-linejoin:round;stroke:rgb(0%,0%,0%);stroke-opacity:1;stroke-miterlimit:10;" d="M 269.714844 307.3125 C 269.714844 306.171875 270.640625 305.246094 271.78125 305.246094 C 272.925781 305.246094 273.851563 306.171875 273.851563 307.3125 C 273.851563 308.453125 272.925781 309.378906 271.78125 309.378906 C 270.640625 309.378906 269.714844 308.453125 269.714844 307.3125 Z M 269.714844 307.3125 " transform="matrix(1,0,0,-1,-43,422)"/>
<path style="fill-rule:evenodd;fill:rgb(87.8%,92.1%,95.6%);fill-opacity:1;stroke-width:0.59;stroke-linecap:butt;stroke-linejoin:round;stroke:rgb(0%,0%,0%);stroke-opacity:1;stroke-miterlimit:10;" d="M 99.832031 209.652344 L 97.347656 205.304688 C 96.777344 204.308594 96.496094 203.171875 96.53125 202.023438 L 97 187.632813 C 97.113281 184.207031 99.976563 181.519531 103.402344 181.632813 C 106.828125 181.742188 109.511719 184.609375 109.402344 188.035156 L 108.992188 200.671875 L 116.773438 214.289063 C 118.472656 217.265625 117.4375 221.054688 114.464844 222.753906 C 111.515625 224.4375 107.765625 223.4375 106.046875 220.523438 C 106.03125 220.5 106.015625 220.472656 106 220.445313 L 105.984375 220.421875 L 105.21875 219.078125 C 105 218.699219 105.121094 218.222656 105.441406 217.914063 C 106.707031 216.679688 106.980469 214.746094 106.105469 213.210938 C 105.226563 211.675781 103.421875 210.929688 101.714844 211.394531 C 101.285156 211.511719 100.816406 211.375 100.597656 210.996094 Z M 99.832031 209.652344 " transform="matrix(1,0,0,-1,-43,422)"/>
<path style="fill-rule:evenodd;fill:rgb(70.1%,80.3%,89.4%);fill-opacity:1;stroke-width:0.827;stroke-linecap:butt;stroke-linejoin:round;stroke:rgb(0%,0%,0%);stroke-opacity:1;stroke-miterlimit:10;" d="M 109.316406 217.367188 C 109.316406 216.226563 110.242188 215.296875 111.386719 215.296875 C 112.527344 215.296875 113.453125 216.226563 113.453125 217.367188 C 113.453125 218.507813 112.527344 219.433594 111.386719 219.433594 C 110.242188 219.433594 109.316406 218.507813 109.316406 217.367188 Z M 109.316406 217.367188 " transform="matrix(1,0,0,-1,-43,422)"/>
<path style="fill-rule:evenodd;fill:rgb(70.1%,80.3%,89.4%);fill-opacity:1;stroke-width:0.827;stroke-linecap:butt;stroke-linejoin:round;stroke:rgb(0%,0%,0%);stroke-opacity:1;stroke-miterlimit:10;" d="M 101.132813 187.832031 C 101.132813 186.691406 102.058594 185.765625 103.199219 185.765625 C 104.34375 185.765625 105.269531 186.691406 105.269531 187.832031 C 105.269531 188.976563 104.34375 189.902344 103.199219 189.902344 C 102.058594 189.902344 101.132813 188.976563 101.132813 187.832031 Z M 101.132813 187.832031 " transform="matrix(1,0,0,-1,-43,422)"/>
<path style="fill-rule:evenodd;fill:rgb(70.1%,80.3%,89.4%);fill-opacity:1;stroke-width:0.827;stroke-linecap:butt;stroke-linejoin:round;stroke:rgb(0%,0%,0%);stroke-opacity:1;stroke-miterlimit:10;" d="M 100.664063 202.226563 C 100.664063 201.082031 101.589844 200.15625 102.734375 200.15625 C 103.875 200.15625 104.800781 201.082031 104.800781 202.226563 C 104.800781 203.367188 103.875 204.292969 102.734375 204.292969 C 101.589844 204.292969 100.664063 203.367188 100.664063 202.226563 Z M 100.664063 202.226563 " transform="matrix(1,0,0,-1,-43,422)"/>
<path style="fill-rule:evenodd;fill:rgb(70.1%,80.3%,89.4%);fill-opacity:1;stroke-width:0.827;stroke-linecap:butt;stroke-linejoin:round;stroke:rgb(0%,0%,0%);stroke-opacity:1;stroke-miterlimit:10;" d="M 253.554688 407.417969 C 253.554688 406.277344 254.480469 405.351563 255.625 405.351563 C 256.765625 405.351563 257.691406 406.277344 257.691406 407.417969 C 257.691406 408.5625 256.765625 409.488281 255.625 409.488281 C 254.480469 409.488281 253.554688 408.5625 253.554688 407.417969 Z M 253.554688 407.417969 " transform="matrix(1,0,0,-1,-43,422)"/>
<path style="fill-rule:evenodd;fill:rgb(70.1%,80.3%,89.4%);fill-opacity:1;stroke-width:0.827;stroke-linecap:butt;stroke-linejoin:round;stroke:rgb(0%,0%,0%);stroke-opacity:1;stroke-miterlimit:10;" d="M 267.5625 390.992188 C 267.5625 389.851563 268.488281 388.921875 269.632813 388.921875 C 270.773438 388.921875 271.699219 389.851563 271.699219 390.992188 C 271.699219 392.132813 270.773438 393.058594 269.632813 393.058594 C 268.488281 393.058594 267.5625 392.132813 267.5625 390.992188 Z M 267.5625 390.992188 " transform="matrix(1,0,0,-1,-43,422)"/>
</g>
</svg>
