<?xml version="1.0" encoding="UTF-8"?>
<svg xmlns="http://www.w3.org/2000/svg" xmlns:xlink="http://www.w3.org/1999/xlink" width="246pt" height="148pt" viewBox="0 0 246 148" version="1.1">
<g id="surface3683">
<path style="fill-rule:nonzero;fill:rgb(99.6%,92.1%,82.7%);fill-opacity:1;stroke-width:0.432;stroke-linecap:butt;stroke-linejoin:miter;stroke:rgb(0%,0%,0%);stroke-opacity:1;stroke-miterlimit:10;" d="M 217.25 350.941406 C 218.054688 349.679688 219.46875 348.84375 221.078125 348.84375 C 223.132813 348.84375 224.867188 350.207031 225.429688 352.074219 C 225.554688 352.492188 225.621094 352.929688 225.621094 353.386719 C 225.621094 355.894531 223.589844 357.929688 221.078125 357.929688 C 218.570313 357.929688 216.535156 355.894531 216.535156 353.386719 C 216.535156 352.484375 216.800781 351.648438 217.25 350.941406 Z M 217.25 350.941406 " transform="matrix(1,0,0,-1,-6,464)"/>
<path style="fill-rule:nonzero;fill:rgb(99.6%,92.1%,82.7%);fill-opacity:1;stroke-width:0.432;stroke-linecap:butt;stroke-linejoin:miter;stroke:rgb(0%,0%,0%);stroke-opacity:1;stroke-miterlimit:10;" d="M 109.183594 371.566406 C 109.183594 369.058594 111.21875 367.023438 113.726563 367.023438 C 116.234375 367.023438 118.269531 369.058594 118.269531 371.566406 C 118.269531 374.074219 116.234375 376.109375 113.726563 376.109375 C 111.21875 376.109375 109.183594 374.074219 109.183594 371.566406 Z M 109.183594 371.566406 " transform="matrix(1,0,0,-1,-6,464)"/>
<path style="fill-rule:nonzero;fill:rgb(99.6%,92.1%,82.7%);fill-opacity:1;stroke-width:0.432;stroke-linecap:butt;stroke-linejoin:miter;stroke:rgb(0%,0%,0%);stroke-opacity:1;stroke-miterlimit:10;" d="M 228.960938 443.847656 C 228.960938 441.339844 230.992188 439.304688 233.503906 439.304688 C 236.011719 439.304688 238.042969 441.339844 238.042969 443.847656 C 238.042969 446.355469 236.011719 448.390625 233.503906 448.390625 C 230.992188 448.390625 228.960938 446.355469 228.960938 443.847656 Z M 228.960938 443.847656 " transform="matrix(1,0,0,-1,-6,464)"/>
<path style="fill-rule:nonzero;fill:rgb(99.6%,92.1%,82.7%);fill-opacity:1;stroke-width:0.432;stroke-linecap:butt;stroke-linejoin:miter;stroke:rgb(0%,0%,0%);stroke-opacity:1;stroke-miterlimit:10;" d="M 144.691406 436.777344 C 144.691406 434.269531 146.726563 432.234375 149.234375 432.234375 C 151.742188 432.234375 153.773438 434.269531 153.773438 436.777344 C 153.773438 439.285156 151.742188 441.320313 149.234375 441.320313 C 146.726563 441.320313 144.691406 439.285156 144.691406 436.777344 Z M 144.691406 436.777344 " transform="matrix(1,0,0,-1,-6,464)"/>
<path style="fill-rule:nonzero;fill:rgb(99.6%,92.1%,82.7%);fill-opacity:1;stroke-width:0.432;stroke-linecap:butt;stroke-linejoin:miter;stroke:rgb(0%,0%,0%);stroke-opacity:1;stroke-miterlimit:10;" d="M 57.195313 422.40625 C 57.195313 419.898438 59.226563 417.867188 61.734375 417.867188 C 64.246094 417.867188 66.277344 419.898438 66.277344 422.40625 C 66.277344 424.914063 64.246094 426.949219 61.734375 426.949219 C 59.226563 426.949219 57.195313 424.914063 57.195313 422.40625 Z M 57.195313 422.40625 " transform="matrix(1,0,0,-1,-6,464)"/>
<path style="fill-rule:nonzero;fill:rgb(90.5%,96%,85.8%);fill-opacity:1;stroke-width:0.432;stroke-linecap:butt;stroke-linejoin:miter;stroke:rgb(0%,0%,0%);stroke-opacity:1;stroke-miterlimit:10;" d="M 95.089844 401.035156 C 95.089844 398.527344 97.125 396.496094 99.632813 396.496094 C 102.140625 396.496094 104.175781 398.527344 104.175781 401.035156 C 104.175781 403.546875 102.140625 405.578125 99.632813 405.578125 C 97.125 405.578125 95.089844 403.546875 95.089844 401.035156 Z M 95.089844 401.035156 " transform="matrix(1,0,0,-1,-6,464)"/>
<path style="fill-rule:nonzero;fill:rgb(89.4%,94.1%,96.4%);fill-opacity:1;stroke-width:0.432;stroke-linecap:butt;stroke-linejoin:miter;stroke:rgb(0%,0%,0%);stroke-opacity:1;stroke-miterlimit:10;" d="M 140.390625 444.9375 C 140.390625 442.429688 142.425781 440.394531 144.933594 440.394531 C 147.441406 440.394531 149.476563 442.429688 149.476563 444.9375 C 149.476563 447.445313 147.441406 449.480469 144.933594 449.480469 C 142.425781 449.480469 140.390625 447.445313 140.390625 444.9375 Z M 140.390625 444.9375 " transform="matrix(1,0,0,-1,-6,464)"/>
<path style="fill-rule:nonzero;fill:rgb(89.4%,94.1%,96.4%);fill-opacity:1;stroke-width:0.432;stroke-linecap:butt;stroke-linejoin:miter;stroke:rgb(0%,0%,0%);stroke-opacity:1;stroke-miterlimit:10;" d="M 225.429688 352.074219 L 225.417969 352.09375 L 225.410156 352.105469 L 225.050781 352.597656 L 225.007813 352.648438 L 224.867188 352.792969 L 224.816406 352.835938 L 224.351563 353.1875 L 224.273438 353.234375 L 224.03125 353.351563 L 223.988281 353.367188 L 223.945313 353.371094 L 223.675781 353.386719 L 223.632813 353.382813 L 223.585938 353.371094 L 223.335938 353.28125 L 223.292969 353.261719 L 223.257813 353.234375 L 223.0625 353.050781 L 223.03125 353.015625 L 223.011719 352.980469 L 222.929688 352.800781 L 222.789063 352.582031 L 222.203125 351.902344 L 221.761719 351.625 L 221.433594 351.53125 L 221.367188 351.515625 L 221.363281 351.515625 L 221.277344 351.503906 L 221.234375 351.496094 L 221.160156 351.492188 L 221.152344 351.492188 L 221.007813 351.5 L 220.621094 351.554688 L 220.34375 351.640625 L 220.105469 351.8125 L 219.457031 352.460938 L 219.382813 352.519531 L 219.140625 352.675781 L 219.101563 352.695313 L 219.054688 352.707031 L 218.769531 352.75 L 218.722656 352.753906 L 218.675781 352.742188 L 218.398438 352.664063 L 218.355469 352.648438 L 218.316406 352.621094 L 218.097656 352.433594 L 218.03125 352.363281 L 217.640625 351.855469 L 217.601563 351.800781 L 217.503906 351.621094 L 217.476563 351.558594 L 217.261719 350.976563 L 217.257813 350.960938 L 217.25 350.941406 C 217.125 350.527344 217.058594 350.089844 217.058594 349.632813 C 217.058594 347.125 219.089844 345.089844 221.601563 345.089844 C 224.109375 345.089844 226.140625 347.125 226.140625 349.632813 C 226.140625 350.53125 225.878906 351.371094 225.429688 352.074219 Z M 225.429688 352.074219 " transform="matrix(1,0,0,-1,-6,464)"/>
<path style="fill-rule:nonzero;fill:rgb(90.5%,96%,85.8%);fill-opacity:1;stroke-width:0.432;stroke-linecap:butt;stroke-linejoin:miter;stroke:rgb(0%,0%,0%);stroke-opacity:1;stroke-miterlimit:10;" d="M 139.996094 342.976563 C 139.996094 340.46875 142.027344 338.433594 144.535156 338.433594 C 147.046875 338.433594 149.078125 340.46875 149.078125 342.976563 C 149.078125 345.484375 147.046875 347.515625 144.535156 347.515625 C 142.027344 347.515625 139.996094 345.484375 139.996094 342.976563 Z M 139.996094 342.976563 " transform="matrix(1,0,0,-1,-6,464)"/>
<path style="fill-rule:nonzero;fill:rgb(90.5%,96%,85.8%);fill-opacity:1;stroke-width:0.432;stroke-linecap:butt;stroke-linejoin:miter;stroke:rgb(0%,0%,0%);stroke-opacity:1;stroke-miterlimit:10;" d="M 69.003906 325.183594 C 69.003906 322.675781 71.039063 320.640625 73.546875 320.640625 C 76.054688 320.640625 78.089844 322.675781 78.089844 325.183594 C 78.089844 327.691406 76.054688 329.726563 73.546875 329.726563 C 71.039063 329.726563 69.003906 327.691406 69.003906 325.183594 Z M 69.003906 325.183594 " transform="matrix(1,0,0,-1,-6,464)"/>
<path style="fill-rule:nonzero;fill:rgb(99.6%,92.1%,82.7%);fill-opacity:1;stroke-width:0.432;stroke-linecap:butt;stroke-linejoin:miter;stroke:rgb(0%,0%,0%);stroke-opacity:1;stroke-miterlimit:10;" d="M 168.898438 407.90625 L 169.382813 407.796875 C 171.828125 407.242188 174.261719 408.773438 174.820313 411.21875 C 175.375 413.664063 173.84375 416.097656 171.398438 416.65625 L 170.914063 416.765625 C 168.46875 417.324219 166.035156 415.789063 165.480469 413.347656 C 164.921875 410.898438 166.453125 408.464844 168.898438 407.90625 Z M 168.898438 407.90625 " transform="matrix(1,0,0,-1,-6,464)"/>
<path style="fill-rule:nonzero;fill:rgb(99.6%,92.1%,82.7%);fill-opacity:1;stroke-width:0.432;stroke-linecap:butt;stroke-linejoin:miter;stroke:rgb(0%,0%,0%);stroke-opacity:1;stroke-miterlimit:10;" d="M 67.726563 379.488281 L 71.660156 372.867188 C 72.488281 371.472656 74 370.628906 75.621094 370.648438 C 77.246094 370.667969 78.734375 371.554688 79.527344 372.96875 C 80.320313 374.382813 80.296875 376.113281 79.46875 377.511719 L 75.535156 384.132813 C 74.707031 385.527344 73.195313 386.371094 71.570313 386.351563 C 69.949219 386.332031 68.460938 385.445313 67.667969 384.03125 C 66.875 382.617188 66.894531 380.882813 67.726563 379.488281 Z M 67.726563 379.488281 " transform="matrix(1,0,0,-1,-6,464)"/>
<path style="fill-rule:nonzero;fill:rgb(89.4%,94.1%,96.4%);fill-opacity:1;stroke-width:0.432;stroke-linecap:butt;stroke-linejoin:miter;stroke:rgb(0%,0%,0%);stroke-opacity:1;stroke-miterlimit:10;" d="M 105.058594 382.925781 L 114.679688 390.421875 C 115.957031 391.417969 116.609375 393.023438 116.386719 394.628906 C 116.160156 396.234375 115.097656 397.601563 113.59375 398.210938 C 112.089844 398.820313 110.375 398.582031 109.09375 397.585938 L 99.476563 390.089844 C 98.195313 389.09375 97.542969 387.488281 97.769531 385.882813 C 97.992188 384.273438 99.058594 382.90625 100.558594 382.296875 C 102.0625 381.6875 103.777344 381.925781 105.058594 382.925781 Z M 105.058594 382.925781 " transform="matrix(1,0,0,-1,-6,464)"/>
<path style="fill-rule:nonzero;fill:rgb(99.6%,92.1%,82.7%);fill-opacity:1;stroke-width:0.432;stroke-linecap:butt;stroke-linejoin:miter;stroke:rgb(0%,0%,0%);stroke-opacity:1;stroke-miterlimit:10;" d="M 251.5 365.4375 L 251.78125 378.992188 C 251.835938 381.5 249.84375 383.574219 247.335938 383.628906 C 244.828125 383.679688 242.753906 381.691406 242.699219 379.183594 L 242.417969 365.628906 C 242.363281 363.117188 244.355469 361.042969 246.863281 360.992188 C 249.371094 360.9375 251.445313 362.929688 251.5 365.4375 Z M 251.5 365.4375 " transform="matrix(1,0,0,-1,-6,464)"/>
<path style="fill-rule:nonzero;fill:rgb(99.6%,92.1%,82.7%);fill-opacity:1;stroke-width:0.432;stroke-linecap:butt;stroke-linejoin:miter;stroke:rgb(0%,0%,0%);stroke-opacity:1;stroke-miterlimit:10;" d="M 224.121094 341.441406 L 225.128906 331.632813 C 225.316406 329.796875 226.597656 328.253906 228.371094 327.738281 L 233.238281 326.3125 C 235.570313 325.628906 238.027344 326.902344 238.8125 329.207031 L 242.542969 340.152344 C 243.007813 341.515625 242.796875 343.019531 241.976563 344.203125 C 241.152344 345.390625 239.820313 346.113281 238.378906 346.15625 L 228.773438 346.441406 C 227.464844 346.484375 226.203125 345.953125 225.3125 344.996094 C 224.421875 344.039063 223.988281 342.742188 224.121094 341.441406 Z M 224.121094 341.441406 " transform="matrix(1,0,0,-1,-6,464)"/>
<path style="fill-rule:nonzero;fill:rgb(89.4%,94.1%,96.4%);fill-opacity:1;stroke-width:0.432;stroke-linecap:butt;stroke-linejoin:miter;stroke:rgb(0%,0%,0%);stroke-opacity:1;stroke-miterlimit:10;" d="M 25.316406 389.90625 L 37.765625 373.945313 C 39.308594 371.96875 42.164063 371.613281 44.140625 373.15625 C 46.121094 374.699219 46.472656 377.554688 44.929688 379.53125 L 32.476563 395.492188 C 31.480469 396.773438 29.875 397.421875 28.265625 397.199219 C 26.660156 396.972656 25.292969 395.910156 24.6875 394.40625 C 24.078125 392.902344 24.316406 391.1875 25.316406 389.90625 Z M 25.316406 389.90625 " transform="matrix(1,0,0,-1,-6,464)"/>
<path style="fill-rule:nonzero;fill:rgb(89.4%,94.1%,96.4%);fill-opacity:1;stroke-width:0.432;stroke-linecap:butt;stroke-linejoin:miter;stroke:rgb(0%,0%,0%);stroke-opacity:1;stroke-miterlimit:10;" d="M 35.613281 342.554688 C 38.105469 342.757813 39.964844 344.9375 39.773438 347.429688 C 39.707031 348.316406 39.386719 349.128906 38.890625 349.792969 C 37.992188 351 36.511719 351.734375 34.898438 351.609375 L 11.753906 349.832031 C 9.25 349.640625 7.378906 347.453125 7.574219 344.953125 C 7.765625 342.453125 9.949219 340.582031 12.449219 340.773438 L 35.59375 342.554688 C 35.601563 342.554688 35.605469 342.554688 35.613281 342.554688 Z M 35.613281 342.554688 " transform="matrix(1,0,0,-1,-6,464)"/>
<path style="fill-rule:nonzero;fill:rgb(90.5%,96%,85.8%);fill-opacity:1;stroke-width:0.432;stroke-linecap:butt;stroke-linejoin:miter;stroke:rgb(0%,0%,0%);stroke-opacity:1;stroke-miterlimit:10;" d="M 194.140625 405.71875 L 189.363281 393.640625 C 188.769531 392.132813 189.023438 390.421875 190.03125 389.148438 C 191.039063 387.878906 192.648438 387.242188 194.253906 387.476563 C 195.859375 387.714844 197.214844 388.792969 197.8125 390.300781 L 203.320313 404.226563 C 203.785156 405.402344 203.738281 406.722656 203.191406 407.863281 L 200.285156 413.902344 C 199.195313 416.164063 196.480469 417.113281 194.222656 416.027344 C 191.960938 414.9375 191.011719 412.226563 192.097656 409.964844 Z M 194.140625 405.71875 " transform="matrix(1,0,0,-1,-6,464)"/>
<path style="fill-rule:nonzero;fill:rgb(99.6%,92.1%,82.7%);fill-opacity:1;stroke-width:0.432;stroke-linecap:butt;stroke-linejoin:miter;stroke:rgb(0%,0%,0%);stroke-opacity:1;stroke-miterlimit:10;" d="M 38.890625 349.789063 L 38.875 349.777344 L 38.863281 349.769531 L 38.34375 349.335938 L 38.117188 349.09375 L 38.035156 348.972656 L 37.992188 348.902344 L 37.890625 348.6875 L 37.878906 348.648438 L 37.871094 348.609375 L 37.847656 348.371094 L 37.847656 348.332031 L 37.855469 348.292969 L 37.917969 348.0625 L 37.960938 347.949219 L 37.957031 347.949219 L 38.03125 347.683594 L 38.078125 347.132813 L 38.082031 347.03125 L 38.082031 346.933594 L 38.074219 346.855469 L 38.0625 346.730469 L 38.054688 346.6875 L 38.050781 346.660156 L 38.050781 346.652344 L 38.042969 346.605469 L 38.03125 346.550781 L 37.902344 346.0625 L 37.71875 345.714844 L 37.03125 344.890625 L 36.722656 344.652344 L 36.621094 344.605469 L 36.542969 344.558594 L 36.324219 344.390625 L 36.289063 344.359375 L 36.261719 344.324219 L 36.128906 344.085938 L 36.089844 344.003906 L 35.613281 342.554688 L 29.21875 323.117188 C 28.714844 321.574219 29.066406 319.882813 30.148438 318.671875 C 31.230469 317.460938 32.875 316.921875 34.464844 317.253906 C 36.050781 317.585938 37.34375 318.738281 37.851563 320.277344 L 45.882813 344.703125 C 46.390625 346.246094 46.035156 347.9375 44.953125 349.148438 C 43.875 350.359375 42.226563 350.898438 40.640625 350.566406 C 39.996094 350.433594 39.40625 350.164063 38.890625 349.792969 Z M 38.890625 349.789063 " transform="matrix(1,0,0,-1,-6,464)"/>
<path style="fill-rule:nonzero;fill:rgb(90.5%,96%,85.8%);fill-opacity:1;stroke-width:0.432;stroke-linecap:butt;stroke-linejoin:miter;stroke:rgb(0%,0%,0%);stroke-opacity:1;stroke-miterlimit:10;" d="M 141.15625 385.238281 L 154.636719 364.511719 C 155.628906 362.992188 157.421875 362.207031 159.210938 362.511719 C 160.996094 362.816406 162.429688 364.152344 162.859375 365.914063 L 167.84375 386.382813 C 168.171875 387.726563 167.867188 389.144531 167.019531 390.238281 C 166.175781 391.332031 164.875 391.980469 163.492188 392 L 145.027344 392.257813 C 143.347656 392.28125 141.796875 391.378906 140.984375 389.910156 C 140.175781 388.441406 140.242188 386.644531 141.15625 385.238281 Z M 141.15625 385.238281 " transform="matrix(1,0,0,-1,-6,464)"/>
<path style="fill-rule:nonzero;fill:rgb(89.4%,94.1%,96.4%);fill-opacity:1;stroke-width:0.432;stroke-linecap:butt;stroke-linejoin:miter;stroke:rgb(0%,0%,0%);stroke-opacity:1;stroke-miterlimit:10;" d="M 87.542969 417.328125 L 94.726563 412.070313 C 96.148438 411.03125 98.039063 410.90625 99.585938 411.75 L 120.980469 423.429688 C 122.082031 424.03125 122.886719 425.0625 123.199219 426.277344 L 126.925781 440.675781 C 127.269531 441.996094 126.996094 443.398438 126.191406 444.496094 L 113.804688 461.402344 C 112.84375 462.714844 111.257813 463.410156 109.644531 463.234375 C 108.03125 463.058594 106.636719 462.035156 105.980469 460.550781 C 105.328125 459.066406 105.515625 457.34375 106.476563 456.035156 L 117.59375 440.867188 L 114.898438 430.460938 L 97.765625 421.105469 L 92.734375 424.785156 C 92.621094 424.867188 92.5 424.949219 92.378906 425.019531 L 78.578125 433.242188 C 76.425781 434.527344 73.636719 433.820313 72.351563 431.664063 C 71.070313 429.511719 71.777344 426.722656 73.929688 425.4375 Z M 87.542969 417.328125 " transform="matrix(1,0,0,-1,-6,464)"/>
<path style="fill-rule:nonzero;fill:rgb(90.5%,96%,85.8%);fill-opacity:1;stroke-width:0.432;stroke-linecap:butt;stroke-linejoin:miter;stroke:rgb(0%,0%,0%);stroke-opacity:1;stroke-miterlimit:10;" d="M 84.941406 368.460938 C 84.78125 368.398438 84.625 368.332031 84.46875 368.253906 C 83.023438 367.515625 82.082031 366.0625 82 364.441406 C 81.917969 362.820313 82.703125 361.277344 84.066406 360.394531 L 87.652344 358.070313 L 102.085938 348.71875 L 111.726563 326.570313 C 112.375 325.085938 113.765625 324.054688 115.378906 323.871094 C 116.992188 323.6875 118.578125 324.378906 119.542969 325.683594 C 120.507813 326.988281 120.703125 328.710938 120.054688 330.199219 L 109.867188 353.597656 C 109.511719 354.414063 108.925781 355.113281 108.175781 355.597656 L 89.007813 368.019531 C 87.789063 368.808594 86.277344 368.960938 84.941406 368.460938 Z M 84.941406 368.460938 " transform="matrix(1,0,0,-1,-6,464)"/>
<path style="fill-rule:nonzero;fill:rgb(89.4%,94.1%,96.4%);fill-opacity:1;stroke-width:0.432;stroke-linecap:butt;stroke-linejoin:miter;stroke:rgb(0%,0%,0%);stroke-opacity:1;stroke-miterlimit:10;" d="M 220.164063 422.359375 L 227.308594 431.03125 C 228.339844 432.28125 228.625 433.988281 228.058594 435.511719 C 227.488281 437.03125 226.152344 438.132813 224.550781 438.398438 C 222.949219 438.664063 221.328125 438.058594 220.296875 436.808594 L 212.601563 427.464844 C 212.238281 427.023438 211.960938 426.515625 211.785156 425.96875 L 205.5 406.457031 C 205 404.910156 205.363281 403.21875 206.453125 402.015625 C 207.542969 400.8125 209.191406 400.28125 210.777344 400.621094 C 212.363281 400.964844 213.648438 402.125 214.144531 403.671875 Z M 220.164063 422.359375 " transform="matrix(1,0,0,-1,-6,464)"/>
<path style="fill-rule:nonzero;fill:rgb(93.7%,90.5%,94.9%);fill-opacity:1;stroke-width:0.432;stroke-linecap:butt;stroke-linejoin:miter;stroke:rgb(0%,0%,0%);stroke-opacity:1;stroke-miterlimit:10;" d="M 215.867188 363.675781 L 218.203125 393.871094 C 218.328125 395.492188 217.582031 397.054688 216.246094 397.96875 C 214.90625 398.886719 213.179688 399.019531 211.714844 398.320313 C 210.253906 397.621094 209.273438 396.191406 209.148438 394.574219 L 206.8125 364.375 C 206.6875 362.757813 207.433594 361.195313 208.773438 360.277344 C 210.109375 359.359375 211.835938 359.226563 213.300781 359.925781 C 214.765625 360.628906 215.742188 362.054688 215.867188 363.675781 Z M 215.867188 363.675781 " transform="matrix(1,0,0,-1,-6,464)"/>
<path style="fill-rule:nonzero;fill:rgb(89.4%,94.1%,96.4%);fill-opacity:1;stroke-width:0.432;stroke-linecap:butt;stroke-linejoin:miter;stroke:rgb(0%,0%,0%);stroke-opacity:1;stroke-miterlimit:10;" d="M 210.890625 450.234375 L 241.9375 449.339844 C 244.445313 449.265625 246.535156 451.242188 246.609375 453.746094 C 246.683594 456.257813 244.707031 458.347656 242.199219 458.421875 L 211.152344 459.316406 C 208.644531 459.390625 206.554688 457.414063 206.480469 454.90625 C 206.40625 452.398438 208.382813 450.308594 210.890625 450.234375 Z M 210.890625 450.234375 " transform="matrix(1,0,0,-1,-6,464)"/>
<path style="fill-rule:nonzero;fill:rgb(89.4%,94.1%,96.4%);fill-opacity:1;stroke-width:0.432;stroke-linecap:butt;stroke-linejoin:miter;stroke:rgb(0%,0%,0%);stroke-opacity:1;stroke-miterlimit:10;" d="M 87.652344 358.070313 L 87.238281 361.179688 L 87.214844 361.273438 L 87.113281 361.550781 L 87.09375 361.59375 L 87.0625 361.632813 L 86.855469 361.839844 L 86.820313 361.867188 L 86.777344 361.890625 L 86.503906 361.992188 L 86.40625 362.015625 L 85.949219 362.078125 L 85.671875 362.164063 L 85.433594 362.335938 L 84.664063 363.105469 L 84.496094 363.34375 L 84.40625 363.621094 L 84.335938 364.136719 L 84.328125 364.28125 L 84.328125 364.316406 L 84.332031 364.394531 L 84.34375 364.476563 L 84.355469 364.566406 L 84.359375 364.570313 L 84.375 364.636719 L 84.496094 365.054688 L 84.761719 365.476563 L 85.605469 366.230469 L 85.621094 366.242188 L 85.707031 366.316406 L 85.867188 366.484375 L 85.890625 366.515625 L 85.910156 366.550781 L 86.003906 366.761719 L 86.019531 366.800781 L 86.023438 366.839844 L 86.039063 367.070313 L 86.039063 367.109375 L 86.035156 367.148438 L 85.976563 367.351563 L 85.636719 367.808594 L 84.980469 368.421875 L 84.964844 368.4375 L 84.9375 368.457031 L 84.941406 368.460938 C 84.558594 368.753906 84.128906 368.988281 83.660156 369.152344 C 82.042969 369.714844 80.246094 369.324219 79.011719 368.132813 L 57.292969 347.203125 C 56.121094 346.074219 55.644531 344.410156 56.039063 342.832031 C 56.429688 341.257813 57.636719 340.011719 59.199219 339.5625 L 84.671875 332.304688 C 86.144531 331.886719 87.730469 332.238281 88.886719 333.238281 C 90.046875 334.238281 90.621094 335.757813 90.417969 337.273438 Z M 87.652344 358.070313 " transform="matrix(1,0,0,-1,-6,464)"/>
<path style="fill-rule:nonzero;fill:rgb(98.8%,74.5%,43.1%);fill-opacity:1;stroke-width:0.605;stroke-linecap:butt;stroke-linejoin:miter;stroke:rgb(0%,0%,0%);stroke-opacity:1;stroke-miterlimit:10;" d="M 32.019531 321.699219 C 32.019531 320.863281 32.699219 320.183594 33.535156 320.183594 C 34.371094 320.183594 35.050781 320.863281 35.050781 321.699219 C 35.050781 322.535156 34.371094 323.210938 33.535156 323.210938 C 32.699219 323.210938 32.019531 322.535156 32.019531 321.699219 Z M 32.019531 321.699219 " transform="matrix(1,0,0,-1,-6,464)"/>
<path style="fill-rule:nonzero;fill:rgb(98.8%,74.5%,43.1%);fill-opacity:1;stroke-width:0.605;stroke-linecap:butt;stroke-linejoin:miter;stroke:rgb(0%,0%,0%);stroke-opacity:1;stroke-miterlimit:10;" d="M 40.054688 346.121094 C 40.054688 345.285156 40.730469 344.609375 41.570313 344.609375 C 42.40625 344.609375 43.082031 345.285156 43.082031 346.121094 C 43.082031 346.957031 42.40625 347.636719 41.570313 347.636719 C 40.730469 347.636719 40.054688 346.957031 40.054688 346.121094 Z M 40.054688 346.121094 " transform="matrix(1,0,0,-1,-6,464)"/>
<path style="fill-rule:nonzero;fill:rgb(98.8%,74.5%,43.1%);fill-opacity:1;stroke-width:0.605;stroke-linecap:butt;stroke-linejoin:miter;stroke:rgb(0%,0%,0%);stroke-opacity:1;stroke-miterlimit:10;" d="M 228.132813 332.097656 C 228.132813 331.257813 228.808594 330.582031 229.644531 330.582031 C 230.480469 330.582031 231.160156 331.257813 231.160156 332.097656 C 231.160156 332.933594 230.480469 333.609375 229.644531 333.609375 C 228.808594 333.609375 228.132813 332.933594 228.132813 332.097656 Z M 228.132813 332.097656 " transform="matrix(1,0,0,-1,-6,464)"/>
<path style="fill-rule:nonzero;fill:rgb(98.8%,74.5%,43.1%);fill-opacity:1;stroke-width:0.605;stroke-linecap:butt;stroke-linejoin:miter;stroke:rgb(0%,0%,0%);stroke-opacity:1;stroke-miterlimit:10;" d="M 233 330.671875 C 233 329.835938 233.679688 329.15625 234.515625 329.15625 C 235.351563 329.15625 236.027344 329.835938 236.027344 330.671875 C 236.027344 331.507813 235.351563 332.183594 234.515625 332.183594 C 233.679688 332.183594 233 331.507813 233 330.671875 Z M 233 330.671875 " transform="matrix(1,0,0,-1,-6,464)"/>
<path style="fill-rule:nonzero;fill:rgb(98.8%,74.5%,43.1%);fill-opacity:1;stroke-width:0.605;stroke-linecap:butt;stroke-linejoin:miter;stroke:rgb(0%,0%,0%);stroke-opacity:1;stroke-miterlimit:10;" d="M 231.992188 331.109375 C 231.992188 330.273438 232.667969 329.59375 233.503906 329.59375 C 234.339844 329.59375 235.019531 330.273438 235.019531 331.109375 C 235.019531 331.945313 234.339844 332.621094 233.503906 332.621094 C 232.667969 332.621094 231.992188 331.945313 231.992188 331.109375 Z M 231.992188 331.109375 " transform="matrix(1,0,0,-1,-6,464)"/>
<path style="fill-rule:nonzero;fill:rgb(98.8%,74.5%,43.1%);fill-opacity:1;stroke-width:0.605;stroke-linecap:butt;stroke-linejoin:miter;stroke:rgb(0%,0%,0%);stroke-opacity:1;stroke-miterlimit:10;" d="M 236.730469 341.617188 C 236.730469 340.78125 237.40625 340.101563 238.242188 340.101563 C 239.078125 340.101563 239.757813 340.78125 239.757813 341.617188 C 239.757813 342.453125 239.078125 343.132813 238.242188 343.132813 C 237.40625 343.132813 236.730469 342.453125 236.730469 341.617188 Z M 236.730469 341.617188 " transform="matrix(1,0,0,-1,-6,464)"/>
<path style="fill-rule:nonzero;fill:rgb(98.8%,74.5%,43.1%);fill-opacity:1;stroke-width:0.605;stroke-linecap:butt;stroke-linejoin:miter;stroke:rgb(0%,0%,0%);stroke-opacity:1;stroke-miterlimit:10;" d="M 227.125 341.902344 C 227.125 341.066406 227.804688 340.390625 228.640625 340.390625 C 229.476563 340.390625 230.152344 341.066406 230.152344 341.902344 C 230.152344 342.738281 229.476563 343.417969 228.640625 343.417969 C 227.804688 343.417969 227.125 342.738281 227.125 341.902344 Z M 227.125 341.902344 " transform="matrix(1,0,0,-1,-6,464)"/>
<path style="fill-rule:nonzero;fill:rgb(98.8%,74.5%,43.1%);fill-opacity:1;stroke-width:0.605;stroke-linecap:butt;stroke-linejoin:miter;stroke:rgb(0%,0%,0%);stroke-opacity:1;stroke-miterlimit:10;" d="M 219.566406 353.386719 C 219.566406 352.550781 220.242188 351.871094 221.078125 351.871094 C 221.914063 351.871094 222.59375 352.550781 222.59375 353.386719 C 222.59375 354.222656 221.914063 354.898438 221.078125 354.898438 C 220.242188 354.898438 219.566406 354.222656 219.566406 353.386719 Z M 219.566406 353.386719 " transform="matrix(1,0,0,-1,-6,464)"/>
<path style="fill-rule:nonzero;fill:rgb(98.8%,74.5%,43.1%);fill-opacity:1;stroke-width:0.605;stroke-linecap:butt;stroke-linejoin:miter;stroke:rgb(0%,0%,0%);stroke-opacity:1;stroke-miterlimit:10;" d="M 245.445313 365.53125 C 245.445313 364.695313 246.121094 364.019531 246.957031 364.019531 C 247.792969 364.019531 248.472656 364.695313 248.472656 365.53125 C 248.472656 366.367188 247.792969 367.046875 246.957031 367.046875 C 246.121094 367.046875 245.445313 366.367188 245.445313 365.53125 Z M 245.445313 365.53125 " transform="matrix(1,0,0,-1,-6,464)"/>
<path style="fill-rule:nonzero;fill:rgb(98.8%,74.5%,43.1%);fill-opacity:1;stroke-width:0.605;stroke-linecap:butt;stroke-linejoin:miter;stroke:rgb(0%,0%,0%);stroke-opacity:1;stroke-miterlimit:10;" d="M 245.726563 379.085938 C 245.726563 378.25 246.40625 377.574219 247.242188 377.574219 C 248.078125 377.574219 248.753906 378.25 248.753906 379.085938 C 248.753906 379.921875 248.078125 380.601563 247.242188 380.601563 C 246.40625 380.601563 245.726563 379.921875 245.726563 379.085938 Z M 245.726563 379.085938 " transform="matrix(1,0,0,-1,-6,464)"/>
<path style="fill-rule:nonzero;fill:rgb(98.8%,74.5%,43.1%);fill-opacity:1;stroke-width:0.605;stroke-linecap:butt;stroke-linejoin:miter;stroke:rgb(0%,0%,0%);stroke-opacity:1;stroke-miterlimit:10;" d="M 70.117188 381.808594 C 70.117188 380.972656 70.792969 380.296875 71.628906 380.296875 C 72.464844 380.296875 73.144531 380.972656 73.144531 381.808594 C 73.144531 382.644531 72.464844 383.324219 71.628906 383.324219 C 70.792969 383.324219 70.117188 382.644531 70.117188 381.808594 Z M 70.117188 381.808594 " transform="matrix(1,0,0,-1,-6,464)"/>
<path style="fill-rule:nonzero;fill:rgb(98.8%,74.5%,43.1%);fill-opacity:1;stroke-width:0.605;stroke-linecap:butt;stroke-linejoin:miter;stroke:rgb(0%,0%,0%);stroke-opacity:1;stroke-miterlimit:10;" d="M 74.050781 375.1875 C 74.050781 374.351563 74.726563 373.675781 75.566406 373.675781 C 76.402344 373.675781 77.078125 374.351563 77.078125 375.1875 C 77.078125 376.027344 76.402344 376.703125 75.566406 376.703125 C 74.726563 376.703125 74.050781 376.027344 74.050781 375.1875 Z M 74.050781 375.1875 " transform="matrix(1,0,0,-1,-6,464)"/>
<path style="fill-rule:nonzero;fill:rgb(98.8%,74.5%,43.1%);fill-opacity:1;stroke-width:0.605;stroke-linecap:butt;stroke-linejoin:miter;stroke:rgb(0%,0%,0%);stroke-opacity:1;stroke-miterlimit:10;" d="M 112.214844 371.566406 C 112.214844 370.730469 112.890625 370.054688 113.726563 370.054688 C 114.5625 370.054688 115.242188 370.730469 115.242188 371.566406 C 115.242188 372.402344 114.5625 373.082031 113.726563 373.082031 C 112.890625 373.082031 112.214844 372.402344 112.214844 371.566406 Z M 112.214844 371.566406 " transform="matrix(1,0,0,-1,-6,464)"/>
<path style="fill-rule:nonzero;fill:rgb(98.8%,74.5%,43.1%);fill-opacity:1;stroke-width:0.605;stroke-linecap:butt;stroke-linejoin:miter;stroke:rgb(0%,0%,0%);stroke-opacity:1;stroke-miterlimit:10;" d="M 168.394531 412.335938 C 168.394531 411.5 169.070313 410.824219 169.90625 410.824219 C 170.742188 410.824219 171.421875 411.5 171.421875 412.335938 C 171.421875 413.171875 170.742188 413.851563 169.90625 413.851563 C 169.070313 413.851563 168.394531 413.171875 168.394531 412.335938 Z M 168.394531 412.335938 " transform="matrix(1,0,0,-1,-6,464)"/>
<path style="fill-rule:nonzero;fill:rgb(98.8%,74.5%,43.1%);fill-opacity:1;stroke-width:0.605;stroke-linecap:butt;stroke-linejoin:miter;stroke:rgb(0%,0%,0%);stroke-opacity:1;stroke-miterlimit:10;" d="M 168.875 412.226563 C 168.875 411.390625 169.554688 410.714844 170.390625 410.714844 C 171.226563 410.714844 171.902344 411.390625 171.902344 412.226563 C 171.902344 413.0625 171.226563 413.742188 170.390625 413.742188 C 169.554688 413.742188 168.875 413.0625 168.875 412.226563 Z M 168.875 412.226563 " transform="matrix(1,0,0,-1,-6,464)"/>
<path style="fill-rule:nonzero;fill:rgb(98.8%,74.5%,43.1%);fill-opacity:1;stroke-width:0.605;stroke-linecap:butt;stroke-linejoin:miter;stroke:rgb(0%,0%,0%);stroke-opacity:1;stroke-miterlimit:10;" d="M 231.988281 443.847656 C 231.988281 443.011719 232.664063 442.335938 233.503906 442.335938 C 234.339844 442.335938 235.015625 443.011719 235.015625 443.847656 C 235.015625 444.683594 234.339844 445.363281 233.503906 445.363281 C 232.664063 445.363281 231.988281 444.683594 231.988281 443.847656 Z M 231.988281 443.847656 " transform="matrix(1,0,0,-1,-6,464)"/>
<path style="fill-rule:nonzero;fill:rgb(98.8%,74.5%,43.1%);fill-opacity:1;stroke-width:0.605;stroke-linecap:butt;stroke-linejoin:miter;stroke:rgb(0%,0%,0%);stroke-opacity:1;stroke-miterlimit:10;" d="M 147.71875 436.777344 C 147.71875 435.941406 148.398438 435.261719 149.234375 435.261719 C 150.070313 435.261719 150.746094 435.941406 150.746094 436.777344 C 150.746094 437.613281 150.070313 438.289063 149.234375 438.289063 C 148.398438 438.289063 147.71875 437.613281 147.71875 436.777344 Z M 147.71875 436.777344 " transform="matrix(1,0,0,-1,-6,464)"/>
<path style="fill-rule:nonzero;fill:rgb(98.8%,74.5%,43.1%);fill-opacity:1;stroke-width:0.605;stroke-linecap:butt;stroke-linejoin:miter;stroke:rgb(0%,0%,0%);stroke-opacity:1;stroke-miterlimit:10;" d="M 60.222656 422.40625 C 60.222656 421.570313 60.898438 420.894531 61.734375 420.894531 C 62.570313 420.894531 63.25 421.570313 63.25 422.40625 C 63.25 423.242188 62.570313 423.921875 61.734375 423.921875 C 60.898438 423.921875 60.222656 423.242188 60.222656 422.40625 Z M 60.222656 422.40625 " transform="matrix(1,0,0,-1,-6,464)"/>
<path style="fill-rule:nonzero;fill:rgb(69.4%,87%,53.7%);fill-opacity:1;stroke-width:0.605;stroke-linecap:butt;stroke-linejoin:miter;stroke:rgb(0%,0%,0%);stroke-opacity:1;stroke-miterlimit:10;" d="M 104.191406 351.785156 C 104.191406 350.949219 104.867188 350.269531 105.703125 350.269531 C 106.539063 350.269531 107.21875 350.949219 107.21875 351.785156 C 107.21875 352.621094 106.539063 353.300781 105.703125 353.300781 C 104.867188 353.300781 104.191406 352.621094 104.191406 351.785156 Z M 104.191406 351.785156 " transform="matrix(1,0,0,-1,-6,464)"/>
<path style="fill-rule:nonzero;fill:rgb(69.4%,87%,53.7%);fill-opacity:1;stroke-width:0.605;stroke-linecap:butt;stroke-linejoin:miter;stroke:rgb(0%,0%,0%);stroke-opacity:1;stroke-miterlimit:10;" d="M 85.023438 364.207031 C 85.023438 363.371094 85.699219 362.691406 86.535156 362.691406 C 87.371094 362.691406 88.050781 363.371094 88.050781 364.207031 C 88.050781 365.042969 87.371094 365.722656 86.535156 365.722656 C 85.699219 365.722656 85.023438 365.042969 85.023438 364.207031 Z M 85.023438 364.207031 " transform="matrix(1,0,0,-1,-6,464)"/>
<path style="fill-rule:nonzero;fill:rgb(69.4%,87%,53.7%);fill-opacity:1;stroke-width:0.605;stroke-linecap:butt;stroke-linejoin:miter;stroke:rgb(0%,0%,0%);stroke-opacity:1;stroke-miterlimit:10;" d="M 156.933594 366.988281 C 156.933594 366.152344 157.609375 365.476563 158.445313 365.476563 C 159.28125 365.476563 159.960938 366.152344 159.960938 366.988281 C 159.960938 367.824219 159.28125 368.503906 158.445313 368.503906 C 157.609375 368.503906 156.933594 367.824219 156.933594 366.988281 Z M 156.933594 366.988281 " transform="matrix(1,0,0,-1,-6,464)"/>
<path style="fill-rule:nonzero;fill:rgb(69.4%,87%,53.7%);fill-opacity:1;stroke-width:0.605;stroke-linecap:butt;stroke-linejoin:miter;stroke:rgb(0%,0%,0%);stroke-opacity:1;stroke-miterlimit:10;" d="M 154.105469 384.3125 C 154.105469 383.476563 154.785156 382.796875 155.621094 382.796875 C 156.457031 382.796875 157.136719 383.476563 157.136719 384.3125 C 157.136719 385.148438 156.457031 385.824219 155.621094 385.824219 C 154.785156 385.824219 154.105469 385.148438 154.105469 384.3125 Z M 154.105469 384.3125 " transform="matrix(1,0,0,-1,-6,464)"/>
<path style="fill-rule:nonzero;fill:rgb(69.4%,87%,53.7%);fill-opacity:1;stroke-width:0.605;stroke-linecap:butt;stroke-linejoin:miter;stroke:rgb(0%,0%,0%);stroke-opacity:1;stroke-miterlimit:10;" d="M 143.449219 387.714844 C 143.449219 386.878906 144.128906 386.203125 144.964844 386.203125 C 145.800781 386.203125 146.476563 386.878906 146.476563 387.714844 C 146.476563 388.554688 145.800781 389.230469 144.964844 389.230469 C 144.128906 389.230469 143.449219 388.554688 143.449219 387.714844 Z M 143.449219 387.714844 " transform="matrix(1,0,0,-1,-6,464)"/>
<path style="fill-rule:nonzero;fill:rgb(69.4%,87%,53.7%);fill-opacity:1;stroke-width:0.605;stroke-linecap:butt;stroke-linejoin:miter;stroke:rgb(0%,0%,0%);stroke-opacity:1;stroke-miterlimit:10;" d="M 161.914063 387.457031 C 161.914063 386.621094 162.59375 385.941406 163.429688 385.941406 C 164.265625 385.941406 164.945313 386.621094 164.945313 387.457031 C 164.945313 388.292969 164.265625 388.972656 163.429688 388.972656 C 162.59375 388.972656 161.914063 388.292969 161.914063 387.457031 Z M 161.914063 387.457031 " transform="matrix(1,0,0,-1,-6,464)"/>
<path style="fill-rule:nonzero;fill:rgb(69.4%,87%,53.7%);fill-opacity:1;stroke-width:0.605;stroke-linecap:butt;stroke-linejoin:miter;stroke:rgb(0%,0%,0%);stroke-opacity:1;stroke-miterlimit:10;" d="M 192.074219 391.972656 C 192.074219 391.136719 192.753906 390.457031 193.589844 390.457031 C 194.425781 390.457031 195.101563 391.136719 195.101563 391.972656 C 195.101563 392.808594 194.425781 393.484375 193.589844 393.484375 C 192.753906 393.484375 192.074219 392.808594 192.074219 391.972656 Z M 192.074219 391.972656 " transform="matrix(1,0,0,-1,-6,464)"/>
<path style="fill-rule:nonzero;fill:rgb(69.4%,87%,53.7%);fill-opacity:1;stroke-width:0.605;stroke-linecap:butt;stroke-linejoin:miter;stroke:rgb(0%,0%,0%);stroke-opacity:1;stroke-miterlimit:10;" d="M 194.675781 411.933594 C 194.675781 411.097656 195.355469 410.421875 196.191406 410.421875 C 197.027344 410.421875 197.703125 411.097656 197.703125 411.933594 C 197.703125 412.769531 197.027344 413.449219 196.191406 413.449219 C 195.355469 413.449219 194.675781 412.769531 194.675781 411.933594 Z M 194.675781 411.933594 " transform="matrix(1,0,0,-1,-6,464)"/>
<path style="fill-rule:nonzero;fill:rgb(69.4%,87%,53.7%);fill-opacity:1;stroke-width:0.605;stroke-linecap:butt;stroke-linejoin:miter;stroke:rgb(0%,0%,0%);stroke-opacity:1;stroke-miterlimit:10;" d="M 197.582031 405.894531 C 197.582031 405.058594 198.261719 404.382813 199.097656 404.382813 C 199.933594 404.382813 200.609375 405.058594 200.609375 405.894531 C 200.609375 406.730469 199.933594 407.410156 199.097656 407.410156 C 198.261719 407.410156 197.582031 406.730469 197.582031 405.894531 Z M 197.582031 405.894531 " transform="matrix(1,0,0,-1,-6,464)"/>
<path style="fill-rule:nonzero;fill:rgb(69.4%,87%,53.7%);fill-opacity:1;stroke-width:0.605;stroke-linecap:butt;stroke-linejoin:miter;stroke:rgb(0%,0%,0%);stroke-opacity:1;stroke-miterlimit:10;" d="M 98.117188 401.035156 C 98.117188 400.199219 98.796875 399.523438 99.632813 399.523438 C 100.46875 399.523438 101.144531 400.199219 101.144531 401.035156 C 101.144531 401.875 100.46875 402.550781 99.632813 402.550781 C 98.796875 402.550781 98.117188 401.875 98.117188 401.035156 Z M 98.117188 401.035156 " transform="matrix(1,0,0,-1,-6,464)"/>
<path style="fill-rule:nonzero;fill:rgb(78.8%,69.4%,83.5%);fill-opacity:1;stroke-width:0.605;stroke-linecap:butt;stroke-linejoin:miter;stroke:rgb(0%,0%,0%);stroke-opacity:1;stroke-miterlimit:10;" d="M 209.824219 364.023438 C 209.824219 363.1875 210.503906 362.511719 211.339844 362.511719 C 212.175781 362.511719 212.855469 363.1875 212.855469 364.023438 C 212.855469 364.859375 212.175781 365.539063 211.339844 365.539063 C 210.503906 365.539063 209.824219 364.859375 209.824219 364.023438 Z M 209.824219 364.023438 " transform="matrix(1,0,0,-1,-6,464)"/>
<path style="fill-rule:nonzero;fill:rgb(78.8%,69.4%,83.5%);fill-opacity:1;stroke-width:0.605;stroke-linecap:butt;stroke-linejoin:miter;stroke:rgb(0%,0%,0%);stroke-opacity:1;stroke-miterlimit:10;" d="M 212.164063 394.222656 C 212.164063 393.386719 212.839844 392.710938 213.675781 392.710938 C 214.511719 392.710938 215.191406 393.386719 215.191406 394.222656 C 215.191406 395.058594 214.511719 395.738281 213.675781 395.738281 C 212.839844 395.738281 212.164063 395.058594 212.164063 394.222656 Z M 212.164063 394.222656 " transform="matrix(1,0,0,-1,-6,464)"/>
<path style="fill-rule:nonzero;fill:rgb(65%,80.3%,88.6%);fill-opacity:1;stroke-width:0.605;stroke-linecap:butt;stroke-linejoin:miter;stroke:rgb(0%,0%,0%);stroke-opacity:1;stroke-miterlimit:10;" d="M 39.832031 376.738281 C 39.832031 375.902344 40.511719 375.222656 41.347656 375.222656 C 42.183594 375.222656 42.863281 375.902344 42.863281 376.738281 C 42.863281 377.574219 42.183594 378.253906 41.347656 378.253906 C 40.511719 378.253906 39.832031 377.574219 39.832031 376.738281 Z M 39.832031 376.738281 " transform="matrix(1,0,0,-1,-6,464)"/>
<path style="fill-rule:nonzero;fill:rgb(65%,80.3%,88.6%);fill-opacity:1;stroke-width:0.605;stroke-linecap:butt;stroke-linejoin:miter;stroke:rgb(0%,0%,0%);stroke-opacity:1;stroke-miterlimit:10;" d="M 80.652344 364.863281 C 80.652344 364.027344 81.328125 363.347656 82.164063 363.347656 C 83 363.347656 83.679688 364.027344 83.679688 364.863281 C 83.679688 365.699219 83 366.378906 82.164063 366.378906 C 81.328125 366.378906 80.652344 365.699219 80.652344 364.863281 Z M 80.652344 364.863281 " transform="matrix(1,0,0,-1,-6,464)"/>
<path style="fill-rule:nonzero;fill:rgb(65%,80.3%,88.6%);fill-opacity:1;stroke-width:0.605;stroke-linecap:butt;stroke-linejoin:miter;stroke:rgb(0%,0%,0%);stroke-opacity:1;stroke-miterlimit:10;" d="M 27.382813 392.699219 C 27.382813 391.863281 28.058594 391.1875 28.894531 391.1875 C 29.730469 391.1875 30.410156 391.863281 30.410156 392.699219 C 30.410156 393.535156 29.730469 394.214844 28.894531 394.214844 C 28.058594 394.214844 27.382813 393.535156 27.382813 392.699219 Z M 27.382813 392.699219 " transform="matrix(1,0,0,-1,-6,464)"/>
<path style="fill-rule:nonzero;fill:rgb(65%,80.3%,88.6%);fill-opacity:1;stroke-width:0.605;stroke-linecap:butt;stroke-linejoin:miter;stroke:rgb(0%,0%,0%);stroke-opacity:1;stroke-miterlimit:10;" d="M 100.753906 386.507813 C 100.753906 385.671875 101.429688 384.992188 102.265625 384.992188 C 103.101563 384.992188 103.78125 385.671875 103.78125 386.507813 C 103.78125 387.34375 103.101563 388.019531 102.265625 388.019531 C 101.429688 388.019531 100.753906 387.34375 100.753906 386.507813 Z M 100.753906 386.507813 " transform="matrix(1,0,0,-1,-6,464)"/>
<path style="fill-rule:nonzero;fill:rgb(65%,80.3%,88.6%);fill-opacity:1;stroke-width:0.605;stroke-linecap:butt;stroke-linejoin:miter;stroke:rgb(0%,0%,0%);stroke-opacity:1;stroke-miterlimit:10;" d="M 110.371094 394.003906 C 110.371094 393.164063 111.050781 392.488281 111.886719 392.488281 C 112.722656 392.488281 113.398438 393.164063 113.398438 394.003906 C 113.398438 394.839844 112.722656 395.515625 111.886719 395.515625 C 111.050781 395.515625 110.371094 394.839844 110.371094 394.003906 Z M 110.371094 394.003906 " transform="matrix(1,0,0,-1,-6,464)"/>
<path style="fill-rule:nonzero;fill:rgb(65%,80.3%,88.6%);fill-opacity:1;stroke-width:0.605;stroke-linecap:butt;stroke-linejoin:miter;stroke:rgb(0%,0%,0%);stroke-opacity:1;stroke-miterlimit:10;" d="M 95.894531 415.734375 C 95.894531 414.898438 96.574219 414.222656 97.410156 414.222656 C 98.246094 414.222656 98.921875 414.898438 98.921875 415.734375 C 98.921875 416.570313 98.246094 417.25 97.410156 417.25 C 96.574219 417.25 95.894531 416.570313 95.894531 415.734375 Z M 95.894531 415.734375 " transform="matrix(1,0,0,-1,-6,464)"/>
<path style="fill-rule:nonzero;fill:rgb(65%,80.3%,88.6%);fill-opacity:1;stroke-width:0.605;stroke-linecap:butt;stroke-linejoin:miter;stroke:rgb(0%,0%,0%);stroke-opacity:1;stroke-miterlimit:10;" d="M 88.539063 421.117188 C 88.539063 420.28125 89.21875 419.605469 90.054688 419.605469 C 90.890625 419.605469 91.566406 420.28125 91.566406 421.117188 C 91.566406 421.957031 90.890625 422.632813 90.054688 422.632813 C 89.21875 422.632813 88.539063 421.957031 88.539063 421.117188 Z M 88.539063 421.117188 " transform="matrix(1,0,0,-1,-6,464)"/>
<path style="fill-rule:nonzero;fill:rgb(65%,80.3%,88.6%);fill-opacity:1;stroke-width:0.605;stroke-linecap:butt;stroke-linejoin:miter;stroke:rgb(0%,0%,0%);stroke-opacity:1;stroke-miterlimit:10;" d="M 74.742188 429.339844 C 74.742188 428.503906 75.417969 427.824219 76.253906 427.824219 C 77.089844 427.824219 77.769531 428.503906 77.769531 429.339844 C 77.769531 430.175781 77.089844 430.855469 76.253906 430.855469 C 75.417969 430.855469 74.742188 430.175781 74.742188 429.339844 Z M 74.742188 429.339844 " transform="matrix(1,0,0,-1,-6,464)"/>
<path style="fill-rule:nonzero;fill:rgb(65%,80.3%,88.6%);fill-opacity:1;stroke-width:0.605;stroke-linecap:butt;stroke-linejoin:miter;stroke:rgb(0%,0%,0%);stroke-opacity:1;stroke-miterlimit:10;" d="M 117.289063 427.417969 C 117.289063 426.582031 117.96875 425.902344 118.804688 425.902344 C 119.640625 425.902344 120.316406 426.582031 120.316406 427.417969 C 120.316406 428.253906 119.640625 428.929688 118.804688 428.929688 C 117.96875 428.929688 117.289063 428.253906 117.289063 427.417969 Z M 117.289063 427.417969 " transform="matrix(1,0,0,-1,-6,464)"/>
<path style="fill-rule:nonzero;fill:rgb(65%,80.3%,88.6%);fill-opacity:1;stroke-width:0.605;stroke-linecap:butt;stroke-linejoin:miter;stroke:rgb(0%,0%,0%);stroke-opacity:1;stroke-miterlimit:10;" d="M 121.015625 441.8125 C 121.015625 440.976563 121.691406 440.300781 122.527344 440.300781 C 123.363281 440.300781 124.042969 440.976563 124.042969 441.8125 C 124.042969 442.648438 123.363281 443.328125 122.527344 443.328125 C 121.691406 443.328125 121.015625 442.648438 121.015625 441.8125 Z M 121.015625 441.8125 " transform="matrix(1,0,0,-1,-6,464)"/>
<path style="fill-rule:nonzero;fill:rgb(65%,80.3%,88.6%);fill-opacity:1;stroke-width:0.605;stroke-linecap:butt;stroke-linejoin:miter;stroke:rgb(0%,0%,0%);stroke-opacity:1;stroke-miterlimit:10;" d="M 143.417969 444.9375 C 143.417969 444.101563 144.097656 443.425781 144.933594 443.425781 C 145.769531 443.425781 146.445313 444.101563 146.445313 444.9375 C 146.445313 445.773438 145.769531 446.453125 144.933594 446.453125 C 144.097656 446.453125 143.417969 445.773438 143.417969 444.9375 Z M 143.417969 444.9375 " transform="matrix(1,0,0,-1,-6,464)"/>
<path style="fill-rule:nonzero;fill:rgb(65%,80.3%,88.6%);fill-opacity:1;stroke-width:0.605;stroke-linecap:butt;stroke-linejoin:miter;stroke:rgb(0%,0%,0%);stroke-opacity:1;stroke-miterlimit:10;" d="M 108.625 458.71875 C 108.625 457.882813 109.304688 457.203125 110.140625 457.203125 C 110.976563 457.203125 111.652344 457.882813 111.652344 458.71875 C 111.652344 459.554688 110.976563 460.234375 110.140625 460.234375 C 109.304688 460.234375 108.625 459.554688 108.625 458.71875 Z M 108.625 458.71875 " transform="matrix(1,0,0,-1,-6,464)"/>
<path style="fill-rule:nonzero;fill:rgb(65%,80.3%,88.6%);fill-opacity:1;stroke-width:0.605;stroke-linecap:butt;stroke-linejoin:miter;stroke:rgb(0%,0%,0%);stroke-opacity:1;stroke-miterlimit:10;" d="M 208.308594 405.0625 C 208.308594 404.226563 208.984375 403.550781 209.820313 403.550781 C 210.65625 403.550781 211.335938 404.226563 211.335938 405.0625 C 211.335938 405.898438 210.65625 406.578125 209.820313 406.578125 C 208.984375 406.578125 208.308594 405.898438 208.308594 405.0625 Z M 208.308594 405.0625 " transform="matrix(1,0,0,-1,-6,464)"/>
<path style="fill-rule:nonzero;fill:rgb(65%,80.3%,88.6%);fill-opacity:1;stroke-width:0.605;stroke-linecap:butt;stroke-linejoin:miter;stroke:rgb(0%,0%,0%);stroke-opacity:1;stroke-miterlimit:10;" d="M 214.59375 424.578125 C 214.59375 423.742188 215.269531 423.0625 216.105469 423.0625 C 216.941406 423.0625 217.621094 423.742188 217.621094 424.578125 C 217.621094 425.414063 216.941406 426.089844 216.105469 426.089844 C 215.269531 426.089844 214.59375 425.414063 214.59375 424.578125 Z M 214.59375 424.578125 " transform="matrix(1,0,0,-1,-6,464)"/>
<path style="fill-rule:nonzero;fill:rgb(65%,80.3%,88.6%);fill-opacity:1;stroke-width:0.605;stroke-linecap:butt;stroke-linejoin:miter;stroke:rgb(0%,0%,0%);stroke-opacity:1;stroke-miterlimit:10;" d="M 222.289063 433.917969 C 222.289063 433.082031 222.96875 432.402344 223.804688 432.402344 C 224.640625 432.402344 225.316406 433.082031 225.316406 433.917969 C 225.316406 434.753906 224.640625 435.433594 223.804688 435.433594 C 222.96875 435.433594 222.289063 434.753906 222.289063 433.917969 Z M 222.289063 433.917969 " transform="matrix(1,0,0,-1,-6,464)"/>
<path style="fill-rule:nonzero;fill:rgb(65%,80.3%,88.6%);fill-opacity:1;stroke-width:0.605;stroke-linecap:butt;stroke-linejoin:miter;stroke:rgb(0%,0%,0%);stroke-opacity:1;stroke-miterlimit:10;" d="M 209.507813 454.777344 C 209.507813 453.941406 210.183594 453.261719 211.019531 453.261719 C 211.855469 453.261719 212.535156 453.941406 212.535156 454.777344 C 212.535156 455.613281 211.855469 456.289063 211.019531 456.289063 C 210.183594 456.289063 209.507813 455.613281 209.507813 454.777344 Z M 209.507813 454.777344 " transform="matrix(1,0,0,-1,-6,464)"/>
<path style="fill-rule:nonzero;fill:rgb(65%,80.3%,88.6%);fill-opacity:1;stroke-width:0.605;stroke-linecap:butt;stroke-linejoin:miter;stroke:rgb(0%,0%,0%);stroke-opacity:1;stroke-miterlimit:10;" d="M 240.554688 453.878906 C 240.554688 453.042969 241.234375 452.363281 242.070313 452.363281 C 242.90625 452.363281 243.585938 453.042969 243.585938 453.878906 C 243.585938 454.714844 242.90625 455.394531 242.070313 455.394531 C 241.234375 455.394531 240.554688 454.714844 240.554688 453.878906 Z M 240.554688 453.878906 " transform="matrix(1,0,0,-1,-6,464)"/>
<path style="fill-rule:nonzero;fill:rgb(65%,80.3%,88.6%);fill-opacity:1;stroke-width:0.605;stroke-linecap:butt;stroke-linejoin:miter;stroke:rgb(0%,0%,0%);stroke-opacity:1;stroke-miterlimit:10;" d="M 84.402344 336.675781 C 84.402344 335.839844 85.082031 335.160156 85.917969 335.160156 C 86.753906 335.160156 87.429688 335.839844 87.429688 336.675781 C 87.429688 337.511719 86.753906 338.1875 85.917969 338.1875 C 85.082031 338.1875 84.402344 337.511719 84.402344 336.675781 Z M 84.402344 336.675781 " transform="matrix(1,0,0,-1,-6,464)"/>
<path style="fill-rule:nonzero;fill:rgb(65%,80.3%,88.6%);fill-opacity:1;stroke-width:0.605;stroke-linecap:butt;stroke-linejoin:miter;stroke:rgb(0%,0%,0%);stroke-opacity:1;stroke-miterlimit:10;" d="M 58.929688 343.933594 C 58.929688 343.097656 59.609375 342.417969 60.445313 342.417969 C 61.28125 342.417969 61.957031 343.097656 61.957031 343.933594 C 61.957031 344.769531 61.28125 345.445313 60.445313 345.445313 C 59.609375 345.445313 58.929688 344.769531 58.929688 343.933594 Z M 58.929688 343.933594 " transform="matrix(1,0,0,-1,-6,464)"/>
<path style="fill-rule:nonzero;fill:rgb(65%,80.3%,88.6%);fill-opacity:1;stroke-width:0.605;stroke-linecap:butt;stroke-linejoin:miter;stroke:rgb(0%,0%,0%);stroke-opacity:1;stroke-miterlimit:10;" d="M 33.730469 347.082031 C 33.730469 346.246094 34.410156 345.566406 35.246094 345.566406 C 36.082031 345.566406 36.757813 346.246094 36.757813 347.082031 C 36.757813 347.917969 36.082031 348.597656 35.246094 348.597656 C 34.410156 348.597656 33.730469 347.917969 33.730469 347.082031 Z M 33.730469 347.082031 " transform="matrix(1,0,0,-1,-6,464)"/>
<path style="fill-rule:nonzero;fill:rgb(65%,80.3%,88.6%);fill-opacity:1;stroke-width:0.605;stroke-linecap:butt;stroke-linejoin:miter;stroke:rgb(0%,0%,0%);stroke-opacity:1;stroke-miterlimit:10;" d="M 10.585938 345.300781 C 10.585938 344.464844 11.265625 343.789063 12.101563 343.789063 C 12.9375 343.789063 13.613281 344.464844 13.613281 345.300781 C 13.613281 346.140625 12.9375 346.816406 12.101563 346.816406 C 11.265625 346.816406 10.585938 346.140625 10.585938 345.300781 Z M 10.585938 345.300781 " transform="matrix(1,0,0,-1,-6,464)"/>
<path style="fill-rule:nonzero;fill:rgb(65%,80.3%,88.6%);fill-opacity:1;stroke-width:0.605;stroke-linecap:butt;stroke-linejoin:miter;stroke:rgb(0%,0%,0%);stroke-opacity:1;stroke-miterlimit:10;" d="M 220.085938 349.632813 C 220.085938 348.796875 220.765625 348.117188 221.601563 348.117188 C 222.4375 348.117188 223.113281 348.796875 223.113281 349.632813 C 223.113281 350.46875 222.4375 351.148438 221.601563 351.148438 C 220.765625 351.148438 220.085938 350.46875 220.085938 349.632813 Z M 220.085938 349.632813 " transform="matrix(1,0,0,-1,-6,464)"/>
<path style="fill-rule:nonzero;fill:rgb(69.4%,87%,53.7%);fill-opacity:1;stroke-width:0.605;stroke-linecap:butt;stroke-linejoin:miter;stroke:rgb(0%,0%,0%);stroke-opacity:1;stroke-miterlimit:10;" d="M 143.023438 342.976563 C 143.023438 342.140625 143.699219 341.460938 144.535156 341.460938 C 145.371094 341.460938 146.050781 342.140625 146.050781 342.976563 C 146.050781 343.8125 145.371094 344.488281 144.535156 344.488281 C 143.699219 344.488281 143.023438 343.8125 143.023438 342.976563 Z M 143.023438 342.976563 " transform="matrix(1,0,0,-1,-6,464)"/>
<path style="fill-rule:nonzero;fill:rgb(69.4%,87%,53.7%);fill-opacity:1;stroke-width:0.605;stroke-linecap:butt;stroke-linejoin:miter;stroke:rgb(0%,0%,0%);stroke-opacity:1;stroke-miterlimit:10;" d="M 114.378906 328.386719 C 114.378906 327.550781 115.054688 326.871094 115.890625 326.871094 C 116.726563 326.871094 117.40625 327.550781 117.40625 328.386719 C 117.40625 329.222656 116.726563 329.898438 115.890625 329.898438 C 115.054688 329.898438 114.378906 329.222656 114.378906 328.386719 Z M 114.378906 328.386719 " transform="matrix(1,0,0,-1,-6,464)"/>
<path style="fill-rule:nonzero;fill:rgb(69.4%,87%,53.7%);fill-opacity:1;stroke-width:0.605;stroke-linecap:butt;stroke-linejoin:miter;stroke:rgb(0%,0%,0%);stroke-opacity:1;stroke-miterlimit:10;" d="M 72.03125 325.183594 C 72.03125 324.347656 72.710938 323.667969 73.546875 323.667969 C 74.382813 323.667969 75.0625 324.347656 75.0625 325.183594 C 75.0625 326.019531 74.382813 326.695313 73.546875 326.695313 C 72.710938 326.695313 72.03125 326.019531 72.03125 325.183594 Z M 72.03125 325.183594 " transform="matrix(1,0,0,-1,-6,464)"/>
</g>
</svg>
