<?xml version="1.0" encoding="UTF-8"?>
<svg xmlns="http://www.w3.org/2000/svg" xmlns:xlink="http://www.w3.org/1999/xlink" width="255pt" height="156pt" viewBox="0 0 255 156" version="1.1">
<g id="surface5324">
<path style="fill-rule:nonzero;fill:rgb(99.6%,92.1%,82.7%);fill-opacity:1;stroke-width:0.59;stroke-linecap:butt;stroke-linejoin:miter;stroke:rgb(0%,0%,0%);stroke-opacity:1;stroke-miterlimit:10;" d="M 251.257813 310.882813 C 250.855469 311.007813 250.453125 311.132813 250.066406 311.300781 C 249.324219 311.617188 248.660156 312.085938 248.066406 312.628906 C 247.253906 313.371094 246.574219 314.246094 246.066406 315.222656 C 245.632813 316.054688 245.332031 316.953125 245.195313 317.882813 C 245.097656 318.546875 245.089844 319.214844 245.144531 319.882813 C 245.199219 320.5625 245.324219 321.234375 245.535156 321.882813 C 245.902344 323 246.519531 324.011719 247.304688 324.882813 C 248.082031 325.742188 249.015625 326.453125 250.066406 326.941406 C 251.011719 327.375 252.03125 327.621094 253.066406 327.710938 C 254.074219 327.800781 255.089844 327.742188 256.066406 327.476563 C 257.164063 327.183594 258.179688 326.644531 259.066406 325.933594 C 259.851563 325.304688 260.53125 324.550781 261.066406 323.703125 C 261.425781 323.132813 261.722656 322.523438 261.945313 321.882813 C 262.171875 321.238281 262.320313 320.566406 262.378906 319.882813 C 262.464844 318.875 262.347656 317.859375 262.078125 316.882813 C 261.78125 315.800781 261.296875 314.78125 260.621094 313.882813 C 259.933594 312.96875 259.058594 312.210938 258.066406 311.640625 C 257.140625 311.109375 256.121094 310.753906 255.066406 310.574219 C 254.070313 310.410156 253.046875 310.40625 252.066406 310.648438 C 251.792969 310.714844 251.527344 310.800781 251.257813 310.882813 Z M 251.257813 310.882813 " transform="matrix(1,0,0,-1,-222,466)"/>
<path style="fill-rule:nonzero;fill:rgb(99.6%,92.1%,82.7%);fill-opacity:1;stroke-width:0.59;stroke-linecap:butt;stroke-linejoin:miter;stroke:rgb(0%,0%,0%);stroke-opacity:1;stroke-miterlimit:10;" d="M 450.757813 316.882813 C 449.847656 317.09375 448.9375 317.324219 448.066406 317.664063 C 446.992188 318.085938 445.988281 318.675781 445.066406 319.375 C 444.113281 320.09375 443.246094 320.929688 442.519531 321.882813 C 441.960938 322.617188 441.488281 323.414063 441.066406 324.238281 C 440.632813 325.09375 440.25 325.976563 439.941406 326.882813 C 439.613281 327.855469 439.359375 328.859375 439.3125 329.882813 C 439.28125 330.550781 439.339844 331.21875 439.417969 331.882813 C 439.582031 333.234375 439.839844 334.570313 440.183594 335.882813 C 440.457031 336.921875 440.789063 337.949219 441.320313 338.882813 C 441.730469 339.601563 442.25 340.246094 442.773438 340.882813 C 444.699219 343.226563 446.707031 345.511719 449.066406 347.417969 C 449.382813 347.675781 449.707031 347.925781 450.066406 348.117188 C 450.980469 348.609375 452.035156 348.699219 453.066406 348.765625 C 455.074219 348.894531 457.105469 348.96875 459.066406 348.515625 C 459.753906 348.359375 460.425781 348.140625 461.066406 347.851563 C 461.777344 347.53125 462.445313 347.132813 463.066406 346.664063 C 464.089844 345.898438 464.96875 344.957031 465.660156 343.882813 C 466.0625 343.257813 466.398438 342.585938 466.644531 341.882813 C 466.984375 340.917969 467.15625 339.902344 467.246094 338.882813 C 467.332031 337.886719 467.335938 336.882813 467.304688 335.882813 C 467.207031 332.832031 466.753906 329.796875 465.835938 326.882813 C 465.511719 325.855469 465.128906 324.84375 464.636719 323.882813 C 464.28125 323.1875 463.871094 322.519531 463.417969 321.882813 C 463.007813 321.304688 462.5625 320.753906 462.066406 320.25 C 461.460938 319.632813 460.789063 319.085938 460.066406 318.613281 C 459.433594 318.203125 458.765625 317.84375 458.066406 317.5625 C 457.417969 317.296875 456.75 317.097656 456.066406 316.945313 C 455.082031 316.730469 454.074219 316.617188 453.066406 316.621094 C 452.394531 316.625 451.722656 316.679688 451.066406 316.816406 C 450.964844 316.835938 450.859375 316.859375 450.757813 316.882813 Z M 450.757813 316.882813 " transform="matrix(1,0,0,-1,-222,466)"/>
<path style="fill-rule:nonzero;fill:rgb(99.6%,92.1%,82.7%);fill-opacity:1;stroke-width:0.59;stroke-linecap:butt;stroke-linejoin:miter;stroke:rgb(0%,0%,0%);stroke-opacity:1;stroke-miterlimit:10;" d="M 260.691406 336.882813 C 260.492188 337.011719 260.269531 337.101563 260.066406 337.230469 C 259.613281 337.519531 259.304688 337.972656 259.066406 338.453125 C 258.839844 338.90625 258.671875 339.386719 258.570313 339.882813 C 258.363281 340.871094 258.414063 341.882813 258.527344 342.882813 C 258.679688 344.238281 258.945313 345.582031 259.355469 346.882813 C 259.53125 347.457031 259.742188 348.023438 260.066406 348.527344 C 260.332031 348.9375 260.671875 349.296875 261.066406 349.585938 C 261.375 349.808594 261.710938 349.984375 262.066406 350.121094 C 262.703125 350.367188 263.386719 350.484375 264.066406 350.441406 C 264.773438 350.398438 265.457031 350.195313 266.066406 349.835938 C 266.863281 349.371094 267.492188 348.671875 267.96875 347.882813 C 268.34375 347.261719 268.621094 346.589844 268.792969 345.882813 C 269.03125 344.902344 269.0625 343.886719 268.964844 342.882813 C 268.898438 342.207031 268.777344 341.535156 268.570313 340.882813 C 268.253906 339.882813 267.742188 338.953125 267.066406 338.144531 C 266.515625 337.488281 265.855469 336.917969 265.066406 336.574219 C 264.4375 336.296875 263.753906 336.175781 263.066406 336.15625 C 262.367188 336.140625 261.652344 336.234375 261.066406 336.621094 C 260.9375 336.703125 260.820313 336.800781 260.691406 336.882813 Z M 260.691406 336.882813 " transform="matrix(1,0,0,-1,-222,466)"/>
<path style="fill-rule:nonzero;fill:rgb(99.6%,92.1%,82.7%);fill-opacity:1;stroke-width:0.59;stroke-linecap:butt;stroke-linejoin:miter;stroke:rgb(0%,0%,0%);stroke-opacity:1;stroke-miterlimit:10;" d="M 437.636719 348.882813 C 437.074219 349.050781 436.570313 349.390625 436.25 349.882813 C 436.058594 350.183594 435.941406 350.53125 435.878906 350.882813 C 435.820313 351.214844 435.804688 351.550781 435.839844 351.882813 C 435.914063 352.605469 436.21875 353.277344 436.613281 353.882813 C 437.238281 354.84375 438.085938 355.636719 439.066406 356.230469 C 439.691406 356.605469 440.359375 356.898438 441.066406 357.074219 C 441.722656 357.238281 442.398438 357.304688 443.066406 357.21875 C 443.773438 357.132813 444.449219 356.882813 445.066406 356.527344 C 445.777344 356.117188 446.40625 355.566406 446.859375 354.882813 C 447.261719 354.28125 447.519531 353.597656 447.625 352.882813 C 447.675781 352.550781 447.691406 352.214844 447.644531 351.882813 C 447.589844 351.527344 447.460938 351.179688 447.257813 350.882813 C 446.941406 350.421875 446.464844 350.101563 445.949219 349.882813 C 445.351563 349.632813 444.707031 349.523438 444.066406 349.40625 C 442.738281 349.164063 441.410156 348.890625 440.066406 348.761719 C 439.398438 348.703125 438.726563 348.675781 438.066406 348.785156 C 437.921875 348.808594 437.777344 348.839844 437.636719 348.882813 Z M 437.636719 348.882813 " transform="matrix(1,0,0,-1,-222,466)"/>
<path style="fill-rule:nonzero;fill:rgb(99.6%,92.1%,82.7%);fill-opacity:1;stroke-width:0.59;stroke-linecap:butt;stroke-linejoin:miter;stroke:rgb(0%,0%,0%);stroke-opacity:1;stroke-miterlimit:10;" d="M 463.996094 354.882813 C 463.695313 355.035156 463.371094 355.136719 463.066406 355.277344 C 462.28125 355.644531 461.648438 356.25 461.058594 356.882813 C 460.488281 357.5 459.949219 358.148438 459.542969 358.882813 C 459.195313 359.511719 458.957031 360.191406 458.773438 360.882813 C 458.425781 362.1875 458.265625 363.535156 458.308594 364.882813 C 458.359375 366.558594 458.71875 368.210938 458.75 369.882813 C 458.789063 371.886719 458.367188 373.886719 458.550781 375.882813 C 458.609375 376.558594 458.742188 377.222656 458.886719 377.882813 C 459.039063 378.5625 459.210938 379.238281 459.476563 379.882813 C 459.773438 380.605469 460.1875 381.273438 460.675781 381.882813 C 461.085938 382.398438 461.554688 382.867188 462.066406 383.28125 C 462.675781 383.773438 463.347656 384.179688 464.066406 384.492188 C 465.015625 384.902344 466.03125 385.132813 467.066406 385.171875 C 467.738281 385.195313 468.40625 385.136719 469.066406 385.011719 C 469.753906 384.882813 470.429688 384.683594 471.066406 384.390625 C 471.792969 384.058594 472.460938 383.613281 473.066406 383.089844 C 473.425781 382.777344 473.761719 382.4375 474.066406 382.074219 C 474.453125 381.613281 474.789063 381.113281 475.066406 380.578125 C 475.507813 379.730469 475.789063 378.816406 475.992188 377.882813 C 476.207031 376.898438 476.332031 375.890625 476.324219 374.882813 C 476.316406 373.207031 475.953125 371.558594 475.886719 369.882813 C 475.800781 367.882813 476.144531 365.886719 476.0625 363.882813 C 476.019531 362.867188 475.871094 361.859375 475.585938 360.882813 C 475.257813 359.769531 474.761719 358.710938 474.066406 357.777344 C 473.765625 357.375 473.433594 357 473.066406 356.652344 C 472.472656 356.089844 471.800781 355.609375 471.066406 355.238281 C 470.128906 354.761719 469.113281 354.464844 468.066406 354.34375 C 467.402344 354.269531 466.730469 354.265625 466.066406 354.328125 C 465.375 354.394531 464.6875 354.535156 464.066406 354.847656 C 464.042969 354.859375 464.019531 354.871094 463.996094 354.882813 Z M 463.996094 354.882813 " transform="matrix(1,0,0,-1,-222,466)"/>
<path style="fill-rule:nonzero;fill:rgb(99.6%,92.1%,82.7%);fill-opacity:1;stroke-width:0.59;stroke-linecap:butt;stroke-linejoin:miter;stroke:rgb(0%,0%,0%);stroke-opacity:1;stroke-miterlimit:10;" d="M 333.816406 360.882813 C 333.230469 360.972656 332.640625 361.039063 332.066406 361.183594 C 331.367188 361.363281 330.703125 361.652344 330.066406 361.992188 C 329.109375 362.5 328.207031 363.113281 327.441406 363.882813 C 327.132813 364.195313 326.847656 364.53125 326.578125 364.882813 C 326.121094 365.488281 325.714844 366.144531 325.539063 366.882813 C 325.386719 367.539063 325.429688 368.21875 325.539063 368.882813 C 325.71875 369.9375 326.066406 370.957031 326.601563 371.882813 C 327.03125 372.621094 327.570313 373.285156 328.179688 373.882813 C 328.546875 374.246094 328.9375 374.582031 329.355469 374.882813 C 329.894531 375.269531 330.472656 375.589844 331.066406 375.871094 C 331.710938 376.175781 332.375 376.4375 333.066406 376.601563 C 333.722656 376.753906 334.394531 376.820313 335.066406 376.835938 C 335.738281 376.847656 336.410156 376.816406 337.066406 376.6875 C 337.773438 376.546875 338.460938 376.296875 339.066406 375.90625 C 339.429688 375.671875 339.761719 375.390625 340.066406 375.089844 C 340.71875 374.445313 341.265625 373.703125 341.679688 372.882813 C 342 372.25 342.238281 371.578125 342.394531 370.882813 C 342.617188 369.898438 342.667969 368.882813 342.535156 367.882813 C 342.398438 366.832031 342.058594 365.816406 341.554688 364.882813 C 340.949219 363.761719 340.113281 362.777344 339.066406 362.046875 C 338.453125 361.621094 337.78125 361.292969 337.066406 361.078125 C 336.097656 360.78125 335.070313 360.703125 334.066406 360.84375 C 333.984375 360.859375 333.898438 360.871094 333.816406 360.882813 Z M 333.816406 360.882813 " transform="matrix(1,0,0,-1,-222,466)"/>
<path style="fill-rule:nonzero;fill:rgb(99.6%,92.1%,82.7%);fill-opacity:1;stroke-width:0.59;stroke-linecap:butt;stroke-linejoin:miter;stroke:rgb(0%,0%,0%);stroke-opacity:1;stroke-miterlimit:10;" d="M 288.722656 366.882813 C 287.714844 367.484375 286.824219 368.257813 286.066406 369.152344 C 284.898438 370.535156 284.085938 372.171875 283.5 373.882813 C 283.054688 375.175781 282.738281 376.515625 282.691406 377.882813 C 282.667969 378.550781 282.707031 379.222656 282.8125 379.882813 C 282.914063 380.566406 283.082031 381.238281 283.324219 381.882813 C 283.582031 382.589844 283.921875 383.261719 284.34375 383.882813 C 284.828125 384.601563 285.410156 385.25 286.066406 385.816406 C 286.953125 386.578125 287.960938 387.191406 289.066406 387.574219 C 289.714844 387.796875 290.386719 387.941406 291.066406 388.019531 C 291.730469 388.09375 292.402344 388.105469 293.066406 388.046875 C 293.746094 387.992188 294.414063 387.863281 295.066406 387.664063 C 295.761719 387.449219 296.429688 387.15625 297.066406 386.804688 C 297.777344 386.417969 298.445313 385.957031 299.066406 385.441406 C 299.636719 384.964844 300.160156 384.441406 300.644531 383.882813 C 301.449219 382.957031 302.144531 381.941406 302.765625 380.882813 C 303.136719 380.25 303.488281 379.59375 303.679688 378.882813 C 303.941406 377.90625 303.898438 376.882813 303.75 375.882813 C 303.59375 374.851563 303.320313 373.839844 302.898438 372.882813 C 302.585938 372.171875 302.1875 371.5 301.71875 370.882813 C 301.148438 370.136719 300.472656 369.476563 299.746094 368.882813 C 298.632813 367.972656 297.398438 367.21875 296.066406 366.671875 C 295.421875 366.40625 294.753906 366.191406 294.066406 366.070313 C 293.40625 365.949219 292.738281 365.914063 292.066406 365.925781 C 291.390625 365.9375 290.707031 365.996094 290.066406 366.21875 C 289.71875 366.339844 289.390625 366.507813 289.066406 366.6875 C 288.953125 366.75 288.835938 366.816406 288.722656 366.882813 Z M 288.722656 366.882813 " transform="matrix(1,0,0,-1,-222,466)"/>
<path style="fill-rule:nonzero;fill:rgb(99.6%,92.1%,82.7%);fill-opacity:1;stroke-width:0.59;stroke-linecap:butt;stroke-linejoin:miter;stroke:rgb(0%,0%,0%);stroke-opacity:1;stroke-miterlimit:10;" d="M 386.386719 399.882813 C 385.105469 400.386719 383.847656 400.984375 382.800781 401.882813 C 381.84375 402.707031 381.105469 403.75 380.550781 404.882813 C 380.238281 405.527344 379.988281 406.195313 379.800781 406.882813 C 379.621094 407.539063 379.5 408.207031 379.445313 408.882813 C 379.363281 409.886719 379.425781 410.898438 379.632813 411.882813 C 379.773438 412.570313 379.984375 413.238281 380.253906 413.882813 C 380.546875 414.585938 380.90625 415.257813 381.335938 415.882813 C 381.832031 416.601563 382.414063 417.257813 383.066406 417.835938 C 383.960938 418.632813 384.972656 419.28125 386.066406 419.761719 C 386.710938 420.042969 387.378906 420.265625 388.066406 420.414063 C 388.722656 420.554688 389.394531 420.628906 390.066406 420.648438 C 390.734375 420.664063 391.40625 420.628906 392.066406 420.523438 C 392.75 420.414063 393.417969 420.226563 394.066406 419.988281 C 394.761719 419.730469 395.433594 419.414063 396.066406 419.027344 C 396.613281 418.695313 397.128906 418.304688 397.613281 417.882813 C 398.582031 417.035156 399.421875 416.042969 399.984375 414.882813 C 400.296875 414.246094 400.515625 413.574219 400.675781 412.882813 C 400.828125 412.226563 400.925781 411.554688 400.976563 410.882813 C 401.054688 409.882813 401.03125 408.878906 400.902344 407.882813 C 400.816406 407.207031 400.683594 406.535156 400.476563 405.882813 C 400.132813 404.796875 399.59375 403.78125 398.890625 402.882813 C 398.363281 402.210938 397.746094 401.609375 397.066406 401.089844 C 396.445313 400.613281 395.769531 400.210938 395.066406 399.871094 C 394.429688 399.558594 393.761719 399.300781 393.066406 399.160156 C 392.410156 399.023438 391.738281 398.992188 391.066406 399 C 389.707031 399.015625 388.351563 399.191406 387.066406 399.628906 C 386.835938 399.707031 386.609375 399.792969 386.386719 399.882813 Z M 386.386719 399.882813 " transform="matrix(1,0,0,-1,-222,466)"/>
<path style="fill-rule:nonzero;fill:rgb(99.6%,92.1%,82.7%);fill-opacity:1;stroke-width:0.59;stroke-linecap:butt;stroke-linejoin:miter;stroke:rgb(0%,0%,0%);stroke-opacity:1;stroke-miterlimit:10;" d="M 278.644531 411.882813 C 278.105469 412.136719 277.566406 412.390625 277.066406 412.71875 C 276.5625 413.050781 276.109375 413.445313 275.695313 413.882813 C 274.878906 414.75 274.238281 415.765625 273.824219 416.882813 C 273.46875 417.84375 273.289063 418.859375 273.292969 419.882813 C 273.300781 420.910156 273.492188 421.925781 273.855469 422.882813 C 274.285156 424.003906 274.941406 425.023438 275.777344 425.882813 C 276.445313 426.570313 277.214844 427.144531 278.066406 427.574219 C 278.390625 427.738281 278.722656 427.878906 279.066406 427.984375 C 279.714844 428.179688 280.390625 428.242188 281.066406 428.207031 C 282.117188 428.15625 283.144531 427.871094 284.066406 427.367188 C 284.816406 426.953125 285.480469 426.40625 286.066406 425.78125 C 286.886719 424.902344 287.546875 423.886719 288.066406 422.804688 C 288.511719 421.875 288.855469 420.894531 289.054688 419.882813 C 289.183594 419.222656 289.253906 418.554688 289.234375 417.882813 C 289.210938 417.203125 289.101563 416.53125 288.886719 415.882813 C 288.6875 415.285156 288.40625 414.71875 288.066406 414.191406 C 287.78125 413.75 287.453125 413.332031 287.066406 412.976563 C 286.488281 412.449219 285.796875 412.070313 285.066406 411.789063 C 284.109375 411.417969 283.09375 411.210938 282.066406 411.179688 C 281.042969 411.152344 280.011719 411.296875 279.066406 411.695313 C 278.925781 411.753906 278.785156 411.820313 278.644531 411.882813 Z M 278.644531 411.882813 " transform="matrix(1,0,0,-1,-222,466)"/>
<path style="fill-rule:nonzero;fill:rgb(99.6%,92.1%,82.7%);fill-opacity:1;stroke-width:0.59;stroke-linecap:butt;stroke-linejoin:miter;stroke:rgb(0%,0%,0%);stroke-opacity:1;stroke-miterlimit:10;" d="M 367.570313 425.882813 C 366.683594 426.171875 365.820313 426.542969 365.066406 427.09375 C 364.40625 427.578125 363.847656 428.191406 363.410156 428.882813 C 363.019531 429.5 362.722656 430.171875 362.570313 430.882813 C 362.496094 431.210938 362.457031 431.546875 362.449219 431.882813 C 362.433594 432.570313 362.5625 433.25 362.820313 433.882813 C 363.128906 434.640625 363.617188 435.304688 364.195313 435.882813 C 364.558594 436.25 364.960938 436.582031 365.382813 436.882813 C 366.222656 437.488281 367.136719 437.984375 368.066406 438.433594 C 369.027344 438.902344 370.015625 439.328125 371.066406 439.515625 C 371.726563 439.636719 372.402344 439.660156 373.066406 439.558594 C 373.40625 439.507813 373.742188 439.421875 374.066406 439.300781 C 374.828125 439.019531 375.511719 438.554688 376.066406 437.960938 C 376.46875 437.53125 376.800781 437.039063 377.066406 436.515625 C 377.484375 435.695313 377.746094 434.800781 377.816406 433.882813 C 377.890625 432.863281 377.726563 431.839844 377.367188 430.882813 C 377.097656 430.164063 376.71875 429.488281 376.246094 428.882813 C 375.96875 428.527344 375.65625 428.191406 375.324219 427.882813 C 374.652344 427.261719 373.894531 426.734375 373.066406 426.347656 C 372.125 425.90625 371.105469 425.648438 370.066406 425.578125 C 369.394531 425.535156 368.71875 425.570313 368.066406 425.734375 C 367.898438 425.777344 367.734375 425.828125 367.570313 425.882813 Z M 367.570313 425.882813 " transform="matrix(1,0,0,-1,-222,466)"/>
<path style="fill-rule:nonzero;fill:rgb(99.6%,92.1%,82.7%);fill-opacity:1;stroke-width:0.59;stroke-linecap:butt;stroke-linejoin:miter;stroke:rgb(0%,0%,0%);stroke-opacity:1;stroke-miterlimit:10;" d="M 452.105469 434.882813 C 451.394531 435.308594 450.703125 435.773438 450.066406 436.304688 C 449.167969 437.046875 448.378906 437.917969 447.722656 438.882813 C 447.101563 439.796875 446.601563 440.800781 446.375 441.882813 C 446.238281 442.542969 446.207031 443.21875 446.308594 443.882813 C 446.417969 444.617188 446.6875 445.316406 447.066406 445.949219 C 447.339844 446.410156 447.667969 446.832031 448.066406 447.183594 C 448.390625 447.46875 448.753906 447.699219 449.140625 447.882813 C 450.050781 448.316406 451.0625 448.488281 452.066406 448.410156 C 453.117188 448.332031 454.128906 447.988281 455.066406 447.507813 C 456.363281 446.84375 457.515625 445.9375 458.515625 444.882813 C 459.097656 444.273438 459.625 443.617188 460.066406 442.898438 C 460.453125 442.269531 460.773438 441.597656 460.960938 440.882813 C 461.222656 439.902344 461.230469 438.871094 460.988281 437.882813 C 460.808594 437.160156 460.5 436.476563 460.054688 435.882813 C 459.535156 435.203125 458.855469 434.664063 458.066406 434.332031 C 457.433594 434.066406 456.75 433.941406 456.066406 433.902344 C 455.042969 433.839844 454.007813 433.957031 453.066406 434.371094 C 452.734375 434.515625 452.417969 434.695313 452.105469 434.882813 Z M 452.105469 434.882813 " transform="matrix(1,0,0,-1,-222,466)"/>
<path style="fill-rule:nonzero;fill:rgb(90.5%,96%,85.8%);fill-opacity:1;stroke-width:0.59;stroke-linecap:butt;stroke-linejoin:miter;stroke:rgb(0%,0%,0%);stroke-opacity:1;stroke-miterlimit:10;" d="M 289.949219 314.882813 C 288.980469 315.433594 288.054688 316.0625 287.304688 316.882813 C 286.757813 317.476563 286.320313 318.15625 285.976563 318.882813 C 285.535156 319.828125 285.261719 320.84375 285.152344 321.882813 C 285.046875 322.894531 285.101563 323.917969 285.417969 324.882813 C 285.792969 326.023438 286.511719 327 287.320313 327.882813 C 287.84375 328.453125 288.414063 328.988281 289.066406 329.40625 C 289.386719 329.609375 289.722656 329.78125 290.066406 329.933594 C 291.015625 330.34375 292.03125 330.585938 293.066406 330.570313 C 293.402344 330.5625 293.738281 330.53125 294.066406 330.464844 C 294.773438 330.320313 295.441406 330.027344 296.066406 329.667969 C 296.925781 329.175781 297.707031 328.566406 298.421875 327.882813 C 299.339844 327.003906 300.140625 326.007813 300.734375 324.882813 C 301.226563 323.945313 301.5625 322.933594 301.683594 321.882813 C 301.800781 320.871094 301.710938 319.84375 301.371094 318.882813 C 301.085938 318.082031 300.632813 317.355469 300.066406 316.722656 C 299.242188 315.800781 298.207031 315.097656 297.066406 314.625 C 296.425781 314.359375 295.753906 314.167969 295.066406 314.066406 C 294.40625 313.964844 293.734375 313.953125 293.066406 314 C 292.023438 314.078125 290.988281 314.316406 290.066406 314.816406 C 290.027344 314.839844 289.988281 314.863281 289.949219 314.882813 Z M 289.949219 314.882813 " transform="matrix(1,0,0,-1,-222,466)"/>
<path style="fill-rule:nonzero;fill:rgb(90.5%,96%,85.8%);fill-opacity:1;stroke-width:0.59;stroke-linecap:butt;stroke-linejoin:miter;stroke:rgb(0%,0%,0%);stroke-opacity:1;stroke-miterlimit:10;" d="M 332.742188 317.882813 C 332.167969 318.164063 331.59375 318.453125 331.066406 318.816406 C 330.617188 319.125 330.207031 319.484375 329.835938 319.882813 C 329.027344 320.75 328.40625 321.773438 327.988281 322.882813 C 327.746094 323.527344 327.570313 324.199219 327.492188 324.882813 C 327.410156 325.546875 327.421875 326.21875 327.507813 326.882813 C 327.640625 327.933594 327.960938 328.953125 328.464844 329.882813 C 328.863281 330.621094 329.371094 331.292969 329.964844 331.882813 C 330.3125 332.226563 330.683594 332.539063 331.066406 332.84375 C 331.386719 333.09375 331.714844 333.339844 332.066406 333.546875 C 332.683594 333.90625 333.367188 334.132813 334.066406 334.28125 C 335.054688 334.492188 336.066406 334.550781 337.066406 334.433594 C 338.113281 334.316406 339.132813 334.003906 340.066406 333.515625 C 340.800781 333.132813 341.472656 332.644531 342.066406 332.070313 C 342.433594 331.714844 342.765625 331.328125 343.066406 330.917969 C 343.738281 330.003906 344.242188 328.980469 344.523438 327.882813 C 344.773438 326.90625 344.835938 325.886719 344.722656 324.882813 C 344.605469 323.835938 344.292969 322.820313 343.808594 321.882813 C 343.363281 321.019531 342.773438 320.238281 342.066406 319.566406 C 341.203125 318.746094 340.183594 318.109375 339.066406 317.699219 C 338.105469 317.34375 337.089844 317.167969 336.066406 317.160156 C 335.035156 317.148438 334.007813 317.3125 333.066406 317.730469 C 332.957031 317.78125 332.851563 317.832031 332.742188 317.882813 Z M 332.742188 317.882813 " transform="matrix(1,0,0,-1,-222,466)"/>
<path style="fill-rule:nonzero;fill:rgb(90.5%,96%,85.8%);fill-opacity:1;stroke-width:0.59;stroke-linecap:butt;stroke-linejoin:miter;stroke:rgb(0%,0%,0%);stroke-opacity:1;stroke-miterlimit:10;" d="M 363.550781 331.882813 C 363.054688 331.96875 362.550781 332.039063 362.066406 332.179688 C 361.351563 332.386719 360.6875 332.730469 360.066406 333.144531 C 358.992188 333.863281 358.066406 334.785156 357.382813 335.882813 C 356.8125 336.800781 356.425781 337.820313 356.238281 338.882813 C 356.0625 339.875 356.058594 340.890625 356.230469 341.882813 C 356.410156 342.945313 356.785156 343.964844 357.351563 344.882813 C 357.8125 345.632813 358.394531 346.296875 359.050781 346.882813 C 359.371094 347.167969 359.707031 347.4375 360.066406 347.671875 C 360.972656 348.273438 362 348.664063 363.066406 348.871094 C 364.054688 349.066406 365.070313 349.097656 366.066406 348.945313 C 367.125 348.78125 368.140625 348.414063 369.066406 347.878906 C 369.972656 347.359375 370.78125 346.691406 371.441406 345.882813 C 372.167969 345 372.691406 343.976563 373.023438 342.882813 C 373.316406 341.910156 373.453125 340.898438 373.398438 339.882813 C 373.34375 338.847656 373.089844 337.828125 372.660156 336.882813 C 372.332031 336.160156 371.90625 335.488281 371.394531 334.882813 C 371.09375 334.523438 370.761719 334.191406 370.40625 333.882813 C 369.988281 333.527344 369.539063 333.210938 369.066406 332.933594 C 368.4375 332.570313 367.765625 332.28125 367.066406 332.074219 C 366.09375 331.789063 365.074219 331.667969 364.066406 331.800781 C 363.894531 331.824219 363.722656 331.855469 363.550781 331.882813 Z M 363.550781 331.882813 " transform="matrix(1,0,0,-1,-222,466)"/>
<path style="fill-rule:nonzero;fill:rgb(90.5%,96%,85.8%);fill-opacity:1;stroke-width:0.59;stroke-linecap:butt;stroke-linejoin:miter;stroke:rgb(0%,0%,0%);stroke-opacity:1;stroke-miterlimit:10;" d="M 323.746094 340.882813 C 322.808594 341.191406 321.882813 341.558594 321.066406 342.117188 C 320.027344 342.828125 319.214844 343.808594 318.558594 344.882813 C 318.171875 345.515625 317.839844 346.179688 317.605469 346.882813 C 317.390625 347.53125 317.261719 348.207031 317.175781 348.882813 C 317.09375 349.546875 317.046875 350.214844 317.054688 350.882813 C 317.066406 351.558594 317.128906 352.234375 317.308594 352.882813 C 317.515625 353.617188 317.867188 354.304688 318.359375 354.882813 C 318.683594 355.265625 319.0625 355.59375 319.46875 355.882813 C 319.96875 356.238281 320.503906 356.539063 321.066406 356.777344 C 322.328125 357.300781 323.699219 357.492188 325.066406 357.441406 C 326.085938 357.40625 327.09375 357.238281 328.066406 356.933594 C 329.132813 356.597656 330.144531 356.105469 331.066406 355.472656 C 332.074219 354.785156 332.972656 353.929688 333.597656 352.882813 C 334.148438 351.972656 334.46875 350.945313 334.5625 349.882813 C 334.652344 348.871094 334.53125 347.855469 334.246094 346.882813 C 333.925781 345.796875 333.40625 344.785156 332.722656 343.882813 C 332 342.941406 331.109375 342.136719 330.066406 341.570313 C 329.136719 341.066406 328.113281 340.761719 327.066406 340.625 C 326.0625 340.488281 325.039063 340.503906 324.066406 340.785156 C 323.957031 340.816406 323.851563 340.847656 323.746094 340.882813 Z M 323.746094 340.882813 " transform="matrix(1,0,0,-1,-222,466)"/>
<path style="fill-rule:nonzero;fill:rgb(90.5%,96%,85.8%);fill-opacity:1;stroke-width:0.59;stroke-linecap:butt;stroke-linejoin:miter;stroke:rgb(0%,0%,0%);stroke-opacity:1;stroke-miterlimit:10;" d="M 305.75 355.882813 C 305.527344 356.097656 305.269531 356.277344 305.066406 356.507813 C 304.734375 356.890625 304.578125 357.386719 304.484375 357.882813 C 304.355469 358.542969 304.328125 359.214844 304.332031 359.882813 C 304.34375 361.421875 304.539063 362.960938 305.066406 364.40625 C 305.300781 365.050781 305.605469 365.675781 306.066406 366.183594 C 306.597656 366.773438 307.300781 367.167969 308.066406 367.363281 C 308.394531 367.445313 308.730469 367.488281 309.066406 367.5 C 309.753906 367.515625 310.433594 367.390625 311.066406 367.128906 C 311.738281 366.851563 312.339844 366.421875 312.832031 365.882813 C 313.355469 365.304688 313.742188 364.617188 314.015625 363.882813 C 314.261719 363.238281 314.417969 362.566406 314.507813 361.882813 C 314.597656 361.21875 314.625 360.546875 314.539063 359.882813 C 314.445313 359.179688 314.226563 358.496094 313.871094 357.882813 C 313.433594 357.125 312.800781 356.5 312.066406 356.023438 C 311.453125 355.625 310.777344 355.339844 310.066406 355.167969 C 309.414063 355.011719 308.738281 354.953125 308.066406 354.964844 C 307.347656 354.980469 306.605469 355.089844 306.066406 355.570313 C 305.957031 355.667969 305.859375 355.78125 305.75 355.882813 Z M 305.75 355.882813 " transform="matrix(1,0,0,-1,-222,466)"/>
<path style="fill-rule:nonzero;fill:rgb(90.5%,96%,85.8%);fill-opacity:1;stroke-width:0.59;stroke-linecap:butt;stroke-linejoin:miter;stroke:rgb(0%,0%,0%);stroke-opacity:1;stroke-miterlimit:10;" d="M 377.5625 355.882813 C 377.0625 355.960938 376.558594 356.03125 376.066406 356.164063 C 375.351563 356.363281 374.6875 356.699219 374.066406 357.101563 C 373.320313 357.589844 372.640625 358.179688 372.066406 358.867188 C 371.6875 359.324219 371.355469 359.820313 371.066406 360.339844 C 370.792969 360.832031 370.554688 361.347656 370.382813 361.882813 C 370.175781 362.53125 370.070313 363.203125 370.050781 363.882813 C 369.992188 365.898438 370.699219 367.875 370.507813 369.882813 C 370.441406 370.585938 370.261719 371.273438 369.910156 371.882813 C 369.410156 372.746094 368.613281 373.371094 367.761719 373.882813 C 365.949219 374.964844 363.890625 375.554688 362.066406 376.613281 C 360.953125 377.257813 359.945313 378.070313 359.066406 379.011719 C 358.53125 379.582031 358.039063 380.203125 357.652344 380.882813 C 357.292969 381.511719 357.023438 382.1875 356.828125 382.882813 C 356.648438 383.535156 356.539063 384.207031 356.515625 384.882813 C 356.492188 385.554688 356.554688 386.226563 356.691406 386.882813 C 356.835938 387.574219 357.0625 388.246094 357.371094 388.882813 C 357.796875 389.765625 358.371094 390.566406 359.066406 391.257813 C 359.660156 391.847656 360.332031 392.347656 361.066406 392.75 C 361.699219 393.097656 362.371094 393.367188 363.066406 393.566406 C 364.042969 393.839844 365.054688 393.972656 366.066406 393.988281 C 368.414063 394.019531 370.722656 393.4375 373.066406 393.386719 C 376.082031 393.320313 379.050781 394.128906 382.066406 394.070313 C 382.738281 394.054688 383.40625 394 384.066406 393.890625 C 385.179688 393.707031 386.261719 393.382813 387.273438 392.882813 C 387.839844 392.605469 388.378906 392.273438 388.875 391.882813 C 389.308594 391.542969 389.703125 391.15625 390.066406 390.742188 C 390.808594 389.894531 391.40625 388.933594 391.800781 387.882813 C 392.042969 387.238281 392.203125 386.566406 392.292969 385.882813 C 392.378906 385.21875 392.390625 384.550781 392.332031 383.882813 C 392.269531 383.203125 392.132813 382.535156 391.925781 381.882813 C 391.707031 381.1875 391.40625 380.515625 391.042969 379.882813 C 389.984375 378.042969 388.425781 376.558594 387.125 374.882813 C 386.648438 374.273438 386.203125 373.628906 385.992188 372.882813 C 385.808594 372.234375 385.816406 371.550781 385.902344 370.882813 C 386.171875 368.839844 387.1875 366.945313 387.304688 364.882813 C 387.339844 364.214844 387.28125 363.542969 387.160156 362.882813 C 387.035156 362.195313 386.847656 361.523438 386.5625 360.882813 C 386.195313 360.054688 385.679688 359.300781 385.066406 358.636719 C 384.480469 357.996094 383.808594 357.441406 383.066406 356.996094 C 382.441406 356.617188 381.765625 356.324219 381.066406 356.113281 C 380.09375 355.816406 379.074219 355.6875 378.066406 355.808594 C 377.898438 355.832031 377.730469 355.859375 377.5625 355.882813 Z M 377.5625 355.882813 " transform="matrix(1,0,0,-1,-222,466)"/>
<path style="fill-rule:nonzero;fill:rgb(90.5%,96%,85.8%);fill-opacity:1;stroke-width:0.59;stroke-linecap:butt;stroke-linejoin:miter;stroke:rgb(0%,0%,0%);stroke-opacity:1;stroke-miterlimit:10;" d="M 412.574219 380.882813 C 411.714844 381.042969 410.859375 381.242188 410.066406 381.605469 C 409.332031 381.945313 408.667969 382.417969 408.066406 382.960938 C 407.4375 383.527344 406.882813 384.167969 406.429688 384.882813 C 405.855469 385.796875 405.46875 386.820313 405.285156 387.882813 C 405.167969 388.542969 405.136719 389.214844 405.175781 389.882813 C 405.210938 390.558594 405.324219 391.230469 405.503906 391.882813 C 405.976563 393.613281 406.914063 395.175781 407.460938 396.882813 C 407.667969 397.535156 407.816406 398.203125 407.886719 398.882813 C 408.175781 401.566406 407.285156 404.199219 407.121094 406.882813 C 407.058594 407.882813 407.097656 408.890625 407.226563 409.882813 C 407.3125 410.5625 407.441406 411.234375 407.652344 411.882813 C 407.882813 412.589844 408.203125 413.257813 408.601563 413.882813 C 409.25 414.90625 410.089844 415.789063 411.066406 416.503906 C 411.6875 416.953125 412.359375 417.332031 413.066406 417.625 C 413.710938 417.890625 414.382813 418.085938 415.066406 418.207031 C 416.058594 418.378906 417.070313 418.398438 418.066406 418.257813 C 418.753906 418.160156 419.433594 417.984375 420.066406 417.699219 C 420.417969 417.542969 420.75 417.351563 421.066406 417.132813 C 421.84375 416.597656 422.5 415.917969 423.066406 415.164063 C 423.441406 414.667969 423.777344 414.140625 424.066406 413.589844 C 424.355469 413.042969 424.597656 412.476563 424.765625 411.882813 C 424.9375 411.273438 425.023438 410.644531 425.066406 410.011719 C 425.234375 407.625 424.796875 405.253906 424.472656 402.882813 C 424.335938 401.875 424.21875 400.855469 423.90625 399.882813 C 423.355469 398.152344 422.222656 396.648438 421.785156 394.882813 C 421.625 394.230469 421.5625 393.554688 421.5625 392.882813 C 421.554688 391.210938 421.902344 389.542969 421.691406 387.882813 C 421.554688 386.835938 421.203125 385.832031 420.742188 384.882813 C 420.390625 384.15625 419.976563 383.453125 419.398438 382.882813 C 419.003906 382.496094 418.546875 382.179688 418.066406 381.90625 C 417.433594 381.546875 416.765625 381.257813 416.066406 381.058594 C 415.09375 380.777344 414.070313 380.667969 413.066406 380.800781 C 412.902344 380.824219 412.738281 380.851563 412.574219 380.882813 Z M 412.574219 380.882813 " transform="matrix(1,0,0,-1,-222,466)"/>
<path style="fill-rule:nonzero;fill:rgb(90.5%,96%,85.8%);fill-opacity:1;stroke-width:0.59;stroke-linecap:butt;stroke-linejoin:miter;stroke:rgb(0%,0%,0%);stroke-opacity:1;stroke-miterlimit:10;" d="M 314.640625 392.882813 C 313.738281 393.371094 312.980469 394.074219 312.355469 394.882813 C 311.890625 395.480469 311.5 396.140625 311.359375 396.882813 C 311.296875 397.210938 311.285156 397.546875 311.300781 397.882813 C 311.332031 398.566406 311.46875 399.242188 311.714844 399.882813 C 311.996094 400.621094 312.414063 401.296875 312.945313 401.882813 C 313.546875 402.550781 314.277344 403.082031 315.066406 403.511719 C 316.007813 404.03125 317.023438 404.402344 318.066406 404.652344 C 319.050781 404.886719 320.054688 405.015625 321.066406 404.992188 C 322.105469 404.96875 323.140625 404.78125 324.066406 404.308594 C 324.738281 403.964844 325.332031 403.484375 325.789063 402.882813 C 326.234375 402.296875 326.539063 401.613281 326.652344 400.882813 C 326.804688 399.867188 326.574219 398.84375 326.214844 397.882813 C 325.808594 396.796875 325.246094 395.773438 324.5 394.882813 C 324.078125 394.378906 323.605469 393.925781 323.066406 393.546875 C 322.171875 392.917969 321.140625 392.523438 320.066406 392.316406 C 319.078125 392.121094 318.066406 392.085938 317.066406 392.191406 C 316.382813 392.265625 315.699219 392.402344 315.066406 392.675781 C 314.921875 392.738281 314.78125 392.808594 314.640625 392.882813 Z M 314.640625 392.882813 " transform="matrix(1,0,0,-1,-222,466)"/>
<path style="fill-rule:nonzero;fill:rgb(93.7%,90.5%,94.9%);fill-opacity:1;stroke-width:0.59;stroke-linecap:butt;stroke-linejoin:miter;stroke:rgb(0%,0%,0%);stroke-opacity:1;stroke-miterlimit:10;" d="M 426.414063 354.882813 C 425.921875 355.128906 425.460938 355.4375 425.066406 355.824219 C 424.664063 356.222656 424.34375 356.691406 424.066406 357.183594 C 423.582031 358.046875 423.242188 358.980469 423.066406 359.953125 C 422.890625 360.921875 422.886719 361.914063 423.046875 362.882813 C 423.222656 363.945313 423.59375 364.960938 424.140625 365.882813 C 424.648438 366.738281 425.300781 367.5 426.066406 368.132813 C 426.949219 368.863281 427.96875 369.40625 429.066406 369.738281 C 430.039063 370.035156 431.054688 370.15625 432.066406 370.097656 C 433.101563 370.035156 434.117188 369.789063 435.066406 369.375 C 435.902344 369.011719 436.679688 368.527344 437.324219 367.882813 C 437.898438 367.3125 438.355469 366.632813 438.664063 365.882813 C 438.800781 365.558594 438.90625 365.226563 438.980469 364.882813 C 439.195313 363.890625 439.136719 362.863281 438.859375 361.882813 C 438.65625 361.179688 438.351563 360.511719 437.972656 359.882813 C 437.449219 359.003906 436.792969 358.207031 436.066406 357.488281 C 435.179688 356.609375 434.183594 355.839844 433.066406 355.277344 C 432.125 354.800781 431.113281 354.476563 430.066406 354.34375 C 429.058594 354.214844 428.027344 354.269531 427.066406 354.605469 C 426.84375 354.683594 426.625 354.777344 426.414063 354.882813 Z M 426.414063 354.882813 " transform="matrix(1,0,0,-1,-222,466)"/>
<path style="fill-rule:nonzero;fill:rgb(93.7%,90.5%,94.9%);fill-opacity:1;stroke-width:0.59;stroke-linecap:butt;stroke-linejoin:miter;stroke:rgb(0%,0%,0%);stroke-opacity:1;stroke-miterlimit:10;" d="M 430.183594 383.882813 C 429.78125 384.113281 429.40625 384.386719 429.066406 384.703125 C 428.683594 385.0625 428.351563 385.472656 428.066406 385.914063 C 427.59375 386.648438 427.25 387.460938 427.066406 388.320313 C 426.886719 389.160156 426.863281 390.027344 426.964844 390.882813 C 427.046875 391.574219 427.210938 392.257813 427.519531 392.882813 C 427.691406 393.242188 427.910156 393.574219 428.160156 393.882813 C 428.816406 394.710938 429.65625 395.367188 430.574219 395.882813 C 431.660156 396.496094 432.847656 396.910156 434.066406 397.1875 C 435.050781 397.414063 436.0625 397.550781 437.066406 397.417969 C 437.695313 397.335938 438.304688 397.148438 438.878906 396.882813 C 439.433594 396.628906 439.953125 396.296875 440.402344 395.882813 C 441.1875 395.160156 441.714844 394.210938 442.066406 393.207031 C 442.328125 392.457031 442.492188 391.675781 442.484375 390.882813 C 442.472656 389.835938 442.15625 388.820313 441.683594 387.882813 C 441.261719 387.050781 440.71875 386.289063 440.066406 385.621094 C 439.21875 384.75 438.199219 384.054688 437.066406 383.609375 C 436.109375 383.234375 435.09375 383.042969 434.066406 383.011719 C 433.046875 382.984375 432.023438 383.113281 431.066406 383.472656 C 430.761719 383.585938 430.46875 383.722656 430.183594 383.882813 Z M 430.183594 383.882813 " transform="matrix(1,0,0,-1,-222,466)"/>
<path style="fill-rule:nonzero;fill:rgb(89.4%,94.1%,96.4%);fill-opacity:1;stroke-width:0.59;stroke-linecap:butt;stroke-linejoin:miter;stroke:rgb(0%,0%,0%);stroke-opacity:1;stroke-miterlimit:10;" d="M 304.253906 326.882813 C 303.855469 327.089844 303.449219 327.285156 303.066406 327.523438 C 302.3125 327.988281 301.660156 328.59375 301.066406 329.25 C 300.277344 330.121094 299.585938 331.082031 299.066406 332.136719 C 298.640625 333.003906 298.335938 333.925781 298.226563 334.882813 C 298.109375 335.894531 298.214844 336.917969 298.53125 337.882813 C 298.644531 338.230469 298.785156 338.566406 298.964844 338.882813 C 299.257813 339.398438 299.644531 339.847656 300.066406 340.261719 C 300.929688 341.097656 301.941406 341.773438 303.066406 342.203125 C 303.710938 342.449219 304.382813 342.613281 305.066406 342.699219 C 305.730469 342.777344 306.402344 342.78125 307.066406 342.710938 C 308.117188 342.601563 309.140625 342.304688 310.066406 341.796875 C 310.808594 341.390625 311.472656 340.855469 312.066406 340.253906 C 312.761719 339.550781 313.355469 338.757813 313.820313 337.882813 C 314.3125 336.949219 314.648438 335.933594 314.761719 334.882813 C 314.871094 333.875 314.777344 332.859375 314.503906 331.882813 C 314.203125 330.796875 313.683594 329.78125 313 328.882813 C 312.457031 328.164063 311.8125 327.527344 311.066406 327.019531 C 310.75 326.804688 310.417969 326.617188 310.066406 326.472656 C 309.433594 326.210938 308.75 326.101563 308.066406 326.0625 C 307.046875 326.003906 306.011719 326.09375 305.066406 326.488281 C 304.789063 326.605469 304.523438 326.746094 304.253906 326.882813 Z M 304.253906 326.882813 " transform="matrix(1,0,0,-1,-222,466)"/>
<path style="fill-rule:nonzero;fill:rgb(89.4%,94.1%,96.4%);fill-opacity:1;stroke-width:0.59;stroke-linecap:butt;stroke-linejoin:miter;stroke:rgb(0%,0%,0%);stroke-opacity:1;stroke-miterlimit:10;" d="M 279.132813 332.882813 C 278.039063 333.074219 276.960938 333.402344 276.066406 334.0625 C 275.410156 334.546875 274.886719 335.1875 274.457031 335.882813 C 273.886719 336.804688 273.484375 337.820313 273.273438 338.882813 C 273.082031 339.871094 273.0625 340.882813 273.140625 341.882813 C 273.195313 342.558594 273.296875 343.230469 273.472656 343.882813 C 273.621094 344.4375 273.824219 344.972656 274.066406 345.492188 C 274.5625 346.546875 275.21875 347.519531 276.066406 348.320313 C 276.652344 348.871094 277.316406 349.332031 278.066406 349.621094 C 279.019531 349.992188 280.050781 350.0625 281.066406 350 C 282.097656 349.933594 283.117188 349.734375 284.066406 349.328125 C 284.789063 349.019531 285.457031 348.601563 286.066406 348.105469 C 286.421875 347.816406 286.757813 347.5 287.066406 347.15625 C 287.421875 346.761719 287.738281 346.335938 288.015625 345.882813 C 288.402344 345.257813 288.710938 344.585938 288.929688 343.882813 C 289.234375 342.914063 289.355469 341.898438 289.300781 340.882813 C 289.265625 340.203125 289.148438 339.523438 288.90625 338.882813 C 288.777344 338.535156 288.609375 338.203125 288.425781 337.882813 C 287.816406 336.828125 287.007813 335.902344 286.066406 335.128906 C 285.164063 334.386719 284.152344 333.792969 283.066406 333.359375 C 282.109375 332.976563 281.097656 332.726563 280.066406 332.773438 C 279.753906 332.789063 279.441406 332.832031 279.132813 332.882813 Z M 279.132813 332.882813 " transform="matrix(1,0,0,-1,-222,466)"/>
<path style="fill-rule:nonzero;fill:rgb(89.4%,94.1%,96.4%);fill-opacity:1;stroke-width:0.59;stroke-linecap:butt;stroke-linejoin:miter;stroke:rgb(0%,0%,0%);stroke-opacity:1;stroke-miterlimit:10;" d="M 228.761719 334.882813 C 227.742188 335.417969 226.78125 336.0625 225.976563 336.882813 C 225.398438 337.46875 224.914063 338.136719 224.566406 338.882813 C 224.359375 339.324219 224.207031 339.789063 224.066406 340.253906 C 223.90625 340.789063 223.765625 341.328125 223.695313 341.882813 C 223.613281 342.546875 223.636719 343.21875 223.730469 343.882813 C 223.882813 344.933594 224.214844 345.953125 224.722656 346.882813 C 225.304688 347.945313 226.105469 348.871094 227.066406 349.601563 C 227.960938 350.285156 228.980469 350.789063 230.066406 351.089844 C 231.042969 351.359375 232.058594 351.457031 233.066406 351.371094 C 234.109375 351.289063 235.128906 351.007813 236.066406 350.539063 C 236.921875 350.109375 237.691406 349.527344 238.402344 348.882813 C 239.371094 348.011719 240.238281 347.03125 240.855469 345.882813 C 241.191406 345.257813 241.449219 344.585938 241.5625 343.882813 C 241.617188 343.554688 241.636719 343.21875 241.628906 342.882813 C 241.597656 341.835938 241.261719 340.824219 240.800781 339.882813 C 240.257813 338.777344 239.539063 337.761719 238.671875 336.882813 C 237.910156 336.109375 237.039063 335.445313 236.066406 334.960938 C 235.128906 334.492188 234.109375 334.203125 233.066406 334.113281 C 232.398438 334.054688 231.730469 334.074219 231.066406 334.167969 C 230.375 334.261719 229.699219 334.433594 229.066406 334.730469 C 228.964844 334.78125 228.863281 334.832031 228.761719 334.882813 Z M 228.761719 334.882813 " transform="matrix(1,0,0,-1,-222,466)"/>
<path style="fill-rule:nonzero;fill:rgb(89.4%,94.1%,96.4%);fill-opacity:1;stroke-width:0.59;stroke-linecap:butt;stroke-linejoin:miter;stroke:rgb(0%,0%,0%);stroke-opacity:1;stroke-miterlimit:10;" d="M 252.042969 337.882813 C 251.355469 338.144531 250.683594 338.449219 250.066406 338.855469 C 249.25 339.390625 248.550781 340.089844 247.976563 340.882813 C 247.53125 341.5 247.160156 342.167969 246.914063 342.882813 C 246.800781 343.207031 246.714844 343.542969 246.671875 343.882813 C 246.59375 344.554688 246.695313 345.234375 246.890625 345.882813 C 247.21875 346.980469 247.796875 347.976563 248.496094 348.882813 C 248.957031 349.480469 249.472656 350.039063 250.066406 350.503906 C 250.378906 350.746094 250.714844 350.964844 251.066406 351.152344 C 251.691406 351.476563 252.371094 351.695313 253.066406 351.8125 C 254.078125 351.980469 255.125 351.925781 256.066406 351.523438 C 256.898438 351.167969 257.597656 350.558594 258.066406 349.78125 C 258.417969 349.203125 258.625 348.550781 258.730469 347.882813 C 258.882813 346.890625 258.804688 345.878906 258.683594 344.882813 C 258.550781 343.785156 258.367188 342.695313 258.066406 341.632813 C 257.84375 340.839844 257.550781 340.058594 257.066406 339.390625 C 256.789063 339.007813 256.457031 338.671875 256.066406 338.40625 C 255.472656 337.996094 254.78125 337.773438 254.066406 337.683594 C 253.390625 337.597656 252.703125 337.636719 252.066406 337.875 C 252.058594 337.878906 252.050781 337.878906 252.042969 337.882813 Z M 252.042969 337.882813 " transform="matrix(1,0,0,-1,-222,466)"/>
<path style="fill-rule:nonzero;fill:rgb(89.4%,94.1%,96.4%);fill-opacity:1;stroke-width:0.59;stroke-linecap:butt;stroke-linejoin:miter;stroke:rgb(0%,0%,0%);stroke-opacity:1;stroke-miterlimit:10;" d="M 438.867188 341.882813 C 438.261719 342.105469 437.691406 342.425781 437.234375 342.882813 C 436.949219 343.171875 436.710938 343.511719 436.546875 343.882813 C 436.265625 344.511719 436.191406 345.214844 436.363281 345.882813 C 436.453125 346.242188 436.613281 346.578125 436.820313 346.882813 C 437.085938 347.28125 437.421875 347.621094 437.820313 347.882813 C 438.492188 348.320313 439.285156 348.496094 440.066406 348.65625 C 441.058594 348.855469 442.058594 349.03125 443.066406 349.109375 C 443.75 349.164063 444.449219 349.167969 445.074219 348.882813 C 445.476563 348.699219 445.820313 348.40625 446.066406 348.03125 C 446.292969 347.691406 446.425781 347.292969 446.4375 346.882813 C 446.460938 346.152344 446.113281 345.476563 445.6875 344.882813 C 445.226563 344.246094 444.679688 343.679688 444.066406 343.191406 C 443.460938 342.707031 442.792969 342.300781 442.066406 342.023438 C 441.429688 341.78125 440.75 341.640625 440.066406 341.660156 C 439.726563 341.667969 439.390625 341.714844 439.066406 341.816406 C 439 341.835938 438.933594 341.859375 438.867188 341.882813 Z M 438.867188 341.882813 " transform="matrix(1,0,0,-1,-222,466)"/>
<path style="fill-rule:nonzero;fill:rgb(89.4%,94.1%,96.4%);fill-opacity:1;stroke-width:0.59;stroke-linecap:butt;stroke-linejoin:miter;stroke:rgb(0%,0%,0%);stroke-opacity:1;stroke-miterlimit:10;" d="M 298.070313 356.882813 C 297.644531 357.167969 297.25 357.492188 296.917969 357.882813 C 296.433594 358.460938 296.113281 359.152344 295.9375 359.882813 C 295.855469 360.210938 295.804688 360.546875 295.796875 360.882813 C 295.777344 361.570313 295.933594 362.25 296.203125 362.882813 C 296.519531 363.628906 296.988281 364.300781 297.554688 364.882813 C 298.007813 365.351563 298.523438 365.757813 299.066406 366.117188 C 299.6875 366.53125 300.351563 366.886719 301.066406 367.101563 C 301.71875 367.304688 302.410156 367.386719 303.066406 367.195313 C 303.445313 367.085938 303.796875 366.882813 304.066406 366.59375 C 304.496094 366.132813 304.671875 365.507813 304.738281 364.882813 C 304.8125 364.21875 304.765625 363.546875 304.699219 362.882813 C 304.582031 361.722656 304.398438 360.566406 304.066406 359.445313 C 303.851563 358.714844 303.570313 357.992188 303.066406 357.417969 C 302.785156 357.097656 302.441406 356.835938 302.066406 356.628906 C 301.753906 356.457031 301.417969 356.320313 301.066406 356.242188 C 300.402344 356.085938 299.707031 356.128906 299.066406 356.363281 C 298.714844 356.492188 298.382813 356.675781 298.070313 356.882813 Z M 298.070313 356.882813 " transform="matrix(1,0,0,-1,-222,466)"/>
<path style="fill-rule:nonzero;fill:rgb(89.4%,94.1%,96.4%);fill-opacity:1;stroke-width:0.59;stroke-linecap:butt;stroke-linejoin:miter;stroke:rgb(0%,0%,0%);stroke-opacity:1;stroke-miterlimit:10;" d="M 259.203125 365.882813 C 258.820313 365.996094 258.4375 366.105469 258.066406 366.253906 C 257.332031 366.550781 256.671875 366.992188 256.066406 367.503906 C 255.578125 367.917969 255.125 368.378906 254.726563 368.882813 C 254.246094 369.492188 253.847656 370.164063 253.554688 370.882813 C 253.160156 371.839844 252.964844 372.859375 252.839844 373.882813 C 252.679688 375.210938 252.636719 376.546875 252.574219 377.882813 C 252.542969 378.527344 252.492188 379.203125 252.066406 379.6875 C 251.804688 379.988281 251.4375 380.164063 251.066406 380.3125 C 249.769531 380.839844 248.386719 381.121094 247.066406 381.585938 C 246 381.960938 244.976563 382.453125 244.066406 383.117188 C 243.382813 383.621094 242.769531 384.210938 242.253906 384.882813 C 241.5625 385.777344 241.054688 386.796875 240.753906 387.882813 C 240.570313 388.535156 240.46875 389.207031 240.449219 389.882813 C 240.425781 390.554688 240.484375 391.226563 240.625 391.882813 C 240.769531 392.578125 241.003906 393.246094 241.316406 393.882813 C 241.753906 394.785156 242.347656 395.609375 243.066406 396.308594 C 243.660156 396.886719 244.335938 397.375 245.066406 397.769531 C 245.699219 398.113281 246.367188 398.382813 247.066406 398.554688 C 247.722656 398.710938 248.394531 398.777344 249.066406 398.78125 C 249.738281 398.78125 250.410156 398.726563 251.066406 398.574219 C 251.765625 398.414063 252.433594 398.148438 253.066406 397.8125 C 253.570313 397.542969 254.050781 397.234375 254.496094 396.882813 C 254.882813 396.582031 255.242188 396.25 255.566406 395.882813 C 256.101563 395.28125 256.539063 394.601563 256.902344 393.882813 C 257.21875 393.25 257.480469 392.582031 257.597656 391.882813 C 258.003906 389.503906 256.832031 386.796875 258.421875 384.882813 C 258.785156 384.449219 259.261719 384.128906 259.773438 383.882813 C 260.8125 383.390625 261.964844 383.21875 263.066406 382.902344 C 264.125 382.597656 265.140625 382.15625 266.066406 381.558594 C 266.808594 381.082031 267.484375 380.503906 268.066406 379.839844 C 268.828125 378.976563 269.425781 377.976563 269.785156 376.882813 C 270.105469 375.917969 270.234375 374.902344 270.203125 373.882813 C 270.179688 373.207031 270.085938 372.535156 269.902344 371.882813 C 269.707031 371.183594 269.414063 370.511719 269.046875 369.882813 C 268.765625 369.390625 268.4375 368.921875 268.066406 368.492188 C 267.761719 368.136719 267.425781 367.808594 267.066406 367.507813 C 266.460938 367 265.789063 366.578125 265.066406 366.257813 C 264.121094 365.835938 263.101563 365.59375 262.066406 365.527344 C 261.398438 365.480469 260.722656 365.511719 260.066406 365.652344 C 259.777344 365.714844 259.488281 365.800781 259.203125 365.882813 Z M 259.203125 365.882813 " transform="matrix(1,0,0,-1,-222,466)"/>
<path style="fill-rule:nonzero;fill:rgb(89.4%,94.1%,96.4%);fill-opacity:1;stroke-width:0.59;stroke-linecap:butt;stroke-linejoin:miter;stroke:rgb(0%,0%,0%);stroke-opacity:1;stroke-miterlimit:10;" d="M 320.5 375.882813 C 320.019531 375.929688 319.535156 375.972656 319.066406 376.105469 C 318.507813 376.265625 317.996094 376.550781 317.519531 376.882813 C 316.988281 377.253906 316.503906 377.683594 316.066406 378.164063 C 315.59375 378.6875 315.183594 379.261719 314.851563 379.882813 C 314.351563 380.8125 314.03125 381.832031 313.992188 382.882813 C 313.949219 383.921875 314.179688 384.953125 314.636719 385.882813 C 315 386.621094 315.5 387.285156 316.066406 387.882813 C 316.414063 388.246094 316.789063 388.589844 317.199219 388.882813 C 319.265625 390.363281 322.023438 390.492188 324.066406 392.003906 C 325.746094 393.246094 326.664063 395.222656 328.066406 396.761719 C 328.652344 397.402344 329.316406 397.964844 330.066406 398.402344 C 330.691406 398.765625 331.363281 399.035156 332.066406 399.203125 C 332.722656 399.363281 333.394531 399.433594 334.066406 399.40625 C 335.125 399.363281 336.167969 399.078125 337.066406 398.515625 C 337.746094 398.089844 338.316406 397.515625 338.8125 396.882813 C 339.289063 396.265625 339.695313 395.59375 340.015625 394.882813 C 340.304688 394.242188 340.523438 393.574219 340.648438 392.882813 C 340.765625 392.222656 340.792969 391.550781 340.75 390.882813 C 340.703125 390.203125 340.574219 389.535156 340.371094 388.882813 C 340.152344 388.1875 339.847656 387.523438 339.492188 386.882813 C 339.300781 386.539063 339.09375 386.199219 338.855469 385.882813 C 338.359375 385.214844 337.738281 384.648438 337.066406 384.15625 C 335.515625 383.023438 333.699219 382.316406 332.066406 381.308594 C 330.320313 380.234375 328.804688 378.824219 327.066406 377.734375 C 326.125 377.144531 325.121094 376.652344 324.066406 376.300781 C 323.097656 375.976563 322.085938 375.777344 321.066406 375.835938 C 320.878906 375.84375 320.691406 375.867188 320.5 375.882813 Z M 320.5 375.882813 " transform="matrix(1,0,0,-1,-222,466)"/>
<path style="fill-rule:nonzero;fill:rgb(89.4%,94.1%,96.4%);fill-opacity:1;stroke-width:0.59;stroke-linecap:butt;stroke-linejoin:miter;stroke:rgb(0%,0%,0%);stroke-opacity:1;stroke-miterlimit:10;" d="M 426.769531 397.882813 C 426.449219 398.179688 426.164063 398.511719 425.9375 398.882813 C 425.574219 399.492188 425.394531 400.183594 425.304688 400.882813 C 425.21875 401.546875 425.21875 402.21875 425.277344 402.882813 C 425.335938 403.558594 425.457031 404.230469 425.648438 404.882813 C 425.953125 405.910156 426.433594 406.875 427.066406 407.738281 C 427.632813 408.507813 428.3125 409.183594 429.066406 409.773438 C 429.558594 410.15625 430.078125 410.496094 430.566406 410.882813 C 430.914063 411.160156 431.25 411.46875 431.410156 411.882813 C 431.53125 412.203125 431.53125 412.546875 431.488281 412.882813 C 431.238281 414.796875 429.691406 416.183594 428.816406 417.882813 C 428.335938 418.820313 428.066406 419.847656 427.882813 420.882813 C 427.765625 421.542969 427.683594 422.210938 427.707031 422.882813 C 427.75 424.296875 428.25 425.640625 428.917969 426.882813 C 429.289063 427.578125 429.710938 428.238281 430.160156 428.882813 C 431.949219 431.449219 434.144531 433.695313 436.066406 436.160156 C 436.375 436.554688 436.679688 436.957031 437.066406 437.273438 C 437.371094 437.523438 437.714844 437.710938 438.066406 437.882813 C 438.707031 438.199219 439.371094 438.464844 440.066406 438.625 C 441.050781 438.855469 442.070313 438.871094 443.066406 438.699219 C 443.757813 438.578125 444.429688 438.371094 445.066406 438.074219 C 445.78125 437.738281 446.441406 437.296875 447.066406 436.816406 C 448.148438 435.976563 449.128906 435.007813 449.910156 433.882813 C 450.347656 433.257813 450.71875 432.59375 450.996094 431.882813 C 451.371094 430.925781 451.566406 429.910156 451.535156 428.882813 C 451.511719 428.203125 451.386719 427.535156 451.195313 426.882813 C 450.988281 426.195313 450.707031 425.53125 450.394531 424.882813 C 448.882813 421.734375 446.707031 418.933594 443.878906 416.882813 C 441.527344 415.183594 438.730469 413.992188 437.066406 411.597656 C 436.910156 411.375 436.769531 411.140625 436.675781 410.882813 C 436.195313 409.53125 437.167969 408.234375 437.597656 406.882813 C 437.90625 405.917969 437.921875 404.890625 437.824219 403.882813 C 437.757813 403.199219 437.636719 402.519531 437.375 401.882813 C 437.230469 401.53125 437.042969 401.195313 436.828125 400.882813 C 436.257813 400.0625 435.488281 399.40625 434.636719 398.882813 C 433.832031 398.386719 432.957031 398.019531 432.066406 397.699219 C 431.097656 397.351563 430.097656 397.066406 429.066406 397.066406 C 428.355469 397.066406 427.640625 397.210938 427.066406 397.632813 C 426.960938 397.707031 426.863281 397.792969 426.769531 397.882813 Z M 426.769531 397.882813 " transform="matrix(1,0,0,-1,-222,466)"/>
<path style="fill-rule:nonzero;fill:rgb(89.4%,94.1%,96.4%);fill-opacity:1;stroke-width:0.59;stroke-linecap:butt;stroke-linejoin:miter;stroke:rgb(0%,0%,0%);stroke-opacity:1;stroke-miterlimit:10;" d="M 311.78125 406.882813 C 310.5 407.214844 309.253906 407.667969 308.066406 408.25 C 307.367188 408.59375 306.683594 408.984375 306.066406 409.464844 C 303.710938 411.289063 302.453125 414.214844 300.066406 416.003906 C 298.546875 417.136719 296.699219 417.710938 295.066406 418.671875 C 294.351563 419.09375 293.683594 419.589844 293.066406 420.148438 C 292.488281 420.671875 291.957031 421.25 291.496094 421.882813 C 290.914063 422.683594 290.453125 423.5625 290.066406 424.472656 C 289.738281 425.25 289.460938 426.050781 289.3125 426.882813 C 289.195313 427.542969 289.15625 428.214844 289.195313 428.882813 C 289.234375 429.566406 289.351563 430.238281 289.574219 430.882813 C 289.824219 431.609375 290.207031 432.277344 290.675781 432.882813 C 291.070313 433.394531 291.527344 433.859375 292.066406 434.21875 C 292.675781 434.625 293.363281 434.886719 294.066406 435.082031 C 294.71875 435.265625 295.390625 435.398438 296.066406 435.433594 C 296.738281 435.472656 297.410156 435.421875 298.066406 435.292969 C 298.757813 435.15625 299.425781 434.9375 300.066406 434.644531 C 300.777344 434.316406 301.445313 433.902344 302.066406 433.425781 C 303.921875 431.996094 305.34375 430.023438 307.398438 428.882813 C 309.75 427.578125 312.558594 427.554688 315.066406 426.605469 C 316.121094 426.207031 317.105469 425.648438 318.066406 425.054688 C 320.011719 423.855469 321.871094 422.511719 323.472656 420.882813 C 324.351563 419.992188 325.152344 419.015625 325.691406 417.882813 C 326.136719 416.945313 326.390625 415.921875 326.390625 414.882813 C 326.390625 414.550781 326.363281 414.214844 326.320313 413.882813 C 326.191406 412.835938 325.910156 411.808594 325.40625 410.882813 C 324.996094 410.121094 324.4375 409.449219 323.78125 408.882813 C 322.980469 408.199219 322.050781 407.695313 321.066406 407.324219 C 320.097656 406.960938 319.089844 406.726563 318.066406 406.578125 C 317.074219 406.429688 316.070313 406.363281 315.066406 406.398438 C 314.054688 406.433594 313.050781 406.578125 312.066406 406.8125 C 311.972656 406.835938 311.878906 406.859375 311.78125 406.882813 Z M 311.78125 406.882813 " transform="matrix(1,0,0,-1,-222,466)"/>
<path style="fill-rule:nonzero;fill:rgb(89.4%,94.1%,96.4%);fill-opacity:1;stroke-width:0.59;stroke-linecap:butt;stroke-linejoin:miter;stroke:rgb(0%,0%,0%);stroke-opacity:1;stroke-miterlimit:10;" d="M 335.734375 416.882813 C 334.804688 417.324219 333.882813 417.785156 333.066406 418.410156 C 332.515625 418.832031 332.023438 419.324219 331.613281 419.882813 C 331.171875 420.488281 330.835938 421.164063 330.625 421.882813 C 330.4375 422.535156 330.351563 423.207031 330.328125 423.882813 C 330.273438 425.234375 330.449219 426.582031 330.804688 427.882813 C 331.457031 430.28125 332.714844 432.472656 333.3125 434.882813 C 334.042969 437.820313 333.757813 440.90625 334.28125 443.882813 C 334.40625 444.605469 334.546875 445.390625 334.066406 445.933594 C 333.8125 446.222656 333.4375 446.355469 333.066406 446.460938 C 331.75 446.839844 330.382813 447.003906 329.066406 447.386719 C 328.382813 447.589844 327.714844 447.847656 327.066406 448.152344 C 326.363281 448.476563 325.683594 448.847656 325.066406 449.316406 C 324.152344 450.003906 323.394531 450.878906 322.839844 451.882813 C 322.492188 452.515625 322.226563 453.191406 322.03125 453.882813 C 321.84375 454.535156 321.71875 455.207031 321.695313 455.882813 C 321.671875 456.554688 321.746094 457.226563 321.882813 457.882813 C 322.027344 458.574219 322.238281 459.246094 322.542969 459.882813 C 322.925781 460.691406 323.449219 461.421875 324.066406 462.070313 C 324.65625 462.691406 325.328125 463.226563 326.066406 463.664063 C 326.695313 464.03125 327.363281 464.320313 328.066406 464.511719 C 328.71875 464.683594 329.390625 464.769531 330.066406 464.792969 C 330.738281 464.8125 331.410156 464.773438 332.066406 464.640625 C 332.761719 464.503906 333.429688 464.261719 334.066406 463.949219 C 335.105469 463.4375 336.039063 462.738281 336.820313 461.882813 C 337.609375 461.015625 338.226563 460.003906 338.578125 458.882813 C 338.78125 458.234375 338.890625 457.558594 338.96875 456.882813 C 339.078125 455.886719 339.113281 454.882813 339.042969 453.882813 C 338.972656 452.882813 338.796875 451.886719 338.765625 450.882813 C 338.75 450.398438 338.773438 449.890625 339.066406 449.5 C 339.304688 449.183594 339.667969 449.011719 340.042969 448.882813 C 341.015625 448.550781 342.058594 448.492188 343.066406 448.289063 C 344.109375 448.078125 345.117188 447.71875 346.066406 447.242188 C 346.847656 446.847656 347.585938 446.382813 348.308594 445.882813 C 348.753906 445.574219 349.195313 445.25 349.597656 444.882813 C 350.148438 444.378906 350.625 443.796875 351.066406 443.195313 C 351.371094 442.78125 351.664063 442.351563 351.878906 441.882813 C 352.167969 441.257813 352.316406 440.574219 352.316406 439.882813 C 352.3125 438.839844 351.976563 437.839844 351.566406 436.882813 C 350.703125 434.867188 349.496094 432.992188 348.878906 430.882813 C 348.210938 428.609375 348.269531 426.199219 347.78125 423.882813 C 347.558594 422.839844 347.226563 421.820313 346.710938 420.882813 C 346.519531 420.535156 346.304688 420.203125 346.070313 419.882813 C 345.503906 419.113281 344.835938 418.425781 344.066406 417.855469 C 343.167969 417.191406 342.152344 416.703125 341.066406 416.433594 C 340.085938 416.191406 339.070313 416.136719 338.066406 416.238281 C 337.378906 416.308594 336.699219 416.457031 336.066406 416.730469 C 335.953125 416.777344 335.84375 416.832031 335.734375 416.882813 Z M 335.734375 416.882813 " transform="matrix(1,0,0,-1,-222,466)"/>
<path style="fill-rule:nonzero;fill:rgb(89.4%,94.1%,96.4%);fill-opacity:1;stroke-width:0.59;stroke-linecap:butt;stroke-linejoin:miter;stroke:rgb(0%,0%,0%);stroke-opacity:1;stroke-miterlimit:10;" d="M 359.269531 437.882813 C 358.40625 438.394531 357.6875 439.105469 357.054688 439.882813 C 356.804688 440.195313 356.5625 440.515625 356.398438 440.882813 C 356.257813 441.199219 356.183594 441.539063 356.136719 441.882813 C 356.046875 442.550781 356.070313 443.226563 356.210938 443.882813 C 356.28125 444.226563 356.382813 444.558594 356.515625 444.882813 C 356.8125 445.609375 357.253906 446.257813 357.71875 446.882813 C 358.402344 447.800781 359.152344 448.683594 360.066406 449.371094 C 360.675781 449.832031 361.351563 450.195313 362.066406 450.46875 C 363.023438 450.832031 364.042969 451.023438 365.066406 451.015625 C 366.101563 451.007813 367.125 450.800781 368.066406 450.378906 C 368.804688 450.050781 369.480469 449.589844 370.066406 449.03125 C 370.441406 448.675781 370.777344 448.277344 371.066406 447.851563 C 371.476563 447.25 371.792969 446.589844 371.960938 445.882813 C 372.117188 445.226563 372.140625 444.550781 372.050781 443.882813 C 371.957031 443.179688 371.738281 442.496094 371.375 441.882813 C 370.898438 441.085938 370.207031 440.449219 369.472656 439.882813 C 368.140625 438.863281 366.652344 438.0625 365.066406 437.507813 C 364.097656 437.171875 363.089844 436.929688 362.066406 436.992188 C 361.375 437.035156 360.703125 437.214844 360.066406 437.484375 C 359.792969 437.601563 359.527344 437.734375 359.269531 437.882813 Z M 359.269531 437.882813 " transform="matrix(1,0,0,-1,-222,466)"/>
<path style="fill-rule:nonzero;fill:rgb(89.4%,94.1%,96.4%);fill-opacity:1;stroke-width:0.59;stroke-linecap:butt;stroke-linejoin:miter;stroke:rgb(0%,0%,0%);stroke-opacity:1;stroke-miterlimit:10;" d="M 429.003906 443.882813 C 427.976563 444.246094 426.957031 444.652344 426.066406 445.28125 C 425.105469 445.957031 424.332031 446.863281 423.75 447.882813 C 423.21875 448.8125 422.847656 449.828125 422.675781 450.882813 C 422.566406 451.542969 422.535156 452.214844 422.597656 452.882813 C 422.65625 453.566406 422.8125 454.234375 423.03125 454.882813 C 423.402344 455.980469 423.960938 457.007813 424.71875 457.882813 C 425.378906 458.652344 426.179688 459.285156 427.066406 459.777344 C 427.996094 460.289063 429.011719 460.632813 430.066406 460.777344 C 430.730469 460.863281 431.402344 460.871094 432.066406 460.808594 C 432.746094 460.75 433.417969 460.617188 434.066406 460.398438 C 435.1875 460.023438 436.203125 459.394531 437.066406 458.585938 C 437.890625 457.816406 438.558594 456.898438 439.042969 455.882813 C 439.496094 454.941406 439.789063 453.925781 439.867188 452.882813 C 439.9375 451.871094 439.804688 450.851563 439.492188 449.882813 C 439.152344 448.820313 438.605469 447.835938 438.023438 446.882813 C 437.738281 446.417969 437.445313 445.953125 437.066406 445.558594 C 436.769531 445.246094 436.425781 444.984375 436.066406 444.746094 C 435.746094 444.53125 435.414063 444.335938 435.066406 444.179688 C 434.433594 443.894531 433.753906 443.734375 433.066406 443.644531 C 432.402344 443.554688 431.734375 443.53125 431.066406 443.550781 C 430.390625 443.574219 429.707031 443.640625 429.066406 443.863281 C 429.042969 443.867188 429.023438 443.875 429.003906 443.882813 Z M 429.003906 443.882813 " transform="matrix(1,0,0,-1,-222,466)"/>
<path style="fill-rule:nonzero;fill:rgb(89.4%,94.1%,96.4%);fill-opacity:1;stroke-width:0.59;stroke-linecap:butt;stroke-linejoin:miter;stroke:rgb(0%,0%,0%);stroke-opacity:1;stroke-miterlimit:10;" d="M 461.527344 444.882813 C 460.441406 445.480469 459.367188 446.109375 458.398438 446.882813 C 457.355469 447.71875 456.445313 448.71875 455.785156 449.882813 C 455.261719 450.804688 454.898438 451.824219 454.847656 452.882813 C 454.8125 453.558594 454.90625 454.230469 455.070313 454.882813 C 455.15625 455.222656 455.257813 455.558594 455.390625 455.882813 C 455.703125 456.636719 456.171875 457.316406 456.757813 457.882813 C 457.417969 458.527344 458.210938 459.015625 459.066406 459.355469 C 460.023438 459.734375 461.039063 459.921875 462.066406 459.945313 C 462.738281 459.960938 463.410156 459.90625 464.066406 459.773438 C 464.761719 459.628906 465.429688 459.398438 466.066406 459.089844 C 466.792969 458.734375 467.472656 458.277344 468.066406 457.726563 C 468.894531 456.964844 469.554688 456.035156 470.066406 455.03125 C 470.257813 454.660156 470.429688 454.28125 470.558594 453.882813 C 470.773438 453.238281 470.878906 452.5625 470.917969 451.882813 C 470.972656 450.871094 470.878906 449.859375 470.601563 448.882813 C 470.398438 448.167969 470.097656 447.484375 469.660156 446.882813 C 469.390625 446.515625 469.070313 446.183594 468.726563 445.882813 C 468.222656 445.449219 467.667969 445.078125 467.066406 444.796875 C 466.433594 444.5 465.761719 444.300781 465.066406 444.210938 C 464.046875 444.078125 463 444.171875 462.066406 444.601563 C 461.882813 444.6875 461.703125 444.785156 461.527344 444.882813 Z M 461.527344 444.882813 " transform="matrix(1,0,0,-1,-222,466)"/>
<path style="fill-rule:nonzero;fill:rgb(98.8%,74.5%,43.1%);fill-opacity:1;stroke-width:0.827;stroke-linecap:butt;stroke-linejoin:miter;stroke:rgb(0%,0%,0%);stroke-opacity:1;stroke-miterlimit:10;" d="M 251.683594 319.132813 C 251.683594 317.992188 252.609375 317.066406 253.75 317.066406 C 254.894531 317.066406 255.820313 317.992188 255.820313 319.132813 C 255.820313 320.277344 254.894531 321.203125 253.75 321.203125 C 252.609375 321.203125 251.683594 320.277344 251.683594 319.132813 Z M 251.683594 319.132813 " transform="matrix(1,0,0,-1,-222,466)"/>
<path style="fill-rule:nonzero;fill:rgb(98.8%,74.5%,43.1%);fill-opacity:1;stroke-width:0.827;stroke-linecap:butt;stroke-linejoin:miter;stroke:rgb(0%,0%,0%);stroke-opacity:1;stroke-miterlimit:10;" d="M 259.714844 343.558594 C 259.714844 342.414063 260.640625 341.488281 261.785156 341.488281 C 262.925781 341.488281 263.851563 342.414063 263.851563 343.558594 C 263.851563 344.699219 262.925781 345.625 261.785156 345.625 C 260.640625 345.625 259.714844 344.699219 259.714844 343.558594 Z M 259.714844 343.558594 " transform="matrix(1,0,0,-1,-222,466)"/>
<path style="fill-rule:nonzero;fill:rgb(98.8%,74.5%,43.1%);fill-opacity:1;stroke-width:0.827;stroke-linecap:butt;stroke-linejoin:miter;stroke:rgb(0%,0%,0%);stroke-opacity:1;stroke-miterlimit:10;" d="M 447.792969 329.53125 C 447.792969 328.386719 448.71875 327.464844 449.863281 327.464844 C 451.003906 327.464844 451.929688 328.386719 451.929688 329.53125 C 451.929688 330.671875 451.003906 331.597656 449.863281 331.597656 C 448.71875 331.597656 447.792969 330.671875 447.792969 329.53125 Z M 447.792969 329.53125 " transform="matrix(1,0,0,-1,-222,466)"/>
<path style="fill-rule:nonzero;fill:rgb(98.8%,74.5%,43.1%);fill-opacity:1;stroke-width:0.827;stroke-linecap:butt;stroke-linejoin:miter;stroke:rgb(0%,0%,0%);stroke-opacity:1;stroke-miterlimit:10;" d="M 452.660156 328.105469 C 452.660156 326.964844 453.585938 326.039063 454.730469 326.039063 C 455.871094 326.039063 456.796875 326.964844 456.796875 328.105469 C 456.796875 329.25 455.871094 330.171875 454.730469 330.171875 C 453.585938 330.171875 452.660156 329.25 452.660156 328.105469 Z M 452.660156 328.105469 " transform="matrix(1,0,0,-1,-222,466)"/>
<path style="fill-rule:nonzero;fill:rgb(98.8%,74.5%,43.1%);fill-opacity:1;stroke-width:0.827;stroke-linecap:butt;stroke-linejoin:miter;stroke:rgb(0%,0%,0%);stroke-opacity:1;stroke-miterlimit:10;" d="M 451.652344 328.542969 C 451.652344 327.402344 452.578125 326.476563 453.722656 326.476563 C 454.863281 326.476563 455.789063 327.402344 455.789063 328.542969 C 455.789063 329.6875 454.863281 330.613281 453.722656 330.613281 C 452.578125 330.613281 451.652344 329.6875 451.652344 328.542969 Z M 451.652344 328.542969 " transform="matrix(1,0,0,-1,-222,466)"/>
<path style="fill-rule:nonzero;fill:rgb(98.8%,74.5%,43.1%);fill-opacity:1;stroke-width:0.827;stroke-linecap:butt;stroke-linejoin:miter;stroke:rgb(0%,0%,0%);stroke-opacity:1;stroke-miterlimit:10;" d="M 456.390625 339.050781 C 456.390625 337.910156 457.316406 336.984375 458.457031 336.984375 C 459.601563 336.984375 460.527344 337.910156 460.527344 339.050781 C 460.527344 340.195313 459.601563 341.121094 458.457031 341.121094 C 457.316406 341.121094 456.390625 340.195313 456.390625 339.050781 Z M 456.390625 339.050781 " transform="matrix(1,0,0,-1,-222,466)"/>
<path style="fill-rule:nonzero;fill:rgb(98.8%,74.5%,43.1%);fill-opacity:1;stroke-width:0.827;stroke-linecap:butt;stroke-linejoin:miter;stroke:rgb(0%,0%,0%);stroke-opacity:1;stroke-miterlimit:10;" d="M 446.785156 339.339844 C 446.785156 338.195313 447.710938 337.273438 448.855469 337.273438 C 449.996094 337.273438 450.921875 338.195313 450.921875 339.339844 C 450.921875 340.480469 449.996094 341.40625 448.855469 341.40625 C 447.710938 341.40625 446.785156 340.480469 446.785156 339.339844 Z M 446.785156 339.339844 " transform="matrix(1,0,0,-1,-222,466)"/>
<path style="fill-rule:nonzero;fill:rgb(98.8%,74.5%,43.1%);fill-opacity:1;stroke-width:0.827;stroke-linecap:butt;stroke-linejoin:miter;stroke:rgb(0%,0%,0%);stroke-opacity:1;stroke-miterlimit:10;" d="M 439.226563 350.820313 C 439.226563 349.679688 440.152344 348.753906 441.292969 348.753906 C 442.4375 348.753906 443.363281 349.679688 443.363281 350.820313 C 443.363281 351.964844 442.4375 352.890625 441.292969 352.890625 C 440.152344 352.890625 439.226563 351.964844 439.226563 350.820313 Z M 439.226563 350.820313 " transform="matrix(1,0,0,-1,-222,466)"/>
<path style="fill-rule:nonzero;fill:rgb(98.8%,74.5%,43.1%);fill-opacity:1;stroke-width:0.827;stroke-linecap:butt;stroke-linejoin:miter;stroke:rgb(0%,0%,0%);stroke-opacity:1;stroke-miterlimit:10;" d="M 465.105469 362.96875 C 465.105469 361.824219 466.03125 360.898438 467.175781 360.898438 C 468.316406 360.898438 469.242188 361.824219 469.242188 362.96875 C 469.242188 364.109375 468.316406 365.035156 467.175781 365.035156 C 466.03125 365.035156 465.105469 364.109375 465.105469 362.96875 Z M 465.105469 362.96875 " transform="matrix(1,0,0,-1,-222,466)"/>
<path style="fill-rule:nonzero;fill:rgb(98.8%,74.5%,43.1%);fill-opacity:1;stroke-width:0.827;stroke-linecap:butt;stroke-linejoin:miter;stroke:rgb(0%,0%,0%);stroke-opacity:1;stroke-miterlimit:10;" d="M 465.390625 376.523438 C 465.390625 375.378906 466.316406 374.453125 467.457031 374.453125 C 468.597656 374.453125 469.523438 375.378906 469.523438 376.523438 C 469.523438 377.664063 468.597656 378.589844 467.457031 378.589844 C 466.316406 378.589844 465.390625 377.664063 465.390625 376.523438 Z M 465.390625 376.523438 " transform="matrix(1,0,0,-1,-222,466)"/>
<path style="fill-rule:nonzero;fill:rgb(98.8%,74.5%,43.1%);fill-opacity:1;stroke-width:0.827;stroke-linecap:butt;stroke-linejoin:miter;stroke:rgb(0%,0%,0%);stroke-opacity:1;stroke-miterlimit:10;" d="M 289.777344 379.246094 C 289.777344 378.101563 290.703125 377.175781 291.84375 377.175781 C 292.988281 377.175781 293.914063 378.101563 293.914063 379.246094 C 293.914063 380.386719 292.988281 381.3125 291.84375 381.3125 C 290.703125 381.3125 289.777344 380.386719 289.777344 379.246094 Z M 289.777344 379.246094 " transform="matrix(1,0,0,-1,-222,466)"/>
<path style="fill-rule:nonzero;fill:rgb(98.8%,74.5%,43.1%);fill-opacity:1;stroke-width:0.827;stroke-linecap:butt;stroke-linejoin:miter;stroke:rgb(0%,0%,0%);stroke-opacity:1;stroke-miterlimit:10;" d="M 293.710938 372.625 C 293.710938 371.484375 294.636719 370.554688 295.78125 370.554688 C 296.921875 370.554688 297.847656 371.484375 297.847656 372.625 C 297.847656 373.765625 296.921875 374.691406 295.78125 374.691406 C 294.636719 374.691406 293.710938 373.765625 293.710938 372.625 Z M 293.710938 372.625 " transform="matrix(1,0,0,-1,-222,466)"/>
<path style="fill-rule:nonzero;fill:rgb(98.8%,74.5%,43.1%);fill-opacity:1;stroke-width:0.827;stroke-linecap:butt;stroke-linejoin:miter;stroke:rgb(0%,0%,0%);stroke-opacity:1;stroke-miterlimit:10;" d="M 331.875 369.003906 C 331.875 367.859375 332.800781 366.933594 333.941406 366.933594 C 335.085938 366.933594 336.011719 367.859375 336.011719 369.003906 C 336.011719 370.144531 335.085938 371.070313 333.941406 371.070313 C 332.800781 371.070313 331.875 370.144531 331.875 369.003906 Z M 331.875 369.003906 " transform="matrix(1,0,0,-1,-222,466)"/>
<path style="fill-rule:nonzero;fill:rgb(98.8%,74.5%,43.1%);fill-opacity:1;stroke-width:0.827;stroke-linecap:butt;stroke-linejoin:miter;stroke:rgb(0%,0%,0%);stroke-opacity:1;stroke-miterlimit:10;" d="M 388.054688 409.773438 C 388.054688 408.628906 388.980469 407.703125 390.121094 407.703125 C 391.265625 407.703125 392.191406 408.628906 392.191406 409.773438 C 392.191406 410.914063 391.265625 411.839844 390.121094 411.839844 C 388.980469 411.839844 388.054688 410.914063 388.054688 409.773438 Z M 388.054688 409.773438 " transform="matrix(1,0,0,-1,-222,466)"/>
<path style="fill-rule:nonzero;fill:rgb(98.8%,74.5%,43.1%);fill-opacity:1;stroke-width:0.827;stroke-linecap:butt;stroke-linejoin:miter;stroke:rgb(0%,0%,0%);stroke-opacity:1;stroke-miterlimit:10;" d="M 388.539063 409.664063 C 388.539063 408.519531 389.464844 407.59375 390.605469 407.59375 C 391.746094 407.59375 392.675781 408.519531 392.675781 409.664063 C 392.675781 410.804688 391.746094 411.730469 390.605469 411.730469 C 389.464844 411.730469 388.539063 410.804688 388.539063 409.664063 Z M 388.539063 409.664063 " transform="matrix(1,0,0,-1,-222,466)"/>
<path style="fill-rule:nonzero;fill:rgb(98.8%,74.5%,43.1%);fill-opacity:1;stroke-width:0.827;stroke-linecap:butt;stroke-linejoin:miter;stroke:rgb(0%,0%,0%);stroke-opacity:1;stroke-miterlimit:10;" d="M 451.648438 441.285156 C 451.648438 440.140625 452.574219 439.214844 453.71875 439.214844 C 454.859375 439.214844 455.785156 440.140625 455.785156 441.285156 C 455.785156 442.425781 454.859375 443.351563 453.71875 443.351563 C 452.574219 443.351563 451.648438 442.425781 451.648438 441.285156 Z M 451.648438 441.285156 " transform="matrix(1,0,0,-1,-222,466)"/>
<path style="fill-rule:nonzero;fill:rgb(98.8%,74.5%,43.1%);fill-opacity:1;stroke-width:0.827;stroke-linecap:butt;stroke-linejoin:miter;stroke:rgb(0%,0%,0%);stroke-opacity:1;stroke-miterlimit:10;" d="M 367.382813 434.210938 C 367.382813 433.070313 368.308594 432.144531 369.449219 432.144531 C 370.589844 432.144531 371.515625 433.070313 371.515625 434.210938 C 371.515625 435.355469 370.589844 436.28125 369.449219 436.28125 C 368.308594 436.28125 367.382813 435.355469 367.382813 434.210938 Z M 367.382813 434.210938 " transform="matrix(1,0,0,-1,-222,466)"/>
<path style="fill-rule:nonzero;fill:rgb(98.8%,74.5%,43.1%);fill-opacity:1;stroke-width:0.827;stroke-linecap:butt;stroke-linejoin:miter;stroke:rgb(0%,0%,0%);stroke-opacity:1;stroke-miterlimit:10;" d="M 279.882813 419.84375 C 279.882813 418.703125 280.808594 417.777344 281.953125 417.777344 C 283.09375 417.777344 284.019531 418.703125 284.019531 419.84375 C 284.019531 420.984375 283.09375 421.910156 281.953125 421.910156 C 280.808594 421.910156 279.882813 420.984375 279.882813 419.84375 Z M 279.882813 419.84375 " transform="matrix(1,0,0,-1,-222,466)"/>
<path style="fill-rule:nonzero;fill:rgb(69.4%,87%,53.7%);fill-opacity:1;stroke-width:0.827;stroke-linecap:butt;stroke-linejoin:miter;stroke:rgb(0%,0%,0%);stroke-opacity:1;stroke-miterlimit:10;" d="M 323.851563 349.21875 C 323.851563 348.078125 324.777344 347.152344 325.921875 347.152344 C 327.0625 347.152344 327.988281 348.078125 327.988281 349.21875 C 327.988281 350.363281 327.0625 351.289063 325.921875 351.289063 C 324.777344 351.289063 323.851563 350.363281 323.851563 349.21875 Z M 323.851563 349.21875 " transform="matrix(1,0,0,-1,-222,466)"/>
<path style="fill-rule:nonzero;fill:rgb(69.4%,87%,53.7%);fill-opacity:1;stroke-width:0.827;stroke-linecap:butt;stroke-linejoin:miter;stroke:rgb(0%,0%,0%);stroke-opacity:1;stroke-miterlimit:10;" d="M 304.683594 361.640625 C 304.683594 360.5 305.609375 359.574219 306.75 359.574219 C 307.894531 359.574219 308.820313 360.5 308.820313 361.640625 C 308.820313 362.785156 307.894531 363.710938 306.75 363.710938 C 305.609375 363.710938 304.683594 362.785156 304.683594 361.640625 Z M 304.683594 361.640625 " transform="matrix(1,0,0,-1,-222,466)"/>
<path style="fill-rule:nonzero;fill:rgb(69.4%,87%,53.7%);fill-opacity:1;stroke-width:0.827;stroke-linecap:butt;stroke-linejoin:miter;stroke:rgb(0%,0%,0%);stroke-opacity:1;stroke-miterlimit:10;" d="M 376.59375 364.425781 C 376.59375 363.28125 377.519531 362.355469 378.660156 362.355469 C 379.804688 362.355469 380.730469 363.28125 380.730469 364.425781 C 380.730469 365.566406 379.804688 366.492188 378.660156 366.492188 C 377.519531 366.492188 376.59375 365.566406 376.59375 364.425781 Z M 376.59375 364.425781 " transform="matrix(1,0,0,-1,-222,466)"/>
<path style="fill-rule:nonzero;fill:rgb(69.4%,87%,53.7%);fill-opacity:1;stroke-width:0.827;stroke-linecap:butt;stroke-linejoin:miter;stroke:rgb(0%,0%,0%);stroke-opacity:1;stroke-miterlimit:10;" d="M 373.769531 381.746094 C 373.769531 380.605469 374.695313 379.679688 375.835938 379.679688 C 376.980469 379.679688 377.90625 380.605469 377.90625 381.746094 C 377.90625 382.890625 376.980469 383.816406 375.835938 383.816406 C 374.695313 383.816406 373.769531 382.890625 373.769531 381.746094 Z M 373.769531 381.746094 " transform="matrix(1,0,0,-1,-222,466)"/>
<path style="fill-rule:nonzero;fill:rgb(69.4%,87%,53.7%);fill-opacity:1;stroke-width:0.827;stroke-linecap:butt;stroke-linejoin:miter;stroke:rgb(0%,0%,0%);stroke-opacity:1;stroke-miterlimit:10;" d="M 363.109375 385.152344 C 363.109375 384.007813 364.035156 383.082031 365.179688 383.082031 C 366.320313 383.082031 367.246094 384.007813 367.246094 385.152344 C 367.246094 386.292969 366.320313 387.21875 365.179688 387.21875 C 364.035156 387.21875 363.109375 386.292969 363.109375 385.152344 Z M 363.109375 385.152344 " transform="matrix(1,0,0,-1,-222,466)"/>
<path style="fill-rule:nonzero;fill:rgb(69.4%,87%,53.7%);fill-opacity:1;stroke-width:0.827;stroke-linecap:butt;stroke-linejoin:miter;stroke:rgb(0%,0%,0%);stroke-opacity:1;stroke-miterlimit:10;" d="M 381.578125 384.890625 C 381.578125 383.75 382.503906 382.824219 383.644531 382.824219 C 384.789063 382.824219 385.714844 383.75 385.714844 384.890625 C 385.714844 386.035156 384.789063 386.960938 383.644531 386.960938 C 382.503906 386.960938 381.578125 386.035156 381.578125 384.890625 Z M 381.578125 384.890625 " transform="matrix(1,0,0,-1,-222,466)"/>
<path style="fill-rule:nonzero;fill:rgb(69.4%,87%,53.7%);fill-opacity:1;stroke-width:0.827;stroke-linecap:butt;stroke-linejoin:miter;stroke:rgb(0%,0%,0%);stroke-opacity:1;stroke-miterlimit:10;" d="M 411.738281 389.40625 C 411.738281 388.265625 412.664063 387.339844 413.804688 387.339844 C 414.945313 387.339844 415.871094 388.265625 415.871094 389.40625 C 415.871094 390.550781 414.945313 391.472656 413.804688 391.472656 C 412.664063 391.472656 411.738281 390.550781 411.738281 389.40625 Z M 411.738281 389.40625 " transform="matrix(1,0,0,-1,-222,466)"/>
<path style="fill-rule:nonzero;fill:rgb(69.4%,87%,53.7%);fill-opacity:1;stroke-width:0.827;stroke-linecap:butt;stroke-linejoin:miter;stroke:rgb(0%,0%,0%);stroke-opacity:1;stroke-miterlimit:10;" d="M 414.339844 409.371094 C 414.339844 408.226563 415.265625 407.300781 416.40625 407.300781 C 417.550781 407.300781 418.476563 408.226563 418.476563 409.371094 C 418.476563 410.511719 417.550781 411.4375 416.40625 411.4375 C 415.265625 411.4375 414.339844 410.511719 414.339844 409.371094 Z M 414.339844 409.371094 " transform="matrix(1,0,0,-1,-222,466)"/>
<path style="fill-rule:nonzero;fill:rgb(69.4%,87%,53.7%);fill-opacity:1;stroke-width:0.827;stroke-linecap:butt;stroke-linejoin:miter;stroke:rgb(0%,0%,0%);stroke-opacity:1;stroke-miterlimit:10;" d="M 417.246094 403.332031 C 417.246094 402.1875 418.171875 401.261719 419.3125 401.261719 C 420.453125 401.261719 421.382813 402.1875 421.382813 403.332031 C 421.382813 404.472656 420.453125 405.398438 419.3125 405.398438 C 418.171875 405.398438 417.246094 404.472656 417.246094 403.332031 Z M 417.246094 403.332031 " transform="matrix(1,0,0,-1,-222,466)"/>
<path style="fill-rule:nonzero;fill:rgb(69.4%,87%,53.7%);fill-opacity:1;stroke-width:0.827;stroke-linecap:butt;stroke-linejoin:miter;stroke:rgb(0%,0%,0%);stroke-opacity:1;stroke-miterlimit:10;" d="M 317.78125 398.472656 C 317.78125 397.332031 318.707031 396.40625 319.847656 396.40625 C 320.992188 396.40625 321.914063 397.332031 321.914063 398.472656 C 321.914063 399.617188 320.992188 400.539063 319.847656 400.539063 C 318.707031 400.539063 317.78125 399.617188 317.78125 398.472656 Z M 317.78125 398.472656 " transform="matrix(1,0,0,-1,-222,466)"/>
<path style="fill-rule:nonzero;fill:rgb(78.8%,69.4%,83.5%);fill-opacity:1;stroke-width:0.827;stroke-linecap:butt;stroke-linejoin:miter;stroke:rgb(0%,0%,0%);stroke-opacity:1;stroke-miterlimit:10;" d="M 429.488281 361.460938 C 429.488281 360.316406 430.414063 359.390625 431.554688 359.390625 C 432.699219 359.390625 433.625 360.316406 433.625 361.460938 C 433.625 362.601563 432.699219 363.527344 431.554688 363.527344 C 430.414063 363.527344 429.488281 362.601563 429.488281 361.460938 Z M 429.488281 361.460938 " transform="matrix(1,0,0,-1,-222,466)"/>
<path style="fill-rule:nonzero;fill:rgb(78.8%,69.4%,83.5%);fill-opacity:1;stroke-width:0.827;stroke-linecap:butt;stroke-linejoin:miter;stroke:rgb(0%,0%,0%);stroke-opacity:1;stroke-miterlimit:10;" d="M 431.824219 391.660156 C 431.824219 390.515625 432.75 389.589844 433.894531 389.589844 C 435.035156 389.589844 435.960938 390.515625 435.960938 391.660156 C 435.960938 392.800781 435.035156 393.726563 433.894531 393.726563 C 432.75 393.726563 431.824219 392.800781 431.824219 391.660156 Z M 431.824219 391.660156 " transform="matrix(1,0,0,-1,-222,466)"/>
<path style="fill-rule:nonzero;fill:rgb(65%,80.3%,88.6%);fill-opacity:1;stroke-width:0.827;stroke-linecap:butt;stroke-linejoin:miter;stroke:rgb(0%,0%,0%);stroke-opacity:1;stroke-miterlimit:10;" d="M 259.496094 374.171875 C 259.496094 373.03125 260.421875 372.105469 261.5625 372.105469 C 262.707031 372.105469 263.632813 373.03125 263.632813 374.171875 C 263.632813 375.316406 262.707031 376.242188 261.5625 376.242188 C 260.421875 376.242188 259.496094 375.316406 259.496094 374.171875 Z M 259.496094 374.171875 " transform="matrix(1,0,0,-1,-222,466)"/>
<path style="fill-rule:nonzero;fill:rgb(65%,80.3%,88.6%);fill-opacity:1;stroke-width:0.827;stroke-linecap:butt;stroke-linejoin:miter;stroke:rgb(0%,0%,0%);stroke-opacity:1;stroke-miterlimit:10;" d="M 300.3125 362.296875 C 300.3125 361.15625 301.238281 360.230469 302.382813 360.230469 C 303.523438 360.230469 304.449219 361.15625 304.449219 362.296875 C 304.449219 363.441406 303.523438 364.367188 302.382813 364.367188 C 301.238281 364.367188 300.3125 363.441406 300.3125 362.296875 Z M 300.3125 362.296875 " transform="matrix(1,0,0,-1,-222,466)"/>
<path style="fill-rule:nonzero;fill:rgb(65%,80.3%,88.6%);fill-opacity:1;stroke-width:0.827;stroke-linecap:butt;stroke-linejoin:miter;stroke:rgb(0%,0%,0%);stroke-opacity:1;stroke-miterlimit:10;" d="M 247.042969 390.136719 C 247.042969 388.992188 247.96875 388.066406 249.113281 388.066406 C 250.253906 388.066406 251.179688 388.992188 251.179688 390.136719 C 251.179688 391.277344 250.253906 392.203125 249.113281 392.203125 C 247.96875 392.203125 247.042969 391.277344 247.042969 390.136719 Z M 247.042969 390.136719 " transform="matrix(1,0,0,-1,-222,466)"/>
<path style="fill-rule:nonzero;fill:rgb(65%,80.3%,88.6%);fill-opacity:1;stroke-width:0.827;stroke-linecap:butt;stroke-linejoin:miter;stroke:rgb(0%,0%,0%);stroke-opacity:1;stroke-miterlimit:10;" d="M 320.414063 383.941406 C 320.414063 382.800781 321.339844 381.875 322.484375 381.875 C 323.625 381.875 324.550781 382.800781 324.550781 383.941406 C 324.550781 385.085938 323.625 386.011719 322.484375 386.011719 C 321.339844 386.011719 320.414063 385.085938 320.414063 383.941406 Z M 320.414063 383.941406 " transform="matrix(1,0,0,-1,-222,466)"/>
<path style="fill-rule:nonzero;fill:rgb(65%,80.3%,88.6%);fill-opacity:1;stroke-width:0.827;stroke-linecap:butt;stroke-linejoin:miter;stroke:rgb(0%,0%,0%);stroke-opacity:1;stroke-miterlimit:10;" d="M 330.035156 391.4375 C 330.035156 390.296875 330.960938 389.371094 332.101563 389.371094 C 333.242188 389.371094 334.167969 390.296875 334.167969 391.4375 C 334.167969 392.582031 333.242188 393.503906 332.101563 393.503906 C 330.960938 393.503906 330.035156 392.582031 330.035156 391.4375 Z M 330.035156 391.4375 " transform="matrix(1,0,0,-1,-222,466)"/>
<path style="fill-rule:nonzero;fill:rgb(65%,80.3%,88.6%);fill-opacity:1;stroke-width:0.827;stroke-linecap:butt;stroke-linejoin:miter;stroke:rgb(0%,0%,0%);stroke-opacity:1;stroke-miterlimit:10;" d="M 315.558594 413.171875 C 315.558594 412.027344 316.484375 411.101563 317.625 411.101563 C 318.765625 411.101563 319.691406 412.027344 319.691406 413.171875 C 319.691406 414.3125 318.765625 415.238281 317.625 415.238281 C 316.484375 415.238281 315.558594 414.3125 315.558594 413.171875 Z M 315.558594 413.171875 " transform="matrix(1,0,0,-1,-222,466)"/>
<path style="fill-rule:nonzero;fill:rgb(65%,80.3%,88.6%);fill-opacity:1;stroke-width:0.827;stroke-linecap:butt;stroke-linejoin:miter;stroke:rgb(0%,0%,0%);stroke-opacity:1;stroke-miterlimit:10;" d="M 308.203125 418.554688 C 308.203125 417.414063 309.128906 416.488281 310.269531 416.488281 C 311.410156 416.488281 312.335938 417.414063 312.335938 418.554688 C 312.335938 419.699219 311.410156 420.621094 310.269531 420.621094 C 309.128906 420.621094 308.203125 419.699219 308.203125 418.554688 Z M 308.203125 418.554688 " transform="matrix(1,0,0,-1,-222,466)"/>
<path style="fill-rule:nonzero;fill:rgb(65%,80.3%,88.6%);fill-opacity:1;stroke-width:0.827;stroke-linecap:butt;stroke-linejoin:miter;stroke:rgb(0%,0%,0%);stroke-opacity:1;stroke-miterlimit:10;" d="M 294.402344 426.777344 C 294.402344 425.632813 295.328125 424.707031 296.472656 424.707031 C 297.613281 424.707031 298.539063 425.632813 298.539063 426.777344 C 298.539063 427.917969 297.613281 428.84375 296.472656 428.84375 C 295.328125 428.84375 294.402344 427.917969 294.402344 426.777344 Z M 294.402344 426.777344 " transform="matrix(1,0,0,-1,-222,466)"/>
<path style="fill-rule:nonzero;fill:rgb(65%,80.3%,88.6%);fill-opacity:1;stroke-width:0.827;stroke-linecap:butt;stroke-linejoin:miter;stroke:rgb(0%,0%,0%);stroke-opacity:1;stroke-miterlimit:10;" d="M 336.953125 424.851563 C 336.953125 423.710938 337.875 422.785156 339.019531 422.785156 C 340.160156 422.785156 341.085938 423.710938 341.085938 424.851563 C 341.085938 425.996094 340.160156 426.921875 339.019531 426.921875 C 337.875 426.921875 336.953125 425.996094 336.953125 424.851563 Z M 336.953125 424.851563 " transform="matrix(1,0,0,-1,-222,466)"/>
<path style="fill-rule:nonzero;fill:rgb(65%,80.3%,88.6%);fill-opacity:1;stroke-width:0.827;stroke-linecap:butt;stroke-linejoin:miter;stroke:rgb(0%,0%,0%);stroke-opacity:1;stroke-miterlimit:10;" d="M 340.675781 439.25 C 340.675781 438.105469 341.601563 437.179688 342.746094 437.179688 C 343.886719 437.179688 344.8125 438.105469 344.8125 439.25 C 344.8125 440.390625 343.886719 441.316406 342.746094 441.316406 C 341.601563 441.316406 340.675781 440.390625 340.675781 439.25 Z M 340.675781 439.25 " transform="matrix(1,0,0,-1,-222,466)"/>
<path style="fill-rule:nonzero;fill:rgb(65%,80.3%,88.6%);fill-opacity:1;stroke-width:0.827;stroke-linecap:butt;stroke-linejoin:miter;stroke:rgb(0%,0%,0%);stroke-opacity:1;stroke-miterlimit:10;" d="M 363.082031 442.375 C 363.082031 441.230469 364.007813 440.304688 365.148438 440.304688 C 366.289063 440.304688 367.21875 441.230469 367.21875 442.375 C 367.21875 443.515625 366.289063 444.441406 365.148438 444.441406 C 364.007813 444.441406 363.082031 443.515625 363.082031 442.375 Z M 363.082031 442.375 " transform="matrix(1,0,0,-1,-222,466)"/>
<path style="fill-rule:nonzero;fill:rgb(65%,80.3%,88.6%);fill-opacity:1;stroke-width:0.827;stroke-linecap:butt;stroke-linejoin:miter;stroke:rgb(0%,0%,0%);stroke-opacity:1;stroke-miterlimit:10;" d="M 328.285156 456.15625 C 328.285156 455.011719 329.210938 454.085938 330.355469 454.085938 C 331.496094 454.085938 332.421875 455.011719 332.421875 456.15625 C 332.421875 457.296875 331.496094 458.222656 330.355469 458.222656 C 329.210938 458.222656 328.285156 457.296875 328.285156 456.15625 Z M 328.285156 456.15625 " transform="matrix(1,0,0,-1,-222,466)"/>
<path style="fill-rule:nonzero;fill:rgb(65%,80.3%,88.6%);fill-opacity:1;stroke-width:0.827;stroke-linecap:butt;stroke-linejoin:miter;stroke:rgb(0%,0%,0%);stroke-opacity:1;stroke-miterlimit:10;" d="M 427.96875 402.5 C 427.96875 401.355469 428.894531 400.429688 430.039063 400.429688 C 431.179688 400.429688 432.105469 401.355469 432.105469 402.5 C 432.105469 403.640625 431.179688 404.566406 430.039063 404.566406 C 428.894531 404.566406 427.96875 403.640625 427.96875 402.5 Z M 427.96875 402.5 " transform="matrix(1,0,0,-1,-222,466)"/>
<path style="fill-rule:nonzero;fill:rgb(65%,80.3%,88.6%);fill-opacity:1;stroke-width:0.827;stroke-linecap:butt;stroke-linejoin:miter;stroke:rgb(0%,0%,0%);stroke-opacity:1;stroke-miterlimit:10;" d="M 434.253906 422.011719 C 434.253906 420.871094 435.179688 419.945313 436.324219 419.945313 C 437.464844 419.945313 438.390625 420.871094 438.390625 422.011719 C 438.390625 423.15625 437.464844 424.082031 436.324219 424.082031 C 435.179688 424.082031 434.253906 423.15625 434.253906 422.011719 Z M 434.253906 422.011719 " transform="matrix(1,0,0,-1,-222,466)"/>
<path style="fill-rule:nonzero;fill:rgb(65%,80.3%,88.6%);fill-opacity:1;stroke-width:0.827;stroke-linecap:butt;stroke-linejoin:miter;stroke:rgb(0%,0%,0%);stroke-opacity:1;stroke-miterlimit:10;" d="M 441.949219 431.351563 C 441.949219 430.210938 442.875 429.285156 444.019531 429.285156 C 445.160156 429.285156 446.085938 430.210938 446.085938 431.351563 C 446.085938 432.496094 445.160156 433.421875 444.019531 433.421875 C 442.875 433.421875 441.949219 432.496094 441.949219 431.351563 Z M 441.949219 431.351563 " transform="matrix(1,0,0,-1,-222,466)"/>
<path style="fill-rule:nonzero;fill:rgb(65%,80.3%,88.6%);fill-opacity:1;stroke-width:0.827;stroke-linecap:butt;stroke-linejoin:miter;stroke:rgb(0%,0%,0%);stroke-opacity:1;stroke-miterlimit:10;" d="M 429.167969 452.210938 C 429.167969 451.070313 430.09375 450.144531 431.238281 450.144531 C 432.378906 450.144531 433.304688 451.070313 433.304688 452.210938 C 433.304688 453.355469 432.378906 454.28125 431.238281 454.28125 C 430.09375 454.28125 429.167969 453.355469 429.167969 452.210938 Z M 429.167969 452.210938 " transform="matrix(1,0,0,-1,-222,466)"/>
<path style="fill-rule:nonzero;fill:rgb(65%,80.3%,88.6%);fill-opacity:1;stroke-width:0.827;stroke-linecap:butt;stroke-linejoin:miter;stroke:rgb(0%,0%,0%);stroke-opacity:1;stroke-miterlimit:10;" d="M 460.21875 451.316406 C 460.21875 450.171875 461.144531 449.246094 462.285156 449.246094 C 463.429688 449.246094 464.355469 450.171875 464.355469 451.316406 C 464.355469 452.457031 463.429688 453.382813 462.285156 453.382813 C 461.144531 453.382813 460.21875 452.457031 460.21875 451.316406 Z M 460.21875 451.316406 " transform="matrix(1,0,0,-1,-222,466)"/>
<path style="fill-rule:nonzero;fill:rgb(65%,80.3%,88.6%);fill-opacity:1;stroke-width:0.827;stroke-linecap:butt;stroke-linejoin:miter;stroke:rgb(0%,0%,0%);stroke-opacity:1;stroke-miterlimit:10;" d="M 304.066406 334.109375 C 304.066406 332.96875 304.992188 332.042969 306.132813 332.042969 C 307.273438 332.042969 308.203125 332.96875 308.203125 334.109375 C 308.203125 335.253906 307.273438 336.175781 306.132813 336.175781 C 304.992188 336.175781 304.066406 335.253906 304.066406 334.109375 Z M 304.066406 334.109375 " transform="matrix(1,0,0,-1,-222,466)"/>
<path style="fill-rule:nonzero;fill:rgb(65%,80.3%,88.6%);fill-opacity:1;stroke-width:0.827;stroke-linecap:butt;stroke-linejoin:miter;stroke:rgb(0%,0%,0%);stroke-opacity:1;stroke-miterlimit:10;" d="M 278.59375 341.367188 C 278.59375 340.226563 279.519531 339.300781 280.660156 339.300781 C 281.800781 339.300781 282.726563 340.226563 282.726563 341.367188 C 282.726563 342.511719 281.800781 343.433594 280.660156 343.433594 C 279.519531 343.433594 278.59375 342.511719 278.59375 341.367188 Z M 278.59375 341.367188 " transform="matrix(1,0,0,-1,-222,466)"/>
<path style="fill-rule:nonzero;fill:rgb(65%,80.3%,88.6%);fill-opacity:1;stroke-width:0.827;stroke-linecap:butt;stroke-linejoin:miter;stroke:rgb(0%,0%,0%);stroke-opacity:1;stroke-miterlimit:10;" d="M 253.394531 344.515625 C 253.394531 343.375 254.320313 342.449219 255.460938 342.449219 C 256.605469 342.449219 257.53125 343.375 257.53125 344.515625 C 257.53125 345.660156 256.605469 346.585938 255.460938 346.585938 C 254.320313 346.585938 253.394531 345.660156 253.394531 344.515625 Z M 253.394531 344.515625 " transform="matrix(1,0,0,-1,-222,466)"/>
<path style="fill-rule:nonzero;fill:rgb(65%,80.3%,88.6%);fill-opacity:1;stroke-width:0.827;stroke-linecap:butt;stroke-linejoin:miter;stroke:rgb(0%,0%,0%);stroke-opacity:1;stroke-miterlimit:10;" d="M 230.25 342.738281 C 230.25 341.59375 231.175781 340.667969 232.316406 340.667969 C 233.457031 340.667969 234.386719 341.59375 234.386719 342.738281 C 234.386719 343.878906 233.457031 344.804688 232.316406 344.804688 C 231.175781 344.804688 230.25 343.878906 230.25 342.738281 Z M 230.25 342.738281 " transform="matrix(1,0,0,-1,-222,466)"/>
<path style="fill-rule:nonzero;fill:rgb(65%,80.3%,88.6%);fill-opacity:1;stroke-width:0.827;stroke-linecap:butt;stroke-linejoin:miter;stroke:rgb(0%,0%,0%);stroke-opacity:1;stroke-miterlimit:10;" d="M 439.746094 347.070313 C 439.746094 345.925781 440.675781 345 441.816406 345 C 442.957031 345 443.882813 345.925781 443.882813 347.070313 C 443.882813 348.210938 442.957031 349.136719 441.816406 349.136719 C 440.675781 349.136719 439.746094 348.210938 439.746094 347.070313 Z M 439.746094 347.070313 " transform="matrix(1,0,0,-1,-222,466)"/>
<path style="fill-rule:nonzero;fill:rgb(69.4%,87%,53.7%);fill-opacity:1;stroke-width:0.827;stroke-linecap:butt;stroke-linejoin:miter;stroke:rgb(0%,0%,0%);stroke-opacity:1;stroke-miterlimit:10;" d="M 362.683594 340.410156 C 362.683594 339.269531 363.609375 338.34375 364.753906 338.34375 C 365.894531 338.34375 366.820313 339.269531 366.820313 340.410156 C 366.820313 341.554688 365.894531 342.476563 364.753906 342.476563 C 363.609375 342.476563 362.683594 341.554688 362.683594 340.410156 Z M 362.683594 340.410156 " transform="matrix(1,0,0,-1,-222,466)"/>
<path style="fill-rule:nonzero;fill:rgb(69.4%,87%,53.7%);fill-opacity:1;stroke-width:0.827;stroke-linecap:butt;stroke-linejoin:miter;stroke:rgb(0%,0%,0%);stroke-opacity:1;stroke-miterlimit:10;" d="M 334.039063 325.820313 C 334.039063 324.679688 334.964844 323.753906 336.109375 323.753906 C 337.25 323.753906 338.175781 324.679688 338.175781 325.820313 C 338.175781 326.964844 337.25 327.886719 336.109375 327.886719 C 334.964844 327.886719 334.039063 326.964844 334.039063 325.820313 Z M 334.039063 325.820313 " transform="matrix(1,0,0,-1,-222,466)"/>
<path style="fill-rule:nonzero;fill:rgb(69.4%,87%,53.7%);fill-opacity:1;stroke-width:0.827;stroke-linecap:butt;stroke-linejoin:miter;stroke:rgb(0%,0%,0%);stroke-opacity:1;stroke-miterlimit:10;" d="M 291.695313 322.617188 C 291.695313 321.476563 292.621094 320.550781 293.761719 320.550781 C 294.90625 320.550781 295.832031 321.476563 295.832031 322.617188 C 295.832031 323.761719 294.90625 324.6875 293.761719 324.6875 C 292.621094 324.6875 291.695313 323.761719 291.695313 322.617188 Z M 291.695313 322.617188 " transform="matrix(1,0,0,-1,-222,466)"/>
</g>
</svg>
